%TF.GenerationSoftware,KiCad,Pcbnew,8.0.6*%
%TF.CreationDate,2024-11-11T09:30:46-05:00*%
%TF.ProjectId,VanguardFlightComputer,56616e67-7561-4726-9446-6c6967687443,rev?*%
%TF.SameCoordinates,Original*%
%TF.FileFunction,Paste,Top*%
%TF.FilePolarity,Positive*%
%FSLAX46Y46*%
G04 Gerber Fmt 4.6, Leading zero omitted, Abs format (unit mm)*
G04 Created by KiCad (PCBNEW 8.0.6) date 2024-11-11 09:30:46*
%MOMM*%
%LPD*%
G01*
G04 APERTURE LIST*
G04 Aperture macros list*
%AMRoundRect*
0 Rectangle with rounded corners*
0 $1 Rounding radius*
0 $2 $3 $4 $5 $6 $7 $8 $9 X,Y pos of 4 corners*
0 Add a 4 corners polygon primitive as box body*
4,1,4,$2,$3,$4,$5,$6,$7,$8,$9,$2,$3,0*
0 Add four circle primitives for the rounded corners*
1,1,$1+$1,$2,$3*
1,1,$1+$1,$4,$5*
1,1,$1+$1,$6,$7*
1,1,$1+$1,$8,$9*
0 Add four rect primitives between the rounded corners*
20,1,$1+$1,$2,$3,$4,$5,0*
20,1,$1+$1,$4,$5,$6,$7,0*
20,1,$1+$1,$6,$7,$8,$9,0*
20,1,$1+$1,$8,$9,$2,$3,0*%
G04 Aperture macros list end*
%ADD10R,0.650000X1.050000*%
%ADD11RoundRect,0.140000X-0.170000X0.140000X-0.170000X-0.140000X0.170000X-0.140000X0.170000X0.140000X0*%
%ADD12RoundRect,0.140000X0.140000X0.170000X-0.140000X0.170000X-0.140000X-0.170000X0.140000X-0.170000X0*%
%ADD13RoundRect,0.135000X-0.185000X0.135000X-0.185000X-0.135000X0.185000X-0.135000X0.185000X0.135000X0*%
%ADD14R,0.900000X1.000000*%
%ADD15RoundRect,0.140000X-0.140000X-0.170000X0.140000X-0.170000X0.140000X0.170000X-0.140000X0.170000X0*%
%ADD16RoundRect,0.225000X0.250000X-0.225000X0.250000X0.225000X-0.250000X0.225000X-0.250000X-0.225000X0*%
%ADD17RoundRect,0.225000X-0.250000X0.225000X-0.250000X-0.225000X0.250000X-0.225000X0.250000X0.225000X0*%
%ADD18RoundRect,0.135000X0.135000X0.185000X-0.135000X0.185000X-0.135000X-0.185000X0.135000X-0.185000X0*%
%ADD19RoundRect,0.140000X0.170000X-0.140000X0.170000X0.140000X-0.170000X0.140000X-0.170000X-0.140000X0*%
%ADD20RoundRect,0.093750X-0.156250X-0.093750X0.156250X-0.093750X0.156250X0.093750X-0.156250X0.093750X0*%
%ADD21RoundRect,0.075000X-0.250000X-0.075000X0.250000X-0.075000X0.250000X0.075000X-0.250000X0.075000X0*%
%ADD22R,0.350000X0.375000*%
%ADD23R,0.375000X0.350000*%
%ADD24R,0.700000X0.300000*%
%ADD25R,0.700000X1.000000*%
%ADD26RoundRect,0.225000X0.225000X0.250000X-0.225000X0.250000X-0.225000X-0.250000X0.225000X-0.250000X0*%
%ADD27RoundRect,0.087500X-0.125000X-0.087500X0.125000X-0.087500X0.125000X0.087500X-0.125000X0.087500X0*%
%ADD28RoundRect,0.087500X-0.087500X-0.125000X0.087500X-0.125000X0.087500X0.125000X-0.087500X0.125000X0*%
%ADD29RoundRect,0.218750X0.218750X0.256250X-0.218750X0.256250X-0.218750X-0.256250X0.218750X-0.256250X0*%
%ADD30RoundRect,0.375000X-0.625000X-0.375000X0.625000X-0.375000X0.625000X0.375000X-0.625000X0.375000X0*%
%ADD31RoundRect,0.500000X-0.500000X-1.400000X0.500000X-1.400000X0.500000X1.400000X-0.500000X1.400000X0*%
%ADD32RoundRect,0.075000X-0.725000X-0.075000X0.725000X-0.075000X0.725000X0.075000X-0.725000X0.075000X0*%
%ADD33RoundRect,0.075000X-0.075000X-0.725000X0.075000X-0.725000X0.075000X0.725000X-0.075000X0.725000X0*%
%ADD34RoundRect,0.135000X0.185000X-0.135000X0.185000X0.135000X-0.185000X0.135000X-0.185000X-0.135000X0*%
%ADD35R,0.400000X0.800000*%
%ADD36R,2.500000X1.750000*%
%ADD37RoundRect,0.200000X-0.275000X0.200000X-0.275000X-0.200000X0.275000X-0.200000X0.275000X0.200000X0*%
%ADD38R,0.250000X0.475000*%
%ADD39R,0.475000X0.250000*%
%ADD40RoundRect,0.135000X-0.135000X-0.185000X0.135000X-0.185000X0.135000X0.185000X-0.135000X0.185000X0*%
%ADD41RoundRect,0.147500X-0.172500X0.147500X-0.172500X-0.147500X0.172500X-0.147500X0.172500X0.147500X0*%
G04 APERTURE END LIST*
D10*
%TO.C,SW1*%
X101325000Y-106475000D03*
X101325000Y-102325000D03*
X103475000Y-106475000D03*
X103475000Y-102325000D03*
%TD*%
D11*
%TO.C,C5*%
X121438400Y-79969329D03*
X121438400Y-80929329D03*
%TD*%
%TO.C,C21*%
X138600000Y-105520000D03*
X138600000Y-106480000D03*
%TD*%
D12*
%TO.C,C8*%
X120400000Y-80000000D03*
X119440000Y-80000000D03*
%TD*%
D11*
%TO.C,C18*%
X114600000Y-90420000D03*
X114600000Y-91380000D03*
%TD*%
D13*
%TO.C,R10*%
X141800000Y-83490000D03*
X141800000Y-84510000D03*
%TD*%
D14*
%TO.C,Y2*%
X116787000Y-91375000D03*
X116787000Y-93025000D03*
X118013000Y-93025000D03*
X118013000Y-91375000D03*
%TD*%
D15*
%TO.C,C13*%
X108020000Y-90250000D03*
X108980000Y-90250000D03*
%TD*%
D16*
%TO.C,C10*%
X95850000Y-95475000D03*
X95850000Y-93925000D03*
%TD*%
D12*
%TO.C,C30*%
X103480000Y-100800000D03*
X102520000Y-100800000D03*
%TD*%
D17*
%TO.C,C9*%
X96000000Y-97800000D03*
X96000000Y-99350000D03*
%TD*%
D12*
%TO.C,C25*%
X124418379Y-104743433D03*
X125378379Y-104743433D03*
%TD*%
D11*
%TO.C,C4*%
X122361017Y-79968433D03*
X122361017Y-80928433D03*
%TD*%
D18*
%TO.C,R8*%
X99310000Y-100800000D03*
X98290000Y-100800000D03*
%TD*%
D13*
%TO.C,R9*%
X141800000Y-86090000D03*
X141800000Y-87110000D03*
%TD*%
D19*
%TO.C,C20*%
X138600000Y-104480000D03*
X138600000Y-103520000D03*
%TD*%
D20*
%TO.C,U3*%
X101800000Y-86000000D03*
D21*
X101725000Y-86537500D03*
D20*
X101800000Y-87075000D03*
X103500000Y-87075000D03*
D21*
X103575000Y-86537500D03*
D20*
X103500000Y-86000000D03*
%TD*%
D22*
%TO.C,U4*%
X128000000Y-105025000D03*
X128500000Y-105025000D03*
X129000000Y-105025000D03*
X129500000Y-105025000D03*
D23*
X129512500Y-104512500D03*
X129512500Y-104012500D03*
D22*
X129500000Y-103500000D03*
X129000000Y-103500000D03*
X128500000Y-103500000D03*
X128000000Y-103500000D03*
D23*
X127987500Y-104012500D03*
X127987500Y-104512500D03*
%TD*%
D15*
%TO.C,C15*%
X137865000Y-82800000D03*
X138825000Y-82800000D03*
%TD*%
%TO.C,C1*%
X120920000Y-98000000D03*
X121880000Y-98000000D03*
%TD*%
D12*
%TO.C,C26*%
X125618379Y-103543433D03*
X126578379Y-103543433D03*
%TD*%
D11*
%TO.C,C24*%
X126500000Y-105550000D03*
X126500000Y-104590000D03*
%TD*%
D24*
%TO.C,J1*%
X97544052Y-83500000D03*
X97544052Y-84000000D03*
X97544052Y-84500000D03*
X97544052Y-85000000D03*
X97544052Y-85500000D03*
X97544052Y-86000000D03*
X97544052Y-87000000D03*
X97544052Y-87500000D03*
X97544052Y-88000000D03*
X97544052Y-88500000D03*
X97544052Y-89000000D03*
X97544052Y-89500000D03*
D25*
X96244052Y-89600000D03*
D24*
X96244052Y-88750000D03*
X96244052Y-88250000D03*
X96244052Y-87750000D03*
X96244052Y-87250000D03*
X96244052Y-86750000D03*
X96244052Y-86250000D03*
X96244052Y-85750000D03*
X96244052Y-85250000D03*
X96244052Y-84750000D03*
X96244052Y-84250000D03*
D25*
X96244052Y-83400000D03*
%TD*%
D15*
%TO.C,C2*%
X120920000Y-99200000D03*
X121880000Y-99200000D03*
%TD*%
D26*
%TO.C,FB1*%
X122975000Y-100600000D03*
X121425000Y-100600000D03*
%TD*%
D27*
%TO.C,U5*%
X132037500Y-78837500D03*
X132037500Y-79337500D03*
D28*
X132300000Y-79850000D03*
X132800000Y-79850000D03*
X133300000Y-79850000D03*
D27*
X133562500Y-79337500D03*
X133562500Y-78837500D03*
D28*
X133300000Y-78325000D03*
X132800000Y-78325000D03*
X132300000Y-78325000D03*
%TD*%
D29*
%TO.C,D3*%
X115787500Y-78000000D03*
X114212500Y-78000000D03*
%TD*%
D30*
%TO.C,U2*%
X98300000Y-93300000D03*
X98300000Y-95600000D03*
D31*
X104600000Y-95600000D03*
D30*
X98300000Y-97900000D03*
%TD*%
D15*
%TO.C,C27*%
X132320000Y-77050000D03*
X133280000Y-77050000D03*
%TD*%
%TO.C,C11*%
X107120000Y-84200000D03*
X108080000Y-84200000D03*
%TD*%
%TO.C,C12*%
X109520000Y-84000000D03*
X110480000Y-84000000D03*
%TD*%
D12*
%TO.C,C6*%
X120400000Y-80990074D03*
X119440000Y-80990074D03*
%TD*%
D32*
%TO.C,U6*%
X122923863Y-85000000D03*
X122923863Y-85500000D03*
X122923863Y-86000000D03*
X122923863Y-86500000D03*
X122923863Y-87000000D03*
X122923863Y-87500000D03*
X122923863Y-88000000D03*
X122923863Y-88500000D03*
X122923863Y-89000000D03*
X122923863Y-89500000D03*
X122923863Y-90000000D03*
X122923863Y-90500000D03*
X122923863Y-91000000D03*
X122923863Y-91500000D03*
X122923863Y-92000000D03*
X122923863Y-92500000D03*
X122923863Y-93000000D03*
X122923863Y-93500000D03*
X122923863Y-94000000D03*
X122923863Y-94500000D03*
X122923863Y-95000000D03*
X122923863Y-95500000D03*
X122923863Y-96000000D03*
X122923863Y-96500000D03*
X122923863Y-97000000D03*
D33*
X124598863Y-98675000D03*
X125098863Y-98675000D03*
X125598863Y-98675000D03*
X126098863Y-98675000D03*
X126598863Y-98675000D03*
X127098863Y-98675000D03*
X127598863Y-98675000D03*
X128098863Y-98675000D03*
X128598863Y-98675000D03*
X129098863Y-98675000D03*
X129598863Y-98675000D03*
X130098863Y-98675000D03*
X130598863Y-98675000D03*
X131098863Y-98675000D03*
X131598863Y-98675000D03*
X132098863Y-98675000D03*
X132598863Y-98675000D03*
X133098863Y-98675000D03*
X133598863Y-98675000D03*
X134098863Y-98675000D03*
X134598863Y-98675000D03*
X135098863Y-98675000D03*
X135598863Y-98675000D03*
X136098863Y-98675000D03*
X136598863Y-98675000D03*
D32*
X138273863Y-97000000D03*
X138273863Y-96500000D03*
X138273863Y-96000000D03*
X138273863Y-95500000D03*
X138273863Y-95000000D03*
X138273863Y-94500000D03*
X138273863Y-94000000D03*
X138273863Y-93500000D03*
X138273863Y-93000000D03*
X138273863Y-92500000D03*
X138273863Y-92000000D03*
X138273863Y-91500000D03*
X138273863Y-91000000D03*
X138273863Y-90500000D03*
X138273863Y-90000000D03*
X138273863Y-89500000D03*
X138273863Y-89000000D03*
X138273863Y-88500000D03*
X138273863Y-88000000D03*
X138273863Y-87500000D03*
X138273863Y-87000000D03*
X138273863Y-86500000D03*
X138273863Y-86000000D03*
X138273863Y-85500000D03*
X138273863Y-85000000D03*
D33*
X136598863Y-83325000D03*
X136098863Y-83325000D03*
X135598863Y-83325000D03*
X135098863Y-83325000D03*
X134598863Y-83325000D03*
X134098863Y-83325000D03*
X133598863Y-83325000D03*
X133098863Y-83325000D03*
X132598863Y-83325000D03*
X132098863Y-83325000D03*
X131598863Y-83325000D03*
X131098863Y-83325000D03*
X130598863Y-83325000D03*
X130098863Y-83325000D03*
X129598863Y-83325000D03*
X129098863Y-83325000D03*
X128598863Y-83325000D03*
X128098863Y-83325000D03*
X127598863Y-83325000D03*
X127098863Y-83325000D03*
X126598863Y-83325000D03*
X126098863Y-83325000D03*
X125598863Y-83325000D03*
X125098863Y-83325000D03*
X124598863Y-83325000D03*
%TD*%
D34*
%TO.C,R11*%
X111500000Y-79010000D03*
X111500000Y-77990000D03*
%TD*%
D35*
%TO.C,IC1*%
X108050000Y-88500000D03*
X109000000Y-88500000D03*
X109950000Y-88500000D03*
X109950000Y-85500000D03*
X109000000Y-85500000D03*
X108050000Y-85500000D03*
D36*
X109000000Y-87000000D03*
%TD*%
D12*
%TO.C,C7*%
X120400000Y-82000000D03*
X119440000Y-82000000D03*
%TD*%
D19*
%TO.C,C23*%
X131500000Y-103020000D03*
X131500000Y-103980000D03*
%TD*%
D37*
%TO.C,R1*%
X106384585Y-86926910D03*
X106384585Y-88576910D03*
%TD*%
D10*
%TO.C,SW2*%
X99275000Y-102325000D03*
X99275000Y-106475000D03*
X97125000Y-102325000D03*
X97125000Y-106475000D03*
%TD*%
D11*
%TO.C,C22*%
X139800000Y-105520000D03*
X139800000Y-106480000D03*
%TD*%
%TO.C,C19*%
X114600000Y-92720000D03*
X114600000Y-93680000D03*
%TD*%
%TO.C,C3*%
X123361017Y-79968433D03*
X123361017Y-80928433D03*
%TD*%
D38*
%TO.C,IC2*%
X134850000Y-105163000D03*
X135350000Y-105163000D03*
X135850000Y-105163000D03*
X136350000Y-105163000D03*
D39*
X136512000Y-104500000D03*
X136512000Y-104000000D03*
X136512000Y-103500000D03*
D38*
X136350000Y-102837000D03*
X135850000Y-102837000D03*
X135350000Y-102837000D03*
X134850000Y-102837000D03*
D39*
X134688000Y-103500000D03*
X134688000Y-104000000D03*
X134688000Y-104500000D03*
%TD*%
D15*
%TO.C,C14*%
X137865000Y-81600000D03*
X138825000Y-81600000D03*
%TD*%
D40*
%TO.C,R2*%
X129290000Y-80200000D03*
X130310000Y-80200000D03*
%TD*%
D41*
%TO.C,D1*%
X105000000Y-85515000D03*
X105000000Y-86485000D03*
%TD*%
D13*
%TO.C,R3*%
X134800000Y-79890000D03*
X134800000Y-80910000D03*
%TD*%
M02*
