%TF.GenerationSoftware,KiCad,Pcbnew,8.0.6*%
%TF.CreationDate,2024-11-11T09:30:46-05:00*%
%TF.ProjectId,VanguardFlightComputer,56616e67-7561-4726-9446-6c6967687443,rev?*%
%TF.SameCoordinates,Original*%
%TF.FileFunction,Legend,Top*%
%TF.FilePolarity,Positive*%
%FSLAX46Y46*%
G04 Gerber Fmt 4.6, Leading zero omitted, Abs format (unit mm)*
G04 Created by KiCad (PCBNEW 8.0.6) date 2024-11-11 09:30:46*
%MOMM*%
%LPD*%
G01*
G04 APERTURE LIST*
G04 Aperture macros list*
%AMRoundRect*
0 Rectangle with rounded corners*
0 $1 Rounding radius*
0 $2 $3 $4 $5 $6 $7 $8 $9 X,Y pos of 4 corners*
0 Add a 4 corners polygon primitive as box body*
4,1,4,$2,$3,$4,$5,$6,$7,$8,$9,$2,$3,0*
0 Add four circle primitives for the rounded corners*
1,1,$1+$1,$2,$3*
1,1,$1+$1,$4,$5*
1,1,$1+$1,$6,$7*
1,1,$1+$1,$8,$9*
0 Add four rect primitives between the rounded corners*
20,1,$1+$1,$2,$3,$4,$5,0*
20,1,$1+$1,$4,$5,$6,$7,0*
20,1,$1+$1,$6,$7,$8,$9,0*
20,1,$1+$1,$8,$9,$2,$3,0*%
G04 Aperture macros list end*
%ADD10C,0.100000*%
%ADD11C,0.250000*%
%ADD12C,0.200000*%
%ADD13C,0.120000*%
%ADD14R,0.650000X1.050000*%
%ADD15RoundRect,0.140000X-0.170000X0.140000X-0.170000X-0.140000X0.170000X-0.140000X0.170000X0.140000X0*%
%ADD16RoundRect,0.140000X0.140000X0.170000X-0.140000X0.170000X-0.140000X-0.170000X0.140000X-0.170000X0*%
%ADD17RoundRect,0.135000X-0.185000X0.135000X-0.185000X-0.135000X0.185000X-0.135000X0.185000X0.135000X0*%
%ADD18C,2.600000*%
%ADD19C,3.800000*%
%ADD20R,0.900000X1.000000*%
%ADD21R,1.700000X1.700000*%
%ADD22O,1.700000X1.700000*%
%ADD23RoundRect,0.140000X-0.140000X-0.170000X0.140000X-0.170000X0.140000X0.170000X-0.140000X0.170000X0*%
%ADD24RoundRect,0.225000X0.250000X-0.225000X0.250000X0.225000X-0.250000X0.225000X-0.250000X-0.225000X0*%
%ADD25RoundRect,0.225000X-0.250000X0.225000X-0.250000X-0.225000X0.250000X-0.225000X0.250000X0.225000X0*%
%ADD26RoundRect,0.135000X0.135000X0.185000X-0.135000X0.185000X-0.135000X-0.185000X0.135000X-0.185000X0*%
%ADD27RoundRect,0.140000X0.170000X-0.140000X0.170000X0.140000X-0.170000X0.140000X-0.170000X-0.140000X0*%
%ADD28RoundRect,0.093750X-0.156250X-0.093750X0.156250X-0.093750X0.156250X0.093750X-0.156250X0.093750X0*%
%ADD29RoundRect,0.075000X-0.250000X-0.075000X0.250000X-0.075000X0.250000X0.075000X-0.250000X0.075000X0*%
%ADD30R,0.350000X0.375000*%
%ADD31R,0.375000X0.350000*%
%ADD32R,0.700000X0.300000*%
%ADD33R,0.700000X1.000000*%
%ADD34O,2.100000X1.100000*%
%ADD35O,2.600000X1.100000*%
%ADD36RoundRect,0.225000X0.225000X0.250000X-0.225000X0.250000X-0.225000X-0.250000X0.225000X-0.250000X0*%
%ADD37RoundRect,0.087500X-0.125000X-0.087500X0.125000X-0.087500X0.125000X0.087500X-0.125000X0.087500X0*%
%ADD38RoundRect,0.087500X-0.087500X-0.125000X0.087500X-0.125000X0.087500X0.125000X-0.087500X0.125000X0*%
%ADD39RoundRect,0.218750X0.218750X0.256250X-0.218750X0.256250X-0.218750X-0.256250X0.218750X-0.256250X0*%
%ADD40RoundRect,0.375000X-0.625000X-0.375000X0.625000X-0.375000X0.625000X0.375000X-0.625000X0.375000X0*%
%ADD41RoundRect,0.500000X-0.500000X-1.400000X0.500000X-1.400000X0.500000X1.400000X-0.500000X1.400000X0*%
%ADD42RoundRect,0.075000X-0.725000X-0.075000X0.725000X-0.075000X0.725000X0.075000X-0.725000X0.075000X0*%
%ADD43RoundRect,0.075000X-0.075000X-0.725000X0.075000X-0.725000X0.075000X0.725000X-0.075000X0.725000X0*%
%ADD44RoundRect,0.135000X0.185000X-0.135000X0.185000X0.135000X-0.185000X0.135000X-0.185000X-0.135000X0*%
%ADD45R,0.400000X0.800000*%
%ADD46R,2.500000X1.750000*%
%ADD47RoundRect,0.200000X-0.275000X0.200000X-0.275000X-0.200000X0.275000X-0.200000X0.275000X0.200000X0*%
%ADD48R,0.250000X0.475000*%
%ADD49R,0.475000X0.250000*%
%ADD50RoundRect,0.135000X-0.135000X-0.185000X0.135000X-0.185000X0.135000X0.185000X-0.135000X0.185000X0*%
%ADD51RoundRect,0.147500X-0.172500X0.147500X-0.172500X-0.147500X0.172500X-0.147500X0.172500X0.147500X0*%
G04 APERTURE END LIST*
D10*
X140544370Y-99966864D02*
X140944370Y-99566864D01*
X138944370Y-101566864D02*
X139344370Y-101166864D01*
X138944370Y-101566864D02*
X139344370Y-101966864D01*
X140944370Y-101566864D02*
X140944370Y-99566864D01*
X140944370Y-101566864D02*
X138944370Y-101566864D01*
X140944370Y-99566864D02*
X141344370Y-99966864D01*
X141391584Y-101566864D02*
G75*
G02*
X140497156Y-101566864I-447214J0D01*
G01*
X140497156Y-101566864D02*
G75*
G02*
X141391584Y-101566864I447214J0D01*
G01*
D11*
X141069370Y-101566864D02*
G75*
G02*
X140819370Y-101566864I-125000J0D01*
G01*
X140819370Y-101566864D02*
G75*
G02*
X141069370Y-101566864I125000J0D01*
G01*
G36*
X127816399Y-79283105D02*
G01*
X127786357Y-79321695D01*
X127758757Y-79330000D01*
X127711821Y-79313544D01*
X127706734Y-79308506D01*
X127688740Y-79262748D01*
X127687194Y-79236943D01*
X127687194Y-79142421D01*
X127694083Y-79092630D01*
X127706734Y-79070369D01*
X127750652Y-79048971D01*
X127758513Y-79048632D01*
X127800279Y-79061088D01*
X127825924Y-79102854D01*
X127844487Y-79142665D01*
X127886571Y-79170886D01*
X127915317Y-79183942D01*
X127965037Y-79199019D01*
X128015220Y-79204763D01*
X128026448Y-79204947D01*
X128076793Y-79201740D01*
X128126434Y-79190654D01*
X128173380Y-79169313D01*
X128181053Y-79164403D01*
X128215084Y-79127082D01*
X128219644Y-79103586D01*
X128201081Y-79058157D01*
X128160048Y-79030405D01*
X128140509Y-79022986D01*
X128092212Y-79010935D01*
X128040465Y-79001081D01*
X128017655Y-78997096D01*
X127963524Y-78986655D01*
X127911021Y-78973595D01*
X127863108Y-78957452D01*
X127843265Y-78948736D01*
X127799312Y-78921689D01*
X127763502Y-78886982D01*
X127749720Y-78868381D01*
X127727581Y-78824741D01*
X127716361Y-78774679D01*
X127715526Y-78756029D01*
X127722211Y-78704204D01*
X127742265Y-78656166D01*
X127771315Y-78616644D01*
X127800034Y-78588967D01*
X127845464Y-78557551D01*
X127890423Y-78537425D01*
X127940245Y-78524172D01*
X127994929Y-78517790D01*
X128019853Y-78517159D01*
X128068915Y-78520540D01*
X128117344Y-78531600D01*
X128120237Y-78532547D01*
X128167131Y-78553514D01*
X128204501Y-78579685D01*
X128235473Y-78541767D01*
X128259455Y-78532791D01*
X128306249Y-78550844D01*
X128310013Y-78554773D01*
X128328007Y-78601035D01*
X128329553Y-78627313D01*
X128329553Y-78734535D01*
X128323370Y-78783162D01*
X128310013Y-78808053D01*
X128265170Y-78829599D01*
X128259455Y-78829790D01*
X128214270Y-78814159D01*
X128192036Y-78770371D01*
X128191556Y-78768241D01*
X128174422Y-78721627D01*
X128172260Y-78718660D01*
X128133250Y-78685958D01*
X128112421Y-78675429D01*
X128063692Y-78661209D01*
X128020341Y-78657843D01*
X127967654Y-78662446D01*
X127920653Y-78677819D01*
X127899685Y-78690572D01*
X127865191Y-78726104D01*
X127855478Y-78758715D01*
X127873551Y-78805366D01*
X127914444Y-78835431D01*
X127927041Y-78840537D01*
X127975804Y-78852981D01*
X128026770Y-78863199D01*
X128058443Y-78869113D01*
X128109414Y-78879173D01*
X128159274Y-78891184D01*
X128209458Y-78906860D01*
X128224773Y-78912833D01*
X128268738Y-78936795D01*
X128306173Y-78969787D01*
X128321249Y-78988060D01*
X128346234Y-79032918D01*
X128358482Y-79084145D01*
X128359839Y-79109937D01*
X128354024Y-79162311D01*
X128336578Y-79208426D01*
X128307501Y-79248281D01*
X128286322Y-79267718D01*
X128241115Y-79298076D01*
X128190766Y-79320979D01*
X128143516Y-79334674D01*
X128092488Y-79342892D01*
X128037683Y-79345631D01*
X127987166Y-79342639D01*
X127937772Y-79333663D01*
X127923866Y-79330000D01*
X127876127Y-79313330D01*
X127829511Y-79290676D01*
X127816399Y-79283105D01*
G37*
G36*
X129068632Y-78986106D02*
G01*
X129117198Y-78994521D01*
X129134577Y-79005645D01*
X129155882Y-79050647D01*
X129156071Y-79056448D01*
X129139428Y-79102422D01*
X129134333Y-79107494D01*
X129086802Y-79125866D01*
X129068632Y-79126789D01*
X129068632Y-79189316D01*
X129117198Y-79197731D01*
X129134577Y-79208855D01*
X129155882Y-79253857D01*
X129156071Y-79259658D01*
X129139428Y-79305632D01*
X129134333Y-79310704D01*
X129088070Y-79328473D01*
X129061793Y-79330000D01*
X128872993Y-79330000D01*
X128822912Y-79323197D01*
X128800453Y-79310704D01*
X128779149Y-79265460D01*
X128778960Y-79259658D01*
X128796612Y-79212580D01*
X128800453Y-79208855D01*
X128846716Y-79190861D01*
X128872993Y-79189316D01*
X128927948Y-79189316D01*
X128927948Y-79126789D01*
X128545219Y-79126789D01*
X128545219Y-79009553D01*
X128559884Y-78986106D01*
X128724005Y-78986106D01*
X128927948Y-78986106D01*
X128927948Y-78656378D01*
X128724005Y-78986106D01*
X128559884Y-78986106D01*
X128882519Y-78470265D01*
X129068632Y-78470265D01*
X129068632Y-78986106D01*
G37*
G36*
X136016894Y-79016399D02*
G01*
X135978304Y-78986357D01*
X135970000Y-78958757D01*
X135986455Y-78911821D01*
X135991493Y-78906734D01*
X136037251Y-78888740D01*
X136063056Y-78887194D01*
X136157578Y-78887194D01*
X136207369Y-78894083D01*
X136229630Y-78906734D01*
X136251028Y-78950652D01*
X136251367Y-78958513D01*
X136238911Y-79000279D01*
X136197145Y-79025924D01*
X136157334Y-79044487D01*
X136129113Y-79086571D01*
X136116057Y-79115317D01*
X136100980Y-79165037D01*
X136095236Y-79215220D01*
X136095052Y-79226448D01*
X136098259Y-79276793D01*
X136109345Y-79326434D01*
X136130686Y-79373380D01*
X136135596Y-79381053D01*
X136172917Y-79415084D01*
X136196413Y-79419644D01*
X136241842Y-79401081D01*
X136269594Y-79360048D01*
X136277013Y-79340509D01*
X136289064Y-79292212D01*
X136298918Y-79240465D01*
X136302903Y-79217655D01*
X136313344Y-79163524D01*
X136326404Y-79111021D01*
X136342547Y-79063108D01*
X136351263Y-79043265D01*
X136378310Y-78999312D01*
X136413017Y-78963502D01*
X136431618Y-78949720D01*
X136475258Y-78927581D01*
X136525320Y-78916361D01*
X136543970Y-78915526D01*
X136595795Y-78922211D01*
X136643833Y-78942265D01*
X136683355Y-78971315D01*
X136711032Y-79000034D01*
X136742448Y-79045464D01*
X136762574Y-79090423D01*
X136775827Y-79140245D01*
X136782209Y-79194929D01*
X136782840Y-79219853D01*
X136779459Y-79268915D01*
X136768399Y-79317344D01*
X136767452Y-79320237D01*
X136746485Y-79367131D01*
X136720314Y-79404501D01*
X136758232Y-79435473D01*
X136767208Y-79459455D01*
X136749155Y-79506249D01*
X136745226Y-79510013D01*
X136698964Y-79528007D01*
X136672686Y-79529553D01*
X136565464Y-79529553D01*
X136516837Y-79523370D01*
X136491946Y-79510013D01*
X136470400Y-79465170D01*
X136470209Y-79459455D01*
X136485840Y-79414270D01*
X136529628Y-79392036D01*
X136531758Y-79391556D01*
X136578372Y-79374422D01*
X136581339Y-79372260D01*
X136614041Y-79333250D01*
X136624570Y-79312421D01*
X136638790Y-79263692D01*
X136642156Y-79220341D01*
X136637553Y-79167654D01*
X136622180Y-79120653D01*
X136609427Y-79099685D01*
X136573895Y-79065191D01*
X136541284Y-79055478D01*
X136494633Y-79073551D01*
X136464568Y-79114444D01*
X136459462Y-79127041D01*
X136447018Y-79175804D01*
X136436800Y-79226770D01*
X136430886Y-79258443D01*
X136420826Y-79309414D01*
X136408815Y-79359274D01*
X136393139Y-79409458D01*
X136387166Y-79424773D01*
X136363204Y-79468738D01*
X136330212Y-79506173D01*
X136311939Y-79521249D01*
X136267081Y-79546234D01*
X136215854Y-79558482D01*
X136190062Y-79559839D01*
X136137688Y-79554024D01*
X136091573Y-79536578D01*
X136051718Y-79507501D01*
X136032281Y-79486322D01*
X136001923Y-79441115D01*
X135979020Y-79390766D01*
X135965325Y-79343516D01*
X135957107Y-79292488D01*
X135954368Y-79237683D01*
X135957360Y-79187166D01*
X135966336Y-79137772D01*
X135970000Y-79123866D01*
X135986669Y-79076127D01*
X136009323Y-79029511D01*
X136016894Y-79016399D01*
G37*
G36*
X136743944Y-79677875D02*
G01*
X136747669Y-79681716D01*
X136765663Y-79727979D01*
X136767208Y-79754256D01*
X136766475Y-80049057D01*
X136763041Y-80100085D01*
X136752737Y-80150220D01*
X136742051Y-80183147D01*
X136722061Y-80228782D01*
X136694052Y-80272820D01*
X136680502Y-80288660D01*
X136641982Y-80323427D01*
X136602833Y-80351430D01*
X136559803Y-80376935D01*
X136514011Y-80397311D01*
X136504891Y-80400523D01*
X136454548Y-80412444D01*
X136403191Y-80416872D01*
X136385945Y-80417131D01*
X136321709Y-80417131D01*
X136270165Y-80414174D01*
X136217820Y-80404088D01*
X136170034Y-80386845D01*
X136123976Y-80361600D01*
X136084717Y-80330929D01*
X136062323Y-80307466D01*
X136032017Y-80268546D01*
X136006063Y-80226042D01*
X136000774Y-80215143D01*
X135984545Y-80168288D01*
X135975079Y-80119348D01*
X135970751Y-80070462D01*
X135970011Y-80037822D01*
X136110683Y-80037822D01*
X136113339Y-80090569D01*
X136123323Y-80140404D01*
X136133154Y-80164340D01*
X136162098Y-80207617D01*
X136199958Y-80242364D01*
X136208381Y-80247871D01*
X136253534Y-80267239D01*
X136304755Y-80275512D01*
X136326838Y-80276203D01*
X136389120Y-80276203D01*
X136440839Y-80271341D01*
X136489611Y-80255341D01*
X136498541Y-80250802D01*
X136543490Y-80222248D01*
X136580150Y-80188400D01*
X136599169Y-80161165D01*
X136617869Y-80112752D01*
X136625563Y-80063591D01*
X136626524Y-80036357D01*
X136626524Y-79888101D01*
X136110683Y-79888101D01*
X136110683Y-80037822D01*
X135970011Y-80037822D01*
X135970000Y-80037334D01*
X135970000Y-79754256D01*
X135976802Y-79704175D01*
X135989295Y-79681716D01*
X136034539Y-79660412D01*
X136040341Y-79660223D01*
X136087419Y-79677875D01*
X136091144Y-79681716D01*
X136109748Y-79729247D01*
X136110683Y-79747418D01*
X136626524Y-79747418D01*
X136634834Y-79698851D01*
X136645819Y-79681472D01*
X136691064Y-79660410D01*
X136696866Y-79660223D01*
X136743944Y-79677875D01*
G37*
G36*
X136086129Y-80466274D02*
G01*
X136091144Y-80471598D01*
X136109138Y-80519292D01*
X136110683Y-80546336D01*
X136626524Y-80767620D01*
X136626524Y-80675540D01*
X136633327Y-80625459D01*
X136645819Y-80603000D01*
X136691064Y-80581454D01*
X136696866Y-80581263D01*
X136743944Y-80599115D01*
X136747669Y-80603000D01*
X136765663Y-80649263D01*
X136767208Y-80675540D01*
X136767208Y-80979867D01*
X136110683Y-81260013D01*
X136105722Y-81308824D01*
X136097983Y-81325471D01*
X136057639Y-81354486D01*
X136040341Y-81356978D01*
X135993064Y-81339326D01*
X135989295Y-81335484D01*
X135971526Y-81289672D01*
X135970000Y-81263433D01*
X135970000Y-81073900D01*
X135976802Y-81023819D01*
X135989295Y-81001360D01*
X136034539Y-80980056D01*
X136040341Y-80979867D01*
X136087419Y-80997519D01*
X136091144Y-81001360D01*
X136109138Y-81047623D01*
X136110683Y-81073900D01*
X136110683Y-81108339D01*
X136204473Y-81074633D01*
X136204473Y-81016259D01*
X136345157Y-81016259D01*
X136587201Y-80902930D01*
X136345157Y-80788869D01*
X136345157Y-81016259D01*
X136204473Y-81016259D01*
X136204473Y-80732449D01*
X136110683Y-80698255D01*
X136110683Y-80732449D01*
X136103795Y-80782530D01*
X136091144Y-80804989D01*
X136046142Y-80826536D01*
X136040341Y-80826727D01*
X135994367Y-80810084D01*
X135989295Y-80804989D01*
X135971526Y-80758726D01*
X135970000Y-80732449D01*
X135970000Y-80542916D01*
X135976802Y-80492921D01*
X135989295Y-80470621D01*
X136034539Y-80449074D01*
X136040341Y-80448883D01*
X136086129Y-80466274D01*
G37*
G36*
X92318654Y-92835876D02*
G01*
X92366817Y-92845133D01*
X92416077Y-92863268D01*
X92459171Y-92889463D01*
X92468981Y-92897271D01*
X92506172Y-92935454D01*
X92531191Y-92977462D01*
X92544715Y-93028624D01*
X92545917Y-93050411D01*
X92538952Y-93101015D01*
X92528087Y-93129546D01*
X92500371Y-93171651D01*
X92473866Y-93198178D01*
X92515753Y-93226968D01*
X92552429Y-93261996D01*
X92573761Y-93290746D01*
X92595426Y-93336107D01*
X92606046Y-93386063D01*
X92607222Y-93410669D01*
X92601238Y-93462083D01*
X92583286Y-93509832D01*
X92554740Y-93550825D01*
X92539323Y-93565031D01*
X92497542Y-93592620D01*
X92453349Y-93611926D01*
X92403988Y-93624281D01*
X92353865Y-93629364D01*
X92326099Y-93630000D01*
X91912595Y-93630000D01*
X91862514Y-93623197D01*
X91840055Y-93610704D01*
X91818751Y-93565460D01*
X91818562Y-93559658D01*
X91836615Y-93512580D01*
X91840544Y-93508855D01*
X91886653Y-93490861D01*
X91912595Y-93489316D01*
X91934577Y-93489316D01*
X92075505Y-93489316D01*
X92318527Y-93489316D01*
X92371602Y-93486343D01*
X92421704Y-93473961D01*
X92439427Y-93464159D01*
X92465349Y-93422398D01*
X92466294Y-93409692D01*
X92449524Y-93362818D01*
X92413293Y-93326894D01*
X92367234Y-93302039D01*
X92318934Y-93290089D01*
X92267756Y-93286145D01*
X92261618Y-93286106D01*
X92075505Y-93286106D01*
X92075505Y-93489316D01*
X91934577Y-93489316D01*
X91934577Y-93145422D01*
X92075505Y-93145422D01*
X92230111Y-93145422D01*
X92279270Y-93141987D01*
X92327008Y-93130275D01*
X92368108Y-93110251D01*
X92401608Y-93072249D01*
X92405233Y-93051388D01*
X92383767Y-93007459D01*
X92370062Y-92996922D01*
X92321303Y-92978627D01*
X92268296Y-92973566D01*
X92258932Y-92973475D01*
X92075505Y-92973475D01*
X92075505Y-93145422D01*
X91934577Y-93145422D01*
X91934577Y-92973475D01*
X91912595Y-92973475D01*
X91862514Y-92966672D01*
X91840055Y-92954180D01*
X91818751Y-92908935D01*
X91818562Y-92903133D01*
X91836214Y-92856055D01*
X91840055Y-92852330D01*
X91886318Y-92834336D01*
X91912595Y-92832791D01*
X92265771Y-92832791D01*
X92318654Y-92835876D01*
G37*
G36*
X93357292Y-93301737D02*
G01*
X92769399Y-93301737D01*
X92769399Y-93161053D01*
X93357292Y-93161053D01*
X93357292Y-93301737D01*
G37*
D12*
G36*
X95862083Y-104998761D02*
G01*
X95909832Y-105016713D01*
X95950825Y-105045259D01*
X95965031Y-105060676D01*
X95992620Y-105102457D01*
X96011926Y-105146650D01*
X96024281Y-105196011D01*
X96029364Y-105246134D01*
X96030000Y-105273900D01*
X96030000Y-105687404D01*
X96023197Y-105737485D01*
X96010704Y-105759944D01*
X95965460Y-105781248D01*
X95959658Y-105781437D01*
X95912580Y-105763384D01*
X95908855Y-105759455D01*
X95890861Y-105713346D01*
X95889316Y-105687404D01*
X95889316Y-105665422D01*
X95373475Y-105665422D01*
X95373475Y-105687404D01*
X95366672Y-105737485D01*
X95354180Y-105759944D01*
X95308935Y-105781248D01*
X95303133Y-105781437D01*
X95256055Y-105763785D01*
X95252330Y-105759944D01*
X95234336Y-105713681D01*
X95232791Y-105687404D01*
X95232791Y-105341067D01*
X95373475Y-105341067D01*
X95373475Y-105524494D01*
X95545422Y-105524494D01*
X95545422Y-105369888D01*
X95543220Y-105338381D01*
X95686106Y-105338381D01*
X95686106Y-105524494D01*
X95889316Y-105524494D01*
X95889316Y-105281472D01*
X95886343Y-105228397D01*
X95873961Y-105178295D01*
X95864159Y-105160572D01*
X95822398Y-105134650D01*
X95809692Y-105133705D01*
X95762818Y-105150475D01*
X95726894Y-105186706D01*
X95702039Y-105232765D01*
X95690089Y-105281065D01*
X95686145Y-105332243D01*
X95686106Y-105338381D01*
X95543220Y-105338381D01*
X95541987Y-105320729D01*
X95530275Y-105272991D01*
X95510251Y-105231891D01*
X95472249Y-105198391D01*
X95451388Y-105194766D01*
X95407459Y-105216232D01*
X95396922Y-105229937D01*
X95378627Y-105278696D01*
X95373566Y-105331703D01*
X95373475Y-105341067D01*
X95232791Y-105341067D01*
X95232791Y-105334228D01*
X95235876Y-105281345D01*
X95245133Y-105233182D01*
X95263268Y-105183922D01*
X95289463Y-105140828D01*
X95297271Y-105131018D01*
X95335454Y-105093827D01*
X95377462Y-105068808D01*
X95428624Y-105055284D01*
X95450411Y-105054082D01*
X95501015Y-105061047D01*
X95529546Y-105071912D01*
X95571651Y-105099628D01*
X95598178Y-105126133D01*
X95626968Y-105084246D01*
X95661996Y-105047570D01*
X95690746Y-105026238D01*
X95736107Y-105004573D01*
X95786063Y-104993953D01*
X95810669Y-104992777D01*
X95862083Y-104998761D01*
G37*
G36*
X95685750Y-104145233D02*
G01*
X95736950Y-104153963D01*
X95785240Y-104168513D01*
X95830621Y-104188882D01*
X95873092Y-104215071D01*
X95912652Y-104247081D01*
X95927662Y-104261514D01*
X95961647Y-104299673D01*
X95989872Y-104339657D01*
X96016139Y-104390047D01*
X96034111Y-104443064D01*
X96043788Y-104498708D01*
X96045631Y-104537264D01*
X96042179Y-104589142D01*
X96031824Y-104639079D01*
X96014564Y-104687075D01*
X95990402Y-104733131D01*
X95959335Y-104777247D01*
X95947445Y-104791521D01*
X95907600Y-104831909D01*
X95864236Y-104865452D01*
X95817354Y-104892149D01*
X95766954Y-104912001D01*
X95713035Y-104925008D01*
X95655599Y-104931169D01*
X95631639Y-104931716D01*
X95572784Y-104928293D01*
X95517422Y-104918025D01*
X95465555Y-104900912D01*
X95417183Y-104876952D01*
X95372304Y-104846148D01*
X95330920Y-104808498D01*
X95315345Y-104791521D01*
X95281977Y-104748052D01*
X95255513Y-104702643D01*
X95235953Y-104655293D01*
X95223296Y-104606003D01*
X95217543Y-104554772D01*
X95217159Y-104537264D01*
X95357843Y-104537264D01*
X95364026Y-104590989D01*
X95382573Y-104641429D01*
X95409439Y-104683507D01*
X95436001Y-104713363D01*
X95477446Y-104747237D01*
X95523867Y-104771432D01*
X95575265Y-104785949D01*
X95624320Y-104790712D01*
X95631639Y-104790788D01*
X95681323Y-104787083D01*
X95733381Y-104773776D01*
X95780401Y-104750790D01*
X95822384Y-104718127D01*
X95827278Y-104713363D01*
X95861258Y-104673231D01*
X95885530Y-104630504D01*
X95901231Y-104579334D01*
X95904947Y-104537264D01*
X95898842Y-104483323D01*
X95880527Y-104432781D01*
X95853996Y-104390711D01*
X95827766Y-104360921D01*
X95786474Y-104326940D01*
X95740022Y-104302669D01*
X95688411Y-104288106D01*
X95639018Y-104283327D01*
X95631639Y-104283251D01*
X95581766Y-104286968D01*
X95529548Y-104300317D01*
X95482428Y-104323375D01*
X95440407Y-104356142D01*
X95435512Y-104360921D01*
X95401532Y-104400976D01*
X95377260Y-104443719D01*
X95361560Y-104495016D01*
X95357843Y-104537264D01*
X95217159Y-104537264D01*
X95221315Y-104479868D01*
X95233783Y-104425099D01*
X95254563Y-104372958D01*
X95283654Y-104323445D01*
X95314247Y-104284190D01*
X95335373Y-104261514D01*
X95373711Y-104227177D01*
X95414995Y-104198659D01*
X95459225Y-104175962D01*
X95506400Y-104159084D01*
X95556521Y-104148027D01*
X95609588Y-104142789D01*
X95631639Y-104142323D01*
X95685750Y-104145233D01*
G37*
G36*
X95685750Y-103305038D02*
G01*
X95736950Y-103313768D01*
X95785240Y-103328317D01*
X95830621Y-103348687D01*
X95873092Y-103374876D01*
X95912652Y-103406885D01*
X95927662Y-103421318D01*
X95961647Y-103459478D01*
X95989872Y-103499462D01*
X96016139Y-103549851D01*
X96034111Y-103602868D01*
X96043788Y-103658513D01*
X96045631Y-103697069D01*
X96042179Y-103748946D01*
X96031824Y-103798884D01*
X96014564Y-103846880D01*
X95990402Y-103892936D01*
X95959335Y-103937051D01*
X95947445Y-103951325D01*
X95907600Y-103991714D01*
X95864236Y-104025257D01*
X95817354Y-104051954D01*
X95766954Y-104071806D01*
X95713035Y-104084812D01*
X95655599Y-104090973D01*
X95631639Y-104091521D01*
X95572784Y-104088098D01*
X95517422Y-104077830D01*
X95465555Y-104060716D01*
X95417183Y-104036757D01*
X95372304Y-104005952D01*
X95330920Y-103968302D01*
X95315345Y-103951325D01*
X95281977Y-103907857D01*
X95255513Y-103862448D01*
X95235953Y-103815098D01*
X95223296Y-103765808D01*
X95217543Y-103714577D01*
X95217159Y-103697069D01*
X95357843Y-103697069D01*
X95364026Y-103750793D01*
X95382573Y-103801233D01*
X95409439Y-103843312D01*
X95436001Y-103873168D01*
X95477446Y-103907041D01*
X95523867Y-103931236D01*
X95575265Y-103945754D01*
X95624320Y-103950517D01*
X95631639Y-103950593D01*
X95681323Y-103946888D01*
X95733381Y-103933580D01*
X95780401Y-103910595D01*
X95822384Y-103877931D01*
X95827278Y-103873168D01*
X95861258Y-103833036D01*
X95885530Y-103790308D01*
X95901231Y-103739138D01*
X95904947Y-103697069D01*
X95898842Y-103643127D01*
X95880527Y-103592586D01*
X95853996Y-103550515D01*
X95827766Y-103520725D01*
X95786474Y-103486745D01*
X95740022Y-103462473D01*
X95688411Y-103447910D01*
X95639018Y-103443132D01*
X95631639Y-103443056D01*
X95581766Y-103446773D01*
X95529548Y-103460122D01*
X95482428Y-103483180D01*
X95440407Y-103515947D01*
X95435512Y-103520725D01*
X95401532Y-103560781D01*
X95377260Y-103603524D01*
X95361560Y-103654820D01*
X95357843Y-103697069D01*
X95217159Y-103697069D01*
X95221315Y-103639672D01*
X95233783Y-103584904D01*
X95254563Y-103532763D01*
X95283654Y-103483249D01*
X95314247Y-103443995D01*
X95335373Y-103421318D01*
X95373711Y-103386981D01*
X95414995Y-103358464D01*
X95459225Y-103335767D01*
X95506400Y-103318889D01*
X95556521Y-103307831D01*
X95609588Y-103302593D01*
X95631639Y-103302128D01*
X95685750Y-103305038D01*
G37*
G36*
X95373475Y-102788974D02*
G01*
X95889316Y-102788974D01*
X95889316Y-102694207D01*
X95896204Y-102644126D01*
X95908855Y-102621667D01*
X95953857Y-102600121D01*
X95959658Y-102599930D01*
X96005632Y-102616573D01*
X96010704Y-102621667D01*
X96028473Y-102667930D01*
X96030000Y-102694207D01*
X96030000Y-103023935D01*
X96023197Y-103074017D01*
X96010704Y-103096475D01*
X95965460Y-103117780D01*
X95959658Y-103117969D01*
X95912580Y-103100317D01*
X95908855Y-103096475D01*
X95890861Y-103050213D01*
X95889316Y-103023935D01*
X95889316Y-102929658D01*
X95373475Y-102929658D01*
X95373475Y-103082309D01*
X95514159Y-103082309D01*
X95564036Y-103089198D01*
X95586454Y-103101849D01*
X95607759Y-103147093D01*
X95607948Y-103152896D01*
X95590296Y-103199689D01*
X95586454Y-103203454D01*
X95540318Y-103221448D01*
X95514159Y-103222993D01*
X95232791Y-103222993D01*
X95232791Y-102493440D01*
X95514159Y-102493440D01*
X95564036Y-102500414D01*
X95586454Y-102513224D01*
X95607759Y-102558468D01*
X95607948Y-102564270D01*
X95590296Y-102611064D01*
X95586454Y-102614829D01*
X95540318Y-102632822D01*
X95514159Y-102634368D01*
X95373475Y-102634368D01*
X95373475Y-102788974D01*
G37*
D10*
X139753016Y-100682806D02*
X139753016Y-101063759D01*
X139486349Y-100263759D02*
X139753016Y-100682806D01*
X139753016Y-100682806D02*
X140019682Y-100263759D01*
D11*
G36*
X92118654Y-99435876D02*
G01*
X92166817Y-99445133D01*
X92216077Y-99463268D01*
X92259171Y-99489463D01*
X92268981Y-99497271D01*
X92306172Y-99535454D01*
X92331191Y-99577462D01*
X92344715Y-99628624D01*
X92345917Y-99650411D01*
X92338952Y-99701015D01*
X92328087Y-99729546D01*
X92300371Y-99771651D01*
X92273866Y-99798178D01*
X92315753Y-99826968D01*
X92352429Y-99861996D01*
X92373761Y-99890746D01*
X92395426Y-99936107D01*
X92406046Y-99986063D01*
X92407222Y-100010669D01*
X92401238Y-100062083D01*
X92383286Y-100109832D01*
X92354740Y-100150825D01*
X92339323Y-100165031D01*
X92297542Y-100192620D01*
X92253349Y-100211926D01*
X92203988Y-100224281D01*
X92153865Y-100229364D01*
X92126099Y-100230000D01*
X91712595Y-100230000D01*
X91662514Y-100223197D01*
X91640055Y-100210704D01*
X91618751Y-100165460D01*
X91618562Y-100159658D01*
X91636615Y-100112580D01*
X91640544Y-100108855D01*
X91686653Y-100090861D01*
X91712595Y-100089316D01*
X91734577Y-100089316D01*
X91875505Y-100089316D01*
X92118527Y-100089316D01*
X92171602Y-100086343D01*
X92221704Y-100073961D01*
X92239427Y-100064159D01*
X92265349Y-100022398D01*
X92266294Y-100009692D01*
X92249524Y-99962818D01*
X92213293Y-99926894D01*
X92167234Y-99902039D01*
X92118934Y-99890089D01*
X92067756Y-99886145D01*
X92061618Y-99886106D01*
X91875505Y-99886106D01*
X91875505Y-100089316D01*
X91734577Y-100089316D01*
X91734577Y-99745422D01*
X91875505Y-99745422D01*
X92030111Y-99745422D01*
X92079270Y-99741987D01*
X92127008Y-99730275D01*
X92168108Y-99710251D01*
X92201608Y-99672249D01*
X92205233Y-99651388D01*
X92183767Y-99607459D01*
X92170062Y-99596922D01*
X92121303Y-99578627D01*
X92068296Y-99573566D01*
X92058932Y-99573475D01*
X91875505Y-99573475D01*
X91875505Y-99745422D01*
X91734577Y-99745422D01*
X91734577Y-99573475D01*
X91712595Y-99573475D01*
X91662514Y-99566672D01*
X91640055Y-99554180D01*
X91618751Y-99508935D01*
X91618562Y-99503133D01*
X91636214Y-99456055D01*
X91640055Y-99452330D01*
X91686318Y-99434336D01*
X91712595Y-99432791D01*
X92065771Y-99432791D01*
X92118654Y-99435876D01*
G37*
G36*
X92932833Y-99901737D02*
G01*
X92932833Y-100113984D01*
X92924523Y-100162676D01*
X92913538Y-100179197D01*
X92868535Y-100198565D01*
X92862735Y-100198736D01*
X92815215Y-100182689D01*
X92811444Y-100179197D01*
X92792840Y-100132716D01*
X92791905Y-100113984D01*
X92791905Y-99901737D01*
X92590648Y-99901737D01*
X92540567Y-99894849D01*
X92518108Y-99882198D01*
X92496804Y-99836953D01*
X92496615Y-99831151D01*
X92513071Y-99785123D01*
X92518108Y-99780104D01*
X92564371Y-99762363D01*
X92590648Y-99761053D01*
X92791905Y-99761053D01*
X92791905Y-99549050D01*
X92800320Y-99500469D01*
X92811444Y-99483838D01*
X92856889Y-99464228D01*
X92862735Y-99464054D01*
X92910013Y-99480101D01*
X92913782Y-99483593D01*
X92932386Y-99530224D01*
X92933321Y-99549050D01*
X92932833Y-99761053D01*
X93134089Y-99761053D01*
X93184084Y-99767856D01*
X93206385Y-99780348D01*
X93227931Y-99825309D01*
X93228122Y-99831151D01*
X93211479Y-99877126D01*
X93206385Y-99882198D01*
X93160347Y-99900192D01*
X93134089Y-99901737D01*
X92932833Y-99901737D01*
G37*
G36*
X125416399Y-79283105D02*
G01*
X125386357Y-79321695D01*
X125358757Y-79330000D01*
X125311821Y-79313544D01*
X125306734Y-79308506D01*
X125288740Y-79262748D01*
X125287194Y-79236943D01*
X125287194Y-79142421D01*
X125294083Y-79092630D01*
X125306734Y-79070369D01*
X125350652Y-79048971D01*
X125358513Y-79048632D01*
X125400279Y-79061088D01*
X125425924Y-79102854D01*
X125444487Y-79142665D01*
X125486571Y-79170886D01*
X125515317Y-79183942D01*
X125565037Y-79199019D01*
X125615220Y-79204763D01*
X125626448Y-79204947D01*
X125676793Y-79201740D01*
X125726434Y-79190654D01*
X125773380Y-79169313D01*
X125781053Y-79164403D01*
X125815084Y-79127082D01*
X125819644Y-79103586D01*
X125801081Y-79058157D01*
X125760048Y-79030405D01*
X125740509Y-79022986D01*
X125692212Y-79010935D01*
X125640465Y-79001081D01*
X125617655Y-78997096D01*
X125563524Y-78986655D01*
X125511021Y-78973595D01*
X125463108Y-78957452D01*
X125443265Y-78948736D01*
X125399312Y-78921689D01*
X125363502Y-78886982D01*
X125349720Y-78868381D01*
X125327581Y-78824741D01*
X125316361Y-78774679D01*
X125315526Y-78756029D01*
X125322211Y-78704204D01*
X125342265Y-78656166D01*
X125371315Y-78616644D01*
X125400034Y-78588967D01*
X125445464Y-78557551D01*
X125490423Y-78537425D01*
X125540245Y-78524172D01*
X125594929Y-78517790D01*
X125619853Y-78517159D01*
X125668915Y-78520540D01*
X125717344Y-78531600D01*
X125720237Y-78532547D01*
X125767131Y-78553514D01*
X125804501Y-78579685D01*
X125835473Y-78541767D01*
X125859455Y-78532791D01*
X125906249Y-78550844D01*
X125910013Y-78554773D01*
X125928007Y-78601035D01*
X125929553Y-78627313D01*
X125929553Y-78734535D01*
X125923370Y-78783162D01*
X125910013Y-78808053D01*
X125865170Y-78829599D01*
X125859455Y-78829790D01*
X125814270Y-78814159D01*
X125792036Y-78770371D01*
X125791556Y-78768241D01*
X125774422Y-78721627D01*
X125772260Y-78718660D01*
X125733250Y-78685958D01*
X125712421Y-78675429D01*
X125663692Y-78661209D01*
X125620341Y-78657843D01*
X125567654Y-78662446D01*
X125520653Y-78677819D01*
X125499685Y-78690572D01*
X125465191Y-78726104D01*
X125455478Y-78758715D01*
X125473551Y-78805366D01*
X125514444Y-78835431D01*
X125527041Y-78840537D01*
X125575804Y-78852981D01*
X125626770Y-78863199D01*
X125658443Y-78869113D01*
X125709414Y-78879173D01*
X125759274Y-78891184D01*
X125809458Y-78906860D01*
X125824773Y-78912833D01*
X125868738Y-78936795D01*
X125906173Y-78969787D01*
X125921249Y-78988060D01*
X125946234Y-79032918D01*
X125958482Y-79084145D01*
X125959839Y-79109937D01*
X125954024Y-79162311D01*
X125936578Y-79208426D01*
X125907501Y-79248281D01*
X125886322Y-79267718D01*
X125841115Y-79298076D01*
X125790766Y-79320979D01*
X125743516Y-79334674D01*
X125692488Y-79342892D01*
X125637683Y-79345631D01*
X125587166Y-79342639D01*
X125537772Y-79333663D01*
X125523866Y-79330000D01*
X125476127Y-79313330D01*
X125429511Y-79290676D01*
X125416399Y-79283105D01*
G37*
G36*
X126663258Y-78874242D02*
G01*
X126702493Y-78903814D01*
X126736737Y-78939563D01*
X126756559Y-78968764D01*
X126776643Y-79014559D01*
X126786488Y-79064627D01*
X126787578Y-79089176D01*
X126781808Y-79141520D01*
X126764497Y-79190842D01*
X126746545Y-79222044D01*
X126714145Y-79260502D01*
X126673029Y-79291919D01*
X126628087Y-79314368D01*
X126580711Y-79329480D01*
X126532175Y-79338762D01*
X126477594Y-79344135D01*
X126424877Y-79345631D01*
X126375789Y-79344415D01*
X126322094Y-79339743D01*
X126266634Y-79329866D01*
X126218911Y-79315220D01*
X126178925Y-79295806D01*
X126141796Y-79260729D01*
X126133007Y-79228639D01*
X126149656Y-79182495D01*
X126153279Y-79178569D01*
X126198803Y-79158133D01*
X126202372Y-79158053D01*
X126243649Y-79170753D01*
X126288652Y-79192768D01*
X126300558Y-79196154D01*
X126349528Y-79202749D01*
X126400647Y-79204870D01*
X126413886Y-79204947D01*
X126464386Y-79203521D01*
X126514143Y-79198400D01*
X126564403Y-79186760D01*
X126591695Y-79175150D01*
X126631140Y-79141794D01*
X126646596Y-79094266D01*
X126646650Y-79090886D01*
X126634152Y-79041656D01*
X126614654Y-79013217D01*
X126577407Y-78979938D01*
X126532506Y-78956615D01*
X126529169Y-78955331D01*
X126481024Y-78944460D01*
X126429430Y-78939493D01*
X126424877Y-78939211D01*
X126377241Y-78923394D01*
X126370900Y-78917718D01*
X126352111Y-78871379D01*
X126352093Y-78869602D01*
X126368943Y-78822974D01*
X126372609Y-78819043D01*
X126417168Y-78798848D01*
X126424877Y-78798527D01*
X126473731Y-78798387D01*
X126499860Y-78797794D01*
X126547732Y-78784918D01*
X126554570Y-78781674D01*
X126593494Y-78751290D01*
X126599023Y-78744061D01*
X126615809Y-78697893D01*
X126615875Y-78694724D01*
X126598835Y-78646458D01*
X126576308Y-78624870D01*
X126530573Y-78603658D01*
X126481543Y-78596039D01*
X126457850Y-78595317D01*
X126404484Y-78600263D01*
X126354071Y-78617360D01*
X126313007Y-78646669D01*
X126302512Y-78657843D01*
X126277110Y-78681046D01*
X126244870Y-78689106D01*
X126197916Y-78670645D01*
X126195289Y-78668101D01*
X126175093Y-78623435D01*
X126174773Y-78615833D01*
X126190587Y-78567962D01*
X126226727Y-78530145D01*
X126238032Y-78521556D01*
X126280514Y-78495479D01*
X126327390Y-78475808D01*
X126378661Y-78462541D01*
X126434327Y-78455679D01*
X126468108Y-78454633D01*
X126522704Y-78458011D01*
X126572367Y-78468144D01*
X126623085Y-78487996D01*
X126667362Y-78516672D01*
X126677424Y-78525219D01*
X126712046Y-78562314D01*
X126739171Y-78608351D01*
X126753777Y-78658948D01*
X126756559Y-78695212D01*
X126750697Y-78745099D01*
X126733112Y-78791688D01*
X126704047Y-78834675D01*
X126668998Y-78869483D01*
X126663258Y-78874242D01*
G37*
G36*
X120261095Y-79283105D02*
G01*
X120231053Y-79321695D01*
X120203453Y-79330000D01*
X120156517Y-79313544D01*
X120151430Y-79308506D01*
X120133436Y-79262748D01*
X120131890Y-79236943D01*
X120131890Y-79142421D01*
X120138779Y-79092630D01*
X120151430Y-79070369D01*
X120195348Y-79048971D01*
X120203209Y-79048632D01*
X120244975Y-79061088D01*
X120270620Y-79102854D01*
X120289183Y-79142665D01*
X120331267Y-79170886D01*
X120360013Y-79183942D01*
X120409733Y-79199019D01*
X120459916Y-79204763D01*
X120471144Y-79204947D01*
X120521489Y-79201740D01*
X120571130Y-79190654D01*
X120618076Y-79169313D01*
X120625749Y-79164403D01*
X120659780Y-79127082D01*
X120664340Y-79103586D01*
X120645777Y-79058157D01*
X120604744Y-79030405D01*
X120585205Y-79022986D01*
X120536908Y-79010935D01*
X120485161Y-79001081D01*
X120462351Y-78997096D01*
X120408220Y-78986655D01*
X120355717Y-78973595D01*
X120307804Y-78957452D01*
X120287961Y-78948736D01*
X120244008Y-78921689D01*
X120208198Y-78886982D01*
X120194416Y-78868381D01*
X120172277Y-78824741D01*
X120161057Y-78774679D01*
X120160222Y-78756029D01*
X120166907Y-78704204D01*
X120186961Y-78656166D01*
X120216011Y-78616644D01*
X120244730Y-78588967D01*
X120290160Y-78557551D01*
X120335119Y-78537425D01*
X120384941Y-78524172D01*
X120439625Y-78517790D01*
X120464549Y-78517159D01*
X120513611Y-78520540D01*
X120562040Y-78531600D01*
X120564933Y-78532547D01*
X120611827Y-78553514D01*
X120649197Y-78579685D01*
X120680169Y-78541767D01*
X120704151Y-78532791D01*
X120750945Y-78550844D01*
X120754709Y-78554773D01*
X120772703Y-78601035D01*
X120774249Y-78627313D01*
X120774249Y-78734535D01*
X120768066Y-78783162D01*
X120754709Y-78808053D01*
X120709866Y-78829599D01*
X120704151Y-78829790D01*
X120658966Y-78814159D01*
X120636732Y-78770371D01*
X120636252Y-78768241D01*
X120619118Y-78721627D01*
X120616956Y-78718660D01*
X120577946Y-78685958D01*
X120557117Y-78675429D01*
X120508388Y-78661209D01*
X120465037Y-78657843D01*
X120412350Y-78662446D01*
X120365349Y-78677819D01*
X120344381Y-78690572D01*
X120309887Y-78726104D01*
X120300174Y-78758715D01*
X120318247Y-78805366D01*
X120359140Y-78835431D01*
X120371737Y-78840537D01*
X120420500Y-78852981D01*
X120471466Y-78863199D01*
X120503139Y-78869113D01*
X120554110Y-78879173D01*
X120603970Y-78891184D01*
X120654154Y-78906860D01*
X120669469Y-78912833D01*
X120713434Y-78936795D01*
X120750869Y-78969787D01*
X120765945Y-78988060D01*
X120790930Y-79032918D01*
X120803178Y-79084145D01*
X120804535Y-79109937D01*
X120798720Y-79162311D01*
X120781274Y-79208426D01*
X120752197Y-79248281D01*
X120731018Y-79267718D01*
X120685811Y-79298076D01*
X120635462Y-79320979D01*
X120588212Y-79334674D01*
X120537184Y-79342892D01*
X120482379Y-79345631D01*
X120431862Y-79342639D01*
X120382468Y-79333663D01*
X120368562Y-79330000D01*
X120320823Y-79313330D01*
X120274207Y-79290676D01*
X120261095Y-79283105D01*
G37*
G36*
X121378750Y-78454633D02*
G01*
X121378750Y-79189316D01*
X121520899Y-79189316D01*
X121571099Y-79196204D01*
X121593439Y-79208855D01*
X121614986Y-79253857D01*
X121615177Y-79259658D01*
X121598534Y-79305632D01*
X121593439Y-79310704D01*
X121547275Y-79328473D01*
X121520899Y-79330000D01*
X121095672Y-79330000D01*
X121045591Y-79323197D01*
X121023132Y-79310704D01*
X121001828Y-79265460D01*
X121001639Y-79259658D01*
X121019291Y-79212580D01*
X121023132Y-79208855D01*
X121069395Y-79190861D01*
X121095672Y-79189316D01*
X121238066Y-79189316D01*
X121238066Y-78646120D01*
X121112281Y-78680558D01*
X121066852Y-78689106D01*
X121021674Y-78668248D01*
X121020446Y-78666880D01*
X121001212Y-78620318D01*
X121000906Y-78612414D01*
X121015317Y-78566252D01*
X121059694Y-78541446D01*
X121075889Y-78536454D01*
X121378750Y-78454633D01*
G37*
G36*
X122816399Y-79283105D02*
G01*
X122786357Y-79321695D01*
X122758757Y-79330000D01*
X122711821Y-79313544D01*
X122706734Y-79308506D01*
X122688740Y-79262748D01*
X122687194Y-79236943D01*
X122687194Y-79142421D01*
X122694083Y-79092630D01*
X122706734Y-79070369D01*
X122750652Y-79048971D01*
X122758513Y-79048632D01*
X122800279Y-79061088D01*
X122825924Y-79102854D01*
X122844487Y-79142665D01*
X122886571Y-79170886D01*
X122915317Y-79183942D01*
X122965037Y-79199019D01*
X123015220Y-79204763D01*
X123026448Y-79204947D01*
X123076793Y-79201740D01*
X123126434Y-79190654D01*
X123173380Y-79169313D01*
X123181053Y-79164403D01*
X123215084Y-79127082D01*
X123219644Y-79103586D01*
X123201081Y-79058157D01*
X123160048Y-79030405D01*
X123140509Y-79022986D01*
X123092212Y-79010935D01*
X123040465Y-79001081D01*
X123017655Y-78997096D01*
X122963524Y-78986655D01*
X122911021Y-78973595D01*
X122863108Y-78957452D01*
X122843265Y-78948736D01*
X122799312Y-78921689D01*
X122763502Y-78886982D01*
X122749720Y-78868381D01*
X122727581Y-78824741D01*
X122716361Y-78774679D01*
X122715526Y-78756029D01*
X122722211Y-78704204D01*
X122742265Y-78656166D01*
X122771315Y-78616644D01*
X122800034Y-78588967D01*
X122845464Y-78557551D01*
X122890423Y-78537425D01*
X122940245Y-78524172D01*
X122994929Y-78517790D01*
X123019853Y-78517159D01*
X123068915Y-78520540D01*
X123117344Y-78531600D01*
X123120237Y-78532547D01*
X123167131Y-78553514D01*
X123204501Y-78579685D01*
X123235473Y-78541767D01*
X123259455Y-78532791D01*
X123306249Y-78550844D01*
X123310013Y-78554773D01*
X123328007Y-78601035D01*
X123329553Y-78627313D01*
X123329553Y-78734535D01*
X123323370Y-78783162D01*
X123310013Y-78808053D01*
X123265170Y-78829599D01*
X123259455Y-78829790D01*
X123214270Y-78814159D01*
X123192036Y-78770371D01*
X123191556Y-78768241D01*
X123174422Y-78721627D01*
X123172260Y-78718660D01*
X123133250Y-78685958D01*
X123112421Y-78675429D01*
X123063692Y-78661209D01*
X123020341Y-78657843D01*
X122967654Y-78662446D01*
X122920653Y-78677819D01*
X122899685Y-78690572D01*
X122865191Y-78726104D01*
X122855478Y-78758715D01*
X122873551Y-78805366D01*
X122914444Y-78835431D01*
X122927041Y-78840537D01*
X122975804Y-78852981D01*
X123026770Y-78863199D01*
X123058443Y-78869113D01*
X123109414Y-78879173D01*
X123159274Y-78891184D01*
X123209458Y-78906860D01*
X123224773Y-78912833D01*
X123268738Y-78936795D01*
X123306173Y-78969787D01*
X123321249Y-78988060D01*
X123346234Y-79032918D01*
X123358482Y-79084145D01*
X123359839Y-79109937D01*
X123354024Y-79162311D01*
X123336578Y-79208426D01*
X123307501Y-79248281D01*
X123286322Y-79267718D01*
X123241115Y-79298076D01*
X123190766Y-79320979D01*
X123143516Y-79334674D01*
X123092488Y-79342892D01*
X123037683Y-79345631D01*
X122987166Y-79342639D01*
X122937772Y-79333663D01*
X122923866Y-79330000D01*
X122876127Y-79313330D01*
X122829511Y-79290676D01*
X122816399Y-79283105D01*
G37*
G36*
X123730844Y-79189316D02*
G01*
X124039323Y-79189316D01*
X124085787Y-79173699D01*
X124087194Y-79173684D01*
X124133329Y-79189953D01*
X124138241Y-79194933D01*
X124155785Y-79240999D01*
X124157292Y-79267473D01*
X124157292Y-79330000D01*
X123515666Y-79330000D01*
X123515666Y-79173684D01*
X123562055Y-79137984D01*
X123606089Y-79103911D01*
X123647769Y-79071466D01*
X123687094Y-79040648D01*
X123741666Y-78997474D01*
X123790941Y-78957961D01*
X123834918Y-78922111D01*
X123873596Y-78889924D01*
X123916926Y-78852703D01*
X123957844Y-78815333D01*
X123975331Y-78797794D01*
X124005190Y-78756151D01*
X124015143Y-78716706D01*
X124002459Y-78669013D01*
X123970202Y-78632198D01*
X123925129Y-78606986D01*
X123877341Y-78596614D01*
X123850279Y-78595317D01*
X123801394Y-78600656D01*
X123754911Y-78618660D01*
X123724738Y-78640502D01*
X123694855Y-78682231D01*
X123682728Y-78712065D01*
X123656350Y-78754563D01*
X123614829Y-78767264D01*
X123569010Y-78750213D01*
X123565003Y-78746503D01*
X123544080Y-78700894D01*
X123543998Y-78697411D01*
X123554751Y-78647107D01*
X123577486Y-78600639D01*
X123582100Y-78592875D01*
X123612422Y-78552693D01*
X123650998Y-78518456D01*
X123693230Y-78492491D01*
X123740266Y-78472527D01*
X123789783Y-78459957D01*
X123841780Y-78454781D01*
X123852477Y-78454633D01*
X123908423Y-78458443D01*
X123959787Y-78469874D01*
X124006570Y-78488924D01*
X124048772Y-78515595D01*
X124070830Y-78534256D01*
X124104044Y-78570597D01*
X124132013Y-78616080D01*
X124149328Y-78665776D01*
X124155987Y-78719685D01*
X124156071Y-78726720D01*
X124151396Y-78775520D01*
X124136011Y-78824174D01*
X124131646Y-78833454D01*
X124103745Y-78874635D01*
X124070242Y-78911247D01*
X124031412Y-78947910D01*
X124014654Y-78962658D01*
X123976112Y-78995126D01*
X123932584Y-79030583D01*
X123888911Y-79065509D01*
X123849130Y-79096971D01*
X123805044Y-79131562D01*
X123756653Y-79169282D01*
X123730844Y-79189316D01*
G37*
D10*
X141680074Y-101346895D02*
X142213408Y-101346895D01*
X142213408Y-101346895D02*
X141680074Y-102146895D01*
X141680074Y-102146895D02*
X142213408Y-102146895D01*
D12*
G36*
X143216399Y-91983105D02*
G01*
X143186357Y-92021695D01*
X143158757Y-92030000D01*
X143111821Y-92013544D01*
X143106734Y-92008506D01*
X143088740Y-91962748D01*
X143087194Y-91936943D01*
X143087194Y-91842421D01*
X143094083Y-91792630D01*
X143106734Y-91770369D01*
X143150652Y-91748971D01*
X143158513Y-91748632D01*
X143200279Y-91761088D01*
X143225924Y-91802854D01*
X143244487Y-91842665D01*
X143286571Y-91870886D01*
X143315317Y-91883942D01*
X143365037Y-91899019D01*
X143415220Y-91904763D01*
X143426448Y-91904947D01*
X143476793Y-91901740D01*
X143526434Y-91890654D01*
X143573380Y-91869313D01*
X143581053Y-91864403D01*
X143615084Y-91827082D01*
X143619644Y-91803586D01*
X143601081Y-91758157D01*
X143560048Y-91730405D01*
X143540509Y-91722986D01*
X143492212Y-91710935D01*
X143440465Y-91701081D01*
X143417655Y-91697096D01*
X143363524Y-91686655D01*
X143311021Y-91673595D01*
X143263108Y-91657452D01*
X143243265Y-91648736D01*
X143199312Y-91621689D01*
X143163502Y-91586982D01*
X143149720Y-91568381D01*
X143127581Y-91524741D01*
X143116361Y-91474679D01*
X143115526Y-91456029D01*
X143122211Y-91404204D01*
X143142265Y-91356166D01*
X143171315Y-91316644D01*
X143200034Y-91288967D01*
X143245464Y-91257551D01*
X143290423Y-91237425D01*
X143340245Y-91224172D01*
X143394929Y-91217790D01*
X143419853Y-91217159D01*
X143468915Y-91220540D01*
X143517344Y-91231600D01*
X143520237Y-91232547D01*
X143567131Y-91253514D01*
X143604501Y-91279685D01*
X143635473Y-91241767D01*
X143659455Y-91232791D01*
X143706249Y-91250844D01*
X143710013Y-91254773D01*
X143728007Y-91301035D01*
X143729553Y-91327313D01*
X143729553Y-91434535D01*
X143723370Y-91483162D01*
X143710013Y-91508053D01*
X143665170Y-91529599D01*
X143659455Y-91529790D01*
X143614270Y-91514159D01*
X143592036Y-91470371D01*
X143591556Y-91468241D01*
X143574422Y-91421627D01*
X143572260Y-91418660D01*
X143533250Y-91385958D01*
X143512421Y-91375429D01*
X143463692Y-91361209D01*
X143420341Y-91357843D01*
X143367654Y-91362446D01*
X143320653Y-91377819D01*
X143299685Y-91390572D01*
X143265191Y-91426104D01*
X143255478Y-91458715D01*
X143273551Y-91505366D01*
X143314444Y-91535431D01*
X143327041Y-91540537D01*
X143375804Y-91552981D01*
X143426770Y-91563199D01*
X143458443Y-91569113D01*
X143509414Y-91579173D01*
X143559274Y-91591184D01*
X143609458Y-91606860D01*
X143624773Y-91612833D01*
X143668738Y-91636795D01*
X143706173Y-91669787D01*
X143721249Y-91688060D01*
X143746234Y-91732918D01*
X143758482Y-91784145D01*
X143759839Y-91809937D01*
X143754024Y-91862311D01*
X143736578Y-91908426D01*
X143707501Y-91948281D01*
X143686322Y-91967718D01*
X143641115Y-91998076D01*
X143590766Y-92020979D01*
X143543516Y-92034674D01*
X143492488Y-92042892D01*
X143437683Y-92045631D01*
X143387166Y-92042639D01*
X143337772Y-92033663D01*
X143323866Y-92030000D01*
X143276127Y-92013330D01*
X143229511Y-91990676D01*
X143216399Y-91983105D01*
G37*
G36*
X144262735Y-91650446D02*
G01*
X144132065Y-92030000D01*
X143974040Y-92030000D01*
X143890265Y-91373475D01*
X143843553Y-91356516D01*
X143841416Y-91354180D01*
X143825116Y-91307024D01*
X143825052Y-91303133D01*
X143842704Y-91256055D01*
X143846545Y-91252330D01*
X143892808Y-91234336D01*
X143919085Y-91232791D01*
X144106664Y-91232791D01*
X144156745Y-91239679D01*
X144179204Y-91252330D01*
X144200751Y-91297332D01*
X144200942Y-91303133D01*
X144184299Y-91349108D01*
X144179204Y-91354180D01*
X144132941Y-91371948D01*
X144106664Y-91373475D01*
X144033147Y-91373475D01*
X144080041Y-91746922D01*
X144190439Y-91436001D01*
X144336741Y-91436001D01*
X144446650Y-91746922D01*
X144493545Y-91373475D01*
X144420027Y-91373475D01*
X144369946Y-91366672D01*
X144347487Y-91354180D01*
X144325941Y-91308935D01*
X144325750Y-91303133D01*
X144343603Y-91256055D01*
X144347487Y-91252330D01*
X144393750Y-91234336D01*
X144420027Y-91232791D01*
X144606873Y-91232791D01*
X144656869Y-91239679D01*
X144679169Y-91252330D01*
X144700716Y-91297332D01*
X144700907Y-91303133D01*
X144686665Y-91350411D01*
X144683565Y-91354180D01*
X144638199Y-91373399D01*
X144634228Y-91373475D01*
X144553140Y-92030000D01*
X144398046Y-92030000D01*
X144262735Y-91650446D01*
G37*
G36*
X145089253Y-91233524D02*
G01*
X145140280Y-91236958D01*
X145190415Y-91247262D01*
X145223342Y-91257948D01*
X145268977Y-91277938D01*
X145313016Y-91305947D01*
X145328855Y-91319497D01*
X145363622Y-91358017D01*
X145391625Y-91397166D01*
X145417131Y-91440196D01*
X145437506Y-91485988D01*
X145440718Y-91495108D01*
X145452639Y-91545451D01*
X145457067Y-91596808D01*
X145457327Y-91614054D01*
X145457327Y-91678290D01*
X145454369Y-91729834D01*
X145444284Y-91782179D01*
X145427041Y-91829965D01*
X145401796Y-91876023D01*
X145371124Y-91915282D01*
X145347662Y-91937676D01*
X145308741Y-91967982D01*
X145266237Y-91993936D01*
X145255338Y-91999225D01*
X145208483Y-92015454D01*
X145159544Y-92024920D01*
X145110657Y-92029248D01*
X145077529Y-92030000D01*
X144794452Y-92030000D01*
X144744370Y-92023197D01*
X144721912Y-92010704D01*
X144700607Y-91965460D01*
X144700418Y-91959658D01*
X144718070Y-91912580D01*
X144721912Y-91908855D01*
X144769442Y-91890251D01*
X144787613Y-91889316D01*
X144928297Y-91889316D01*
X145078018Y-91889316D01*
X145130765Y-91886660D01*
X145180600Y-91876676D01*
X145204535Y-91866845D01*
X145247812Y-91837901D01*
X145282560Y-91800041D01*
X145288066Y-91791618D01*
X145307434Y-91746465D01*
X145315707Y-91695244D01*
X145316399Y-91673161D01*
X145316399Y-91610879D01*
X145311537Y-91559160D01*
X145295537Y-91510388D01*
X145290997Y-91501458D01*
X145262444Y-91456509D01*
X145228595Y-91419849D01*
X145201360Y-91400830D01*
X145152948Y-91382130D01*
X145103786Y-91374436D01*
X145076552Y-91373475D01*
X144928297Y-91373475D01*
X144928297Y-91889316D01*
X144787613Y-91889316D01*
X144787613Y-91373475D01*
X144739047Y-91365165D01*
X144721667Y-91354180D01*
X144700605Y-91308935D01*
X144700418Y-91303133D01*
X144718070Y-91256055D01*
X144721912Y-91252330D01*
X144768174Y-91234336D01*
X144794452Y-91232791D01*
X145089253Y-91233524D01*
G37*
D11*
G36*
X138616894Y-79016399D02*
G01*
X138578304Y-78986357D01*
X138570000Y-78958757D01*
X138586455Y-78911821D01*
X138591493Y-78906734D01*
X138637251Y-78888740D01*
X138663056Y-78887194D01*
X138757578Y-78887194D01*
X138807369Y-78894083D01*
X138829630Y-78906734D01*
X138851028Y-78950652D01*
X138851367Y-78958513D01*
X138838911Y-79000279D01*
X138797145Y-79025924D01*
X138757334Y-79044487D01*
X138729113Y-79086571D01*
X138716057Y-79115317D01*
X138700980Y-79165037D01*
X138695236Y-79215220D01*
X138695052Y-79226448D01*
X138698259Y-79276793D01*
X138709345Y-79326434D01*
X138730686Y-79373380D01*
X138735596Y-79381053D01*
X138772917Y-79415084D01*
X138796413Y-79419644D01*
X138841842Y-79401081D01*
X138869594Y-79360048D01*
X138877013Y-79340509D01*
X138889064Y-79292212D01*
X138898918Y-79240465D01*
X138902903Y-79217655D01*
X138913344Y-79163524D01*
X138926404Y-79111021D01*
X138942547Y-79063108D01*
X138951263Y-79043265D01*
X138978310Y-78999312D01*
X139013017Y-78963502D01*
X139031618Y-78949720D01*
X139075258Y-78927581D01*
X139125320Y-78916361D01*
X139143970Y-78915526D01*
X139195795Y-78922211D01*
X139243833Y-78942265D01*
X139283355Y-78971315D01*
X139311032Y-79000034D01*
X139342448Y-79045464D01*
X139362574Y-79090423D01*
X139375827Y-79140245D01*
X139382209Y-79194929D01*
X139382840Y-79219853D01*
X139379459Y-79268915D01*
X139368399Y-79317344D01*
X139367452Y-79320237D01*
X139346485Y-79367131D01*
X139320314Y-79404501D01*
X139358232Y-79435473D01*
X139367208Y-79459455D01*
X139349155Y-79506249D01*
X139345226Y-79510013D01*
X139298964Y-79528007D01*
X139272686Y-79529553D01*
X139165464Y-79529553D01*
X139116837Y-79523370D01*
X139091946Y-79510013D01*
X139070400Y-79465170D01*
X139070209Y-79459455D01*
X139085840Y-79414270D01*
X139129628Y-79392036D01*
X139131758Y-79391556D01*
X139178372Y-79374422D01*
X139181339Y-79372260D01*
X139214041Y-79333250D01*
X139224570Y-79312421D01*
X139238790Y-79263692D01*
X139242156Y-79220341D01*
X139237553Y-79167654D01*
X139222180Y-79120653D01*
X139209427Y-79099685D01*
X139173895Y-79065191D01*
X139141284Y-79055478D01*
X139094633Y-79073551D01*
X139064568Y-79114444D01*
X139059462Y-79127041D01*
X139047018Y-79175804D01*
X139036800Y-79226770D01*
X139030886Y-79258443D01*
X139020826Y-79309414D01*
X139008815Y-79359274D01*
X138993139Y-79409458D01*
X138987166Y-79424773D01*
X138963204Y-79468738D01*
X138930212Y-79506173D01*
X138911939Y-79521249D01*
X138867081Y-79546234D01*
X138815854Y-79558482D01*
X138790062Y-79559839D01*
X138737688Y-79554024D01*
X138691573Y-79536578D01*
X138651718Y-79507501D01*
X138632281Y-79486322D01*
X138601923Y-79441115D01*
X138579020Y-79390766D01*
X138565325Y-79343516D01*
X138557107Y-79292488D01*
X138554368Y-79237683D01*
X138557360Y-79187166D01*
X138566336Y-79137772D01*
X138570000Y-79123866D01*
X138586669Y-79076127D01*
X138609323Y-79029511D01*
X138616894Y-79016399D01*
G37*
G36*
X139320314Y-80283286D02*
G01*
X139355484Y-80311618D01*
X139367208Y-80345080D01*
X139350158Y-80391873D01*
X139346448Y-80395638D01*
X139299599Y-80413956D01*
X139276838Y-80415177D01*
X139161311Y-80415177D01*
X139112712Y-80408289D01*
X139090969Y-80395638D01*
X139070391Y-80350795D01*
X139070209Y-80345080D01*
X139084619Y-80299651D01*
X139129339Y-80276463D01*
X139138841Y-80274249D01*
X139179874Y-80254954D01*
X139209471Y-80213678D01*
X139225059Y-80176308D01*
X139237882Y-80125872D01*
X139242156Y-80075191D01*
X139237964Y-80025487D01*
X139224072Y-79975745D01*
X139216755Y-79958932D01*
X139188451Y-79915107D01*
X139151286Y-79878599D01*
X139134200Y-79865631D01*
X139088462Y-79840924D01*
X139041165Y-79828294D01*
X138998646Y-79825087D01*
X138914382Y-79825087D01*
X138864079Y-79830921D01*
X138813943Y-79851090D01*
X138774000Y-79881560D01*
X138757822Y-79898848D01*
X138730360Y-79939423D01*
X138710744Y-79987142D01*
X138698975Y-80042005D01*
X138695113Y-80095870D01*
X138695052Y-80104012D01*
X138697678Y-80155056D01*
X138706534Y-80204223D01*
X138717278Y-80236636D01*
X138744887Y-80279777D01*
X138768080Y-80303803D01*
X138797634Y-80338241D01*
X138804473Y-80366329D01*
X138786620Y-80411864D01*
X138782735Y-80415910D01*
X138737359Y-80436973D01*
X138731933Y-80437159D01*
X138685404Y-80420948D01*
X138668918Y-80408339D01*
X138632655Y-80370255D01*
X138605263Y-80328089D01*
X138591981Y-80300383D01*
X138573799Y-80249063D01*
X138562633Y-80201012D01*
X138556168Y-80150671D01*
X138554368Y-80104745D01*
X138556705Y-80051215D01*
X138563718Y-80000046D01*
X138575405Y-79951237D01*
X138591768Y-79904790D01*
X138603217Y-79879309D01*
X138628773Y-79835590D01*
X138661477Y-79795657D01*
X138701330Y-79759512D01*
X138726559Y-79741067D01*
X138769653Y-79716170D01*
X138820432Y-79696663D01*
X138873646Y-79686159D01*
X138910474Y-79684159D01*
X139000844Y-79684159D01*
X139051997Y-79687349D01*
X139101411Y-79696920D01*
X139149084Y-79712872D01*
X139195017Y-79735205D01*
X139237500Y-79763309D01*
X139274823Y-79796327D01*
X139306987Y-79834261D01*
X139333991Y-79877110D01*
X139355362Y-79923211D01*
X139370628Y-79970655D01*
X139379787Y-80019443D01*
X139382840Y-80069574D01*
X139379894Y-80121673D01*
X139371059Y-80170687D01*
X139367452Y-80184124D01*
X139349431Y-80232431D01*
X139324219Y-80277518D01*
X139320314Y-80283286D01*
G37*
G36*
X139226524Y-80843824D02*
G01*
X138710683Y-80843824D01*
X138710683Y-81147418D01*
X138851367Y-81147418D01*
X138901159Y-81154306D01*
X138923419Y-81166957D01*
X138944965Y-81212402D01*
X138945157Y-81218248D01*
X138927304Y-81264800D01*
X138923419Y-81268562D01*
X138877507Y-81286781D01*
X138851367Y-81288346D01*
X138570000Y-81288346D01*
X138570000Y-80621318D01*
X138576802Y-80571033D01*
X138589295Y-80548534D01*
X138634539Y-80527230D01*
X138640341Y-80527041D01*
X138687419Y-80544693D01*
X138691144Y-80548534D01*
X138709138Y-80594923D01*
X138710683Y-80621318D01*
X138710683Y-80702896D01*
X139226524Y-80702896D01*
X139226524Y-80621318D01*
X139233327Y-80571033D01*
X139245819Y-80548534D01*
X139291064Y-80527230D01*
X139296866Y-80527041D01*
X139343944Y-80544693D01*
X139347669Y-80548534D01*
X139365663Y-80594923D01*
X139367208Y-80621318D01*
X139367208Y-80926133D01*
X139360320Y-80976215D01*
X139347669Y-80998674D01*
X139302667Y-81020220D01*
X139296866Y-81020411D01*
X139250891Y-81003768D01*
X139245819Y-80998674D01*
X139228051Y-80952411D01*
X139226524Y-80926133D01*
X139226524Y-80843824D01*
G37*
D10*
X141680074Y-99596895D02*
X142213408Y-100396895D01*
X142213408Y-99596895D02*
X141680074Y-100396895D01*
D12*
G36*
X105206935Y-105343751D02*
G01*
X105210704Y-105347592D01*
X105228473Y-105393405D01*
X105230000Y-105419644D01*
X105230000Y-105500000D01*
X105185430Y-105531587D01*
X105144322Y-105562144D01*
X105094893Y-105601284D01*
X105051616Y-105638592D01*
X105014491Y-105674068D01*
X104976736Y-105715838D01*
X104944118Y-105762183D01*
X104933000Y-105783810D01*
X104933000Y-105923272D01*
X105089316Y-105923272D01*
X105089316Y-105872226D01*
X105096204Y-105822230D01*
X105108855Y-105799930D01*
X105153857Y-105778383D01*
X105159658Y-105778192D01*
X105205632Y-105794835D01*
X105210704Y-105799930D01*
X105228473Y-105845968D01*
X105230000Y-105872226D01*
X105230000Y-106085938D01*
X105223197Y-106136020D01*
X105210704Y-106158478D01*
X105165460Y-106179783D01*
X105159658Y-106179972D01*
X105112580Y-106161918D01*
X105108855Y-106157990D01*
X105090861Y-106111881D01*
X105089316Y-106085938D01*
X105089316Y-106063956D01*
X104573475Y-106063956D01*
X104573475Y-106085938D01*
X104566672Y-106136020D01*
X104554180Y-106158478D01*
X104508935Y-106179783D01*
X104503133Y-106179972D01*
X104456055Y-106162319D01*
X104452330Y-106158478D01*
X104434336Y-106112215D01*
X104432791Y-106085938D01*
X104432791Y-105767201D01*
X104433044Y-105761828D01*
X104573475Y-105761828D01*
X104573475Y-105923272D01*
X104792316Y-105923272D01*
X104792316Y-105813363D01*
X104788997Y-105762246D01*
X104778074Y-105713080D01*
X104774975Y-105703942D01*
X104755561Y-105658526D01*
X104725882Y-105617236D01*
X104681136Y-105595117D01*
X104674836Y-105594766D01*
X104628103Y-105613173D01*
X104605471Y-105637508D01*
X104583598Y-105682221D01*
X104574600Y-105732527D01*
X104573475Y-105761828D01*
X104433044Y-105761828D01*
X104435307Y-105713683D01*
X104442854Y-105664871D01*
X104458020Y-105613871D01*
X104480034Y-105569275D01*
X104504354Y-105536147D01*
X104542090Y-105500244D01*
X104583733Y-105474598D01*
X104635253Y-105458009D01*
X104678743Y-105454082D01*
X104728684Y-105460451D01*
X104774916Y-105479558D01*
X104795003Y-105492672D01*
X104832555Y-105526927D01*
X104864082Y-105567983D01*
X104887815Y-105608443D01*
X104919896Y-105571120D01*
X104955376Y-105534878D01*
X104978674Y-105512944D01*
X105017282Y-105481168D01*
X105058309Y-105450298D01*
X105089316Y-105427948D01*
X105093489Y-105379090D01*
X105102505Y-105357117D01*
X105142398Y-105328552D01*
X105159658Y-105326099D01*
X105206935Y-105343751D01*
G37*
G36*
X104886106Y-105082344D02*
G01*
X105089316Y-105082344D01*
X105089316Y-104723063D01*
X105011158Y-104723063D01*
X104961366Y-104716175D01*
X104939106Y-104703524D01*
X104917560Y-104658037D01*
X104917369Y-104652233D01*
X104935222Y-104605681D01*
X104939106Y-104601919D01*
X104985018Y-104583700D01*
X105011158Y-104582135D01*
X105230000Y-104582135D01*
X105230000Y-105245010D01*
X105223197Y-105295091D01*
X105210704Y-105317550D01*
X105165460Y-105339097D01*
X105159658Y-105339288D01*
X105112580Y-105321234D01*
X105108855Y-105317306D01*
X105090861Y-105271070D01*
X105089316Y-105245010D01*
X105089316Y-105223028D01*
X104573475Y-105223028D01*
X104573475Y-105245010D01*
X104566672Y-105295091D01*
X104554180Y-105317550D01*
X104508935Y-105339097D01*
X104503133Y-105339288D01*
X104456055Y-105321435D01*
X104452330Y-105317550D01*
X104434336Y-105271287D01*
X104432791Y-105245010D01*
X104433524Y-104613154D01*
X104651632Y-104613154D01*
X104701510Y-104619956D01*
X104723928Y-104632449D01*
X104745233Y-104677410D01*
X104745422Y-104683251D01*
X104727769Y-104730529D01*
X104723928Y-104734298D01*
X104677792Y-104752292D01*
X104651632Y-104753838D01*
X104573475Y-104753838D01*
X104573475Y-105082344D01*
X104745422Y-105082344D01*
X104745422Y-104958513D01*
X104696535Y-104954506D01*
X104680942Y-104948255D01*
X104653464Y-104906352D01*
X104651632Y-104887927D01*
X104669485Y-104841133D01*
X104673370Y-104837369D01*
X104719282Y-104819375D01*
X104745422Y-104817829D01*
X104886106Y-104817829D01*
X104935088Y-104822123D01*
X104950830Y-104828820D01*
X104978078Y-104870311D01*
X104979895Y-104887927D01*
X104964754Y-104934892D01*
X104950586Y-104948255D01*
X104901011Y-104958263D01*
X104886106Y-104958513D01*
X104886106Y-105082344D01*
G37*
G36*
X105183105Y-104303210D02*
G01*
X105221695Y-104333251D01*
X105230000Y-104360851D01*
X105213544Y-104407787D01*
X105208506Y-104412875D01*
X105162748Y-104430868D01*
X105136943Y-104432414D01*
X105042421Y-104432414D01*
X104992630Y-104425526D01*
X104970369Y-104412875D01*
X104948971Y-104368957D01*
X104948632Y-104361095D01*
X104961088Y-104319330D01*
X105002854Y-104293684D01*
X105042665Y-104275122D01*
X105070886Y-104233037D01*
X105083942Y-104204291D01*
X105099019Y-104154571D01*
X105104763Y-104104388D01*
X105104947Y-104093161D01*
X105101740Y-104042815D01*
X105090654Y-103993175D01*
X105069313Y-103946229D01*
X105064403Y-103938555D01*
X105027082Y-103904525D01*
X105003586Y-103899965D01*
X104958157Y-103918527D01*
X104930405Y-103959560D01*
X104922986Y-103979099D01*
X104910935Y-104027396D01*
X104901081Y-104079143D01*
X104897096Y-104101953D01*
X104886655Y-104156084D01*
X104873595Y-104208587D01*
X104857452Y-104256500D01*
X104848736Y-104276343D01*
X104821689Y-104320296D01*
X104786982Y-104356106D01*
X104768381Y-104369888D01*
X104724741Y-104392027D01*
X104674679Y-104403247D01*
X104656029Y-104404082D01*
X104604204Y-104397397D01*
X104556166Y-104377343D01*
X104516644Y-104348293D01*
X104488967Y-104319574D01*
X104457551Y-104274145D01*
X104437425Y-104229185D01*
X104424172Y-104179363D01*
X104417790Y-104124679D01*
X104417159Y-104099755D01*
X104420540Y-104050693D01*
X104431600Y-104002264D01*
X104432547Y-103999371D01*
X104453514Y-103952478D01*
X104479685Y-103915108D01*
X104441767Y-103884136D01*
X104432791Y-103860153D01*
X104450844Y-103813359D01*
X104454773Y-103809595D01*
X104501035Y-103791601D01*
X104527313Y-103790055D01*
X104634535Y-103790055D01*
X104683162Y-103796238D01*
X104708053Y-103809595D01*
X104729599Y-103854438D01*
X104729790Y-103860153D01*
X104714159Y-103905338D01*
X104670371Y-103927572D01*
X104668241Y-103928053D01*
X104621627Y-103945186D01*
X104618660Y-103947348D01*
X104585958Y-103986358D01*
X104575429Y-104007187D01*
X104561209Y-104055917D01*
X104557843Y-104099267D01*
X104562446Y-104151955D01*
X104577819Y-104198956D01*
X104590572Y-104219923D01*
X104626104Y-104254417D01*
X104658715Y-104264131D01*
X104705366Y-104246057D01*
X104735431Y-104205164D01*
X104740537Y-104192568D01*
X104752981Y-104143804D01*
X104763199Y-104092838D01*
X104769113Y-104061165D01*
X104779173Y-104010194D01*
X104791184Y-103960334D01*
X104806860Y-103910150D01*
X104812833Y-103894836D01*
X104836795Y-103850870D01*
X104869787Y-103813435D01*
X104888060Y-103798360D01*
X104932918Y-103773374D01*
X104984145Y-103761126D01*
X105009937Y-103759769D01*
X105062311Y-103765585D01*
X105108426Y-103783030D01*
X105148281Y-103812107D01*
X105167718Y-103833286D01*
X105198076Y-103878493D01*
X105220979Y-103928843D01*
X105234674Y-103976092D01*
X105242892Y-104027120D01*
X105245631Y-104081926D01*
X105242639Y-104132442D01*
X105233663Y-104181836D01*
X105230000Y-104195743D01*
X105213330Y-104243481D01*
X105190676Y-104290097D01*
X105183105Y-104303210D01*
G37*
G36*
X104886106Y-103401953D02*
G01*
X105089316Y-103401953D01*
X105089316Y-103042672D01*
X105011158Y-103042672D01*
X104961366Y-103035784D01*
X104939106Y-103023133D01*
X104917560Y-102977646D01*
X104917369Y-102971842D01*
X104935222Y-102925290D01*
X104939106Y-102921528D01*
X104985018Y-102903309D01*
X105011158Y-102901744D01*
X105230000Y-102901744D01*
X105230000Y-103564619D01*
X105223197Y-103614701D01*
X105210704Y-103637159D01*
X105165460Y-103658706D01*
X105159658Y-103658897D01*
X105112580Y-103640843D01*
X105108855Y-103636915D01*
X105090861Y-103590680D01*
X105089316Y-103564619D01*
X105089316Y-103542637D01*
X104573475Y-103542637D01*
X104573475Y-103564619D01*
X104566672Y-103614701D01*
X104554180Y-103637159D01*
X104508935Y-103658706D01*
X104503133Y-103658897D01*
X104456055Y-103641044D01*
X104452330Y-103637159D01*
X104434336Y-103590897D01*
X104432791Y-103564619D01*
X104433524Y-102932763D01*
X104651632Y-102932763D01*
X104701510Y-102939565D01*
X104723928Y-102952058D01*
X104745233Y-102997019D01*
X104745422Y-103002861D01*
X104727769Y-103050139D01*
X104723928Y-103053907D01*
X104677792Y-103071901D01*
X104651632Y-103073447D01*
X104573475Y-103073447D01*
X104573475Y-103401953D01*
X104745422Y-103401953D01*
X104745422Y-103278122D01*
X104696535Y-103274115D01*
X104680942Y-103267864D01*
X104653464Y-103225961D01*
X104651632Y-103207536D01*
X104669485Y-103160742D01*
X104673370Y-103156978D01*
X104719282Y-103138984D01*
X104745422Y-103137438D01*
X104886106Y-103137438D01*
X104935088Y-103141732D01*
X104950830Y-103148429D01*
X104978078Y-103189920D01*
X104979895Y-103207536D01*
X104964754Y-103254501D01*
X104950586Y-103267864D01*
X104901011Y-103277872D01*
X104886106Y-103278122D01*
X104886106Y-103401953D01*
G37*
G36*
X104573475Y-102348778D02*
G01*
X105089316Y-102348778D01*
X105089316Y-102254012D01*
X105096204Y-102203931D01*
X105108855Y-102181472D01*
X105153857Y-102159925D01*
X105159658Y-102159734D01*
X105205632Y-102176377D01*
X105210704Y-102181472D01*
X105228473Y-102227735D01*
X105230000Y-102254012D01*
X105230000Y-102583740D01*
X105223197Y-102633821D01*
X105210704Y-102656280D01*
X105165460Y-102677584D01*
X105159658Y-102677773D01*
X105112580Y-102660121D01*
X105108855Y-102656280D01*
X105090861Y-102610017D01*
X105089316Y-102583740D01*
X105089316Y-102489462D01*
X104573475Y-102489462D01*
X104573475Y-102642114D01*
X104714159Y-102642114D01*
X104764036Y-102649002D01*
X104786454Y-102661653D01*
X104807759Y-102706898D01*
X104807948Y-102712700D01*
X104790296Y-102759494D01*
X104786454Y-102763258D01*
X104740318Y-102781252D01*
X104714159Y-102782798D01*
X104432791Y-102782798D01*
X104432791Y-102053244D01*
X104714159Y-102053244D01*
X104764036Y-102060219D01*
X104786454Y-102073028D01*
X104807759Y-102118272D01*
X104807948Y-102124075D01*
X104790296Y-102170869D01*
X104786454Y-102174633D01*
X104740318Y-102192627D01*
X104714159Y-102194173D01*
X104573475Y-102194173D01*
X104573475Y-102348778D01*
G37*
D13*
%TO.C,SW1*%
X100700000Y-102200000D02*
X100700000Y-106600000D01*
X100700000Y-106600000D02*
X100820000Y-106600000D01*
X100820000Y-102200000D02*
X100700000Y-102200000D01*
X101830000Y-106600000D02*
X102970000Y-106600000D01*
X102970000Y-102200000D02*
X101830000Y-102200000D01*
X103980000Y-106600000D02*
X104100000Y-106600000D01*
X104100000Y-102200000D02*
X103980000Y-102200000D01*
X104100000Y-106600000D02*
X104100000Y-102200000D01*
%TO.C,C5*%
X121078400Y-80341493D02*
X121078400Y-80557165D01*
X121798400Y-80341493D02*
X121798400Y-80557165D01*
%TO.C,C21*%
X138240000Y-105892164D02*
X138240000Y-106107836D01*
X138960000Y-105892164D02*
X138960000Y-106107836D01*
%TO.C,C8*%
X120027836Y-79640000D02*
X119812164Y-79640000D01*
X120027836Y-80360000D02*
X119812164Y-80360000D01*
%TO.C,C18*%
X114240000Y-90792164D02*
X114240000Y-91007836D01*
X114960000Y-90792164D02*
X114960000Y-91007836D01*
%TO.C,R10*%
X141420000Y-83846359D02*
X141420000Y-84153641D01*
X142180000Y-83846359D02*
X142180000Y-84153641D01*
D12*
%TO.C,Y2*%
X115900000Y-91400000D02*
X115900000Y-91400000D01*
X115900000Y-91400000D02*
X115900000Y-91400000D01*
X116000000Y-91400000D02*
X116000000Y-91400000D01*
X115900000Y-91400000D02*
G75*
G02*
X116000000Y-91400000I50000J0D01*
G01*
X116000000Y-91400000D02*
G75*
G02*
X115900000Y-91400000I-50000J0D01*
G01*
X116000000Y-91400000D02*
G75*
G02*
X115900000Y-91400000I-50000J0D01*
G01*
D13*
%TO.C,J5*%
X142870000Y-83270000D02*
X142870000Y-90950000D01*
X142870000Y-83270000D02*
X145530000Y-83270000D01*
X142870000Y-90950000D02*
X145530000Y-90950000D01*
X144200000Y-80670000D02*
X145530000Y-80670000D01*
X145530000Y-80670000D02*
X145530000Y-82000000D01*
X145530000Y-83270000D02*
X145530000Y-90950000D01*
%TO.C,C13*%
X108392164Y-89890000D02*
X108607836Y-89890000D01*
X108392164Y-90610000D02*
X108607836Y-90610000D01*
%TO.C,C10*%
X95340000Y-94840580D02*
X95340000Y-94559420D01*
X96360000Y-94840580D02*
X96360000Y-94559420D01*
%TO.C,C30*%
X103107836Y-100440000D02*
X102892164Y-100440000D01*
X103107836Y-101160000D02*
X102892164Y-101160000D01*
%TO.C,C9*%
X95490000Y-98434420D02*
X95490000Y-98715580D01*
X96510000Y-98434420D02*
X96510000Y-98715580D01*
%TO.C,J6*%
X134995000Y-78730000D02*
X134995000Y-77400000D01*
X136325000Y-78730000D02*
X134995000Y-78730000D01*
X137595000Y-76070000D02*
X140195000Y-76070000D01*
X137595000Y-78730000D02*
X137595000Y-76070000D01*
X137595000Y-78730000D02*
X140195000Y-78730000D01*
X140195000Y-78730000D02*
X140195000Y-76070000D01*
%TO.C,C25*%
X125006215Y-105103433D02*
X124790543Y-105103433D01*
X125006215Y-104383433D02*
X124790543Y-104383433D01*
%TO.C,C4*%
X122001017Y-80340597D02*
X122001017Y-80556269D01*
X122721017Y-80340597D02*
X122721017Y-80556269D01*
%TO.C,R8*%
X98953641Y-100420000D02*
X98646359Y-100420000D01*
X98953641Y-101180000D02*
X98646359Y-101180000D01*
%TO.C,R9*%
X141420000Y-86446359D02*
X141420000Y-86753641D01*
X142180000Y-86446359D02*
X142180000Y-86753641D01*
%TO.C,C20*%
X138240000Y-104107836D02*
X138240000Y-103892164D01*
X138960000Y-104107836D02*
X138960000Y-103892164D01*
%TO.C,U3*%
X103300000Y-85547500D02*
X102250000Y-85547500D01*
X103300000Y-87527500D02*
X102000000Y-87527500D01*
X101880000Y-85547500D02*
X101600000Y-85547500D01*
X101880000Y-85267500D01*
X101880000Y-85547500D01*
G36*
X101880000Y-85547500D02*
G01*
X101600000Y-85547500D01*
X101880000Y-85267500D01*
X101880000Y-85547500D01*
G37*
%TO.C,U4*%
X127650000Y-105362500D02*
X127650000Y-105362500D01*
X128150000Y-105362500D02*
X127850000Y-105362500D01*
X129350000Y-105362500D02*
X129350000Y-105362500D01*
X129850000Y-105362500D02*
X129350000Y-105362500D01*
X127650000Y-104862500D02*
X127650000Y-105162500D01*
X129850000Y-104862500D02*
X129850000Y-105362500D01*
X127650000Y-103662500D02*
X127650000Y-103162500D01*
X129850000Y-103662500D02*
X129850000Y-103662500D01*
X127650000Y-103162500D02*
X128150000Y-103162500D01*
X128150000Y-103162500D02*
X128150000Y-103162500D01*
X129350000Y-103162500D02*
X129850000Y-103162500D01*
X129850000Y-103162500D02*
X129850000Y-103662500D01*
X127650000Y-105722500D02*
X127290000Y-105362500D01*
X127650000Y-105362500D01*
X127650000Y-105722500D01*
G36*
X127650000Y-105722500D02*
G01*
X127290000Y-105362500D01*
X127650000Y-105362500D01*
X127650000Y-105722500D01*
G37*
%TO.C,C15*%
X138237164Y-82440000D02*
X138452836Y-82440000D01*
X138237164Y-83160000D02*
X138452836Y-83160000D01*
%TO.C,C1*%
X121292164Y-97640000D02*
X121507836Y-97640000D01*
X121292164Y-98360000D02*
X121507836Y-98360000D01*
%TO.C,C26*%
X126206215Y-103903433D02*
X125990543Y-103903433D01*
X126206215Y-103183433D02*
X125990543Y-103183433D01*
%TO.C,C24*%
X126140000Y-104962164D02*
X126140000Y-105177836D01*
X126860000Y-104962164D02*
X126860000Y-105177836D01*
%TO.C,J8*%
X91070000Y-96405000D02*
X91070000Y-93805000D01*
X93730000Y-93805000D02*
X91070000Y-93805000D01*
X93730000Y-96405000D02*
X91070000Y-96405000D01*
X93730000Y-96405000D02*
X93730000Y-93805000D01*
X93730000Y-97675000D02*
X93730000Y-99005000D01*
X93730000Y-99005000D02*
X92400000Y-99005000D01*
%TO.C,J1*%
X90094052Y-81750000D02*
X90304052Y-81750000D01*
X90104052Y-91250000D02*
X90329052Y-91250000D01*
X93204052Y-91250000D02*
X95929052Y-91250000D01*
X95954052Y-81750000D02*
X93254052Y-81750000D01*
X98454052Y-81750000D02*
X98454052Y-91250000D01*
X98604052Y-83375000D02*
X98604052Y-83600000D01*
%TO.C,C2*%
X121292164Y-98840000D02*
X121507836Y-98840000D01*
X121292164Y-99560000D02*
X121507836Y-99560000D01*
%TO.C,FB1*%
X122340580Y-100090000D02*
X122059420Y-100090000D01*
X122340580Y-101110000D02*
X122059420Y-101110000D01*
%TO.C,U5*%
X131680000Y-78402500D02*
X131680000Y-78207500D01*
X131690000Y-80197500D02*
X131690000Y-79772500D01*
X131865000Y-80197500D02*
X131690000Y-80197500D01*
X133735000Y-77977500D02*
X133910000Y-77977500D01*
X133735000Y-80197500D02*
X133910000Y-80197500D01*
X133910000Y-77977500D02*
X133910000Y-78402500D01*
X133910000Y-80197500D02*
X133910000Y-79772500D01*
X131680000Y-77967500D02*
X131540000Y-77777500D01*
X131820000Y-77777500D01*
X131680000Y-77967500D01*
G36*
X131680000Y-77967500D02*
G01*
X131540000Y-77777500D01*
X131820000Y-77777500D01*
X131680000Y-77967500D01*
G37*
%TO.C,J7*%
X119450000Y-75670000D02*
X120780000Y-75670000D01*
X119450000Y-77000000D02*
X119450000Y-75670000D01*
X122050000Y-75670000D02*
X129730000Y-75670000D01*
X122050000Y-78330000D02*
X122050000Y-75670000D01*
X122050000Y-78330000D02*
X129730000Y-78330000D01*
X129730000Y-78330000D02*
X129730000Y-75670000D01*
%TO.C,D3*%
X114200000Y-78735000D02*
X116485000Y-78735000D01*
X116485000Y-77265000D02*
X114200000Y-77265000D01*
X116485000Y-78735000D02*
X116485000Y-77265000D01*
%TO.C,U2*%
X99600000Y-92190000D02*
X103360000Y-92190000D01*
X99600000Y-99010000D02*
X103360000Y-99010000D01*
X103360000Y-92190000D02*
X103360000Y-93450000D01*
X103360000Y-99010000D02*
X103360000Y-97750000D01*
X98320000Y-92290000D02*
X98080000Y-91960000D01*
X98560000Y-91960000D01*
X98320000Y-92290000D01*
G36*
X98320000Y-92290000D02*
G01*
X98080000Y-91960000D01*
X98560000Y-91960000D01*
X98320000Y-92290000D01*
G37*
%TO.C,C27*%
X132692164Y-76690000D02*
X132907836Y-76690000D01*
X132692164Y-77410000D02*
X132907836Y-77410000D01*
%TO.C,C11*%
X107492164Y-83840000D02*
X107707836Y-83840000D01*
X107492164Y-84560000D02*
X107707836Y-84560000D01*
%TO.C,C12*%
X109892164Y-83640000D02*
X110107836Y-83640000D01*
X109892164Y-84360000D02*
X110107836Y-84360000D01*
%TO.C,C6*%
X120027836Y-80630074D02*
X119812164Y-80630074D01*
X120027836Y-81350074D02*
X119812164Y-81350074D01*
%TO.C,U6*%
X123488863Y-83890000D02*
X123488863Y-84590000D01*
X123488863Y-98110000D02*
X123488863Y-97410000D01*
X124188863Y-83890000D02*
X123488863Y-83890000D01*
X124188863Y-98110000D02*
X123488863Y-98110000D01*
X137008863Y-83890000D02*
X137708863Y-83890000D01*
X137008863Y-98110000D02*
X137708863Y-98110000D01*
X137708863Y-83890000D02*
X137708863Y-84590000D01*
X137708863Y-98110000D02*
X137708863Y-97410000D01*
X122861363Y-84590000D02*
X122521363Y-84120000D01*
X123201363Y-84120000D01*
X122861363Y-84590000D01*
G36*
X122861363Y-84590000D02*
G01*
X122521363Y-84120000D01*
X123201363Y-84120000D01*
X122861363Y-84590000D01*
G37*
%TO.C,R11*%
X111120000Y-78653641D02*
X111120000Y-78346359D01*
X111880000Y-78653641D02*
X111880000Y-78346359D01*
D11*
%TO.C,IC1*%
X107475000Y-88900000D02*
G75*
G02*
X107225000Y-88900000I-125000J0D01*
G01*
X107225000Y-88900000D02*
G75*
G02*
X107475000Y-88900000I125000J0D01*
G01*
D13*
%TO.C,C7*%
X120027836Y-81640000D02*
X119812164Y-81640000D01*
X120027836Y-82360000D02*
X119812164Y-82360000D01*
%TO.C,C23*%
X131860000Y-103607836D02*
X131860000Y-103392164D01*
X131140000Y-103607836D02*
X131140000Y-103392164D01*
%TO.C,R1*%
X105862085Y-87514652D02*
X105862085Y-87989168D01*
X106907085Y-87514652D02*
X106907085Y-87989168D01*
%TO.C,SW2*%
X96500000Y-102200000D02*
X96500000Y-106600000D01*
X96500000Y-106600000D02*
X96620000Y-106600000D01*
X96620000Y-102200000D02*
X96500000Y-102200000D01*
X97630000Y-106600000D02*
X98770000Y-106600000D01*
X98770000Y-102200000D02*
X97630000Y-102200000D01*
X99780000Y-106600000D02*
X99900000Y-106600000D01*
X99900000Y-102200000D02*
X99780000Y-102200000D01*
X99900000Y-106600000D02*
X99900000Y-102200000D01*
%TO.C,C22*%
X139440000Y-105892164D02*
X139440000Y-106107836D01*
X140160000Y-105892164D02*
X140160000Y-106107836D01*
%TO.C,C19*%
X114240000Y-93092164D02*
X114240000Y-93307836D01*
X114960000Y-93092164D02*
X114960000Y-93307836D01*
%TO.C,C3*%
X123001017Y-80340597D02*
X123001017Y-80556269D01*
X123721017Y-80340597D02*
X123721017Y-80556269D01*
D12*
%TO.C,IC2*%
X134750000Y-106200000D02*
X134750000Y-106200000D01*
X134950000Y-106200000D02*
X134950000Y-106200000D01*
X134750000Y-106200000D02*
G75*
G02*
X134950000Y-106200000I100000J0D01*
G01*
X134950000Y-106200000D02*
G75*
G02*
X134750000Y-106200000I-100000J0D01*
G01*
D13*
%TO.C,C14*%
X138237164Y-81240000D02*
X138452836Y-81240000D01*
X138237164Y-81960000D02*
X138452836Y-81960000D01*
%TO.C,R2*%
X129646359Y-79820000D02*
X129953641Y-79820000D01*
X129646359Y-80580000D02*
X129953641Y-80580000D01*
D10*
%TO.C,D1*%
X105050000Y-84910000D02*
G75*
G02*
X104950000Y-84910000I-50000J0D01*
G01*
X104950000Y-84910000D02*
G75*
G02*
X105050000Y-84910000I50000J0D01*
G01*
D13*
%TO.C,R3*%
X134420000Y-80246359D02*
X134420000Y-80553641D01*
X135180000Y-80246359D02*
X135180000Y-80553641D01*
%TD*%
%LPC*%
D14*
%TO.C,SW1*%
X101325000Y-106475000D03*
X101325000Y-102325000D03*
X103475000Y-106475000D03*
X103475000Y-102325000D03*
%TD*%
D15*
%TO.C,C5*%
X121438400Y-79969329D03*
X121438400Y-80929329D03*
%TD*%
%TO.C,C21*%
X138600000Y-105520000D03*
X138600000Y-106480000D03*
%TD*%
D16*
%TO.C,C8*%
X120400000Y-80000000D03*
X119440000Y-80000000D03*
%TD*%
D15*
%TO.C,C18*%
X114600000Y-90420000D03*
X114600000Y-91380000D03*
%TD*%
D17*
%TO.C,R10*%
X141800000Y-83490000D03*
X141800000Y-84510000D03*
%TD*%
D18*
%TO.C,H5*%
X143500000Y-78000000D03*
D19*
X143500000Y-78000000D03*
%TD*%
D20*
%TO.C,Y2*%
X116787000Y-91375000D03*
X116787000Y-93025000D03*
X118013000Y-93025000D03*
X118013000Y-91375000D03*
%TD*%
D21*
%TO.C,J5*%
X144200000Y-82000000D03*
D22*
X144200000Y-84540000D03*
X144200000Y-87080000D03*
X144200000Y-89620000D03*
%TD*%
D18*
%TO.C,H6*%
X92500000Y-105000000D03*
D19*
X92500000Y-105000000D03*
%TD*%
D23*
%TO.C,C13*%
X108020000Y-90250000D03*
X108980000Y-90250000D03*
%TD*%
D24*
%TO.C,C10*%
X95850000Y-95475000D03*
X95850000Y-93925000D03*
%TD*%
D16*
%TO.C,C30*%
X103480000Y-100800000D03*
X102520000Y-100800000D03*
%TD*%
D25*
%TO.C,C9*%
X96000000Y-97800000D03*
X96000000Y-99350000D03*
%TD*%
D21*
%TO.C,J6*%
X136325000Y-77400000D03*
D22*
X138865000Y-77400000D03*
%TD*%
D16*
%TO.C,C25*%
X124418379Y-104743433D03*
X125378379Y-104743433D03*
%TD*%
D18*
%TO.C,H1*%
X92500000Y-78000000D03*
D19*
X92500000Y-78000000D03*
%TD*%
D15*
%TO.C,C4*%
X122361017Y-79968433D03*
X122361017Y-80928433D03*
%TD*%
D26*
%TO.C,R8*%
X99310000Y-100800000D03*
X98290000Y-100800000D03*
%TD*%
D17*
%TO.C,R9*%
X141800000Y-86090000D03*
X141800000Y-87110000D03*
%TD*%
D27*
%TO.C,C20*%
X138600000Y-104480000D03*
X138600000Y-103520000D03*
%TD*%
D28*
%TO.C,U3*%
X101800000Y-86000000D03*
D29*
X101725000Y-86537500D03*
D28*
X101800000Y-87075000D03*
X103500000Y-87075000D03*
D29*
X103575000Y-86537500D03*
D28*
X103500000Y-86000000D03*
%TD*%
D30*
%TO.C,U4*%
X128000000Y-105025000D03*
X128500000Y-105025000D03*
X129000000Y-105025000D03*
X129500000Y-105025000D03*
D31*
X129512500Y-104512500D03*
X129512500Y-104012500D03*
D30*
X129500000Y-103500000D03*
X129000000Y-103500000D03*
X128500000Y-103500000D03*
X128000000Y-103500000D03*
D31*
X127987500Y-104012500D03*
X127987500Y-104512500D03*
%TD*%
D23*
%TO.C,C15*%
X137865000Y-82800000D03*
X138825000Y-82800000D03*
%TD*%
%TO.C,C1*%
X120920000Y-98000000D03*
X121880000Y-98000000D03*
%TD*%
D16*
%TO.C,C26*%
X125618379Y-103543433D03*
X126578379Y-103543433D03*
%TD*%
D15*
%TO.C,C24*%
X126500000Y-105550000D03*
X126500000Y-104590000D03*
%TD*%
D21*
%TO.C,J8*%
X92400000Y-97675000D03*
D22*
X92400000Y-95135000D03*
%TD*%
D18*
%TO.C,H7*%
X143500000Y-105000000D03*
D19*
X143500000Y-105000000D03*
%TD*%
D32*
%TO.C,J1*%
X97544052Y-83500000D03*
X97544052Y-84000000D03*
X97544052Y-84500000D03*
X97544052Y-85000000D03*
X97544052Y-85500000D03*
X97544052Y-86000000D03*
X97544052Y-87000000D03*
X97544052Y-87500000D03*
X97544052Y-88000000D03*
X97544052Y-88500000D03*
X97544052Y-89000000D03*
X97544052Y-89500000D03*
D33*
X96244052Y-89600000D03*
D32*
X96244052Y-88750000D03*
X96244052Y-88250000D03*
X96244052Y-87750000D03*
X96244052Y-87250000D03*
X96244052Y-86750000D03*
X96244052Y-86250000D03*
X96244052Y-85750000D03*
X96244052Y-85250000D03*
X96244052Y-84750000D03*
X96244052Y-84250000D03*
D33*
X96244052Y-83400000D03*
D34*
X97134052Y-82180000D03*
D35*
X91774052Y-82180000D03*
D34*
X97134052Y-90820000D03*
D35*
X91774052Y-90820000D03*
%TD*%
D23*
%TO.C,C2*%
X120920000Y-99200000D03*
X121880000Y-99200000D03*
%TD*%
D36*
%TO.C,FB1*%
X122975000Y-100600000D03*
X121425000Y-100600000D03*
%TD*%
D37*
%TO.C,U5*%
X132037500Y-78837500D03*
X132037500Y-79337500D03*
D38*
X132300000Y-79850000D03*
X132800000Y-79850000D03*
X133300000Y-79850000D03*
D37*
X133562500Y-79337500D03*
X133562500Y-78837500D03*
D38*
X133300000Y-78325000D03*
X132800000Y-78325000D03*
X132300000Y-78325000D03*
%TD*%
D21*
%TO.C,J7*%
X120780000Y-77000000D03*
D22*
X123320000Y-77000000D03*
X125860000Y-77000000D03*
X128400000Y-77000000D03*
%TD*%
D39*
%TO.C,D3*%
X115787500Y-78000000D03*
X114212500Y-78000000D03*
%TD*%
D40*
%TO.C,U2*%
X98300000Y-93300000D03*
X98300000Y-95600000D03*
D41*
X104600000Y-95600000D03*
D40*
X98300000Y-97900000D03*
%TD*%
D23*
%TO.C,C27*%
X132320000Y-77050000D03*
X133280000Y-77050000D03*
%TD*%
%TO.C,C11*%
X107120000Y-84200000D03*
X108080000Y-84200000D03*
%TD*%
%TO.C,C12*%
X109520000Y-84000000D03*
X110480000Y-84000000D03*
%TD*%
D16*
%TO.C,C6*%
X120400000Y-80990074D03*
X119440000Y-80990074D03*
%TD*%
D42*
%TO.C,U6*%
X122923863Y-85000000D03*
X122923863Y-85500000D03*
X122923863Y-86000000D03*
X122923863Y-86500000D03*
X122923863Y-87000000D03*
X122923863Y-87500000D03*
X122923863Y-88000000D03*
X122923863Y-88500000D03*
X122923863Y-89000000D03*
X122923863Y-89500000D03*
X122923863Y-90000000D03*
X122923863Y-90500000D03*
X122923863Y-91000000D03*
X122923863Y-91500000D03*
X122923863Y-92000000D03*
X122923863Y-92500000D03*
X122923863Y-93000000D03*
X122923863Y-93500000D03*
X122923863Y-94000000D03*
X122923863Y-94500000D03*
X122923863Y-95000000D03*
X122923863Y-95500000D03*
X122923863Y-96000000D03*
X122923863Y-96500000D03*
X122923863Y-97000000D03*
D43*
X124598863Y-98675000D03*
X125098863Y-98675000D03*
X125598863Y-98675000D03*
X126098863Y-98675000D03*
X126598863Y-98675000D03*
X127098863Y-98675000D03*
X127598863Y-98675000D03*
X128098863Y-98675000D03*
X128598863Y-98675000D03*
X129098863Y-98675000D03*
X129598863Y-98675000D03*
X130098863Y-98675000D03*
X130598863Y-98675000D03*
X131098863Y-98675000D03*
X131598863Y-98675000D03*
X132098863Y-98675000D03*
X132598863Y-98675000D03*
X133098863Y-98675000D03*
X133598863Y-98675000D03*
X134098863Y-98675000D03*
X134598863Y-98675000D03*
X135098863Y-98675000D03*
X135598863Y-98675000D03*
X136098863Y-98675000D03*
X136598863Y-98675000D03*
D42*
X138273863Y-97000000D03*
X138273863Y-96500000D03*
X138273863Y-96000000D03*
X138273863Y-95500000D03*
X138273863Y-95000000D03*
X138273863Y-94500000D03*
X138273863Y-94000000D03*
X138273863Y-93500000D03*
X138273863Y-93000000D03*
X138273863Y-92500000D03*
X138273863Y-92000000D03*
X138273863Y-91500000D03*
X138273863Y-91000000D03*
X138273863Y-90500000D03*
X138273863Y-90000000D03*
X138273863Y-89500000D03*
X138273863Y-89000000D03*
X138273863Y-88500000D03*
X138273863Y-88000000D03*
X138273863Y-87500000D03*
X138273863Y-87000000D03*
X138273863Y-86500000D03*
X138273863Y-86000000D03*
X138273863Y-85500000D03*
X138273863Y-85000000D03*
D43*
X136598863Y-83325000D03*
X136098863Y-83325000D03*
X135598863Y-83325000D03*
X135098863Y-83325000D03*
X134598863Y-83325000D03*
X134098863Y-83325000D03*
X133598863Y-83325000D03*
X133098863Y-83325000D03*
X132598863Y-83325000D03*
X132098863Y-83325000D03*
X131598863Y-83325000D03*
X131098863Y-83325000D03*
X130598863Y-83325000D03*
X130098863Y-83325000D03*
X129598863Y-83325000D03*
X129098863Y-83325000D03*
X128598863Y-83325000D03*
X128098863Y-83325000D03*
X127598863Y-83325000D03*
X127098863Y-83325000D03*
X126598863Y-83325000D03*
X126098863Y-83325000D03*
X125598863Y-83325000D03*
X125098863Y-83325000D03*
X124598863Y-83325000D03*
%TD*%
D44*
%TO.C,R11*%
X111500000Y-79010000D03*
X111500000Y-77990000D03*
%TD*%
D45*
%TO.C,IC1*%
X108050000Y-88500000D03*
X109000000Y-88500000D03*
X109950000Y-88500000D03*
X109950000Y-85500000D03*
X109000000Y-85500000D03*
X108050000Y-85500000D03*
D46*
X109000000Y-87000000D03*
%TD*%
D16*
%TO.C,C7*%
X120400000Y-82000000D03*
X119440000Y-82000000D03*
%TD*%
D27*
%TO.C,C23*%
X131500000Y-103020000D03*
X131500000Y-103980000D03*
%TD*%
D47*
%TO.C,R1*%
X106384585Y-86926910D03*
X106384585Y-88576910D03*
%TD*%
D14*
%TO.C,SW2*%
X99275000Y-102325000D03*
X99275000Y-106475000D03*
X97125000Y-102325000D03*
X97125000Y-106475000D03*
%TD*%
D15*
%TO.C,C22*%
X139800000Y-105520000D03*
X139800000Y-106480000D03*
%TD*%
%TO.C,C19*%
X114600000Y-92720000D03*
X114600000Y-93680000D03*
%TD*%
%TO.C,C3*%
X123361017Y-79968433D03*
X123361017Y-80928433D03*
%TD*%
D48*
%TO.C,IC2*%
X134850000Y-105163000D03*
X135350000Y-105163000D03*
X135850000Y-105163000D03*
X136350000Y-105163000D03*
D49*
X136512000Y-104500000D03*
X136512000Y-104000000D03*
X136512000Y-103500000D03*
D48*
X136350000Y-102837000D03*
X135850000Y-102837000D03*
X135350000Y-102837000D03*
X134850000Y-102837000D03*
D49*
X134688000Y-103500000D03*
X134688000Y-104000000D03*
X134688000Y-104500000D03*
%TD*%
D23*
%TO.C,C14*%
X137865000Y-81600000D03*
X138825000Y-81600000D03*
%TD*%
D50*
%TO.C,R2*%
X129290000Y-80200000D03*
X130310000Y-80200000D03*
%TD*%
D51*
%TO.C,D1*%
X105000000Y-85515000D03*
X105000000Y-86485000D03*
%TD*%
D17*
%TO.C,R3*%
X134800000Y-79890000D03*
X134800000Y-80910000D03*
%TD*%
%LPD*%
M02*
