%TF.GenerationSoftware,KiCad,Pcbnew,8.0.6*%
%TF.CreationDate,2024-11-11T09:30:46-05:00*%
%TF.ProjectId,VanguardFlightComputer,56616e67-7561-4726-9446-6c6967687443,rev?*%
%TF.SameCoordinates,Original*%
%TF.FileFunction,Copper,L3,Inr*%
%TF.FilePolarity,Positive*%
%FSLAX46Y46*%
G04 Gerber Fmt 4.6, Leading zero omitted, Abs format (unit mm)*
G04 Created by KiCad (PCBNEW 8.0.6) date 2024-11-11 09:30:46*
%MOMM*%
%LPD*%
G01*
G04 APERTURE LIST*
%TA.AperFunction,ComponentPad*%
%ADD10C,2.600000*%
%TD*%
%TA.AperFunction,ComponentPad*%
%ADD11R,1.700000X1.700000*%
%TD*%
%TA.AperFunction,ComponentPad*%
%ADD12O,1.700000X1.700000*%
%TD*%
%TA.AperFunction,ComponentPad*%
%ADD13O,2.100000X1.100000*%
%TD*%
%TA.AperFunction,ComponentPad*%
%ADD14O,2.600000X1.100000*%
%TD*%
%TA.AperFunction,ViaPad*%
%ADD15C,0.600000*%
%TD*%
G04 APERTURE END LIST*
D10*
%TO.N,N/C*%
%TO.C,H5*%
X143500000Y-78000000D03*
%TD*%
D11*
%TO.N,GND*%
%TO.C,J5*%
X144200000Y-82000000D03*
D12*
%TO.N,Net-(J5-Pin_2)*%
X144200000Y-84540000D03*
%TO.N,Net-(J5-Pin_3)*%
X144200000Y-87080000D03*
%TO.N,+3.3V*%
X144200000Y-89620000D03*
%TD*%
D10*
%TO.N,N/C*%
%TO.C,H6*%
X92500000Y-105000000D03*
%TD*%
D11*
%TO.N,I2C1_SDA*%
%TO.C,J6*%
X136325000Y-77400000D03*
D12*
%TO.N,I2C1_SCL*%
X138865000Y-77400000D03*
%TD*%
D10*
%TO.N,N/C*%
%TO.C,H1*%
X92500000Y-78000000D03*
%TD*%
D11*
%TO.N,VIN*%
%TO.C,J8*%
X92400000Y-97675000D03*
D12*
%TO.N,GND*%
X92400000Y-95135000D03*
%TD*%
D10*
%TO.N,N/C*%
%TO.C,H7*%
X143500000Y-105000000D03*
%TD*%
D13*
%TO.N,GND*%
%TO.C,J1*%
X97134052Y-82180000D03*
D14*
X91774052Y-82180000D03*
D13*
X97134052Y-90820000D03*
D14*
X91774052Y-90820000D03*
%TD*%
D11*
%TO.N,SERVO_1_PWM*%
%TO.C,J7*%
X120780000Y-77000000D03*
D12*
%TO.N,SERVO_2_PWM*%
X123320000Y-77000000D03*
%TO.N,SERVO_3_PWM*%
X125860000Y-77000000D03*
%TO.N,SERVO_4_PWM*%
X128400000Y-77000000D03*
%TD*%
D15*
%TO.N,GND*%
X114500000Y-76500000D03*
X118000000Y-81000000D03*
X125000000Y-105750000D03*
X130250000Y-101750000D03*
X107000000Y-82750000D03*
X134200000Y-100400000D03*
X144000000Y-91750000D03*
X94750000Y-101000000D03*
X125000000Y-92800000D03*
X100800000Y-101000000D03*
X118000000Y-76500000D03*
X118750000Y-98500000D03*
X117400000Y-83400000D03*
X142750000Y-98750000D03*
X106500000Y-100875000D03*
X109750000Y-96250000D03*
X140500000Y-95250000D03*
X109750000Y-78000000D03*
X96500000Y-77500000D03*
X104500000Y-82750000D03*
X109750000Y-98500000D03*
X111200000Y-89800000D03*
X104500000Y-80000000D03*
X139800000Y-103000000D03*
X115750000Y-102250000D03*
X94750000Y-92750000D03*
X140500000Y-97000000D03*
X96500000Y-80000000D03*
X98500000Y-80000000D03*
X134000000Y-76300000D03*
X125250000Y-84800000D03*
X118750000Y-96250000D03*
X123400000Y-98800000D03*
X107000000Y-80000000D03*
X107000000Y-78000000D03*
X141750000Y-89750000D03*
X109750000Y-80000000D03*
X112750000Y-98500000D03*
X99400000Y-83000000D03*
X100166840Y-87100000D03*
X115750000Y-98500000D03*
X140500000Y-98750000D03*
X115750000Y-100500000D03*
X104500000Y-78000000D03*
X139800000Y-84600000D03*
X120200000Y-89800000D03*
X141750000Y-88250000D03*
X115750000Y-96250000D03*
X112750000Y-100500000D03*
X131200000Y-80600000D03*
X109750000Y-100500000D03*
X145200000Y-98750000D03*
X112750000Y-102250000D03*
%TO.N,+3.3V*%
X124500000Y-94500000D03*
%TO.N,VBUS*%
X100000000Y-85000000D03*
X99211768Y-87626899D03*
%TO.N,USB_DM*%
X136524265Y-87124265D03*
X104000000Y-85000000D03*
%TO.N,USB_DP*%
X104000000Y-88200000D03*
X139800000Y-87400000D03*
%TO.N,I2C1_SDA*%
X128100000Y-85400000D03*
%TO.N,I2C1_SCL*%
X129400000Y-86200000D03*
%TO.N,SPI1_MOSI*%
X118650000Y-104000000D03*
%TD*%
%TA.AperFunction,Conductor*%
%TO.N,GND*%
G36*
X119372539Y-76020185D02*
G01*
X119418294Y-76072989D01*
X119429500Y-76124500D01*
X119429500Y-77897870D01*
X119429501Y-77897876D01*
X119435908Y-77957483D01*
X119486202Y-78092328D01*
X119486206Y-78092335D01*
X119572452Y-78207544D01*
X119572455Y-78207547D01*
X119687664Y-78293793D01*
X119687671Y-78293797D01*
X119822517Y-78344091D01*
X119822516Y-78344091D01*
X119829444Y-78344835D01*
X119882127Y-78350500D01*
X121677872Y-78350499D01*
X121737483Y-78344091D01*
X121872331Y-78293796D01*
X121987546Y-78207546D01*
X122073796Y-78092331D01*
X122122810Y-77960916D01*
X122164681Y-77904984D01*
X122230145Y-77880566D01*
X122298418Y-77895417D01*
X122326673Y-77916569D01*
X122448599Y-78038495D01*
X122542897Y-78104523D01*
X122642165Y-78174032D01*
X122642167Y-78174033D01*
X122642170Y-78174035D01*
X122856337Y-78273903D01*
X123084592Y-78335063D01*
X123261034Y-78350500D01*
X123319999Y-78355659D01*
X123320000Y-78355659D01*
X123320001Y-78355659D01*
X123378966Y-78350500D01*
X123555408Y-78335063D01*
X123783663Y-78273903D01*
X123997830Y-78174035D01*
X124191401Y-78038495D01*
X124358495Y-77871401D01*
X124488425Y-77685842D01*
X124543002Y-77642217D01*
X124612500Y-77635023D01*
X124674855Y-77666546D01*
X124691575Y-77685842D01*
X124821500Y-77871395D01*
X124821505Y-77871401D01*
X124988599Y-78038495D01*
X125082897Y-78104523D01*
X125182165Y-78174032D01*
X125182167Y-78174033D01*
X125182170Y-78174035D01*
X125396337Y-78273903D01*
X125624592Y-78335063D01*
X125801034Y-78350500D01*
X125859999Y-78355659D01*
X125860000Y-78355659D01*
X125860001Y-78355659D01*
X125918966Y-78350500D01*
X126095408Y-78335063D01*
X126323663Y-78273903D01*
X126537830Y-78174035D01*
X126731401Y-78038495D01*
X126898495Y-77871401D01*
X127028425Y-77685842D01*
X127083002Y-77642217D01*
X127152500Y-77635023D01*
X127214855Y-77666546D01*
X127231575Y-77685842D01*
X127361500Y-77871395D01*
X127361505Y-77871401D01*
X127528599Y-78038495D01*
X127622897Y-78104523D01*
X127722165Y-78174032D01*
X127722167Y-78174033D01*
X127722170Y-78174035D01*
X127936337Y-78273903D01*
X128164592Y-78335063D01*
X128341034Y-78350500D01*
X128399999Y-78355659D01*
X128400000Y-78355659D01*
X128400001Y-78355659D01*
X128458966Y-78350500D01*
X128635408Y-78335063D01*
X128863663Y-78273903D01*
X129077830Y-78174035D01*
X129271401Y-78038495D01*
X129438495Y-77871401D01*
X129541007Y-77724999D01*
X130119722Y-77724999D01*
X130119722Y-77725000D01*
X130138762Y-77881818D01*
X130183583Y-78000000D01*
X130194780Y-78029523D01*
X130284517Y-78159530D01*
X130402760Y-78264283D01*
X130402762Y-78264284D01*
X130542634Y-78337696D01*
X130696014Y-78375500D01*
X130696015Y-78375500D01*
X130853985Y-78375500D01*
X131007365Y-78337696D01*
X131012382Y-78335063D01*
X131147240Y-78264283D01*
X131265483Y-78159530D01*
X131355220Y-78029523D01*
X131411237Y-77881818D01*
X131430278Y-77725000D01*
X131425524Y-77685842D01*
X131411237Y-77568181D01*
X131373169Y-77467805D01*
X131355220Y-77420477D01*
X131265483Y-77290470D01*
X131147240Y-77185717D01*
X131147238Y-77185716D01*
X131147237Y-77185715D01*
X131007365Y-77112303D01*
X130853986Y-77074500D01*
X130853985Y-77074500D01*
X130696015Y-77074500D01*
X130696014Y-77074500D01*
X130542634Y-77112303D01*
X130402762Y-77185715D01*
X130284516Y-77290471D01*
X130194781Y-77420475D01*
X130194780Y-77420476D01*
X130138762Y-77568181D01*
X130119722Y-77724999D01*
X129541007Y-77724999D01*
X129574035Y-77677830D01*
X129673903Y-77463663D01*
X129735063Y-77235408D01*
X129755659Y-77000000D01*
X129735063Y-76764592D01*
X129673903Y-76536337D01*
X129574035Y-76322171D01*
X129571999Y-76319263D01*
X129485426Y-76195623D01*
X129463099Y-76129417D01*
X129480109Y-76061650D01*
X129531057Y-76013837D01*
X129587001Y-76000500D01*
X135013429Y-76000500D01*
X135080468Y-76020185D01*
X135126223Y-76072989D01*
X135136167Y-76142147D01*
X135112695Y-76198811D01*
X135031206Y-76307664D01*
X135031202Y-76307671D01*
X134980908Y-76442517D01*
X134974501Y-76502116D01*
X134974500Y-76502135D01*
X134974500Y-78297870D01*
X134974501Y-78297876D01*
X134980908Y-78357483D01*
X135031202Y-78492328D01*
X135031206Y-78492335D01*
X135117452Y-78607544D01*
X135117455Y-78607547D01*
X135232664Y-78693793D01*
X135232671Y-78693797D01*
X135367517Y-78744091D01*
X135367516Y-78744091D01*
X135374444Y-78744835D01*
X135427127Y-78750500D01*
X137222872Y-78750499D01*
X137282483Y-78744091D01*
X137417331Y-78693796D01*
X137532546Y-78607546D01*
X137618796Y-78492331D01*
X137667810Y-78360916D01*
X137709681Y-78304984D01*
X137775145Y-78280566D01*
X137843418Y-78295417D01*
X137871673Y-78316569D01*
X137993599Y-78438495D01*
X138090384Y-78506265D01*
X138187165Y-78574032D01*
X138187167Y-78574033D01*
X138187170Y-78574035D01*
X138401337Y-78673903D01*
X138629592Y-78735063D01*
X138806034Y-78750500D01*
X138864999Y-78755659D01*
X138865000Y-78755659D01*
X138865001Y-78755659D01*
X138923966Y-78750500D01*
X139100408Y-78735063D01*
X139328663Y-78673903D01*
X139542830Y-78574035D01*
X139736401Y-78438495D01*
X139903495Y-78271401D01*
X140039035Y-78077830D01*
X140138903Y-77863663D01*
X140200063Y-77635408D01*
X140220659Y-77400000D01*
X140200063Y-77164592D01*
X140138903Y-76936337D01*
X140039035Y-76722171D01*
X139945344Y-76588365D01*
X139903494Y-76528597D01*
X139736402Y-76361506D01*
X139736396Y-76361501D01*
X139542987Y-76226075D01*
X139499362Y-76171498D01*
X139492168Y-76102000D01*
X139523691Y-76039645D01*
X139583921Y-76004231D01*
X139614110Y-76000500D01*
X143051073Y-76000500D01*
X143118112Y-76020185D01*
X143163867Y-76072989D01*
X143173811Y-76142147D01*
X143144786Y-76205703D01*
X143087623Y-76242991D01*
X142840358Y-76319262D01*
X142597230Y-76436346D01*
X142374258Y-76588365D01*
X142176442Y-76771910D01*
X142008185Y-76982898D01*
X141873258Y-77216599D01*
X141873256Y-77216603D01*
X141774666Y-77467804D01*
X141774664Y-77467811D01*
X141714616Y-77730898D01*
X141694451Y-77999995D01*
X141694451Y-78000004D01*
X141714616Y-78269101D01*
X141774664Y-78532188D01*
X141774666Y-78532195D01*
X141860344Y-78750498D01*
X141873257Y-78783398D01*
X142008185Y-79017102D01*
X142144080Y-79187509D01*
X142176442Y-79228089D01*
X142363183Y-79401358D01*
X142374259Y-79411635D01*
X142597226Y-79563651D01*
X142840359Y-79680738D01*
X143098228Y-79760280D01*
X143098229Y-79760280D01*
X143098232Y-79760281D01*
X143365063Y-79800499D01*
X143365068Y-79800499D01*
X143365071Y-79800500D01*
X143365072Y-79800500D01*
X143634928Y-79800500D01*
X143634929Y-79800500D01*
X143634936Y-79800499D01*
X143901767Y-79760281D01*
X143901768Y-79760280D01*
X143901772Y-79760280D01*
X144159641Y-79680738D01*
X144402775Y-79563651D01*
X144625741Y-79411635D01*
X144823561Y-79228085D01*
X144991815Y-79017102D01*
X145126743Y-78783398D01*
X145225334Y-78532195D01*
X145254609Y-78403934D01*
X145288718Y-78342956D01*
X145350379Y-78310098D01*
X145420016Y-78315793D01*
X145475520Y-78358233D01*
X145499268Y-78423943D01*
X145499500Y-78431527D01*
X145499500Y-80614192D01*
X145479815Y-80681231D01*
X145427011Y-80726986D01*
X145357853Y-80736930D01*
X145301190Y-80713460D01*
X145292088Y-80706646D01*
X145292086Y-80706645D01*
X145157379Y-80656403D01*
X145157372Y-80656401D01*
X145097844Y-80650000D01*
X144450000Y-80650000D01*
X144450000Y-81566988D01*
X144392993Y-81534075D01*
X144265826Y-81500000D01*
X144134174Y-81500000D01*
X144007007Y-81534075D01*
X143950000Y-81566988D01*
X143950000Y-80650000D01*
X143302155Y-80650000D01*
X143242627Y-80656401D01*
X143242620Y-80656403D01*
X143107913Y-80706645D01*
X143107906Y-80706649D01*
X142992812Y-80792809D01*
X142992809Y-80792812D01*
X142906649Y-80907906D01*
X142906645Y-80907913D01*
X142856403Y-81042620D01*
X142856401Y-81042627D01*
X142850000Y-81102155D01*
X142850000Y-81750000D01*
X143766988Y-81750000D01*
X143734075Y-81807007D01*
X143700000Y-81934174D01*
X143700000Y-82065826D01*
X143734075Y-82192993D01*
X143766988Y-82250000D01*
X142850000Y-82250000D01*
X142850000Y-82897844D01*
X142856401Y-82957372D01*
X142856403Y-82957379D01*
X142906645Y-83092086D01*
X142906649Y-83092093D01*
X142992809Y-83207187D01*
X142992812Y-83207190D01*
X143107906Y-83293350D01*
X143107913Y-83293354D01*
X143239470Y-83342421D01*
X143295403Y-83384292D01*
X143319821Y-83449756D01*
X143304970Y-83518029D01*
X143283819Y-83546284D01*
X143161503Y-83668600D01*
X143025965Y-83862169D01*
X143025964Y-83862171D01*
X142926098Y-84076335D01*
X142926094Y-84076344D01*
X142864938Y-84304586D01*
X142864936Y-84304596D01*
X142844341Y-84539999D01*
X142844341Y-84540000D01*
X142864936Y-84775403D01*
X142864938Y-84775413D01*
X142926094Y-85003655D01*
X142926096Y-85003659D01*
X142926097Y-85003663D01*
X143007974Y-85179249D01*
X143025965Y-85217830D01*
X143025967Y-85217834D01*
X143126075Y-85360802D01*
X143161501Y-85411396D01*
X143161506Y-85411402D01*
X143328597Y-85578493D01*
X143328603Y-85578498D01*
X143514158Y-85708425D01*
X143557783Y-85763002D01*
X143564977Y-85832500D01*
X143533454Y-85894855D01*
X143514158Y-85911575D01*
X143328597Y-86041505D01*
X143161505Y-86208597D01*
X143025965Y-86402169D01*
X143025964Y-86402171D01*
X142926098Y-86616335D01*
X142926094Y-86616344D01*
X142864938Y-86844586D01*
X142864936Y-86844596D01*
X142844341Y-87079999D01*
X142844341Y-87080000D01*
X142864936Y-87315403D01*
X142864938Y-87315413D01*
X142926094Y-87543655D01*
X142926096Y-87543659D01*
X142926097Y-87543663D01*
X142964909Y-87626895D01*
X143025965Y-87757830D01*
X143025967Y-87757834D01*
X143112564Y-87881506D01*
X143161501Y-87951396D01*
X143161506Y-87951402D01*
X143328597Y-88118493D01*
X143328603Y-88118498D01*
X143514158Y-88248425D01*
X143557783Y-88303002D01*
X143564977Y-88372500D01*
X143533454Y-88434855D01*
X143514158Y-88451575D01*
X143328597Y-88581505D01*
X143161505Y-88748597D01*
X143025965Y-88942169D01*
X143025964Y-88942171D01*
X142926098Y-89156335D01*
X142926094Y-89156344D01*
X142864938Y-89384586D01*
X142864936Y-89384596D01*
X142844341Y-89619999D01*
X142844341Y-89620000D01*
X142864936Y-89855403D01*
X142864938Y-89855413D01*
X142926094Y-90083655D01*
X142926096Y-90083659D01*
X142926097Y-90083663D01*
X142996447Y-90234528D01*
X143025965Y-90297830D01*
X143025967Y-90297834D01*
X143106395Y-90412696D01*
X143161505Y-90491401D01*
X143328599Y-90658495D01*
X143393878Y-90704204D01*
X143522165Y-90794032D01*
X143522167Y-90794033D01*
X143522170Y-90794035D01*
X143736337Y-90893903D01*
X143736343Y-90893904D01*
X143736344Y-90893905D01*
X143784537Y-90906818D01*
X143964592Y-90955063D01*
X144152918Y-90971539D01*
X144199999Y-90975659D01*
X144200000Y-90975659D01*
X144200001Y-90975659D01*
X144239234Y-90972226D01*
X144435408Y-90955063D01*
X144663663Y-90893903D01*
X144877830Y-90794035D01*
X145071401Y-90658495D01*
X145238495Y-90491401D01*
X145273925Y-90440802D01*
X145328502Y-90397177D01*
X145398000Y-90389983D01*
X145460355Y-90421506D01*
X145495769Y-90481735D01*
X145499500Y-90511925D01*
X145499500Y-104568472D01*
X145479815Y-104635511D01*
X145427011Y-104681266D01*
X145357853Y-104691210D01*
X145294297Y-104662185D01*
X145256523Y-104603407D01*
X145254609Y-104596065D01*
X145237665Y-104521834D01*
X145225334Y-104467805D01*
X145126743Y-104216602D01*
X144991815Y-103982898D01*
X144823561Y-103771915D01*
X144823560Y-103771914D01*
X144823557Y-103771910D01*
X144625741Y-103588365D01*
X144604327Y-103573765D01*
X144402775Y-103436349D01*
X144402769Y-103436346D01*
X144402768Y-103436345D01*
X144402767Y-103436344D01*
X144159643Y-103319263D01*
X144159645Y-103319263D01*
X143901773Y-103239720D01*
X143901767Y-103239718D01*
X143634936Y-103199500D01*
X143634929Y-103199500D01*
X143365071Y-103199500D01*
X143365063Y-103199500D01*
X143098232Y-103239718D01*
X143098226Y-103239720D01*
X142840358Y-103319262D01*
X142597230Y-103436346D01*
X142374258Y-103588365D01*
X142176442Y-103771910D01*
X142008185Y-103982898D01*
X141873258Y-104216599D01*
X141873256Y-104216603D01*
X141774666Y-104467804D01*
X141774664Y-104467811D01*
X141714616Y-104730898D01*
X141694451Y-104999995D01*
X141694451Y-105000004D01*
X141714616Y-105269101D01*
X141774664Y-105532188D01*
X141774666Y-105532195D01*
X141846419Y-105715018D01*
X141873257Y-105783398D01*
X142008185Y-106017102D01*
X142077902Y-106104524D01*
X142176442Y-106228089D01*
X142296282Y-106339283D01*
X142374259Y-106411635D01*
X142597226Y-106563651D01*
X142840359Y-106680738D01*
X143005308Y-106731618D01*
X143087623Y-106757009D01*
X143145882Y-106795579D01*
X143174040Y-106859524D01*
X143163156Y-106928541D01*
X143116687Y-106980718D01*
X143051073Y-106999500D01*
X116812875Y-106999500D01*
X116745836Y-106979815D01*
X116700081Y-106927011D01*
X116690137Y-106857853D01*
X116710825Y-106805060D01*
X116741734Y-106760280D01*
X116780220Y-106704523D01*
X116836237Y-106556818D01*
X116855278Y-106400000D01*
X116843346Y-106301726D01*
X116836237Y-106243181D01*
X116814992Y-106187164D01*
X116780220Y-106095477D01*
X116714317Y-105999999D01*
X127844722Y-105999999D01*
X127844722Y-106000000D01*
X127863762Y-106156818D01*
X127890792Y-106228089D01*
X127919780Y-106304523D01*
X128009517Y-106434530D01*
X128127760Y-106539283D01*
X128127762Y-106539284D01*
X128267634Y-106612696D01*
X128421014Y-106650500D01*
X128421015Y-106650500D01*
X128578985Y-106650500D01*
X128732365Y-106612696D01*
X128737694Y-106609899D01*
X128872240Y-106539283D01*
X128990483Y-106434530D01*
X129080220Y-106304523D01*
X129136237Y-106156818D01*
X129155278Y-106000000D01*
X129154939Y-105997203D01*
X129136237Y-105843181D01*
X129100708Y-105749500D01*
X129080220Y-105695477D01*
X128990483Y-105565470D01*
X128872240Y-105460717D01*
X128872238Y-105460716D01*
X128872237Y-105460715D01*
X128732365Y-105387303D01*
X128578986Y-105349500D01*
X128578985Y-105349500D01*
X128421015Y-105349500D01*
X128421014Y-105349500D01*
X128267634Y-105387303D01*
X128127762Y-105460715D01*
X128009516Y-105565471D01*
X127919781Y-105695475D01*
X127919780Y-105695476D01*
X127863762Y-105843181D01*
X127844722Y-105999999D01*
X116714317Y-105999999D01*
X116690483Y-105965470D01*
X116572240Y-105860717D01*
X116572238Y-105860716D01*
X116572237Y-105860715D01*
X116432366Y-105787304D01*
X116331329Y-105762401D01*
X116270948Y-105727245D01*
X116239160Y-105665025D01*
X116237908Y-105656946D01*
X116236237Y-105643182D01*
X116236237Y-105643181D01*
X116194145Y-105532195D01*
X116180220Y-105495477D01*
X116090483Y-105365470D01*
X115972240Y-105260717D01*
X115972238Y-105260716D01*
X115972237Y-105260715D01*
X115832365Y-105187303D01*
X115678986Y-105149500D01*
X115678985Y-105149500D01*
X115521015Y-105149500D01*
X115521014Y-105149500D01*
X115367634Y-105187303D01*
X115227762Y-105260715D01*
X115227760Y-105260717D01*
X115109517Y-105365470D01*
X115109516Y-105365471D01*
X115103903Y-105370444D01*
X115101958Y-105368248D01*
X115054232Y-105398179D01*
X114984367Y-105397405D01*
X114926011Y-105358981D01*
X114897692Y-105295108D01*
X114897522Y-105263875D01*
X114897906Y-105260717D01*
X114905278Y-105200000D01*
X114903737Y-105187304D01*
X114886237Y-105043181D01*
X114864992Y-104987164D01*
X114830220Y-104895477D01*
X114740483Y-104765470D01*
X114622240Y-104660717D01*
X114622238Y-104660716D01*
X114622237Y-104660715D01*
X114482365Y-104587303D01*
X114328986Y-104549500D01*
X114328985Y-104549500D01*
X114171015Y-104549500D01*
X114171014Y-104549500D01*
X114017634Y-104587303D01*
X113877762Y-104660715D01*
X113877760Y-104660717D01*
X113761686Y-104763549D01*
X113759516Y-104765471D01*
X113669781Y-104895475D01*
X113669780Y-104895476D01*
X113613762Y-105043181D01*
X113594722Y-105199999D01*
X113594722Y-105200000D01*
X113613762Y-105356818D01*
X113666349Y-105495476D01*
X113669780Y-105504523D01*
X113759517Y-105634530D01*
X113877760Y-105739283D01*
X113877762Y-105739284D01*
X114017634Y-105812696D01*
X114171014Y-105850500D01*
X114171015Y-105850500D01*
X114328985Y-105850500D01*
X114482365Y-105812696D01*
X114506555Y-105800000D01*
X114622240Y-105739283D01*
X114740483Y-105634530D01*
X114740483Y-105634528D01*
X114746097Y-105629556D01*
X114748053Y-105631764D01*
X114795661Y-105601850D01*
X114865527Y-105602562D01*
X114923917Y-105640934D01*
X114952292Y-105704782D01*
X114952477Y-105736122D01*
X114944722Y-105799997D01*
X114944722Y-105800000D01*
X114963762Y-105956818D01*
X115016349Y-106095476D01*
X115019780Y-106104523D01*
X115109517Y-106234530D01*
X115227760Y-106339283D01*
X115227762Y-106339284D01*
X115367634Y-106412696D01*
X115433059Y-106428821D01*
X115468669Y-106437598D01*
X115529050Y-106472754D01*
X115560839Y-106534973D01*
X115562091Y-106543048D01*
X115563763Y-106556819D01*
X115619780Y-106704523D01*
X115619781Y-106704524D01*
X115689175Y-106805060D01*
X115711058Y-106871415D01*
X115693592Y-106939067D01*
X115642324Y-106986536D01*
X115587125Y-106999500D01*
X92948927Y-106999500D01*
X92881888Y-106979815D01*
X92836133Y-106927011D01*
X92826189Y-106857853D01*
X92855214Y-106794297D01*
X92912377Y-106757009D01*
X92952334Y-106744683D01*
X93159641Y-106680738D01*
X93402775Y-106563651D01*
X93625741Y-106411635D01*
X93807290Y-106243182D01*
X93823557Y-106228089D01*
X93823557Y-106228087D01*
X93823561Y-106228085D01*
X93991815Y-106017102D01*
X94003304Y-105997202D01*
X94973261Y-105997202D01*
X94973261Y-105997203D01*
X94992301Y-106154021D01*
X95026116Y-106243182D01*
X95048319Y-106301726D01*
X95138056Y-106431733D01*
X95256299Y-106536486D01*
X95256301Y-106536487D01*
X95396173Y-106609899D01*
X95549553Y-106647703D01*
X95549554Y-106647703D01*
X95707524Y-106647703D01*
X95860904Y-106609899D01*
X96000779Y-106536486D01*
X96119022Y-106431733D01*
X96208759Y-106301726D01*
X96264776Y-106154021D01*
X96283817Y-105997203D01*
X96278914Y-105956818D01*
X96264776Y-105840384D01*
X96236253Y-105765176D01*
X96208759Y-105692680D01*
X96119022Y-105562673D01*
X96000779Y-105457920D01*
X96000777Y-105457919D01*
X96000776Y-105457918D01*
X95860904Y-105384506D01*
X95707525Y-105346703D01*
X95707524Y-105346703D01*
X95549554Y-105346703D01*
X95549553Y-105346703D01*
X95396173Y-105384506D01*
X95256301Y-105457918D01*
X95138055Y-105562674D01*
X95048320Y-105692678D01*
X95048319Y-105692679D01*
X94992301Y-105840384D01*
X94973261Y-105997202D01*
X94003304Y-105997202D01*
X94126743Y-105783398D01*
X94225334Y-105532195D01*
X94285383Y-105269103D01*
X94292380Y-105175734D01*
X107968987Y-105175734D01*
X107968987Y-105175735D01*
X107988027Y-105332553D01*
X108044045Y-105480258D01*
X108133782Y-105610265D01*
X108252025Y-105715018D01*
X108252027Y-105715019D01*
X108391899Y-105788431D01*
X108545279Y-105826235D01*
X108545280Y-105826235D01*
X108703250Y-105826235D01*
X108856630Y-105788431D01*
X108906225Y-105762401D01*
X108996505Y-105715018D01*
X109114748Y-105610265D01*
X109204485Y-105480258D01*
X109260502Y-105332553D01*
X109279543Y-105175735D01*
X109260502Y-105018917D01*
X109253329Y-105000004D01*
X109228498Y-104934530D01*
X109204485Y-104871212D01*
X109114748Y-104741205D01*
X108996505Y-104636452D01*
X108996503Y-104636451D01*
X108996502Y-104636450D01*
X108856630Y-104563038D01*
X108703251Y-104525235D01*
X108703250Y-104525235D01*
X108545280Y-104525235D01*
X108545279Y-104525235D01*
X108391899Y-104563038D01*
X108252027Y-104636450D01*
X108229036Y-104656818D01*
X108145418Y-104730897D01*
X108133781Y-104741206D01*
X108044046Y-104871210D01*
X108044045Y-104871211D01*
X107988027Y-105018916D01*
X107968987Y-105175734D01*
X94292380Y-105175734D01*
X94302605Y-105039283D01*
X94305549Y-105000004D01*
X94305549Y-104999995D01*
X94287830Y-104763548D01*
X94285383Y-104730897D01*
X94225334Y-104467805D01*
X94129750Y-104224264D01*
X105320457Y-104224264D01*
X105320457Y-104224265D01*
X105339497Y-104381083D01*
X105384597Y-104499999D01*
X105395515Y-104528788D01*
X105485252Y-104658795D01*
X105603495Y-104763548D01*
X105603497Y-104763549D01*
X105743369Y-104836961D01*
X105896749Y-104874765D01*
X105896750Y-104874765D01*
X106054720Y-104874765D01*
X106208100Y-104836961D01*
X106267919Y-104805565D01*
X106347975Y-104763548D01*
X106466218Y-104658795D01*
X106555955Y-104528788D01*
X106611972Y-104381083D01*
X106631013Y-104224265D01*
X106627518Y-104195476D01*
X106611972Y-104067446D01*
X106586391Y-103999996D01*
X117844435Y-103999996D01*
X117844435Y-104000003D01*
X117864630Y-104179249D01*
X117864631Y-104179254D01*
X117924211Y-104349523D01*
X117998533Y-104467805D01*
X118020184Y-104502262D01*
X118147738Y-104629816D01*
X118300478Y-104725789D01*
X118408387Y-104763548D01*
X118470745Y-104785368D01*
X118470750Y-104785369D01*
X118649996Y-104805565D01*
X118650000Y-104805565D01*
X118650004Y-104805565D01*
X118829249Y-104785369D01*
X118829252Y-104785368D01*
X118829255Y-104785368D01*
X118999522Y-104725789D01*
X119152262Y-104629816D01*
X119279816Y-104502262D01*
X119281238Y-104499999D01*
X132094722Y-104499999D01*
X132094722Y-104500000D01*
X132113762Y-104656818D01*
X132162515Y-104785368D01*
X132169780Y-104804523D01*
X132259517Y-104934530D01*
X132377760Y-105039283D01*
X132377762Y-105039284D01*
X132517634Y-105112696D01*
X132671014Y-105150500D01*
X132671015Y-105150500D01*
X132828985Y-105150500D01*
X132982365Y-105112696D01*
X133122240Y-105039283D01*
X133240483Y-104934530D01*
X133330220Y-104804523D01*
X133386237Y-104656818D01*
X133405278Y-104500000D01*
X133386237Y-104343182D01*
X133330220Y-104195477D01*
X133240483Y-104065470D01*
X133122240Y-103960717D01*
X133122238Y-103960716D01*
X133122237Y-103960715D01*
X132982365Y-103887303D01*
X132828986Y-103849500D01*
X132828985Y-103849500D01*
X132671015Y-103849500D01*
X132671014Y-103849500D01*
X132517634Y-103887303D01*
X132377762Y-103960715D01*
X132259516Y-104065471D01*
X132169781Y-104195475D01*
X132169780Y-104195476D01*
X132113762Y-104343181D01*
X132094722Y-104499999D01*
X119281238Y-104499999D01*
X119375789Y-104349522D01*
X119435368Y-104179255D01*
X119447966Y-104067446D01*
X119455565Y-104000003D01*
X119455565Y-103999996D01*
X119435369Y-103820750D01*
X119435368Y-103820745D01*
X119375788Y-103650476D01*
X119279815Y-103497737D01*
X119152262Y-103370184D01*
X118999523Y-103274211D01*
X118829254Y-103214631D01*
X118829249Y-103214630D01*
X118650004Y-103194435D01*
X118649996Y-103194435D01*
X118470750Y-103214630D01*
X118470745Y-103214631D01*
X118300476Y-103274211D01*
X118147737Y-103370184D01*
X118020184Y-103497737D01*
X117924211Y-103650476D01*
X117864631Y-103820745D01*
X117864630Y-103820750D01*
X117844435Y-103999996D01*
X106586391Y-103999996D01*
X106579907Y-103982898D01*
X106555955Y-103919742D01*
X106466218Y-103789735D01*
X106347975Y-103684982D01*
X106347973Y-103684981D01*
X106347972Y-103684980D01*
X106208100Y-103611568D01*
X106054721Y-103573765D01*
X106054720Y-103573765D01*
X105896750Y-103573765D01*
X105896749Y-103573765D01*
X105743369Y-103611568D01*
X105603497Y-103684980D01*
X105603495Y-103684982D01*
X105505373Y-103771910D01*
X105485251Y-103789736D01*
X105395516Y-103919740D01*
X105395515Y-103919741D01*
X105339497Y-104067446D01*
X105320457Y-104224264D01*
X94129750Y-104224264D01*
X94126743Y-104216602D01*
X93991815Y-103982898D01*
X93823561Y-103771915D01*
X93823560Y-103771914D01*
X93823557Y-103771910D01*
X93625741Y-103588365D01*
X93604327Y-103573765D01*
X93402775Y-103436349D01*
X93402769Y-103436346D01*
X93402768Y-103436345D01*
X93402767Y-103436344D01*
X93159643Y-103319263D01*
X93159645Y-103319263D01*
X92901773Y-103239720D01*
X92901767Y-103239718D01*
X92634936Y-103199500D01*
X92634929Y-103199500D01*
X92365071Y-103199500D01*
X92365063Y-103199500D01*
X92098232Y-103239718D01*
X92098226Y-103239720D01*
X91840358Y-103319262D01*
X91597230Y-103436346D01*
X91374258Y-103588365D01*
X91176442Y-103771910D01*
X91008185Y-103982898D01*
X90873258Y-104216599D01*
X90873256Y-104216603D01*
X90774666Y-104467804D01*
X90774664Y-104467811D01*
X90745391Y-104596065D01*
X90711282Y-104657043D01*
X90649621Y-104689901D01*
X90579984Y-104684206D01*
X90524480Y-104641766D01*
X90500732Y-104576056D01*
X90500500Y-104568472D01*
X90500500Y-102249999D01*
X126344722Y-102249999D01*
X126344722Y-102250000D01*
X126363762Y-102406818D01*
X126419780Y-102554523D01*
X126509517Y-102684530D01*
X126627760Y-102789283D01*
X126627762Y-102789284D01*
X126767634Y-102862696D01*
X126921014Y-102900500D01*
X126921015Y-102900500D01*
X127078985Y-102900500D01*
X127232365Y-102862696D01*
X127372240Y-102789283D01*
X127490483Y-102684530D01*
X127580220Y-102554523D01*
X127636237Y-102406818D01*
X127655278Y-102250000D01*
X127638607Y-102112696D01*
X127636237Y-102093181D01*
X127583651Y-101954524D01*
X127580220Y-101945477D01*
X127490483Y-101815470D01*
X127372240Y-101710717D01*
X127372238Y-101710716D01*
X127372237Y-101710715D01*
X127256555Y-101649999D01*
X131844722Y-101649999D01*
X131844722Y-101650000D01*
X131863762Y-101806818D01*
X131916349Y-101945476D01*
X131919780Y-101954523D01*
X132009517Y-102084530D01*
X132127760Y-102189283D01*
X132127762Y-102189284D01*
X132267634Y-102262696D01*
X132421014Y-102300500D01*
X132421015Y-102300500D01*
X132578985Y-102300500D01*
X132732365Y-102262696D01*
X132756557Y-102249999D01*
X132872240Y-102189283D01*
X132990483Y-102084530D01*
X133080220Y-101954523D01*
X133136237Y-101806818D01*
X133155278Y-101650000D01*
X133153737Y-101637304D01*
X133136237Y-101493181D01*
X133114992Y-101437164D01*
X133080220Y-101345477D01*
X132990483Y-101215470D01*
X132872240Y-101110717D01*
X132872238Y-101110716D01*
X132872237Y-101110715D01*
X132732365Y-101037303D01*
X132578986Y-100999500D01*
X132578985Y-100999500D01*
X132421015Y-100999500D01*
X132421014Y-100999500D01*
X132267634Y-101037303D01*
X132127762Y-101110715D01*
X132009516Y-101215471D01*
X131919781Y-101345475D01*
X131919780Y-101345476D01*
X131863762Y-101493181D01*
X131844722Y-101649999D01*
X127256555Y-101649999D01*
X127232365Y-101637303D01*
X127078986Y-101599500D01*
X127078985Y-101599500D01*
X126921015Y-101599500D01*
X126921014Y-101599500D01*
X126767634Y-101637303D01*
X126627762Y-101710715D01*
X126509516Y-101815471D01*
X126419781Y-101945475D01*
X126419780Y-101945476D01*
X126363762Y-102093181D01*
X126344722Y-102249999D01*
X90500500Y-102249999D01*
X90500500Y-101499999D01*
X118144722Y-101499999D01*
X118144722Y-101500000D01*
X118163762Y-101656818D01*
X118184203Y-101710715D01*
X118219780Y-101804523D01*
X118309517Y-101934530D01*
X118427760Y-102039283D01*
X118427762Y-102039284D01*
X118567634Y-102112696D01*
X118721014Y-102150500D01*
X118721015Y-102150500D01*
X118878985Y-102150500D01*
X119032365Y-102112696D01*
X119086034Y-102084528D01*
X119172240Y-102039283D01*
X119290483Y-101934530D01*
X119380220Y-101804523D01*
X119436237Y-101656818D01*
X119455278Y-101500000D01*
X119436516Y-101345475D01*
X119436237Y-101343181D01*
X119401087Y-101250500D01*
X119380220Y-101195477D01*
X119290483Y-101065470D01*
X119172240Y-100960717D01*
X119172238Y-100960716D01*
X119172237Y-100960715D01*
X119032365Y-100887303D01*
X118878986Y-100849500D01*
X118878985Y-100849500D01*
X118721015Y-100849500D01*
X118721014Y-100849500D01*
X118567634Y-100887303D01*
X118427762Y-100960715D01*
X118309516Y-101065471D01*
X118219781Y-101195475D01*
X118219780Y-101195476D01*
X118163762Y-101343181D01*
X118144722Y-101499999D01*
X90500500Y-101499999D01*
X90500500Y-100599999D01*
X137944722Y-100599999D01*
X137944722Y-100600000D01*
X137963762Y-100756818D01*
X138013249Y-100887303D01*
X138019780Y-100904523D01*
X138109517Y-101034530D01*
X138227760Y-101139283D01*
X138227762Y-101139284D01*
X138367634Y-101212696D01*
X138521014Y-101250500D01*
X138521015Y-101250500D01*
X138678985Y-101250500D01*
X138832365Y-101212696D01*
X138972240Y-101139283D01*
X139090483Y-101034530D01*
X139180220Y-100904523D01*
X139236237Y-100756818D01*
X139255278Y-100600000D01*
X139236237Y-100443182D01*
X139180220Y-100295477D01*
X139090483Y-100165470D01*
X138972240Y-100060717D01*
X138972238Y-100060716D01*
X138972237Y-100060715D01*
X138832365Y-99987303D01*
X138678986Y-99949500D01*
X138678985Y-99949500D01*
X138521015Y-99949500D01*
X138521014Y-99949500D01*
X138367634Y-99987303D01*
X138227762Y-100060715D01*
X138109516Y-100165471D01*
X138019781Y-100295475D01*
X138019780Y-100295476D01*
X137963762Y-100443181D01*
X137944722Y-100599999D01*
X90500500Y-100599999D01*
X90500500Y-96777135D01*
X91049500Y-96777135D01*
X91049500Y-98572870D01*
X91049501Y-98572876D01*
X91055908Y-98632483D01*
X91106202Y-98767328D01*
X91106206Y-98767335D01*
X91192452Y-98882544D01*
X91192455Y-98882547D01*
X91307664Y-98968793D01*
X91307671Y-98968797D01*
X91442517Y-99019091D01*
X91442516Y-99019091D01*
X91449444Y-99019835D01*
X91502127Y-99025500D01*
X93297872Y-99025499D01*
X93357483Y-99019091D01*
X93492331Y-98968796D01*
X93607546Y-98882546D01*
X93693796Y-98767331D01*
X93744091Y-98632483D01*
X93750500Y-98572873D01*
X93750499Y-96777128D01*
X93744091Y-96717517D01*
X93719095Y-96650500D01*
X93693797Y-96582671D01*
X93693793Y-96582664D01*
X93607547Y-96467455D01*
X93607544Y-96467452D01*
X93492335Y-96381206D01*
X93492328Y-96381202D01*
X93360401Y-96331997D01*
X93304467Y-96290126D01*
X93280050Y-96224662D01*
X93294902Y-96156389D01*
X93316053Y-96128133D01*
X93438108Y-96006078D01*
X93573600Y-95812578D01*
X93673429Y-95598492D01*
X93673432Y-95598486D01*
X93730636Y-95385000D01*
X92833012Y-95385000D01*
X92865925Y-95327993D01*
X92900000Y-95200826D01*
X92900000Y-95069174D01*
X92865925Y-94942007D01*
X92833012Y-94885000D01*
X93730636Y-94885000D01*
X93730635Y-94884999D01*
X93673432Y-94671513D01*
X93673429Y-94671507D01*
X93593452Y-94499996D01*
X123694435Y-94499996D01*
X123694435Y-94500003D01*
X123714630Y-94679249D01*
X123714631Y-94679254D01*
X123774211Y-94849523D01*
X123796503Y-94885000D01*
X123870184Y-95002262D01*
X123997738Y-95129816D01*
X124115886Y-95204053D01*
X124162177Y-95256388D01*
X124172825Y-95325441D01*
X124144450Y-95389290D01*
X124107541Y-95418843D01*
X124027761Y-95460716D01*
X123909516Y-95565471D01*
X123819781Y-95695475D01*
X123819780Y-95695476D01*
X123763762Y-95843181D01*
X123744722Y-95999999D01*
X123744722Y-96000000D01*
X123763762Y-96156818D01*
X123802572Y-96259149D01*
X123819780Y-96304523D01*
X123909517Y-96434530D01*
X124027760Y-96539283D01*
X124027762Y-96539284D01*
X124167634Y-96612696D01*
X124321014Y-96650500D01*
X124321015Y-96650500D01*
X124478985Y-96650500D01*
X124632365Y-96612696D01*
X124689572Y-96582671D01*
X124772240Y-96539283D01*
X124890483Y-96434530D01*
X124980220Y-96304523D01*
X125036237Y-96156818D01*
X125055278Y-96000000D01*
X125049207Y-95950000D01*
X143135000Y-95950000D01*
X145225000Y-95950000D01*
X145225000Y-94050000D01*
X143135000Y-94050000D01*
X143135000Y-95950000D01*
X125049207Y-95950000D01*
X125036237Y-95843182D01*
X125024630Y-95812578D01*
X125014992Y-95787164D01*
X124980220Y-95695477D01*
X124890483Y-95565470D01*
X124772240Y-95460717D01*
X124772238Y-95460716D01*
X124766626Y-95455744D01*
X124767648Y-95454589D01*
X124729100Y-95407015D01*
X124721446Y-95337566D01*
X124752553Y-95275003D01*
X124802579Y-95242214D01*
X124849522Y-95225789D01*
X125002262Y-95129816D01*
X125129816Y-95002262D01*
X125225789Y-94849522D01*
X125285368Y-94679255D01*
X125285369Y-94679249D01*
X125305565Y-94500003D01*
X125305565Y-94499996D01*
X125285369Y-94320750D01*
X125285368Y-94320745D01*
X125225788Y-94150476D01*
X125129815Y-93997737D01*
X125002262Y-93870184D01*
X124849523Y-93774211D01*
X124679254Y-93714631D01*
X124679249Y-93714630D01*
X124500004Y-93694435D01*
X124499996Y-93694435D01*
X124320750Y-93714630D01*
X124320745Y-93714631D01*
X124150476Y-93774211D01*
X123997737Y-93870184D01*
X123870184Y-93997737D01*
X123774211Y-94150476D01*
X123714631Y-94320745D01*
X123714630Y-94320750D01*
X123694435Y-94499996D01*
X93593452Y-94499996D01*
X93573600Y-94457422D01*
X93573599Y-94457420D01*
X93438113Y-94263926D01*
X93438108Y-94263920D01*
X93271082Y-94096894D01*
X93077578Y-93961399D01*
X92863492Y-93861570D01*
X92863486Y-93861567D01*
X92650000Y-93804364D01*
X92650000Y-94701988D01*
X92592993Y-94669075D01*
X92465826Y-94635000D01*
X92334174Y-94635000D01*
X92207007Y-94669075D01*
X92150000Y-94701988D01*
X92150000Y-93804364D01*
X92149999Y-93804364D01*
X91936513Y-93861567D01*
X91936507Y-93861570D01*
X91722422Y-93961399D01*
X91722420Y-93961400D01*
X91528926Y-94096886D01*
X91528920Y-94096891D01*
X91361891Y-94263920D01*
X91361886Y-94263926D01*
X91226400Y-94457420D01*
X91226399Y-94457422D01*
X91126570Y-94671507D01*
X91126567Y-94671513D01*
X91069364Y-94884999D01*
X91069364Y-94885000D01*
X91966988Y-94885000D01*
X91934075Y-94942007D01*
X91900000Y-95069174D01*
X91900000Y-95200826D01*
X91934075Y-95327993D01*
X91966988Y-95385000D01*
X91069364Y-95385000D01*
X91126567Y-95598486D01*
X91126570Y-95598492D01*
X91226399Y-95812578D01*
X91361894Y-96006082D01*
X91483946Y-96128134D01*
X91517431Y-96189457D01*
X91512447Y-96259149D01*
X91470575Y-96315082D01*
X91439598Y-96331997D01*
X91307671Y-96381202D01*
X91307664Y-96381206D01*
X91192455Y-96467452D01*
X91192452Y-96467455D01*
X91106206Y-96582664D01*
X91106202Y-96582671D01*
X91055908Y-96717517D01*
X91049501Y-96777116D01*
X91049501Y-96777123D01*
X91049500Y-96777135D01*
X90500500Y-96777135D01*
X90500500Y-92999999D01*
X127369722Y-92999999D01*
X127369722Y-93000000D01*
X127388762Y-93156818D01*
X127444780Y-93304523D01*
X127534517Y-93434530D01*
X127652760Y-93539283D01*
X127652762Y-93539284D01*
X127792634Y-93612696D01*
X127946014Y-93650500D01*
X127946015Y-93650500D01*
X128103985Y-93650500D01*
X128257365Y-93612696D01*
X128397240Y-93539283D01*
X128515483Y-93434530D01*
X128605220Y-93304523D01*
X128661237Y-93156818D01*
X128671172Y-93074999D01*
X130219722Y-93074999D01*
X130219722Y-93075000D01*
X130238762Y-93231818D01*
X130294780Y-93379523D01*
X130384517Y-93509530D01*
X130502760Y-93614283D01*
X130502762Y-93614284D01*
X130642634Y-93687696D01*
X130796014Y-93725500D01*
X130796015Y-93725500D01*
X130953985Y-93725500D01*
X131107365Y-93687696D01*
X131178235Y-93650500D01*
X131247240Y-93614283D01*
X131365483Y-93509530D01*
X131455220Y-93379523D01*
X131511237Y-93231818D01*
X131530278Y-93075000D01*
X131521172Y-93000000D01*
X131511237Y-92918181D01*
X131482793Y-92843181D01*
X131455220Y-92770477D01*
X131365483Y-92640470D01*
X131247240Y-92535717D01*
X131247238Y-92535716D01*
X131247237Y-92535715D01*
X131107365Y-92462303D01*
X130953986Y-92424500D01*
X130953985Y-92424500D01*
X130796015Y-92424500D01*
X130796014Y-92424500D01*
X130642634Y-92462303D01*
X130502762Y-92535715D01*
X130384516Y-92640471D01*
X130294781Y-92770475D01*
X130294780Y-92770476D01*
X130238762Y-92918181D01*
X130219722Y-93074999D01*
X128671172Y-93074999D01*
X128680278Y-93000000D01*
X128670344Y-92918181D01*
X128661237Y-92843181D01*
X128633663Y-92770475D01*
X128605220Y-92695477D01*
X128515483Y-92565470D01*
X128397240Y-92460717D01*
X128397238Y-92460716D01*
X128397237Y-92460715D01*
X128257365Y-92387303D01*
X128103986Y-92349500D01*
X128103985Y-92349500D01*
X127946015Y-92349500D01*
X127946014Y-92349500D01*
X127792634Y-92387303D01*
X127652762Y-92460715D01*
X127534516Y-92565471D01*
X127444781Y-92695475D01*
X127444780Y-92695476D01*
X127388762Y-92843181D01*
X127369722Y-92999999D01*
X90500500Y-92999999D01*
X90500500Y-91925229D01*
X90520185Y-91858190D01*
X90572989Y-91812435D01*
X90642147Y-91802491D01*
X90671954Y-91810668D01*
X90717781Y-91829650D01*
X90717785Y-91829651D01*
X90920631Y-91869999D01*
X90920635Y-91870000D01*
X91524052Y-91870000D01*
X91524052Y-91120000D01*
X92024052Y-91120000D01*
X92024052Y-91870000D01*
X92627469Y-91870000D01*
X92627472Y-91869999D01*
X92830318Y-91829651D01*
X92830326Y-91829649D01*
X93021410Y-91750499D01*
X93021420Y-91750494D01*
X93193387Y-91635589D01*
X93193391Y-91635586D01*
X93339638Y-91489339D01*
X93339641Y-91489335D01*
X93454546Y-91317368D01*
X93454551Y-91317358D01*
X93533700Y-91126276D01*
X93533701Y-91126274D01*
X93544895Y-91070000D01*
X92691040Y-91070000D01*
X92708257Y-91060060D01*
X92764112Y-91004205D01*
X92803608Y-90935796D01*
X92824052Y-90859496D01*
X92824052Y-90780504D01*
X92803608Y-90704204D01*
X92764112Y-90635795D01*
X92708257Y-90579940D01*
X92691040Y-90570000D01*
X93544895Y-90570000D01*
X95613209Y-90570000D01*
X96467064Y-90570000D01*
X96449847Y-90579940D01*
X96393992Y-90635795D01*
X96354496Y-90704204D01*
X96334052Y-90780504D01*
X96334052Y-90859496D01*
X96354496Y-90935796D01*
X96393992Y-91004205D01*
X96449847Y-91060060D01*
X96467064Y-91070000D01*
X95613209Y-91070000D01*
X95624402Y-91126274D01*
X95624403Y-91126276D01*
X95703552Y-91317358D01*
X95703557Y-91317368D01*
X95818462Y-91489335D01*
X95818465Y-91489339D01*
X95964712Y-91635586D01*
X95964716Y-91635589D01*
X96136683Y-91750494D01*
X96136693Y-91750499D01*
X96327777Y-91829649D01*
X96327785Y-91829651D01*
X96530631Y-91869999D01*
X96530635Y-91870000D01*
X96884052Y-91870000D01*
X96884052Y-91120000D01*
X97384052Y-91120000D01*
X97384052Y-91870000D01*
X97737469Y-91870000D01*
X97737472Y-91869999D01*
X97940318Y-91829651D01*
X97940326Y-91829649D01*
X98131410Y-91750499D01*
X98131420Y-91750494D01*
X98303387Y-91635589D01*
X98303391Y-91635586D01*
X98449638Y-91489339D01*
X98449641Y-91489335D01*
X98564546Y-91317368D01*
X98564551Y-91317358D01*
X98643700Y-91126276D01*
X98643701Y-91126274D01*
X98654895Y-91070000D01*
X97801040Y-91070000D01*
X97818257Y-91060060D01*
X97874112Y-91004205D01*
X97913608Y-90935796D01*
X97934052Y-90859496D01*
X97934052Y-90780504D01*
X97925878Y-90749999D01*
X111844722Y-90749999D01*
X111844722Y-90750000D01*
X111863762Y-90906818D01*
X111900697Y-91004205D01*
X111919780Y-91054523D01*
X112009517Y-91184530D01*
X112127760Y-91289283D01*
X112127762Y-91289284D01*
X112267634Y-91362696D01*
X112421014Y-91400500D01*
X112421015Y-91400500D01*
X112578985Y-91400500D01*
X112732365Y-91362696D01*
X112818748Y-91317358D01*
X112872240Y-91289283D01*
X112990483Y-91184530D01*
X113080220Y-91054523D01*
X113136237Y-90906818D01*
X113155278Y-90750000D01*
X113149718Y-90704204D01*
X113137065Y-90599999D01*
X124144722Y-90599999D01*
X124144722Y-90600000D01*
X124163762Y-90756818D01*
X124215752Y-90893901D01*
X124219780Y-90904523D01*
X124309517Y-91034530D01*
X124427760Y-91139283D01*
X124427762Y-91139284D01*
X124567634Y-91212696D01*
X124721014Y-91250500D01*
X124721015Y-91250500D01*
X124878985Y-91250500D01*
X125032365Y-91212696D01*
X125086034Y-91184528D01*
X125172240Y-91139283D01*
X125290483Y-91034530D01*
X125380220Y-90904523D01*
X125436237Y-90756818D01*
X125455278Y-90600000D01*
X125444803Y-90513725D01*
X125436237Y-90443181D01*
X125414992Y-90387164D01*
X125380220Y-90295477D01*
X125290483Y-90165470D01*
X125172240Y-90060717D01*
X125172238Y-90060716D01*
X125172237Y-90060715D01*
X125032365Y-89987303D01*
X124878986Y-89949500D01*
X124878985Y-89949500D01*
X124721015Y-89949500D01*
X124721014Y-89949500D01*
X124567634Y-89987303D01*
X124427762Y-90060715D01*
X124309516Y-90165471D01*
X124219781Y-90295475D01*
X124219780Y-90295476D01*
X124163762Y-90443181D01*
X124144722Y-90599999D01*
X113137065Y-90599999D01*
X113136237Y-90593181D01*
X113097637Y-90491402D01*
X113080220Y-90445477D01*
X112990483Y-90315470D01*
X112872240Y-90210717D01*
X112872238Y-90210716D01*
X112872237Y-90210715D01*
X112732365Y-90137303D01*
X112578986Y-90099500D01*
X112578985Y-90099500D01*
X112421015Y-90099500D01*
X112421014Y-90099500D01*
X112267634Y-90137303D01*
X112127762Y-90210715D01*
X112009516Y-90315471D01*
X111919781Y-90445475D01*
X111919780Y-90445476D01*
X111863762Y-90593181D01*
X111844722Y-90749999D01*
X97925878Y-90749999D01*
X97913608Y-90704204D01*
X97874112Y-90635795D01*
X97818257Y-90579940D01*
X97801040Y-90570000D01*
X98654895Y-90570000D01*
X98643701Y-90513725D01*
X98643700Y-90513723D01*
X98564551Y-90322641D01*
X98564546Y-90322631D01*
X98449641Y-90150664D01*
X98449638Y-90150660D01*
X98303391Y-90004413D01*
X98303387Y-90004410D01*
X98131420Y-89889505D01*
X98131410Y-89889500D01*
X97940326Y-89810350D01*
X97940318Y-89810348D01*
X97888289Y-89799999D01*
X100744722Y-89799999D01*
X100744722Y-89800000D01*
X100763762Y-89956818D01*
X100811866Y-90083655D01*
X100819780Y-90104523D01*
X100909517Y-90234530D01*
X101027760Y-90339283D01*
X101027762Y-90339284D01*
X101167634Y-90412696D01*
X101321014Y-90450500D01*
X101321015Y-90450500D01*
X101478985Y-90450500D01*
X101632365Y-90412696D01*
X101772240Y-90339283D01*
X101890483Y-90234530D01*
X101980220Y-90104523D01*
X102036237Y-89956818D01*
X102055278Y-89800000D01*
X102036237Y-89643182D01*
X101980220Y-89495477D01*
X101890483Y-89365470D01*
X101772240Y-89260717D01*
X101772238Y-89260716D01*
X101772237Y-89260715D01*
X101656555Y-89199999D01*
X125744722Y-89199999D01*
X125744722Y-89200000D01*
X125763762Y-89356818D01*
X125816349Y-89495476D01*
X125819780Y-89504523D01*
X125909517Y-89634530D01*
X126027760Y-89739283D01*
X126027762Y-89739284D01*
X126167634Y-89812696D01*
X126321014Y-89850500D01*
X126321015Y-89850500D01*
X126478985Y-89850500D01*
X126632365Y-89812696D01*
X126713714Y-89770000D01*
X126772240Y-89739283D01*
X126890483Y-89634530D01*
X126980220Y-89504523D01*
X127036237Y-89356818D01*
X127055278Y-89200000D01*
X127053737Y-89187304D01*
X127036237Y-89043181D01*
X127014311Y-88985368D01*
X126980220Y-88895477D01*
X126890483Y-88765470D01*
X126772240Y-88660717D01*
X126772238Y-88660716D01*
X126772237Y-88660715D01*
X126632365Y-88587303D01*
X126478986Y-88549500D01*
X126478985Y-88549500D01*
X126321015Y-88549500D01*
X126321014Y-88549500D01*
X126167634Y-88587303D01*
X126027762Y-88660715D01*
X125909516Y-88765471D01*
X125819781Y-88895475D01*
X125819780Y-88895476D01*
X125763762Y-89043181D01*
X125744722Y-89199999D01*
X101656555Y-89199999D01*
X101632365Y-89187303D01*
X101478986Y-89149500D01*
X101478985Y-89149500D01*
X101321015Y-89149500D01*
X101321014Y-89149500D01*
X101167634Y-89187303D01*
X101027762Y-89260715D01*
X100909516Y-89365471D01*
X100819781Y-89495475D01*
X100819780Y-89495476D01*
X100763762Y-89643181D01*
X100744722Y-89799999D01*
X97888289Y-89799999D01*
X97737472Y-89770000D01*
X97384052Y-89770000D01*
X97384052Y-90520000D01*
X96884052Y-90520000D01*
X96884052Y-89770000D01*
X96530631Y-89770000D01*
X96327785Y-89810348D01*
X96327777Y-89810350D01*
X96136693Y-89889500D01*
X96136683Y-89889505D01*
X95964716Y-90004410D01*
X95964712Y-90004413D01*
X95818465Y-90150660D01*
X95818462Y-90150664D01*
X95703557Y-90322631D01*
X95703552Y-90322641D01*
X95624403Y-90513723D01*
X95624402Y-90513725D01*
X95613209Y-90570000D01*
X93544895Y-90570000D01*
X93533701Y-90513725D01*
X93533700Y-90513723D01*
X93454551Y-90322641D01*
X93454546Y-90322631D01*
X93339641Y-90150664D01*
X93339638Y-90150660D01*
X93193391Y-90004413D01*
X93193387Y-90004410D01*
X93021420Y-89889505D01*
X93021410Y-89889500D01*
X92830326Y-89810350D01*
X92830318Y-89810348D01*
X92627472Y-89770000D01*
X92024052Y-89770000D01*
X92024052Y-90520000D01*
X91524052Y-90520000D01*
X91524052Y-89770000D01*
X90920631Y-89770000D01*
X90717785Y-89810348D01*
X90717773Y-89810351D01*
X90671952Y-89829331D01*
X90602482Y-89836800D01*
X90540003Y-89805524D01*
X90504352Y-89745435D01*
X90500500Y-89714770D01*
X90500500Y-87626895D01*
X98406203Y-87626895D01*
X98406203Y-87626902D01*
X98426398Y-87806148D01*
X98426399Y-87806153D01*
X98485979Y-87976422D01*
X98519529Y-88029816D01*
X98581952Y-88129161D01*
X98709506Y-88256715D01*
X98783171Y-88303002D01*
X98822159Y-88327500D01*
X98862246Y-88352688D01*
X98988877Y-88396998D01*
X99032513Y-88412267D01*
X99032518Y-88412268D01*
X99211764Y-88432464D01*
X99211768Y-88432464D01*
X99211772Y-88432464D01*
X99391017Y-88412268D01*
X99391020Y-88412267D01*
X99391023Y-88412267D01*
X99561290Y-88352688D01*
X99714030Y-88256715D01*
X99770749Y-88199996D01*
X103194435Y-88199996D01*
X103194435Y-88200003D01*
X103214630Y-88379249D01*
X103214631Y-88379254D01*
X103274211Y-88549523D01*
X103370184Y-88702262D01*
X103497738Y-88829816D01*
X103650478Y-88925789D01*
X103820745Y-88985368D01*
X103820750Y-88985369D01*
X103999996Y-89005565D01*
X104000000Y-89005565D01*
X104000004Y-89005565D01*
X104179249Y-88985369D01*
X104179252Y-88985368D01*
X104179255Y-88985368D01*
X104349522Y-88925789D01*
X104502262Y-88829816D01*
X104629816Y-88702262D01*
X104725789Y-88549522D01*
X104785368Y-88379255D01*
X104786129Y-88372500D01*
X104805565Y-88200003D01*
X104805565Y-88199996D01*
X104785369Y-88020750D01*
X104785368Y-88020745D01*
X104753555Y-87929830D01*
X104725789Y-87850478D01*
X104629816Y-87697738D01*
X104502262Y-87570184D01*
X104460054Y-87543663D01*
X104349523Y-87474211D01*
X104179254Y-87414631D01*
X104179249Y-87414630D01*
X104000004Y-87394435D01*
X103999996Y-87394435D01*
X103820750Y-87414630D01*
X103820745Y-87414631D01*
X103650476Y-87474211D01*
X103497737Y-87570184D01*
X103370184Y-87697737D01*
X103274211Y-87850476D01*
X103214631Y-88020745D01*
X103214630Y-88020750D01*
X103194435Y-88199996D01*
X99770749Y-88199996D01*
X99841584Y-88129161D01*
X99937557Y-87976421D01*
X99997136Y-87806154D01*
X99997137Y-87806148D01*
X100017333Y-87626902D01*
X100017333Y-87626895D01*
X99997137Y-87447649D01*
X99997136Y-87447644D01*
X99950866Y-87315413D01*
X99937557Y-87277377D01*
X99841584Y-87124637D01*
X99841208Y-87124261D01*
X135718700Y-87124261D01*
X135718700Y-87124268D01*
X135738895Y-87303514D01*
X135738896Y-87303519D01*
X135798476Y-87473788D01*
X135859046Y-87570184D01*
X135894449Y-87626527D01*
X136022003Y-87754081D01*
X136174743Y-87850054D01*
X136323945Y-87902262D01*
X136345010Y-87909633D01*
X136345015Y-87909634D01*
X136524261Y-87929830D01*
X136524265Y-87929830D01*
X136524269Y-87929830D01*
X136703514Y-87909634D01*
X136703517Y-87909633D01*
X136703520Y-87909633D01*
X136873787Y-87850054D01*
X137026527Y-87754081D01*
X137154081Y-87626527D01*
X137250054Y-87473787D01*
X137275875Y-87399996D01*
X138994435Y-87399996D01*
X138994435Y-87400003D01*
X139014630Y-87579249D01*
X139014631Y-87579254D01*
X139074211Y-87749523D01*
X139137646Y-87850478D01*
X139170184Y-87902262D01*
X139297738Y-88029816D01*
X139388080Y-88086582D01*
X139438869Y-88118495D01*
X139450478Y-88125789D01*
X139460115Y-88129161D01*
X139620745Y-88185368D01*
X139620750Y-88185369D01*
X139799996Y-88205565D01*
X139800000Y-88205565D01*
X139800004Y-88205565D01*
X139979249Y-88185369D01*
X139979252Y-88185368D01*
X139979255Y-88185368D01*
X140149522Y-88125789D01*
X140302262Y-88029816D01*
X140429816Y-87902262D01*
X140525789Y-87749522D01*
X140585368Y-87579255D01*
X140589378Y-87543664D01*
X140605565Y-87400003D01*
X140605565Y-87399996D01*
X140585369Y-87220750D01*
X140585368Y-87220745D01*
X140525788Y-87050476D01*
X140459519Y-86945010D01*
X140429816Y-86897738D01*
X140302262Y-86770184D01*
X140149523Y-86674211D01*
X139979254Y-86614631D01*
X139979249Y-86614630D01*
X139800004Y-86594435D01*
X139799996Y-86594435D01*
X139620750Y-86614630D01*
X139620745Y-86614631D01*
X139450476Y-86674211D01*
X139297737Y-86770184D01*
X139170184Y-86897737D01*
X139074211Y-87050476D01*
X139014631Y-87220745D01*
X139014630Y-87220750D01*
X138994435Y-87399996D01*
X137275875Y-87399996D01*
X137309633Y-87303520D01*
X137318959Y-87220750D01*
X137329830Y-87124268D01*
X137329830Y-87124261D01*
X137309634Y-86945015D01*
X137309633Y-86945010D01*
X137293091Y-86897737D01*
X137250054Y-86774743D01*
X137247189Y-86770184D01*
X137154080Y-86622002D01*
X137026527Y-86494449D01*
X136873788Y-86398476D01*
X136703519Y-86338896D01*
X136703514Y-86338895D01*
X136524269Y-86318700D01*
X136524261Y-86318700D01*
X136345015Y-86338895D01*
X136345010Y-86338896D01*
X136174741Y-86398476D01*
X136022002Y-86494449D01*
X135894449Y-86622002D01*
X135798476Y-86774741D01*
X135738896Y-86945010D01*
X135738895Y-86945015D01*
X135718700Y-87124261D01*
X99841208Y-87124261D01*
X99714030Y-86997083D01*
X99695386Y-86985368D01*
X99561291Y-86901110D01*
X99391022Y-86841530D01*
X99391017Y-86841529D01*
X99211772Y-86821334D01*
X99211764Y-86821334D01*
X99032518Y-86841529D01*
X99032513Y-86841530D01*
X98862244Y-86901110D01*
X98709505Y-86997083D01*
X98581952Y-87124636D01*
X98485979Y-87277375D01*
X98426399Y-87447644D01*
X98426398Y-87447649D01*
X98406203Y-87626895D01*
X90500500Y-87626895D01*
X90500500Y-84999996D01*
X99194435Y-84999996D01*
X99194435Y-85000003D01*
X99214630Y-85179249D01*
X99214631Y-85179254D01*
X99274211Y-85349523D01*
X99315122Y-85414632D01*
X99370184Y-85502262D01*
X99497738Y-85629816D01*
X99588080Y-85686582D01*
X99631771Y-85714035D01*
X99650478Y-85725789D01*
X99718306Y-85749523D01*
X99820745Y-85785368D01*
X99820750Y-85785369D01*
X99999996Y-85805565D01*
X100000000Y-85805565D01*
X100000004Y-85805565D01*
X100179249Y-85785369D01*
X100179252Y-85785368D01*
X100179255Y-85785368D01*
X100349522Y-85725789D01*
X100502262Y-85629816D01*
X100629816Y-85502262D01*
X100725789Y-85349522D01*
X100785368Y-85179255D01*
X100799878Y-85050476D01*
X100805565Y-85000003D01*
X100805565Y-84999996D01*
X103194435Y-84999996D01*
X103194435Y-85000003D01*
X103214630Y-85179249D01*
X103214631Y-85179254D01*
X103274211Y-85349523D01*
X103315122Y-85414632D01*
X103370184Y-85502262D01*
X103497738Y-85629816D01*
X103588080Y-85686582D01*
X103631771Y-85714035D01*
X103650478Y-85725789D01*
X103718306Y-85749523D01*
X103820745Y-85785368D01*
X103820750Y-85785369D01*
X103999996Y-85805565D01*
X104000000Y-85805565D01*
X104000004Y-85805565D01*
X104179249Y-85785369D01*
X104179252Y-85785368D01*
X104179255Y-85785368D01*
X104349522Y-85725789D01*
X104502262Y-85629816D01*
X104629816Y-85502262D01*
X104694074Y-85399996D01*
X127294435Y-85399996D01*
X127294435Y-85400003D01*
X127314630Y-85579249D01*
X127314631Y-85579254D01*
X127374211Y-85749523D01*
X127437646Y-85850478D01*
X127470184Y-85902262D01*
X127597738Y-86029816D01*
X127750478Y-86125789D01*
X127920739Y-86185366D01*
X127920745Y-86185368D01*
X127920750Y-86185369D01*
X128099996Y-86205565D01*
X128100000Y-86205565D01*
X128100004Y-86205565D01*
X128279249Y-86185369D01*
X128279251Y-86185368D01*
X128279255Y-86185368D01*
X128279258Y-86185366D01*
X128279262Y-86185366D01*
X128434128Y-86131176D01*
X128503907Y-86127614D01*
X128564534Y-86162342D01*
X128596762Y-86224336D01*
X128598303Y-86234334D01*
X128614630Y-86379249D01*
X128614631Y-86379254D01*
X128674211Y-86549523D01*
X128716198Y-86616344D01*
X128770184Y-86702262D01*
X128897738Y-86829816D01*
X128988080Y-86886582D01*
X129011201Y-86901110D01*
X129050478Y-86925789D01*
X129105423Y-86945015D01*
X129220745Y-86985368D01*
X129220750Y-86985369D01*
X129399996Y-87005565D01*
X129400000Y-87005565D01*
X129400004Y-87005565D01*
X129579249Y-86985369D01*
X129579252Y-86985368D01*
X129579255Y-86985368D01*
X129749522Y-86925789D01*
X129902262Y-86829816D01*
X130029816Y-86702262D01*
X130125789Y-86549522D01*
X130185368Y-86379255D01*
X130185369Y-86379249D01*
X130205565Y-86200003D01*
X130205565Y-86199996D01*
X130185369Y-86020750D01*
X130185368Y-86020745D01*
X130125788Y-85850476D01*
X130062354Y-85749522D01*
X130029816Y-85697738D01*
X129902262Y-85570184D01*
X129749523Y-85474211D01*
X129579254Y-85414631D01*
X129579249Y-85414630D01*
X129400004Y-85394435D01*
X129399996Y-85394435D01*
X129220750Y-85414630D01*
X129220742Y-85414632D01*
X129065870Y-85468824D01*
X128996091Y-85472385D01*
X128935464Y-85437656D01*
X128903237Y-85375662D01*
X128901696Y-85365665D01*
X128899877Y-85349523D01*
X128885369Y-85220750D01*
X128885369Y-85220749D01*
X128885368Y-85220745D01*
X128825788Y-85050476D01*
X128729815Y-84897737D01*
X128602262Y-84770184D01*
X128449523Y-84674211D01*
X128279254Y-84614631D01*
X128279249Y-84614630D01*
X128100004Y-84594435D01*
X128099996Y-84594435D01*
X127920750Y-84614630D01*
X127920745Y-84614631D01*
X127750476Y-84674211D01*
X127597737Y-84770184D01*
X127470184Y-84897737D01*
X127374211Y-85050476D01*
X127314631Y-85220745D01*
X127314630Y-85220750D01*
X127294435Y-85399996D01*
X104694074Y-85399996D01*
X104725789Y-85349522D01*
X104785368Y-85179255D01*
X104799878Y-85050476D01*
X104805565Y-85000003D01*
X104805565Y-84999996D01*
X104785369Y-84820750D01*
X104785368Y-84820745D01*
X104767676Y-84770184D01*
X104725789Y-84650478D01*
X104709780Y-84625000D01*
X119575000Y-84625000D01*
X121475000Y-84625000D01*
X121475000Y-83799999D01*
X138144722Y-83799999D01*
X138144722Y-83800000D01*
X138163762Y-83956818D01*
X138209090Y-84076335D01*
X138219780Y-84104523D01*
X138309517Y-84234530D01*
X138427760Y-84339283D01*
X138427762Y-84339284D01*
X138567634Y-84412696D01*
X138721014Y-84450500D01*
X138721015Y-84450500D01*
X138878985Y-84450500D01*
X139032365Y-84412696D01*
X139172240Y-84339283D01*
X139290483Y-84234530D01*
X139380220Y-84104523D01*
X139436237Y-83956818D01*
X139455278Y-83800000D01*
X139439324Y-83668601D01*
X139436237Y-83643181D01*
X139399489Y-83546286D01*
X139380220Y-83495477D01*
X139290483Y-83365470D01*
X139172240Y-83260717D01*
X139172238Y-83260716D01*
X139172237Y-83260715D01*
X139032365Y-83187303D01*
X138878986Y-83149500D01*
X138878985Y-83149500D01*
X138721015Y-83149500D01*
X138721014Y-83149500D01*
X138567634Y-83187303D01*
X138427762Y-83260715D01*
X138309516Y-83365471D01*
X138219781Y-83495475D01*
X138219780Y-83495476D01*
X138163762Y-83643181D01*
X138144722Y-83799999D01*
X121475000Y-83799999D01*
X121475000Y-82535000D01*
X119575000Y-82535000D01*
X119575000Y-84625000D01*
X104709780Y-84625000D01*
X104703265Y-84614632D01*
X104629815Y-84497737D01*
X104502262Y-84370184D01*
X104349523Y-84274211D01*
X104179254Y-84214631D01*
X104179249Y-84214630D01*
X104000004Y-84194435D01*
X103999996Y-84194435D01*
X103820750Y-84214630D01*
X103820745Y-84214631D01*
X103650476Y-84274211D01*
X103497737Y-84370184D01*
X103370184Y-84497737D01*
X103274211Y-84650476D01*
X103214631Y-84820745D01*
X103214630Y-84820750D01*
X103194435Y-84999996D01*
X100805565Y-84999996D01*
X100785369Y-84820750D01*
X100785368Y-84820745D01*
X100767676Y-84770184D01*
X100725789Y-84650478D01*
X100703265Y-84614632D01*
X100629815Y-84497737D01*
X100502262Y-84370184D01*
X100349523Y-84274211D01*
X100179254Y-84214631D01*
X100179249Y-84214630D01*
X100000004Y-84194435D01*
X99999996Y-84194435D01*
X99820750Y-84214630D01*
X99820745Y-84214631D01*
X99650476Y-84274211D01*
X99497737Y-84370184D01*
X99370184Y-84497737D01*
X99274211Y-84650476D01*
X99214631Y-84820745D01*
X99214630Y-84820750D01*
X99194435Y-84999996D01*
X90500500Y-84999996D01*
X90500500Y-83285229D01*
X90520185Y-83218190D01*
X90572989Y-83172435D01*
X90642147Y-83162491D01*
X90671954Y-83170668D01*
X90717781Y-83189650D01*
X90717785Y-83189651D01*
X90920631Y-83229999D01*
X90920635Y-83230000D01*
X91524052Y-83230000D01*
X91524052Y-82480000D01*
X92024052Y-82480000D01*
X92024052Y-83230000D01*
X92627469Y-83230000D01*
X92627472Y-83229999D01*
X92830318Y-83189651D01*
X92830326Y-83189649D01*
X93021410Y-83110499D01*
X93021420Y-83110494D01*
X93193387Y-82995589D01*
X93193391Y-82995586D01*
X93339638Y-82849339D01*
X93339641Y-82849335D01*
X93454546Y-82677368D01*
X93454551Y-82677358D01*
X93533700Y-82486276D01*
X93533701Y-82486274D01*
X93544895Y-82430000D01*
X92691040Y-82430000D01*
X92708257Y-82420060D01*
X92764112Y-82364205D01*
X92803608Y-82295796D01*
X92824052Y-82219496D01*
X92824052Y-82140504D01*
X92803608Y-82064204D01*
X92764112Y-81995795D01*
X92708257Y-81939940D01*
X92691040Y-81930000D01*
X93544895Y-81930000D01*
X95613209Y-81930000D01*
X96467064Y-81930000D01*
X96449847Y-81939940D01*
X96393992Y-81995795D01*
X96354496Y-82064204D01*
X96334052Y-82140504D01*
X96334052Y-82219496D01*
X96354496Y-82295796D01*
X96393992Y-82364205D01*
X96449847Y-82420060D01*
X96467064Y-82430000D01*
X95613209Y-82430000D01*
X95624402Y-82486274D01*
X95624403Y-82486276D01*
X95703552Y-82677358D01*
X95703557Y-82677368D01*
X95818462Y-82849335D01*
X95818465Y-82849339D01*
X95964712Y-82995586D01*
X95964716Y-82995589D01*
X96136683Y-83110494D01*
X96136693Y-83110499D01*
X96327777Y-83189649D01*
X96327785Y-83189651D01*
X96530631Y-83229999D01*
X96530635Y-83230000D01*
X96884052Y-83230000D01*
X96884052Y-82480000D01*
X97384052Y-82480000D01*
X97384052Y-83230000D01*
X97737469Y-83230000D01*
X97737472Y-83229999D01*
X97940318Y-83189651D01*
X97940326Y-83189649D01*
X98131410Y-83110499D01*
X98131420Y-83110494D01*
X98303387Y-82995589D01*
X98303391Y-82995586D01*
X98449638Y-82849339D01*
X98449641Y-82849335D01*
X98564546Y-82677368D01*
X98564551Y-82677358D01*
X98638016Y-82499999D01*
X108844722Y-82499999D01*
X108844722Y-82500000D01*
X108863762Y-82656818D01*
X108919780Y-82804523D01*
X109009517Y-82934530D01*
X109127760Y-83039283D01*
X109127762Y-83039284D01*
X109267634Y-83112696D01*
X109421014Y-83150500D01*
X109421015Y-83150500D01*
X109578985Y-83150500D01*
X109732365Y-83112696D01*
X109736551Y-83110499D01*
X109872240Y-83039283D01*
X109990483Y-82934530D01*
X110080220Y-82804523D01*
X110136237Y-82656818D01*
X110155278Y-82500000D01*
X110144678Y-82412696D01*
X110136237Y-82343181D01*
X110096648Y-82238794D01*
X110080220Y-82195477D01*
X109990483Y-82065470D01*
X109872240Y-81960717D01*
X109872238Y-81960716D01*
X109872237Y-81960715D01*
X109732365Y-81887303D01*
X109578986Y-81849500D01*
X109578985Y-81849500D01*
X109421015Y-81849500D01*
X109421014Y-81849500D01*
X109267634Y-81887303D01*
X109127762Y-81960715D01*
X109009516Y-82065471D01*
X108919781Y-82195475D01*
X108919780Y-82195476D01*
X108863762Y-82343181D01*
X108844722Y-82499999D01*
X98638016Y-82499999D01*
X98643700Y-82486276D01*
X98643701Y-82486274D01*
X98654895Y-82430000D01*
X97801040Y-82430000D01*
X97818257Y-82420060D01*
X97874112Y-82364205D01*
X97913608Y-82295796D01*
X97934052Y-82219496D01*
X97934052Y-82140504D01*
X97913608Y-82064204D01*
X97874112Y-81995795D01*
X97818257Y-81939940D01*
X97801040Y-81930000D01*
X98654895Y-81930000D01*
X98643701Y-81873725D01*
X98643700Y-81873723D01*
X98613162Y-81799999D01*
X123944722Y-81799999D01*
X123944722Y-81800000D01*
X123963762Y-81956818D01*
X124005104Y-82065826D01*
X124019780Y-82104523D01*
X124109517Y-82234530D01*
X124227760Y-82339283D01*
X124227762Y-82339284D01*
X124367634Y-82412696D01*
X124521014Y-82450500D01*
X124521015Y-82450500D01*
X124678985Y-82450500D01*
X124832365Y-82412696D01*
X124856366Y-82400099D01*
X124972240Y-82339283D01*
X125090483Y-82234530D01*
X125180220Y-82104523D01*
X125236237Y-81956818D01*
X125255278Y-81800000D01*
X125236237Y-81643182D01*
X125180220Y-81495477D01*
X125114317Y-81399999D01*
X129944722Y-81399999D01*
X129944722Y-81400000D01*
X129963762Y-81556818D01*
X129996516Y-81643181D01*
X130019780Y-81704523D01*
X130109517Y-81834530D01*
X130227760Y-81939283D01*
X130227762Y-81939284D01*
X130367634Y-82012696D01*
X130521014Y-82050500D01*
X130521015Y-82050500D01*
X130678985Y-82050500D01*
X130832365Y-82012696D01*
X130931401Y-81960717D01*
X130972240Y-81939283D01*
X131090483Y-81834530D01*
X131180220Y-81704523D01*
X131236237Y-81556818D01*
X131255278Y-81400000D01*
X131251086Y-81365471D01*
X131236237Y-81243181D01*
X131208616Y-81170351D01*
X131180220Y-81095477D01*
X131090483Y-80965470D01*
X130972240Y-80860717D01*
X130972238Y-80860716D01*
X130972237Y-80860715D01*
X130832365Y-80787303D01*
X130678986Y-80749500D01*
X130678985Y-80749500D01*
X130521015Y-80749500D01*
X130521014Y-80749500D01*
X130367634Y-80787303D01*
X130227762Y-80860715D01*
X130109516Y-80965471D01*
X130019781Y-81095475D01*
X130019780Y-81095476D01*
X129963762Y-81243181D01*
X129944722Y-81399999D01*
X125114317Y-81399999D01*
X125090483Y-81365470D01*
X124972240Y-81260717D01*
X124972238Y-81260716D01*
X124972237Y-81260715D01*
X124832365Y-81187303D01*
X124678986Y-81149500D01*
X124678985Y-81149500D01*
X124521015Y-81149500D01*
X124521014Y-81149500D01*
X124367634Y-81187303D01*
X124227762Y-81260715D01*
X124109516Y-81365471D01*
X124019781Y-81495475D01*
X124019780Y-81495476D01*
X123963762Y-81643181D01*
X123944722Y-81799999D01*
X98613162Y-81799999D01*
X98564551Y-81682641D01*
X98564546Y-81682631D01*
X98449641Y-81510664D01*
X98449638Y-81510660D01*
X98303391Y-81364413D01*
X98303387Y-81364410D01*
X98131420Y-81249505D01*
X98131410Y-81249500D01*
X97940326Y-81170350D01*
X97940318Y-81170348D01*
X97737472Y-81130000D01*
X97384052Y-81130000D01*
X97384052Y-81880000D01*
X96884052Y-81880000D01*
X96884052Y-81130000D01*
X96530631Y-81130000D01*
X96327785Y-81170348D01*
X96327777Y-81170350D01*
X96136693Y-81249500D01*
X96136683Y-81249505D01*
X95964716Y-81364410D01*
X95964712Y-81364413D01*
X95818465Y-81510660D01*
X95818462Y-81510664D01*
X95703557Y-81682631D01*
X95703552Y-81682641D01*
X95624403Y-81873723D01*
X95624402Y-81873725D01*
X95613209Y-81930000D01*
X93544895Y-81930000D01*
X93533701Y-81873725D01*
X93533700Y-81873723D01*
X93454551Y-81682641D01*
X93454546Y-81682631D01*
X93339641Y-81510664D01*
X93339638Y-81510660D01*
X93193391Y-81364413D01*
X93193387Y-81364410D01*
X93021420Y-81249505D01*
X93021410Y-81249500D01*
X92830326Y-81170350D01*
X92830318Y-81170348D01*
X92627472Y-81130000D01*
X92024052Y-81130000D01*
X92024052Y-81880000D01*
X91524052Y-81880000D01*
X91524052Y-81130000D01*
X90920631Y-81130000D01*
X90717785Y-81170348D01*
X90717773Y-81170351D01*
X90671952Y-81189331D01*
X90602482Y-81196800D01*
X90540003Y-81165524D01*
X90504352Y-81105435D01*
X90500500Y-81074770D01*
X90500500Y-78431527D01*
X90520185Y-78364488D01*
X90572989Y-78318733D01*
X90642147Y-78308789D01*
X90705703Y-78337814D01*
X90743477Y-78396592D01*
X90745391Y-78403934D01*
X90774664Y-78532188D01*
X90774666Y-78532195D01*
X90860344Y-78750498D01*
X90873257Y-78783398D01*
X91008185Y-79017102D01*
X91144080Y-79187509D01*
X91176442Y-79228089D01*
X91363183Y-79401358D01*
X91374259Y-79411635D01*
X91597226Y-79563651D01*
X91840359Y-79680738D01*
X92098228Y-79760280D01*
X92098229Y-79760280D01*
X92098232Y-79760281D01*
X92365063Y-79800499D01*
X92365068Y-79800499D01*
X92365071Y-79800500D01*
X92365072Y-79800500D01*
X92634928Y-79800500D01*
X92634929Y-79800500D01*
X92634936Y-79800499D01*
X92901767Y-79760281D01*
X92901768Y-79760280D01*
X92901772Y-79760280D01*
X93159641Y-79680738D01*
X93402775Y-79563651D01*
X93625741Y-79411635D01*
X93823561Y-79228085D01*
X93991815Y-79017102D01*
X94126743Y-78783398D01*
X94225334Y-78532195D01*
X94285383Y-78269103D01*
X94302664Y-78038498D01*
X94305549Y-78000004D01*
X94305549Y-77999995D01*
X94290561Y-77799999D01*
X98144722Y-77799999D01*
X98144722Y-77800000D01*
X98163762Y-77956818D01*
X98209657Y-78077830D01*
X98219780Y-78104523D01*
X98309517Y-78234530D01*
X98427760Y-78339283D01*
X98427762Y-78339284D01*
X98567634Y-78412696D01*
X98721014Y-78450500D01*
X98721015Y-78450500D01*
X98878985Y-78450500D01*
X99032365Y-78412696D01*
X99131020Y-78360917D01*
X99172240Y-78339283D01*
X99290483Y-78234530D01*
X99380220Y-78104523D01*
X99436237Y-77956818D01*
X99455278Y-77800000D01*
X99446888Y-77730897D01*
X99436237Y-77643181D01*
X99393303Y-77529974D01*
X99380220Y-77495477D01*
X99290483Y-77365470D01*
X99172240Y-77260717D01*
X99172238Y-77260716D01*
X99172237Y-77260715D01*
X99032365Y-77187303D01*
X98878986Y-77149500D01*
X98878985Y-77149500D01*
X98721015Y-77149500D01*
X98721014Y-77149500D01*
X98567634Y-77187303D01*
X98427762Y-77260715D01*
X98309516Y-77365471D01*
X98219781Y-77495475D01*
X98219780Y-77495476D01*
X98163762Y-77643181D01*
X98144722Y-77799999D01*
X94290561Y-77799999D01*
X94285383Y-77730898D01*
X94275099Y-77685842D01*
X94225334Y-77467805D01*
X94126743Y-77216602D01*
X93991815Y-76982898D01*
X93823561Y-76771915D01*
X93823560Y-76771914D01*
X93823557Y-76771910D01*
X93625741Y-76588365D01*
X93549427Y-76536335D01*
X93402775Y-76436349D01*
X93402769Y-76436346D01*
X93402768Y-76436345D01*
X93402767Y-76436344D01*
X93159643Y-76319263D01*
X93159645Y-76319263D01*
X92912377Y-76242991D01*
X92854118Y-76204421D01*
X92825960Y-76140476D01*
X92836844Y-76071459D01*
X92883313Y-76019282D01*
X92948927Y-76000500D01*
X119305500Y-76000500D01*
X119372539Y-76020185D01*
G37*
%TD.AperFunction*%
%TD*%
M02*
