%TF.GenerationSoftware,KiCad,Pcbnew,8.0.6*%
%TF.CreationDate,2024-11-04T20:58:39-05:00*%
%TF.ProjectId,VanguardFlightComputer,56616e67-7561-4726-9446-6c6967687443,rev?*%
%TF.SameCoordinates,Original*%
%TF.FileFunction,Copper,L4,Bot*%
%TF.FilePolarity,Positive*%
%FSLAX46Y46*%
G04 Gerber Fmt 4.6, Leading zero omitted, Abs format (unit mm)*
G04 Created by KiCad (PCBNEW 8.0.6) date 2024-11-04 20:58:39*
%MOMM*%
%LPD*%
G01*
G04 APERTURE LIST*
G04 Aperture macros list*
%AMRoundRect*
0 Rectangle with rounded corners*
0 $1 Rounding radius*
0 $2 $3 $4 $5 $6 $7 $8 $9 X,Y pos of 4 corners*
0 Add a 4 corners polygon primitive as box body*
4,1,4,$2,$3,$4,$5,$6,$7,$8,$9,$2,$3,0*
0 Add four circle primitives for the rounded corners*
1,1,$1+$1,$2,$3*
1,1,$1+$1,$4,$5*
1,1,$1+$1,$6,$7*
1,1,$1+$1,$8,$9*
0 Add four rect primitives between the rounded corners*
20,1,$1+$1,$2,$3,$4,$5,0*
20,1,$1+$1,$4,$5,$6,$7,0*
20,1,$1+$1,$6,$7,$8,$9,0*
20,1,$1+$1,$8,$9,$2,$3,0*%
G04 Aperture macros list end*
%TA.AperFunction,ComponentPad*%
%ADD10R,1.700000X1.700000*%
%TD*%
%TA.AperFunction,ComponentPad*%
%ADD11O,1.700000X1.700000*%
%TD*%
%TA.AperFunction,SMDPad,CuDef*%
%ADD12R,0.800000X1.200000*%
%TD*%
%TA.AperFunction,SMDPad,CuDef*%
%ADD13R,1.500000X2.000000*%
%TD*%
%TA.AperFunction,SMDPad,CuDef*%
%ADD14R,1.800000X0.700000*%
%TD*%
%TA.AperFunction,SMDPad,CuDef*%
%ADD15R,1.800000X0.800000*%
%TD*%
%TA.AperFunction,SMDPad,CuDef*%
%ADD16R,0.650000X0.700000*%
%TD*%
%TA.AperFunction,ComponentPad*%
%ADD17C,2.600000*%
%TD*%
%TA.AperFunction,ConnectorPad*%
%ADD18C,3.800000*%
%TD*%
%TA.AperFunction,ComponentPad*%
%ADD19O,2.100000X1.100000*%
%TD*%
%TA.AperFunction,ComponentPad*%
%ADD20O,2.600000X1.100000*%
%TD*%
%TA.AperFunction,SMDPad,CuDef*%
%ADD21RoundRect,0.250000X-0.250000X0.275000X-0.250000X-0.275000X0.250000X-0.275000X0.250000X0.275000X0*%
%TD*%
%TA.AperFunction,SMDPad,CuDef*%
%ADD22RoundRect,0.250000X-0.275000X0.850000X-0.275000X-0.850000X0.275000X-0.850000X0.275000X0.850000X0*%
%TD*%
%TA.AperFunction,SMDPad,CuDef*%
%ADD23RoundRect,0.140000X-0.170000X0.140000X-0.170000X-0.140000X0.170000X-0.140000X0.170000X0.140000X0*%
%TD*%
%TA.AperFunction,SMDPad,CuDef*%
%ADD24RoundRect,0.100000X0.100000X-0.130000X0.100000X0.130000X-0.100000X0.130000X-0.100000X-0.130000X0*%
%TD*%
%TA.AperFunction,SMDPad,CuDef*%
%ADD25RoundRect,0.225000X-0.250000X0.225000X-0.250000X-0.225000X0.250000X-0.225000X0.250000X0.225000X0*%
%TD*%
%TA.AperFunction,SMDPad,CuDef*%
%ADD26RoundRect,0.100000X-0.130000X-0.100000X0.130000X-0.100000X0.130000X0.100000X-0.130000X0.100000X0*%
%TD*%
%TA.AperFunction,SMDPad,CuDef*%
%ADD27RoundRect,0.225000X-0.225000X-0.250000X0.225000X-0.250000X0.225000X0.250000X-0.225000X0.250000X0*%
%TD*%
%TA.AperFunction,SMDPad,CuDef*%
%ADD28RoundRect,0.250000X-0.850000X-0.275000X0.850000X-0.275000X0.850000X0.275000X-0.850000X0.275000X0*%
%TD*%
%TA.AperFunction,SMDPad,CuDef*%
%ADD29RoundRect,0.250000X-0.275000X-0.250000X0.275000X-0.250000X0.275000X0.250000X-0.275000X0.250000X0*%
%TD*%
%TA.AperFunction,SMDPad,CuDef*%
%ADD30RoundRect,0.317500X-1.157500X-0.317500X1.157500X-0.317500X1.157500X0.317500X-1.157500X0.317500X0*%
%TD*%
%TA.AperFunction,SMDPad,CuDef*%
%ADD31RoundRect,0.140000X0.170000X-0.140000X0.170000X0.140000X-0.170000X0.140000X-0.170000X-0.140000X0*%
%TD*%
%TA.AperFunction,SMDPad,CuDef*%
%ADD32RoundRect,0.100000X-0.100000X0.130000X-0.100000X-0.130000X0.100000X-0.130000X0.100000X0.130000X0*%
%TD*%
%TA.AperFunction,SMDPad,CuDef*%
%ADD33RoundRect,0.100000X0.130000X0.100000X-0.130000X0.100000X-0.130000X-0.100000X0.130000X-0.100000X0*%
%TD*%
%TA.AperFunction,ViaPad*%
%ADD34C,0.600000*%
%TD*%
%TA.AperFunction,Conductor*%
%ADD35C,0.200000*%
%TD*%
G04 APERTURE END LIST*
D10*
%TO.P,J8,1,Pin_1*%
%TO.N,VIN*%
X92400000Y-97675000D03*
D11*
%TO.P,J8,2,Pin_2*%
%TO.N,GND*%
X92400000Y-95135000D03*
%TD*%
D12*
%TO.P,J2,P1,DAT2*%
%TO.N,unconnected-(J2-DAT2-PadP1)*%
X101525000Y-102250000D03*
%TO.P,J2,P2,CD/DAT3*%
%TO.N,SD_CS*%
X102625000Y-102250000D03*
%TO.P,J2,P3,CMD*%
%TO.N,SPI1_MOSI*%
X103725000Y-102250000D03*
%TO.P,J2,P4,VDD*%
%TO.N,+3.3V*%
X104825000Y-102250000D03*
%TO.P,J2,P5,CLK*%
%TO.N,SPI1_SCK*%
X105925000Y-102250000D03*
%TO.P,J2,P6,VSS*%
%TO.N,GND*%
X107025000Y-102250000D03*
%TO.P,J2,P7,DAT0*%
%TO.N,SPI1_MISO*%
X108125000Y-102250000D03*
%TO.P,J2,P8,DAT1*%
%TO.N,unconnected-(J2-DAT1-PadP8)*%
X109225000Y-102250000D03*
D13*
%TO.P,J2,MP1,MP1*%
%TO.N,unconnected-(J2-PadMP1)*%
X111695000Y-104450000D03*
%TO.P,J2,MP2,MP2*%
%TO.N,unconnected-(J2-PadMP2)*%
X97805000Y-104450000D03*
%TO.P,J2,MP3,MP3*%
%TO.N,unconnected-(J2-PadMP3)*%
X97805000Y-96250000D03*
%TO.P,J2,MP4,MP4*%
%TO.N,unconnected-(J2-PadMP4)*%
X111695000Y-96250000D03*
%TD*%
D14*
%TO.P,IC3,1,GND_1*%
%TO.N,GND*%
X102100000Y-86500000D03*
D15*
%TO.P,IC3,2,TXD*%
%TO.N,unconnected-(IC3-TXD-Pad2)*%
X102100000Y-85400000D03*
%TO.P,IC3,3,RXD*%
%TO.N,unconnected-(IC3-RXD-Pad3)*%
X102100000Y-84300000D03*
%TO.P,IC3,4,TIMEPULSE*%
%TO.N,unconnected-(IC3-TIMEPULSE-Pad4)*%
X102100000Y-83200000D03*
%TO.P,IC3,5,EXTINT*%
%TO.N,unconnected-(IC3-EXTINT-Pad5)*%
X102100000Y-82100000D03*
%TO.P,IC3,6,V_BCKP*%
%TO.N,unconnected-(IC3-V_BCKP-Pad6)*%
X102100000Y-81000000D03*
%TO.P,IC3,7,V_IO*%
%TO.N,+3.3V*%
X102100000Y-79900000D03*
%TO.P,IC3,8,VCC*%
X102100000Y-78800000D03*
D14*
%TO.P,IC3,9,RESET_N*%
%TO.N,GPS_RST*%
X102100000Y-77700000D03*
%TO.P,IC3,10,GND_2*%
%TO.N,GND*%
X111600000Y-77700000D03*
D15*
%TO.P,IC3,11,RF_IN*%
%TO.N,Net-(IC3-RF_IN)*%
X111600000Y-78800000D03*
%TO.P,IC3,12,GND_3*%
%TO.N,GND*%
X111600000Y-79900000D03*
%TO.P,IC3,13,LNA_EN*%
%TO.N,unconnected-(IC3-LNA_EN-Pad13)*%
X111600000Y-81000000D03*
%TO.P,IC3,14,VCC_RF*%
%TO.N,Net-(IC3-VCC_RF)*%
X111600000Y-82100000D03*
%TO.P,IC3,15,RESERVED*%
%TO.N,unconnected-(IC3-RESERVED-Pad15)*%
X111600000Y-83200000D03*
%TO.P,IC3,16,SDA*%
%TO.N,I2C1_SDA*%
X111600000Y-84300000D03*
%TO.P,IC3,17,SCL*%
%TO.N,I2C1_SCL*%
X111600000Y-85400000D03*
D14*
%TO.P,IC3,18,SAFEBOOT_N*%
%TO.N,unconnected-(IC3-SAFEBOOT_N-Pad18)*%
X111600000Y-86500000D03*
%TD*%
D16*
%TO.P,D2,1,1*%
%TO.N,GND*%
X114600000Y-77650000D03*
%TO.P,D2,2,2*%
%TO.N,Net-(IC3-RF_IN)*%
X114600000Y-78750000D03*
%TD*%
D10*
%TO.P,J7,1,Pin_1*%
%TO.N,SERVO_1_PWM*%
X120780000Y-77000000D03*
D11*
%TO.P,J7,2,Pin_2*%
%TO.N,SERVO_2_PWM*%
X123320000Y-77000000D03*
%TO.P,J7,3,Pin_3*%
%TO.N,SERVO_3_PWM*%
X125860000Y-77000000D03*
%TO.P,J7,4,Pin_4*%
%TO.N,SERVO_4_PWM*%
X128400000Y-77000000D03*
%TD*%
D10*
%TO.P,J6,1,Pin_1*%
%TO.N,I2C1_SDA*%
X136325000Y-77400000D03*
D11*
%TO.P,J6,2,Pin_2*%
%TO.N,I2C1_SCL*%
X138865000Y-77400000D03*
%TD*%
%TO.P,J5,4,Pin_4*%
%TO.N,+3.3V*%
X144200000Y-89620000D03*
%TO.P,J5,3,Pin_3*%
%TO.N,Net-(J5-Pin_3)*%
X144200000Y-87080000D03*
%TO.P,J5,2,Pin_2*%
%TO.N,Net-(J5-Pin_2)*%
X144200000Y-84540000D03*
D10*
%TO.P,J5,1,Pin_1*%
%TO.N,GND*%
X144200000Y-82000000D03*
%TD*%
D17*
%TO.P,H5,1*%
%TO.N,N/C*%
X143400000Y-78000000D03*
D18*
X143400000Y-78000000D03*
%TD*%
D17*
%TO.P,H6,1*%
%TO.N,N/C*%
X92400000Y-105000000D03*
D18*
X92400000Y-105000000D03*
%TD*%
%TO.P,H1,1*%
%TO.N,N/C*%
X92400000Y-78000000D03*
D17*
X92400000Y-78000000D03*
%TD*%
D18*
%TO.P,H7,1*%
%TO.N,N/C*%
X143400000Y-105000000D03*
D17*
X143400000Y-105000000D03*
%TD*%
D19*
%TO.P,J1,S1,SHIELD*%
%TO.N,GND*%
X97134052Y-82180000D03*
D20*
X91774052Y-82180000D03*
D19*
X97134052Y-90820000D03*
D20*
X91774052Y-90820000D03*
%TD*%
D21*
%TO.P,J3,1,In*%
%TO.N,Net-(IC3-RF_IN)*%
X120525000Y-82000000D03*
D22*
%TO.P,J3,2,Ext*%
%TO.N,GND*%
X122000000Y-83525000D03*
X119050000Y-83525000D03*
%TD*%
D23*
%TO.P,C39,1*%
%TO.N,Net-(C39-Pad1)*%
X139000000Y-92920000D03*
%TO.P,C39,2*%
%TO.N,GND*%
X139000000Y-93880000D03*
%TD*%
D24*
%TO.P,C28,1*%
%TO.N,+3.3V*%
X104750000Y-90820000D03*
%TO.P,C28,2*%
%TO.N,GND*%
X104750000Y-90180000D03*
%TD*%
D25*
%TO.P,FB2,1*%
%TO.N,Net-(IC3-RF_IN)*%
X116200000Y-78825000D03*
%TO.P,FB2,2*%
%TO.N,Net-(C29-Pad1)*%
X116200000Y-80375000D03*
%TD*%
D26*
%TO.P,R6,1*%
%TO.N,+3.3V*%
X106194154Y-90893046D03*
%TO.P,R6,2*%
%TO.N,SPI1_MISO*%
X106834154Y-90893046D03*
%TD*%
D27*
%TO.P,C29,1*%
%TO.N,Net-(C29-Pad1)*%
X115025000Y-84200000D03*
%TO.P,C29,2*%
%TO.N,GND*%
X116575000Y-84200000D03*
%TD*%
D28*
%TO.P,J4,2,Ext*%
%TO.N,GND*%
X144125000Y-96475000D03*
X144125000Y-93525000D03*
D29*
%TO.P,J4,1,In*%
%TO.N,Net-(J4-In)*%
X142600000Y-95000000D03*
%TD*%
D30*
%TO.P,U7,1,GND*%
%TO.N,GND*%
X121400000Y-105400000D03*
%TO.P,U7,2,MISO*%
%TO.N,SPI1_MISO*%
X121400000Y-103400000D03*
%TO.P,U7,3,MOSI*%
%TO.N,SPI1_MOSI*%
X121400000Y-101400000D03*
%TO.P,U7,4,SCK*%
%TO.N,SPI1_SCK*%
X121400000Y-99400000D03*
%TO.P,U7,5,NSS*%
%TO.N,TELEM_CS*%
X121400000Y-97400000D03*
%TO.P,U7,6,RESET*%
%TO.N,unconnected-(U7-RESET-Pad6)*%
X121400000Y-95400000D03*
%TO.P,U7,7,DIO5*%
%TO.N,unconnected-(U7-DIO5-Pad7)*%
X121400000Y-93400000D03*
%TO.P,U7,8,GND*%
%TO.N,GND*%
X121400000Y-91400000D03*
%TO.P,U7,9,ANT*%
%TO.N,Net-(J4-In)*%
X136450000Y-91400000D03*
%TO.P,U7,10,GND*%
%TO.N,GND*%
X136450000Y-93400000D03*
%TO.P,U7,11,DIO3*%
%TO.N,unconnected-(U7-DIO3-Pad11)*%
X136450000Y-95400000D03*
%TO.P,U7,12,DIO4*%
%TO.N,unconnected-(U7-DIO4-Pad12)*%
X136450000Y-97400000D03*
%TO.P,U7,13,3.3V*%
%TO.N,+3.3V*%
X136450000Y-99400000D03*
%TO.P,U7,14,DIO0*%
%TO.N,unconnected-(U7-DIO0-Pad14)*%
X136450000Y-101400000D03*
%TO.P,U7,15,DIO1*%
%TO.N,unconnected-(U7-DIO1-Pad15)*%
X136450000Y-103400000D03*
%TO.P,U7,16,DIO2*%
%TO.N,unconnected-(U7-DIO2-Pad16)*%
X136450000Y-105400000D03*
%TD*%
D25*
%TO.P,FB3,1*%
%TO.N,Net-(J4-In)*%
X140500000Y-91425000D03*
%TO.P,FB3,2*%
%TO.N,Net-(C39-Pad1)*%
X140500000Y-92975000D03*
%TD*%
D31*
%TO.P,C38,1*%
%TO.N,+3.3V*%
X139000000Y-99230000D03*
%TO.P,C38,2*%
%TO.N,GND*%
X139000000Y-98270000D03*
%TD*%
D32*
%TO.P,R5,1*%
%TO.N,+3.3V*%
X103750000Y-90180000D03*
%TO.P,R5,2*%
%TO.N,SPI1_MOSI*%
X103750000Y-90820000D03*
%TD*%
D33*
%TO.P,R7,1*%
%TO.N,Net-(C29-Pad1)*%
X114920000Y-82000000D03*
%TO.P,R7,2*%
%TO.N,Net-(IC3-VCC_RF)*%
X114280000Y-82000000D03*
%TD*%
D32*
%TO.P,R4,1*%
%TO.N,+3.3V*%
X102500000Y-90180000D03*
%TO.P,R4,2*%
%TO.N,SD_CS*%
X102500000Y-90820000D03*
%TD*%
D34*
%TO.N,GND*%
X100800000Y-101000000D03*
X134000000Y-76600000D03*
X116800000Y-83000000D03*
%TO.N,I2C1_SDA*%
X128100000Y-85400000D03*
%TO.N,I2C1_SCL*%
X129400000Y-86200000D03*
%TO.N,USB_DP*%
X104000000Y-88200000D03*
%TO.N,GND*%
X131200000Y-80600000D03*
%TO.N,+3.3V*%
X124500000Y-94500000D03*
%TO.N,BOOT0*%
X112600000Y-91000000D03*
X124400000Y-89200000D03*
%TO.N,+3.3V*%
X95628539Y-105997203D03*
%TO.N,GND*%
X136000000Y-100400000D03*
X125000000Y-92800000D03*
X106500000Y-100875000D03*
X129090000Y-105025000D03*
X125800000Y-84800000D03*
X123400000Y-98800000D03*
X130850000Y-102425000D03*
X100166840Y-87100000D03*
X139800000Y-84600000D03*
X120200000Y-89800000D03*
%TO.N,+3.3V*%
X130930000Y-104140000D03*
X101400000Y-89800000D03*
X137800000Y-99200000D03*
X138800000Y-83800000D03*
X98800000Y-77800000D03*
X130775000Y-77725000D03*
X124600000Y-81400000D03*
X124800000Y-90600000D03*
X110199998Y-82895773D03*
%TO.N,VBUS*%
X100000000Y-85000000D03*
X99211768Y-87626899D03*
%TO.N,USB_DM*%
X136524265Y-87124265D03*
X104000000Y-85000000D03*
%TO.N,USB_DP*%
X139800000Y-87400000D03*
%TO.N,I2C1_SDA*%
X127237500Y-101375000D03*
X128025000Y-93000000D03*
%TO.N,I2C1_SCL*%
X131085642Y-101650000D03*
X130875000Y-93075000D03*
%TO.N,SPI1_MISO*%
X115600000Y-105800000D03*
%TO.N,SPI1_MOSI*%
X118800000Y-101500000D03*
X116200000Y-106400000D03*
X118650000Y-104000000D03*
%TO.N,SPI1_SCK*%
X114250000Y-105200000D03*
X108624265Y-105175735D03*
%TO.N,SD_CS*%
X105975735Y-104224265D03*
%TO.N,TELEM_CS*%
X124400000Y-96000000D03*
%TO.N,I2C1_SDA*%
X130600000Y-81400000D03*
%TD*%
D35*
%TO.N,USB_DM*%
X136524265Y-87124265D02*
X136448530Y-87200000D01*
X136448530Y-87200000D02*
X106200000Y-87200000D01*
X106200000Y-87200000D02*
X104000000Y-85000000D01*
%TO.N,USB_DP*%
X114000000Y-88200000D02*
X113600000Y-88600000D01*
X139800000Y-87400000D02*
X139000000Y-88200000D01*
X139000000Y-88200000D02*
X114000000Y-88200000D01*
X113600000Y-88600000D02*
X104400000Y-88600000D01*
X104400000Y-88600000D02*
X104000000Y-88200000D01*
%TO.N,GND*%
X116575000Y-83225000D02*
X116800000Y-83000000D01*
X116575000Y-84200000D02*
X116575000Y-83225000D01*
%TO.N,Net-(C29-Pad1)*%
X115400000Y-82000000D02*
X116200000Y-81200000D01*
X114920000Y-82000000D02*
X115400000Y-82000000D01*
X116200000Y-81200000D02*
X116200000Y-80375000D01*
X115025000Y-84200000D02*
X115025000Y-82105000D01*
X115025000Y-82105000D02*
X114920000Y-82000000D01*
%TO.N,Net-(IC3-RF_IN)*%
X120525000Y-82000000D02*
X120525000Y-80925000D01*
X120525000Y-80925000D02*
X118400000Y-78800000D01*
X118400000Y-78800000D02*
X116225000Y-78800000D01*
X116225000Y-78800000D02*
X116200000Y-78825000D01*
X114600000Y-78750000D02*
X111650000Y-78750000D01*
X111650000Y-78750000D02*
X111600000Y-78800000D01*
X114600000Y-78750000D02*
X116125000Y-78750000D01*
X116125000Y-78750000D02*
X116200000Y-78825000D01*
%TO.N,I2C1_SCL*%
X111600000Y-85400000D02*
X113200000Y-85400000D01*
X113200000Y-85400000D02*
X114000000Y-86200000D01*
X114000000Y-86200000D02*
X129400000Y-86200000D01*
%TO.N,I2C1_SDA*%
X113100000Y-84300000D02*
X114200000Y-85400000D01*
X114200000Y-85400000D02*
X128100000Y-85400000D01*
X111600000Y-84300000D02*
X113100000Y-84300000D01*
%TO.N,I2C1_SCL*%
X129400000Y-86200000D02*
X130800000Y-86200000D01*
X130800000Y-86200000D02*
X138865000Y-78135000D01*
X138865000Y-78135000D02*
X138865000Y-77400000D01*
%TO.N,I2C1_SDA*%
X128100000Y-85400000D02*
X130600000Y-82900000D01*
X130600000Y-82900000D02*
X130600000Y-81400000D01*
X111900000Y-84600000D02*
X111600000Y-84300000D01*
%TO.N,BOOT0*%
X114400000Y-89200000D02*
X112600000Y-91000000D01*
X124400000Y-89200000D02*
X114400000Y-89200000D01*
%TO.N,Net-(J4-In)*%
X140500000Y-91425000D02*
X140625000Y-91425000D01*
X142400000Y-94800000D02*
X142600000Y-95000000D01*
X140625000Y-91425000D02*
X142400000Y-93200000D01*
X142400000Y-93200000D02*
X142400000Y-94800000D01*
%TO.N,SPI1_MISO*%
X106834154Y-90893046D02*
X107493046Y-90893046D01*
X107493046Y-90893046D02*
X108125000Y-91525000D01*
X108125000Y-91525000D02*
X108125000Y-102250000D01*
%TO.N,SPI1_SCK*%
X114250000Y-105200000D02*
X114250000Y-104350000D01*
X114250000Y-104350000D02*
X119200000Y-99400000D01*
X119200000Y-99400000D02*
X121400000Y-99400000D01*
%TO.N,I2C1_SCL*%
X130875000Y-93075000D02*
X131085642Y-93285642D01*
X131085642Y-93285642D02*
X131085642Y-101650000D01*
%TO.N,SPI1_SCK*%
X108624265Y-105175735D02*
X108463235Y-105175735D01*
X108463235Y-105175735D02*
X105925000Y-102637500D01*
X105925000Y-102637500D02*
X105925000Y-102250000D01*
%TO.N,I2C1_SDA*%
X128025000Y-93000000D02*
X128025000Y-100587500D01*
X128025000Y-100587500D02*
X127237500Y-101375000D01*
%TO.N,SPI1_MOSI*%
X116200000Y-106400000D02*
X109000000Y-106400000D01*
X109000000Y-106400000D02*
X106100000Y-103500000D01*
X104475000Y-103500000D02*
X103725000Y-102750000D01*
X106100000Y-103500000D02*
X104475000Y-103500000D01*
X103725000Y-102750000D02*
X103725000Y-102250000D01*
X118650000Y-104000000D02*
X118600000Y-104000000D01*
X118600000Y-104000000D02*
X116200000Y-106400000D01*
%TO.N,SPI1_MISO*%
X108125000Y-102250000D02*
X108125000Y-103230000D01*
X108125000Y-103230000D02*
X110695000Y-105800000D01*
X118351471Y-103400000D02*
X121400000Y-103400000D01*
X110695000Y-105800000D02*
X115951471Y-105800000D01*
X115951471Y-105800000D02*
X118351471Y-103400000D01*
%TO.N,TELEM_CS*%
X121400000Y-97400000D02*
X123000000Y-97400000D01*
X123000000Y-97400000D02*
X124400000Y-96000000D01*
%TO.N,GND*%
X139000000Y-93880000D02*
X138720000Y-93600000D01*
X136650000Y-93600000D02*
X136450000Y-93400000D01*
X138720000Y-93600000D02*
X136650000Y-93600000D01*
%TO.N,+3.3V*%
X138830000Y-99400000D02*
X136450000Y-99400000D01*
X139000000Y-99230000D02*
X138830000Y-99400000D01*
%TO.N,GND*%
X139000000Y-98270000D02*
X139000000Y-93880000D01*
%TO.N,Net-(J4-In)*%
X136450000Y-91400000D02*
X140475000Y-91400000D01*
X140475000Y-91400000D02*
X140500000Y-91425000D01*
%TO.N,Net-(C39-Pad1)*%
X139000000Y-92920000D02*
X139055000Y-92975000D01*
X139055000Y-92975000D02*
X140500000Y-92975000D01*
%TO.N,SD_CS*%
X105975735Y-104224265D02*
X104099265Y-104224265D01*
X104099265Y-104224265D02*
X102625000Y-102750000D01*
X102625000Y-102750000D02*
X102625000Y-102250000D01*
%TO.N,SPI1_MOSI*%
X118750000Y-101500000D02*
X118850000Y-101400000D01*
X118850000Y-101400000D02*
X121400000Y-101400000D01*
%TO.N,GND*%
X106500000Y-100875000D02*
X107025000Y-101400000D01*
X107025000Y-101400000D02*
X107025000Y-102250000D01*
%TO.N,+3.3V*%
X103750000Y-90180000D02*
X103951544Y-90180000D01*
X106194154Y-90893046D02*
X104823046Y-90893046D01*
X100900000Y-79900000D02*
X102100000Y-79900000D01*
X101780000Y-90180000D02*
X101400000Y-89800000D01*
X104825000Y-102250000D02*
X104825000Y-90895000D01*
X99800000Y-78800000D02*
X100900000Y-79900000D01*
X103750000Y-90180000D02*
X102500000Y-90180000D01*
X104825000Y-90895000D02*
X104750000Y-90820000D01*
X103951544Y-90180000D02*
X104591544Y-90820000D01*
X104591544Y-90820000D02*
X104750000Y-90820000D01*
X99800000Y-78800000D02*
X98800000Y-77800000D01*
X102500000Y-90180000D02*
X101780000Y-90180000D01*
X102100000Y-78800000D02*
X99800000Y-78800000D01*
X104823046Y-90893046D02*
X104750000Y-90820000D01*
%TO.N,VBUS*%
X99211768Y-87626899D02*
X99211768Y-85788232D01*
X99211768Y-85788232D02*
X100000000Y-85000000D01*
%TO.N,SPI1_MOSI*%
X103725000Y-90845000D02*
X103750000Y-90820000D01*
X103725000Y-102250000D02*
X103725000Y-90845000D01*
%TO.N,Net-(IC3-VCC_RF)*%
X114280000Y-82000000D02*
X111700000Y-82000000D01*
X111700000Y-82000000D02*
X111600000Y-82100000D01*
%TO.N,SD_CS*%
X102625000Y-102250000D02*
X102625000Y-90945000D01*
X102625000Y-90945000D02*
X102500000Y-90820000D01*
%TO.N,GND*%
X137000000Y-93400000D02*
X136450000Y-93400000D01*
%TD*%
%TA.AperFunction,Conductor*%
%TO.N,GND*%
G36*
X119372539Y-76020185D02*
G01*
X119418294Y-76072989D01*
X119429500Y-76124500D01*
X119429500Y-77897870D01*
X119429501Y-77897876D01*
X119435908Y-77957483D01*
X119486202Y-78092328D01*
X119486206Y-78092335D01*
X119572452Y-78207544D01*
X119572455Y-78207547D01*
X119687664Y-78293793D01*
X119687671Y-78293797D01*
X119822517Y-78344091D01*
X119822516Y-78344091D01*
X119829444Y-78344835D01*
X119882127Y-78350500D01*
X121677872Y-78350499D01*
X121737483Y-78344091D01*
X121872331Y-78293796D01*
X121987546Y-78207546D01*
X122073796Y-78092331D01*
X122122810Y-77960916D01*
X122164681Y-77904984D01*
X122230145Y-77880566D01*
X122298418Y-77895417D01*
X122326673Y-77916569D01*
X122448599Y-78038495D01*
X122533414Y-78097883D01*
X122642165Y-78174032D01*
X122642167Y-78174033D01*
X122642170Y-78174035D01*
X122856337Y-78273903D01*
X123084592Y-78335063D01*
X123261034Y-78350500D01*
X123319999Y-78355659D01*
X123320000Y-78355659D01*
X123320001Y-78355659D01*
X123378966Y-78350500D01*
X123555408Y-78335063D01*
X123783663Y-78273903D01*
X123997830Y-78174035D01*
X124191401Y-78038495D01*
X124358495Y-77871401D01*
X124479525Y-77698553D01*
X124488425Y-77685842D01*
X124543002Y-77642217D01*
X124612500Y-77635023D01*
X124674855Y-77666546D01*
X124691575Y-77685842D01*
X124821500Y-77871395D01*
X124821505Y-77871401D01*
X124988599Y-78038495D01*
X125073414Y-78097883D01*
X125182165Y-78174032D01*
X125182167Y-78174033D01*
X125182170Y-78174035D01*
X125396337Y-78273903D01*
X125624592Y-78335063D01*
X125801034Y-78350500D01*
X125859999Y-78355659D01*
X125860000Y-78355659D01*
X125860001Y-78355659D01*
X125918966Y-78350500D01*
X126095408Y-78335063D01*
X126323663Y-78273903D01*
X126537830Y-78174035D01*
X126731401Y-78038495D01*
X126898495Y-77871401D01*
X127019525Y-77698553D01*
X127028425Y-77685842D01*
X127083002Y-77642217D01*
X127152500Y-77635023D01*
X127214855Y-77666546D01*
X127231575Y-77685842D01*
X127361500Y-77871395D01*
X127361505Y-77871401D01*
X127528599Y-78038495D01*
X127613414Y-78097883D01*
X127722165Y-78174032D01*
X127722167Y-78174033D01*
X127722170Y-78174035D01*
X127936337Y-78273903D01*
X128164592Y-78335063D01*
X128341034Y-78350500D01*
X128399999Y-78355659D01*
X128400000Y-78355659D01*
X128400001Y-78355659D01*
X128458966Y-78350500D01*
X128635408Y-78335063D01*
X128863663Y-78273903D01*
X129077830Y-78174035D01*
X129271401Y-78038495D01*
X129438495Y-77871401D01*
X129541009Y-77724996D01*
X129969435Y-77724996D01*
X129969435Y-77725003D01*
X129989630Y-77904249D01*
X129989631Y-77904254D01*
X130049211Y-78074523D01*
X130111739Y-78174035D01*
X130145184Y-78227262D01*
X130272738Y-78354816D01*
X130274080Y-78355659D01*
X130405684Y-78438352D01*
X130425478Y-78450789D01*
X130544190Y-78492328D01*
X130595745Y-78510368D01*
X130595750Y-78510369D01*
X130774996Y-78530565D01*
X130775000Y-78530565D01*
X130775004Y-78530565D01*
X130954249Y-78510369D01*
X130954252Y-78510368D01*
X130954255Y-78510368D01*
X131124522Y-78450789D01*
X131277262Y-78354816D01*
X131404816Y-78227262D01*
X131500789Y-78074522D01*
X131560368Y-77904255D01*
X131560369Y-77904249D01*
X131580565Y-77725003D01*
X131580565Y-77724996D01*
X131560369Y-77545750D01*
X131560368Y-77545745D01*
X131534575Y-77472032D01*
X131500789Y-77375478D01*
X131404816Y-77222738D01*
X131277262Y-77095184D01*
X131217946Y-77057913D01*
X131124523Y-76999211D01*
X130954254Y-76939631D01*
X130954249Y-76939630D01*
X130775004Y-76919435D01*
X130774996Y-76919435D01*
X130595750Y-76939630D01*
X130595745Y-76939631D01*
X130425476Y-76999211D01*
X130272737Y-77095184D01*
X130145184Y-77222737D01*
X130049211Y-77375476D01*
X129989631Y-77545745D01*
X129989630Y-77545750D01*
X129969435Y-77724996D01*
X129541009Y-77724996D01*
X129574035Y-77677830D01*
X129673903Y-77463663D01*
X129735063Y-77235408D01*
X129755659Y-77000000D01*
X129735063Y-76764592D01*
X129673903Y-76536337D01*
X129574035Y-76322171D01*
X129563881Y-76307669D01*
X129485426Y-76195623D01*
X129463099Y-76129417D01*
X129480109Y-76061650D01*
X129531057Y-76013837D01*
X129587001Y-76000500D01*
X135013429Y-76000500D01*
X135080468Y-76020185D01*
X135126223Y-76072989D01*
X135136167Y-76142147D01*
X135112695Y-76198811D01*
X135031206Y-76307664D01*
X135031202Y-76307671D01*
X134980908Y-76442517D01*
X134974501Y-76502116D01*
X134974500Y-76502135D01*
X134974500Y-78297870D01*
X134974501Y-78297876D01*
X134980908Y-78357483D01*
X135031202Y-78492328D01*
X135031206Y-78492335D01*
X135117452Y-78607544D01*
X135117455Y-78607547D01*
X135232664Y-78693793D01*
X135232671Y-78693797D01*
X135367517Y-78744091D01*
X135367516Y-78744091D01*
X135374444Y-78744835D01*
X135427127Y-78750500D01*
X137100903Y-78750499D01*
X137167942Y-78770184D01*
X137213697Y-78822987D01*
X137223641Y-78892146D01*
X137194616Y-78955702D01*
X137188584Y-78962180D01*
X130587584Y-85563181D01*
X130526261Y-85596666D01*
X130499903Y-85599500D01*
X129982412Y-85599500D01*
X129915373Y-85579815D01*
X129905097Y-85572445D01*
X129902263Y-85570185D01*
X129902262Y-85570184D01*
X129794165Y-85502262D01*
X129749523Y-85474211D01*
X129579254Y-85414631D01*
X129579249Y-85414630D01*
X129400004Y-85394435D01*
X129399996Y-85394435D01*
X129250410Y-85411288D01*
X129181588Y-85399233D01*
X129130209Y-85351884D01*
X129112585Y-85284273D01*
X129134312Y-85217868D01*
X129148841Y-85200392D01*
X130958506Y-83390728D01*
X130958511Y-83390724D01*
X130968714Y-83380520D01*
X130968716Y-83380520D01*
X131080520Y-83268716D01*
X131149349Y-83149500D01*
X131159577Y-83131785D01*
X131200501Y-82979057D01*
X131200501Y-82820943D01*
X131200501Y-82813348D01*
X131200500Y-82813330D01*
X131200500Y-81982412D01*
X131220185Y-81915373D01*
X131227555Y-81905097D01*
X131229810Y-81902267D01*
X131229816Y-81902262D01*
X131325789Y-81749522D01*
X131385368Y-81579255D01*
X131385693Y-81576371D01*
X131405565Y-81400003D01*
X131405565Y-81399996D01*
X131385369Y-81220750D01*
X131385368Y-81220745D01*
X131356158Y-81137267D01*
X131325789Y-81050478D01*
X131320851Y-81042620D01*
X131229815Y-80897737D01*
X131102262Y-80770184D01*
X130949523Y-80674211D01*
X130779254Y-80614631D01*
X130779249Y-80614630D01*
X130600004Y-80594435D01*
X130599996Y-80594435D01*
X130420750Y-80614630D01*
X130420745Y-80614631D01*
X130250476Y-80674211D01*
X130097737Y-80770184D01*
X129970184Y-80897737D01*
X129874211Y-81050476D01*
X129814631Y-81220745D01*
X129814630Y-81220750D01*
X129794435Y-81399996D01*
X129794435Y-81400003D01*
X129814630Y-81579249D01*
X129814631Y-81579254D01*
X129874211Y-81749523D01*
X129910331Y-81807007D01*
X129949912Y-81870000D01*
X129970185Y-81902263D01*
X129972445Y-81905097D01*
X129973334Y-81907275D01*
X129973889Y-81908158D01*
X129973734Y-81908255D01*
X129998855Y-81969783D01*
X129999500Y-81982412D01*
X129999500Y-82599902D01*
X129979815Y-82666941D01*
X129963181Y-82687583D01*
X128081465Y-84569298D01*
X128020142Y-84602783D01*
X128007668Y-84604837D01*
X127920750Y-84614630D01*
X127750478Y-84674210D01*
X127597736Y-84770185D01*
X127594903Y-84772445D01*
X127592724Y-84773334D01*
X127591842Y-84773889D01*
X127591744Y-84773734D01*
X127530217Y-84798855D01*
X127517588Y-84799500D01*
X123096159Y-84799500D01*
X123029120Y-84779815D01*
X122983365Y-84727011D01*
X122973421Y-84657853D01*
X122978453Y-84636496D01*
X123014505Y-84527697D01*
X123014506Y-84527690D01*
X123024999Y-84424986D01*
X123025000Y-84424973D01*
X123025000Y-83775000D01*
X121874000Y-83775000D01*
X121806961Y-83755315D01*
X121761206Y-83702511D01*
X121750000Y-83651000D01*
X121750000Y-83275000D01*
X122250000Y-83275000D01*
X123024999Y-83275000D01*
X123024999Y-82625028D01*
X123024998Y-82625013D01*
X123014505Y-82522302D01*
X122959358Y-82355880D01*
X122959356Y-82355875D01*
X122867315Y-82206654D01*
X122743345Y-82082684D01*
X122594124Y-81990643D01*
X122594119Y-81990641D01*
X122427697Y-81935494D01*
X122427690Y-81935493D01*
X122324986Y-81925000D01*
X122250000Y-81925000D01*
X122250000Y-83275000D01*
X121750000Y-83275000D01*
X121750000Y-81925000D01*
X121749999Y-81924999D01*
X121675028Y-81925000D01*
X121675016Y-81925001D01*
X121662095Y-81926321D01*
X121593403Y-81913548D01*
X121542521Y-81865665D01*
X121525499Y-81802962D01*
X121525499Y-81674998D01*
X121525498Y-81674981D01*
X121514999Y-81572203D01*
X121514998Y-81572200D01*
X121507642Y-81550000D01*
X121459814Y-81405666D01*
X121456317Y-81399996D01*
X123794435Y-81399996D01*
X123794435Y-81400003D01*
X123814630Y-81579249D01*
X123814631Y-81579254D01*
X123874211Y-81749523D01*
X123949912Y-81870000D01*
X123970184Y-81902262D01*
X124097738Y-82029816D01*
X124124273Y-82046489D01*
X124225994Y-82110405D01*
X124250478Y-82125789D01*
X124376777Y-82169983D01*
X124420745Y-82185368D01*
X124420750Y-82185369D01*
X124599996Y-82205565D01*
X124600000Y-82205565D01*
X124600004Y-82205565D01*
X124779249Y-82185369D01*
X124779252Y-82185368D01*
X124779255Y-82185368D01*
X124949522Y-82125789D01*
X125102262Y-82029816D01*
X125229816Y-81902262D01*
X125325789Y-81749522D01*
X125385368Y-81579255D01*
X125385693Y-81576371D01*
X125405565Y-81400003D01*
X125405565Y-81399996D01*
X125385369Y-81220750D01*
X125385368Y-81220745D01*
X125356158Y-81137267D01*
X125325789Y-81050478D01*
X125320851Y-81042620D01*
X125229815Y-80897737D01*
X125102262Y-80770184D01*
X124949523Y-80674211D01*
X124779254Y-80614631D01*
X124779249Y-80614630D01*
X124600004Y-80594435D01*
X124599996Y-80594435D01*
X124420750Y-80614630D01*
X124420745Y-80614631D01*
X124250476Y-80674211D01*
X124097737Y-80770184D01*
X123970184Y-80897737D01*
X123874211Y-81050476D01*
X123814631Y-81220745D01*
X123814630Y-81220750D01*
X123794435Y-81399996D01*
X121456317Y-81399996D01*
X121367712Y-81256344D01*
X121243656Y-81132288D01*
X121243652Y-81132285D01*
X121184404Y-81095740D01*
X121137679Y-81043792D01*
X121125501Y-80990202D01*
X121125501Y-80845945D01*
X121125501Y-80845943D01*
X121084577Y-80693215D01*
X121039207Y-80614632D01*
X121005520Y-80556284D01*
X120893716Y-80444480D01*
X120893715Y-80444479D01*
X120889385Y-80440149D01*
X120889374Y-80440139D01*
X118887590Y-78438355D01*
X118887588Y-78438352D01*
X118768717Y-78319481D01*
X118768716Y-78319480D01*
X118673111Y-78264283D01*
X118673110Y-78264282D01*
X118631783Y-78240422D01*
X118575881Y-78225443D01*
X118479057Y-78199499D01*
X118320943Y-78199499D01*
X118313347Y-78199499D01*
X118313331Y-78199500D01*
X117124547Y-78199500D01*
X117057508Y-78179815D01*
X117027276Y-78152405D01*
X117022967Y-78146955D01*
X116968340Y-78092328D01*
X116903044Y-78027032D01*
X116903041Y-78027030D01*
X116903040Y-78027029D01*
X116758705Y-77938001D01*
X116758699Y-77937998D01*
X116758697Y-77937997D01*
X116694031Y-77916569D01*
X116597709Y-77884651D01*
X116498346Y-77874500D01*
X115901662Y-77874500D01*
X115901644Y-77874501D01*
X115802292Y-77884650D01*
X115802289Y-77884651D01*
X115641305Y-77937996D01*
X115641296Y-77938000D01*
X115614096Y-77954778D01*
X115546704Y-77973218D01*
X115480040Y-77952295D01*
X115464255Y-77933382D01*
X115461319Y-77936319D01*
X115425000Y-77900000D01*
X114984167Y-77900000D01*
X114976188Y-77899572D01*
X114976183Y-77899678D01*
X114972879Y-77899500D01*
X114972873Y-77899500D01*
X114972866Y-77899500D01*
X114227129Y-77899500D01*
X114223805Y-77899679D01*
X114223799Y-77899573D01*
X114215837Y-77900000D01*
X113775000Y-77900000D01*
X113775000Y-78025500D01*
X113755315Y-78092539D01*
X113702511Y-78138294D01*
X113651000Y-78149500D01*
X113124000Y-78149500D01*
X113056961Y-78129815D01*
X113011206Y-78077011D01*
X113000000Y-78025500D01*
X113000000Y-77950000D01*
X112748069Y-77950000D01*
X112704736Y-77942182D01*
X112607482Y-77905908D01*
X112607483Y-77905908D01*
X112547883Y-77899501D01*
X112547881Y-77899500D01*
X112547873Y-77899500D01*
X112547864Y-77899500D01*
X110652129Y-77899500D01*
X110652123Y-77899501D01*
X110592516Y-77905908D01*
X110495264Y-77942182D01*
X110451931Y-77950000D01*
X110200000Y-77950000D01*
X110200000Y-78097844D01*
X110206401Y-78157372D01*
X110206403Y-78157379D01*
X110215195Y-78180952D01*
X110220179Y-78250644D01*
X110215196Y-78267615D01*
X110205909Y-78292516D01*
X110205908Y-78292517D01*
X110200364Y-78344091D01*
X110199501Y-78352123D01*
X110199500Y-78352135D01*
X110199500Y-79247870D01*
X110199501Y-79247876D01*
X110205909Y-79307487D01*
X110207692Y-79315031D01*
X110206438Y-79315327D01*
X110210856Y-79377069D01*
X110206864Y-79390664D01*
X110206401Y-79392624D01*
X110200000Y-79452155D01*
X110200000Y-79650000D01*
X110451931Y-79650000D01*
X110495264Y-79657818D01*
X110592517Y-79694091D01*
X110592516Y-79694091D01*
X110599444Y-79694835D01*
X110652127Y-79700500D01*
X112547872Y-79700499D01*
X112607483Y-79694091D01*
X112704736Y-79657817D01*
X112748069Y-79650000D01*
X113000000Y-79650000D01*
X113000000Y-79474500D01*
X113019685Y-79407461D01*
X113072489Y-79361706D01*
X113124000Y-79350500D01*
X113775249Y-79350500D01*
X113842288Y-79370185D01*
X113874515Y-79400188D01*
X113906064Y-79442331D01*
X113917454Y-79457546D01*
X113933873Y-79469837D01*
X114032664Y-79543793D01*
X114032671Y-79543797D01*
X114067175Y-79556666D01*
X114167517Y-79594091D01*
X114227127Y-79600500D01*
X114972872Y-79600499D01*
X115032483Y-79594091D01*
X115167331Y-79543796D01*
X115222705Y-79502342D01*
X115288168Y-79477925D01*
X115356441Y-79492776D01*
X115405847Y-79542180D01*
X115420700Y-79610453D01*
X115396284Y-79675918D01*
X115384701Y-79689287D01*
X115377029Y-79696959D01*
X115288001Y-79841294D01*
X115287996Y-79841305D01*
X115234651Y-80002290D01*
X115224500Y-80101647D01*
X115224500Y-80648337D01*
X115224501Y-80648355D01*
X115234650Y-80747707D01*
X115234651Y-80747710D01*
X115287996Y-80908694D01*
X115287998Y-80908699D01*
X115371602Y-81044241D01*
X115390042Y-81111633D01*
X115369120Y-81178297D01*
X115353744Y-81197019D01*
X115275668Y-81275095D01*
X115214345Y-81308580D01*
X115171802Y-81310353D01*
X115089362Y-81299500D01*
X114750636Y-81299500D01*
X114633234Y-81314955D01*
X114632083Y-81315264D01*
X114630891Y-81315264D01*
X114625179Y-81316016D01*
X114625080Y-81315264D01*
X114574919Y-81315264D01*
X114574820Y-81316017D01*
X114569107Y-81315264D01*
X114567917Y-81315265D01*
X114566765Y-81314956D01*
X114449361Y-81299500D01*
X114110636Y-81299500D01*
X113993246Y-81314953D01*
X113993234Y-81314957D01*
X113847163Y-81375461D01*
X113840124Y-81379526D01*
X113839117Y-81377783D01*
X113784068Y-81399069D01*
X113773743Y-81399500D01*
X113124500Y-81399500D01*
X113057461Y-81379815D01*
X113011706Y-81327011D01*
X113000500Y-81275500D01*
X113000499Y-80552129D01*
X113000498Y-80552123D01*
X113000497Y-80552116D01*
X112994091Y-80492517D01*
X112994091Y-80492516D01*
X112992307Y-80484966D01*
X112993559Y-80484669D01*
X112989145Y-80422924D01*
X112993132Y-80409346D01*
X112993598Y-80407375D01*
X112999999Y-80347844D01*
X113000000Y-80347827D01*
X113000000Y-80150000D01*
X112748069Y-80150000D01*
X112704736Y-80142182D01*
X112607482Y-80105908D01*
X112607483Y-80105908D01*
X112547883Y-80099501D01*
X112547881Y-80099500D01*
X112547873Y-80099500D01*
X112547864Y-80099500D01*
X110652129Y-80099500D01*
X110652123Y-80099501D01*
X110592516Y-80105908D01*
X110495264Y-80142182D01*
X110451931Y-80150000D01*
X110200000Y-80150000D01*
X110200000Y-80347844D01*
X110206401Y-80407372D01*
X110208187Y-80414930D01*
X110206542Y-80415318D01*
X110210851Y-80475656D01*
X110205943Y-80492371D01*
X110205908Y-80492520D01*
X110199811Y-80549230D01*
X110199501Y-80552123D01*
X110199500Y-80552135D01*
X110199500Y-81447870D01*
X110199501Y-81447876D01*
X110205908Y-81507479D01*
X110207692Y-81515026D01*
X110206229Y-81515371D01*
X110210585Y-81576371D01*
X110206173Y-81591396D01*
X110205908Y-81592517D01*
X110199501Y-81652116D01*
X110199501Y-81652123D01*
X110199500Y-81652135D01*
X110199500Y-81979450D01*
X110179815Y-82046489D01*
X110127011Y-82092244D01*
X110089384Y-82102670D01*
X110020750Y-82110403D01*
X110020745Y-82110404D01*
X109850476Y-82169983D01*
X109697735Y-82265957D01*
X109570182Y-82393510D01*
X109474209Y-82546249D01*
X109414629Y-82716518D01*
X109414628Y-82716523D01*
X109394433Y-82895769D01*
X109394433Y-82895776D01*
X109414628Y-83075022D01*
X109414629Y-83075027D01*
X109474209Y-83245296D01*
X109556986Y-83377034D01*
X109570182Y-83398035D01*
X109697736Y-83525589D01*
X109730672Y-83546284D01*
X109849183Y-83620750D01*
X109850476Y-83621562D01*
X110020743Y-83681141D01*
X110092931Y-83689274D01*
X110157342Y-83716339D01*
X110196898Y-83773934D01*
X110202336Y-83825746D01*
X110199500Y-83852127D01*
X110199500Y-84747870D01*
X110199501Y-84747876D01*
X110205908Y-84807479D01*
X110207692Y-84815026D01*
X110206229Y-84815371D01*
X110210585Y-84876371D01*
X110206173Y-84891396D01*
X110205908Y-84892517D01*
X110199501Y-84952116D01*
X110199500Y-84952135D01*
X110199500Y-85847870D01*
X110199501Y-85847876D01*
X110205909Y-85907484D01*
X110214929Y-85931670D01*
X110219911Y-86001361D01*
X110214929Y-86018330D01*
X110205910Y-86042512D01*
X110205909Y-86042515D01*
X110205909Y-86042517D01*
X110199500Y-86102127D01*
X110199500Y-86338897D01*
X110199501Y-86475500D01*
X110179817Y-86542539D01*
X110127013Y-86588294D01*
X110075501Y-86599500D01*
X106500097Y-86599500D01*
X106433058Y-86579815D01*
X106412416Y-86563181D01*
X104830700Y-84981465D01*
X104797215Y-84920142D01*
X104795163Y-84907686D01*
X104785368Y-84820745D01*
X104725789Y-84650478D01*
X104629816Y-84497738D01*
X104502262Y-84370184D01*
X104499499Y-84368448D01*
X104349523Y-84274211D01*
X104179254Y-84214631D01*
X104179249Y-84214630D01*
X104000004Y-84194435D01*
X103999996Y-84194435D01*
X103820750Y-84214630D01*
X103820742Y-84214632D01*
X103665453Y-84268970D01*
X103595674Y-84272531D01*
X103535047Y-84237802D01*
X103502820Y-84175809D01*
X103500499Y-84151928D01*
X103500499Y-83852129D01*
X103500498Y-83852123D01*
X103500498Y-83852116D01*
X103494091Y-83792517D01*
X103494090Y-83792515D01*
X103494090Y-83792512D01*
X103492308Y-83784969D01*
X103493773Y-83784622D01*
X103489409Y-83723651D01*
X103493819Y-83708633D01*
X103494089Y-83707488D01*
X103494091Y-83707483D01*
X103500500Y-83647873D01*
X103500499Y-82752128D01*
X103494091Y-82692517D01*
X103494090Y-82692515D01*
X103494090Y-82692512D01*
X103492308Y-82684969D01*
X103493773Y-82684622D01*
X103489409Y-82623651D01*
X103493819Y-82608633D01*
X103494089Y-82607488D01*
X103494091Y-82607483D01*
X103500500Y-82547873D01*
X103500499Y-81652128D01*
X103494091Y-81592517D01*
X103494090Y-81592515D01*
X103494090Y-81592512D01*
X103492308Y-81584969D01*
X103493773Y-81584622D01*
X103489409Y-81523651D01*
X103493819Y-81508633D01*
X103494089Y-81507488D01*
X103494091Y-81507483D01*
X103500500Y-81447873D01*
X103500499Y-80552128D01*
X103494091Y-80492517D01*
X103494090Y-80492515D01*
X103494090Y-80492512D01*
X103492308Y-80484969D01*
X103493773Y-80484622D01*
X103489409Y-80423651D01*
X103493819Y-80408633D01*
X103494089Y-80407488D01*
X103494091Y-80407483D01*
X103500500Y-80347873D01*
X103500499Y-79452128D01*
X103494091Y-79392517D01*
X103494090Y-79392515D01*
X103494090Y-79392512D01*
X103492308Y-79384969D01*
X103493773Y-79384622D01*
X103489409Y-79323651D01*
X103493819Y-79308633D01*
X103494089Y-79307488D01*
X103494091Y-79307483D01*
X103500500Y-79247873D01*
X103500499Y-78352128D01*
X103494091Y-78292517D01*
X103485070Y-78268333D01*
X103480085Y-78198644D01*
X103485066Y-78181677D01*
X103494091Y-78157483D01*
X103500500Y-78097873D01*
X103500499Y-77302155D01*
X110200000Y-77302155D01*
X110200000Y-77450000D01*
X111350000Y-77450000D01*
X111850000Y-77450000D01*
X113000000Y-77450000D01*
X113000000Y-77302172D01*
X112999999Y-77302155D01*
X112994623Y-77252155D01*
X113775000Y-77252155D01*
X113775000Y-77400000D01*
X114350000Y-77400000D01*
X114850000Y-77400000D01*
X115425000Y-77400000D01*
X115425000Y-77252172D01*
X115424999Y-77252155D01*
X115418598Y-77192627D01*
X115418596Y-77192620D01*
X115368354Y-77057913D01*
X115368350Y-77057906D01*
X115282190Y-76942812D01*
X115282187Y-76942809D01*
X115167093Y-76856649D01*
X115167086Y-76856645D01*
X115032379Y-76806403D01*
X115032372Y-76806401D01*
X114972844Y-76800000D01*
X114850000Y-76800000D01*
X114850000Y-77400000D01*
X114350000Y-77400000D01*
X114350000Y-76800000D01*
X114227155Y-76800000D01*
X114167627Y-76806401D01*
X114167620Y-76806403D01*
X114032913Y-76856645D01*
X114032906Y-76856649D01*
X113917812Y-76942809D01*
X113917809Y-76942812D01*
X113831649Y-77057906D01*
X113831645Y-77057913D01*
X113781403Y-77192620D01*
X113781401Y-77192627D01*
X113775000Y-77252155D01*
X112994623Y-77252155D01*
X112993598Y-77242627D01*
X112993596Y-77242620D01*
X112943354Y-77107913D01*
X112943350Y-77107906D01*
X112857190Y-76992812D01*
X112857187Y-76992809D01*
X112742093Y-76906649D01*
X112742086Y-76906645D01*
X112607379Y-76856403D01*
X112607372Y-76856401D01*
X112547844Y-76850000D01*
X111850000Y-76850000D01*
X111850000Y-77450000D01*
X111350000Y-77450000D01*
X111350000Y-76850000D01*
X110652155Y-76850000D01*
X110592627Y-76856401D01*
X110592620Y-76856403D01*
X110457913Y-76906645D01*
X110457906Y-76906649D01*
X110342812Y-76992809D01*
X110342809Y-76992812D01*
X110256649Y-77107906D01*
X110256645Y-77107913D01*
X110206403Y-77242620D01*
X110206401Y-77242627D01*
X110200000Y-77302155D01*
X103500499Y-77302155D01*
X103500499Y-77302128D01*
X103494091Y-77242517D01*
X103491441Y-77235413D01*
X103443797Y-77107671D01*
X103443793Y-77107664D01*
X103357547Y-76992455D01*
X103357544Y-76992452D01*
X103242335Y-76906206D01*
X103242328Y-76906202D01*
X103107482Y-76855908D01*
X103107483Y-76855908D01*
X103047883Y-76849501D01*
X103047881Y-76849500D01*
X103047873Y-76849500D01*
X103047864Y-76849500D01*
X101152129Y-76849500D01*
X101152123Y-76849501D01*
X101092516Y-76855908D01*
X100957671Y-76906202D01*
X100957664Y-76906206D01*
X100842455Y-76992452D01*
X100842452Y-76992455D01*
X100756206Y-77107664D01*
X100756202Y-77107671D01*
X100705908Y-77242517D01*
X100699972Y-77297737D01*
X100699500Y-77302127D01*
X100699500Y-77698553D01*
X100699501Y-78075500D01*
X100679817Y-78142539D01*
X100627013Y-78188294D01*
X100575501Y-78199500D01*
X100100098Y-78199500D01*
X100033059Y-78179815D01*
X100012417Y-78163181D01*
X99630700Y-77781465D01*
X99597215Y-77720142D01*
X99595163Y-77707686D01*
X99585368Y-77620745D01*
X99525789Y-77450478D01*
X99429816Y-77297738D01*
X99302262Y-77170184D01*
X99213742Y-77114563D01*
X99149523Y-77074211D01*
X98979254Y-77014631D01*
X98979249Y-77014630D01*
X98800004Y-76994435D01*
X98799996Y-76994435D01*
X98620750Y-77014630D01*
X98620745Y-77014631D01*
X98450476Y-77074211D01*
X98297737Y-77170184D01*
X98170184Y-77297737D01*
X98074211Y-77450476D01*
X98014631Y-77620745D01*
X98014630Y-77620750D01*
X97994435Y-77799996D01*
X97994435Y-77800003D01*
X98014630Y-77979249D01*
X98014631Y-77979254D01*
X98074211Y-78149523D01*
X98152365Y-78273903D01*
X98170184Y-78302262D01*
X98297738Y-78429816D01*
X98450478Y-78525789D01*
X98620745Y-78585368D01*
X98707669Y-78595161D01*
X98772080Y-78622226D01*
X98781464Y-78630699D01*
X99112944Y-78962180D01*
X99438349Y-79287585D01*
X99438355Y-79287590D01*
X100415139Y-80264374D01*
X100415149Y-80264385D01*
X100419479Y-80268715D01*
X100419480Y-80268716D01*
X100531284Y-80380520D01*
X100591558Y-80415318D01*
X100618095Y-80430639D01*
X100618096Y-80430640D01*
X100637500Y-80441843D01*
X100685716Y-80492410D01*
X100699500Y-80549230D01*
X100699500Y-81447870D01*
X100699501Y-81447876D01*
X100705908Y-81507479D01*
X100707692Y-81515026D01*
X100706229Y-81515371D01*
X100710585Y-81576371D01*
X100706173Y-81591396D01*
X100705908Y-81592517D01*
X100699501Y-81652116D01*
X100699501Y-81652123D01*
X100699500Y-81652135D01*
X100699500Y-82547870D01*
X100699501Y-82547876D01*
X100705908Y-82607479D01*
X100707692Y-82615026D01*
X100706229Y-82615371D01*
X100710585Y-82676371D01*
X100706173Y-82691396D01*
X100705908Y-82692517D01*
X100699501Y-82752116D01*
X100699501Y-82752123D01*
X100699500Y-82752135D01*
X100699500Y-83647870D01*
X100699501Y-83647876D01*
X100705908Y-83707479D01*
X100707692Y-83715026D01*
X100706229Y-83715371D01*
X100710585Y-83776371D01*
X100706173Y-83791396D01*
X100705908Y-83792517D01*
X100702336Y-83825746D01*
X100699501Y-83852123D01*
X100699500Y-83852135D01*
X100699500Y-84269987D01*
X100679815Y-84337026D01*
X100627011Y-84382781D01*
X100557853Y-84392725D01*
X100509461Y-84371814D01*
X100508158Y-84373889D01*
X100349523Y-84274211D01*
X100179254Y-84214631D01*
X100179249Y-84214630D01*
X100000004Y-84194435D01*
X99999996Y-84194435D01*
X99820750Y-84214630D01*
X99820745Y-84214631D01*
X99650476Y-84274211D01*
X99497737Y-84370184D01*
X99370184Y-84497737D01*
X99274210Y-84650478D01*
X99214630Y-84820750D01*
X99204837Y-84907668D01*
X99177770Y-84972082D01*
X99169298Y-84981465D01*
X98843054Y-85307710D01*
X98731249Y-85419514D01*
X98731245Y-85419519D01*
X98683597Y-85502050D01*
X98683597Y-85502051D01*
X98652191Y-85556446D01*
X98645929Y-85579815D01*
X98611267Y-85709175D01*
X98611267Y-85709177D01*
X98611267Y-85877278D01*
X98611268Y-85877291D01*
X98611268Y-87044486D01*
X98591583Y-87111525D01*
X98584218Y-87121795D01*
X98581954Y-87124633D01*
X98485979Y-87277375D01*
X98426399Y-87447644D01*
X98426398Y-87447649D01*
X98406203Y-87626895D01*
X98406203Y-87626902D01*
X98426398Y-87806148D01*
X98426399Y-87806153D01*
X98485979Y-87976422D01*
X98519529Y-88029816D01*
X98581952Y-88129161D01*
X98709506Y-88256715D01*
X98783171Y-88303002D01*
X98822159Y-88327500D01*
X98862246Y-88352688D01*
X98988877Y-88396998D01*
X99032513Y-88412267D01*
X99032518Y-88412268D01*
X99211764Y-88432464D01*
X99211768Y-88432464D01*
X99211772Y-88432464D01*
X99391017Y-88412268D01*
X99391020Y-88412267D01*
X99391023Y-88412267D01*
X99561290Y-88352688D01*
X99714030Y-88256715D01*
X99841584Y-88129161D01*
X99937557Y-87976421D01*
X99997136Y-87806154D01*
X99997137Y-87806148D01*
X100017333Y-87626902D01*
X100017333Y-87626895D01*
X99997137Y-87447649D01*
X99997136Y-87447644D01*
X99962969Y-87350000D01*
X99937557Y-87277377D01*
X99841584Y-87124637D01*
X99841582Y-87124635D01*
X99841581Y-87124633D01*
X99839318Y-87121795D01*
X99838427Y-87119614D01*
X99837879Y-87118741D01*
X99838032Y-87118644D01*
X99812912Y-87057108D01*
X99812268Y-87044486D01*
X99812268Y-86897844D01*
X100700000Y-86897844D01*
X100706401Y-86957372D01*
X100706403Y-86957379D01*
X100756645Y-87092086D01*
X100756649Y-87092093D01*
X100842809Y-87207187D01*
X100842812Y-87207190D01*
X100957906Y-87293350D01*
X100957913Y-87293354D01*
X101092620Y-87343596D01*
X101092627Y-87343598D01*
X101152155Y-87349999D01*
X101152172Y-87350000D01*
X101850000Y-87350000D01*
X102350000Y-87350000D01*
X103047828Y-87350000D01*
X103047844Y-87349999D01*
X103107372Y-87343598D01*
X103107379Y-87343596D01*
X103242086Y-87293354D01*
X103242093Y-87293350D01*
X103357187Y-87207190D01*
X103357190Y-87207187D01*
X103443350Y-87092093D01*
X103443354Y-87092086D01*
X103493596Y-86957379D01*
X103493598Y-86957372D01*
X103499999Y-86897844D01*
X103500000Y-86897827D01*
X103500000Y-86750000D01*
X102350000Y-86750000D01*
X102350000Y-87350000D01*
X101850000Y-87350000D01*
X101850000Y-86750000D01*
X100700000Y-86750000D01*
X100700000Y-86897844D01*
X99812268Y-86897844D01*
X99812268Y-86088328D01*
X99831953Y-86021289D01*
X99848583Y-86000651D01*
X100018535Y-85830698D01*
X100079856Y-85797215D01*
X100092311Y-85795163D01*
X100179255Y-85785368D01*
X100349522Y-85725789D01*
X100502262Y-85629816D01*
X100502262Y-85629815D01*
X100508158Y-85626111D01*
X100509607Y-85628417D01*
X100562794Y-85606664D01*
X100631497Y-85619375D01*
X100682422Y-85667213D01*
X100699500Y-85730010D01*
X100699500Y-85847869D01*
X100699501Y-85847876D01*
X100705908Y-85907481D01*
X100715196Y-85932383D01*
X100720179Y-86002074D01*
X100715196Y-86019044D01*
X100706402Y-86042623D01*
X100706401Y-86042624D01*
X100700000Y-86102155D01*
X100700000Y-86250000D01*
X100951931Y-86250000D01*
X100995264Y-86257818D01*
X101092517Y-86294091D01*
X101092516Y-86294091D01*
X101099444Y-86294835D01*
X101152127Y-86300500D01*
X103047872Y-86300499D01*
X103107483Y-86294091D01*
X103204736Y-86257817D01*
X103248069Y-86250000D01*
X103500000Y-86250000D01*
X103500000Y-86102172D01*
X103499999Y-86102155D01*
X103493598Y-86042627D01*
X103493597Y-86042623D01*
X103484804Y-86019047D01*
X103479820Y-85949355D01*
X103484804Y-85932383D01*
X103494091Y-85907483D01*
X103500500Y-85847873D01*
X103500499Y-85847845D01*
X103500678Y-85844547D01*
X103501530Y-85844592D01*
X103520162Y-85781065D01*
X103572951Y-85735293D01*
X103642107Y-85725327D01*
X103665450Y-85731028D01*
X103820745Y-85785368D01*
X103907669Y-85795161D01*
X103972080Y-85822226D01*
X103981465Y-85830700D01*
X105715139Y-87564374D01*
X105715149Y-87564385D01*
X105719479Y-87568715D01*
X105719480Y-87568716D01*
X105831284Y-87680520D01*
X105898767Y-87719481D01*
X105968215Y-87759577D01*
X105968224Y-87759579D01*
X105971498Y-87760936D01*
X105973846Y-87762828D01*
X105975254Y-87763641D01*
X105975127Y-87763860D01*
X106025903Y-87804775D01*
X106047972Y-87871068D01*
X106030696Y-87938768D01*
X105979561Y-87986381D01*
X105924051Y-87999500D01*
X104865917Y-87999500D01*
X104798878Y-87979815D01*
X104753123Y-87927011D01*
X104748875Y-87916454D01*
X104725789Y-87850478D01*
X104697938Y-87806153D01*
X104629816Y-87697738D01*
X104502262Y-87570184D01*
X104493033Y-87564385D01*
X104349523Y-87474211D01*
X104179254Y-87414631D01*
X104179249Y-87414630D01*
X104000004Y-87394435D01*
X103999996Y-87394435D01*
X103820750Y-87414630D01*
X103820745Y-87414631D01*
X103650476Y-87474211D01*
X103497737Y-87570184D01*
X103370184Y-87697737D01*
X103274211Y-87850476D01*
X103214631Y-88020745D01*
X103214630Y-88020750D01*
X103194435Y-88199996D01*
X103194435Y-88200003D01*
X103214630Y-88379249D01*
X103214631Y-88379254D01*
X103274211Y-88549523D01*
X103370184Y-88702262D01*
X103497738Y-88829816D01*
X103650478Y-88925789D01*
X103820745Y-88985368D01*
X103907668Y-88995161D01*
X103972079Y-89022226D01*
X103981464Y-89030700D01*
X104031284Y-89080520D01*
X104031286Y-89080521D01*
X104031290Y-89080524D01*
X104162601Y-89156335D01*
X104168216Y-89159577D01*
X104271695Y-89187304D01*
X104320942Y-89200500D01*
X104320943Y-89200500D01*
X113250903Y-89200500D01*
X113317942Y-89220185D01*
X113363697Y-89272989D01*
X113373641Y-89342147D01*
X113344616Y-89405703D01*
X113338584Y-89412181D01*
X112581465Y-90169298D01*
X112520142Y-90202783D01*
X112507668Y-90204837D01*
X112420750Y-90214630D01*
X112250478Y-90274210D01*
X112097737Y-90370184D01*
X111970184Y-90497737D01*
X111874211Y-90650476D01*
X111814631Y-90820745D01*
X111814630Y-90820750D01*
X111794435Y-90999996D01*
X111794435Y-91000003D01*
X111814630Y-91179249D01*
X111814631Y-91179254D01*
X111874211Y-91349523D01*
X111945252Y-91462583D01*
X111970184Y-91502262D01*
X112097738Y-91629816D01*
X112250478Y-91725789D01*
X112358004Y-91763414D01*
X112420745Y-91785368D01*
X112420750Y-91785369D01*
X112599996Y-91805565D01*
X112600000Y-91805565D01*
X112600004Y-91805565D01*
X112779249Y-91785369D01*
X112779252Y-91785368D01*
X112779255Y-91785368D01*
X112949522Y-91725789D01*
X113102262Y-91629816D01*
X113229816Y-91502262D01*
X113325789Y-91349522D01*
X113385368Y-91179255D01*
X113395161Y-91092329D01*
X113418586Y-91036581D01*
X119425000Y-91036581D01*
X119425000Y-91150000D01*
X121150000Y-91150000D01*
X121650000Y-91150000D01*
X123375000Y-91150000D01*
X123375000Y-91036585D01*
X123374999Y-91036581D01*
X123359548Y-90899446D01*
X123359547Y-90899440D01*
X123298703Y-90725556D01*
X123200691Y-90569571D01*
X123070428Y-90439308D01*
X122914443Y-90341296D01*
X122740559Y-90280452D01*
X122740553Y-90280451D01*
X122603418Y-90265000D01*
X121650000Y-90265000D01*
X121650000Y-91150000D01*
X121150000Y-91150000D01*
X121150000Y-90265000D01*
X120196581Y-90265000D01*
X120059446Y-90280451D01*
X120059440Y-90280452D01*
X119885556Y-90341296D01*
X119729571Y-90439308D01*
X119599308Y-90569571D01*
X119501296Y-90725556D01*
X119440452Y-90899440D01*
X119440451Y-90899446D01*
X119425000Y-91036581D01*
X113418586Y-91036581D01*
X113422226Y-91027918D01*
X113430690Y-91018543D01*
X114612416Y-89836819D01*
X114673739Y-89803334D01*
X114700097Y-89800500D01*
X123817588Y-89800500D01*
X123884627Y-89820185D01*
X123894903Y-89827555D01*
X123897736Y-89829814D01*
X123897738Y-89829816D01*
X123992732Y-89889505D01*
X124050479Y-89925790D01*
X124090410Y-89939762D01*
X124147187Y-89980483D01*
X124172935Y-90045436D01*
X124159479Y-90113997D01*
X124154451Y-90122776D01*
X124074211Y-90250476D01*
X124014631Y-90420745D01*
X124014630Y-90420750D01*
X123994435Y-90599996D01*
X123994435Y-90600003D01*
X124014630Y-90779249D01*
X124014631Y-90779254D01*
X124074211Y-90949523D01*
X124128899Y-91036557D01*
X124170184Y-91102262D01*
X124297738Y-91229816D01*
X124450478Y-91325789D01*
X124620745Y-91385368D01*
X124620750Y-91385369D01*
X124799996Y-91405565D01*
X124800000Y-91405565D01*
X124800004Y-91405565D01*
X124979249Y-91385369D01*
X124979252Y-91385368D01*
X124979255Y-91385368D01*
X125149522Y-91325789D01*
X125302262Y-91229816D01*
X125429816Y-91102262D01*
X125525789Y-90949522D01*
X125585368Y-90779255D01*
X125585369Y-90779249D01*
X125605565Y-90600003D01*
X125605565Y-90599996D01*
X125585369Y-90420750D01*
X125585368Y-90420745D01*
X125560389Y-90349360D01*
X125525789Y-90250478D01*
X125503265Y-90214632D01*
X125472371Y-90165464D01*
X125429816Y-90097738D01*
X125302262Y-89970184D01*
X125253846Y-89939762D01*
X125149519Y-89874209D01*
X125109587Y-89860236D01*
X125052811Y-89819515D01*
X125027064Y-89754562D01*
X125040520Y-89686000D01*
X125045541Y-89677234D01*
X125114428Y-89567603D01*
X125125788Y-89549524D01*
X125125789Y-89549522D01*
X125185368Y-89379255D01*
X125194553Y-89297737D01*
X125205565Y-89200003D01*
X125205565Y-89199996D01*
X125185369Y-89020750D01*
X125185366Y-89020737D01*
X125166022Y-88965455D01*
X125162460Y-88895676D01*
X125197188Y-88835049D01*
X125259182Y-88802821D01*
X125283063Y-88800500D01*
X138913331Y-88800500D01*
X138913347Y-88800501D01*
X138920943Y-88800501D01*
X139079054Y-88800501D01*
X139079057Y-88800501D01*
X139231785Y-88759577D01*
X139301233Y-88719481D01*
X139368716Y-88680520D01*
X139480520Y-88568716D01*
X139480520Y-88568714D01*
X139490724Y-88558511D01*
X139490728Y-88558506D01*
X139818535Y-88230698D01*
X139879856Y-88197215D01*
X139892311Y-88195163D01*
X139979255Y-88185368D01*
X140149522Y-88125789D01*
X140302262Y-88029816D01*
X140429816Y-87902262D01*
X140525789Y-87749522D01*
X140585368Y-87579255D01*
X140586390Y-87570184D01*
X140605565Y-87400003D01*
X140605565Y-87399996D01*
X140585369Y-87220750D01*
X140585368Y-87220745D01*
X140541480Y-87095321D01*
X140525789Y-87050478D01*
X140429816Y-86897738D01*
X140302262Y-86770184D01*
X140149523Y-86674211D01*
X139979254Y-86614631D01*
X139979249Y-86614630D01*
X139800004Y-86594435D01*
X139799996Y-86594435D01*
X139620750Y-86614630D01*
X139620745Y-86614631D01*
X139450476Y-86674211D01*
X139297737Y-86770184D01*
X139170184Y-86897737D01*
X139074210Y-87050478D01*
X139014630Y-87220750D01*
X139004837Y-87307668D01*
X138977770Y-87372082D01*
X138969299Y-87381465D01*
X138787582Y-87563182D01*
X138726262Y-87596666D01*
X138699903Y-87599500D01*
X137380827Y-87599500D01*
X137313788Y-87579815D01*
X137268033Y-87527011D01*
X137258089Y-87457853D01*
X137263786Y-87434545D01*
X137309631Y-87303527D01*
X137309634Y-87303514D01*
X137329830Y-87124268D01*
X137329830Y-87124261D01*
X137309634Y-86945015D01*
X137309633Y-86945010D01*
X137293091Y-86897737D01*
X137250054Y-86774743D01*
X137247189Y-86770184D01*
X137154080Y-86622002D01*
X137026527Y-86494449D01*
X136873788Y-86398476D01*
X136703519Y-86338896D01*
X136703514Y-86338895D01*
X136524269Y-86318700D01*
X136524261Y-86318700D01*
X136345015Y-86338895D01*
X136345010Y-86338896D01*
X136174741Y-86398476D01*
X136022002Y-86494449D01*
X135953271Y-86563181D01*
X135891948Y-86596666D01*
X135865590Y-86599500D01*
X131549096Y-86599500D01*
X131482057Y-86579815D01*
X131436302Y-86527011D01*
X131426358Y-86457853D01*
X131455383Y-86394297D01*
X131461415Y-86387819D01*
X134049238Y-83799996D01*
X137994435Y-83799996D01*
X137994435Y-83800003D01*
X138014630Y-83979249D01*
X138014631Y-83979254D01*
X138074211Y-84149523D01*
X138149265Y-84268970D01*
X138170184Y-84302262D01*
X138297738Y-84429816D01*
X138329861Y-84450000D01*
X138406764Y-84498322D01*
X138450478Y-84525789D01*
X138491091Y-84540000D01*
X138620745Y-84585368D01*
X138620750Y-84585369D01*
X138799996Y-84605565D01*
X138800000Y-84605565D01*
X138800004Y-84605565D01*
X138979249Y-84585369D01*
X138979252Y-84585368D01*
X138979255Y-84585368D01*
X139149522Y-84525789D01*
X139302262Y-84429816D01*
X139429816Y-84302262D01*
X139525789Y-84149522D01*
X139585368Y-83979255D01*
X139585369Y-83979249D01*
X139605565Y-83800003D01*
X139605565Y-83799996D01*
X139585369Y-83620750D01*
X139585368Y-83620745D01*
X139543644Y-83501505D01*
X139525789Y-83450478D01*
X139525335Y-83449756D01*
X139457892Y-83342421D01*
X139429816Y-83297738D01*
X139302262Y-83170184D01*
X139269344Y-83149500D01*
X139149523Y-83074211D01*
X138979254Y-83014631D01*
X138979249Y-83014630D01*
X138800004Y-82994435D01*
X138799996Y-82994435D01*
X138620750Y-83014630D01*
X138620745Y-83014631D01*
X138450476Y-83074211D01*
X138297737Y-83170184D01*
X138170184Y-83297737D01*
X138074211Y-83450476D01*
X138014631Y-83620745D01*
X138014630Y-83620750D01*
X137994435Y-83799996D01*
X134049238Y-83799996D01*
X135249332Y-82599902D01*
X139095716Y-78753517D01*
X139151301Y-78721426D01*
X139266657Y-78690516D01*
X139328653Y-78673906D01*
X139328654Y-78673905D01*
X139328663Y-78673903D01*
X139542830Y-78574035D01*
X139736401Y-78438495D01*
X139903495Y-78271401D01*
X140039035Y-78077830D01*
X140138903Y-77863663D01*
X140200063Y-77635408D01*
X140220659Y-77400000D01*
X140200063Y-77164592D01*
X140138903Y-76936337D01*
X140039035Y-76722171D01*
X139908914Y-76536337D01*
X139903494Y-76528597D01*
X139736402Y-76361506D01*
X139736396Y-76361501D01*
X139542987Y-76226075D01*
X139499362Y-76171498D01*
X139492168Y-76102000D01*
X139523691Y-76039645D01*
X139583921Y-76004231D01*
X139614110Y-76000500D01*
X141709365Y-76000500D01*
X141776404Y-76020185D01*
X141822159Y-76072989D01*
X141832103Y-76142147D01*
X141803078Y-76205703D01*
X141794249Y-76214892D01*
X141646652Y-76353494D01*
X141454111Y-76586236D01*
X141292268Y-76841261D01*
X141292265Y-76841267D01*
X141163661Y-77114563D01*
X141163659Y-77114568D01*
X141070320Y-77401835D01*
X141013719Y-77698546D01*
X141013718Y-77698553D01*
X140994754Y-77999994D01*
X140994754Y-78000005D01*
X141013718Y-78301446D01*
X141013719Y-78301453D01*
X141038206Y-78429815D01*
X141065716Y-78574032D01*
X141070320Y-78598164D01*
X141163659Y-78885431D01*
X141163661Y-78885436D01*
X141292265Y-79158732D01*
X141292268Y-79158738D01*
X141454111Y-79413763D01*
X141454114Y-79413767D01*
X141454115Y-79413768D01*
X141646649Y-79646502D01*
X141646652Y-79646505D01*
X141866836Y-79853272D01*
X141866846Y-79853280D01*
X142111193Y-80030808D01*
X142111198Y-80030810D01*
X142111205Y-80030816D01*
X142375896Y-80176332D01*
X142375901Y-80176334D01*
X142375903Y-80176335D01*
X142375904Y-80176336D01*
X142656734Y-80287524D01*
X142656737Y-80287525D01*
X142754259Y-80312564D01*
X142949302Y-80362642D01*
X143090818Y-80380520D01*
X143248963Y-80400499D01*
X143248969Y-80400499D01*
X143248973Y-80400500D01*
X143248975Y-80400500D01*
X143551025Y-80400500D01*
X143551027Y-80400500D01*
X143551032Y-80400499D01*
X143551036Y-80400499D01*
X143630591Y-80390448D01*
X143850698Y-80362642D01*
X144143262Y-80287525D01*
X144143265Y-80287524D01*
X144424095Y-80176336D01*
X144424096Y-80176335D01*
X144424094Y-80176335D01*
X144424104Y-80176332D01*
X144688795Y-80030816D01*
X144933162Y-79853274D01*
X145153349Y-79646504D01*
X145279956Y-79493461D01*
X145337856Y-79454354D01*
X145407707Y-79452758D01*
X145467333Y-79489179D01*
X145497803Y-79552055D01*
X145499500Y-79572502D01*
X145499500Y-80614192D01*
X145479815Y-80681231D01*
X145427011Y-80726986D01*
X145357853Y-80736930D01*
X145301190Y-80713460D01*
X145292088Y-80706646D01*
X145292086Y-80706645D01*
X145157379Y-80656403D01*
X145157372Y-80656401D01*
X145097844Y-80650000D01*
X144450000Y-80650000D01*
X144450000Y-81566988D01*
X144392993Y-81534075D01*
X144265826Y-81500000D01*
X144134174Y-81500000D01*
X144007007Y-81534075D01*
X143950000Y-81566988D01*
X143950000Y-80650000D01*
X143302155Y-80650000D01*
X143242627Y-80656401D01*
X143242620Y-80656403D01*
X143107913Y-80706645D01*
X143107906Y-80706649D01*
X142992812Y-80792809D01*
X142992809Y-80792812D01*
X142906649Y-80907906D01*
X142906645Y-80907913D01*
X142856403Y-81042620D01*
X142856401Y-81042627D01*
X142850000Y-81102155D01*
X142850000Y-81750000D01*
X143766988Y-81750000D01*
X143734075Y-81807007D01*
X143700000Y-81934174D01*
X143700000Y-82065826D01*
X143734075Y-82192993D01*
X143766988Y-82250000D01*
X142850000Y-82250000D01*
X142850000Y-82897844D01*
X142856401Y-82957372D01*
X142856403Y-82957379D01*
X142906645Y-83092086D01*
X142906649Y-83092093D01*
X142992809Y-83207187D01*
X142992812Y-83207190D01*
X143107906Y-83293350D01*
X143107913Y-83293354D01*
X143239470Y-83342421D01*
X143295403Y-83384292D01*
X143319821Y-83449756D01*
X143304970Y-83518029D01*
X143283819Y-83546284D01*
X143161503Y-83668600D01*
X143025965Y-83862169D01*
X143025964Y-83862171D01*
X142926098Y-84076335D01*
X142926094Y-84076344D01*
X142864938Y-84304586D01*
X142864936Y-84304596D01*
X142844341Y-84539999D01*
X142844341Y-84540000D01*
X142864936Y-84775403D01*
X142864938Y-84775413D01*
X142926094Y-85003655D01*
X142926096Y-85003659D01*
X142926097Y-85003663D01*
X143017831Y-85200387D01*
X143025965Y-85217830D01*
X143025967Y-85217834D01*
X143112564Y-85341506D01*
X143161501Y-85411396D01*
X143161506Y-85411402D01*
X143328597Y-85578493D01*
X143328603Y-85578498D01*
X143514158Y-85708425D01*
X143557783Y-85763002D01*
X143564977Y-85832500D01*
X143533454Y-85894855D01*
X143514158Y-85911575D01*
X143328597Y-86041505D01*
X143161505Y-86208597D01*
X143025965Y-86402169D01*
X143025964Y-86402171D01*
X142926098Y-86616335D01*
X142926094Y-86616344D01*
X142864938Y-86844586D01*
X142864936Y-86844596D01*
X142844341Y-87079999D01*
X142844341Y-87080000D01*
X142864936Y-87315403D01*
X142864938Y-87315413D01*
X142926094Y-87543655D01*
X142926096Y-87543659D01*
X142926097Y-87543663D01*
X142964909Y-87626895D01*
X143025965Y-87757830D01*
X143025967Y-87757834D01*
X143105255Y-87871068D01*
X143161501Y-87951396D01*
X143161506Y-87951402D01*
X143328597Y-88118493D01*
X143328603Y-88118498D01*
X143514158Y-88248425D01*
X143557783Y-88303002D01*
X143564977Y-88372500D01*
X143533454Y-88434855D01*
X143514158Y-88451575D01*
X143328597Y-88581505D01*
X143161505Y-88748597D01*
X143025965Y-88942169D01*
X143025964Y-88942171D01*
X142926098Y-89156335D01*
X142926094Y-89156344D01*
X142864938Y-89384586D01*
X142864936Y-89384596D01*
X142844341Y-89619999D01*
X142844341Y-89620000D01*
X142864936Y-89855403D01*
X142864938Y-89855413D01*
X142926094Y-90083655D01*
X142926096Y-90083659D01*
X142926097Y-90083663D01*
X143023300Y-90292115D01*
X143025965Y-90297830D01*
X143025967Y-90297834D01*
X143112564Y-90421506D01*
X143161505Y-90491401D01*
X143328599Y-90658495D01*
X143381412Y-90695475D01*
X143522165Y-90794032D01*
X143522167Y-90794033D01*
X143522170Y-90794035D01*
X143736337Y-90893903D01*
X143736343Y-90893904D01*
X143736344Y-90893905D01*
X143757024Y-90899446D01*
X143964592Y-90955063D01*
X144152918Y-90971539D01*
X144199999Y-90975659D01*
X144200000Y-90975659D01*
X144200001Y-90975659D01*
X144239234Y-90972226D01*
X144435408Y-90955063D01*
X144663663Y-90893903D01*
X144877830Y-90794035D01*
X145071401Y-90658495D01*
X145238495Y-90491401D01*
X145273925Y-90440802D01*
X145328502Y-90397177D01*
X145398000Y-90389983D01*
X145460355Y-90421506D01*
X145495769Y-90481735D01*
X145499500Y-90511925D01*
X145499500Y-92470145D01*
X145479815Y-92537184D01*
X145427011Y-92582939D01*
X145357853Y-92592883D01*
X145310406Y-92575685D01*
X145294131Y-92565647D01*
X145294119Y-92565641D01*
X145127697Y-92510494D01*
X145127690Y-92510493D01*
X145024986Y-92500000D01*
X144375000Y-92500000D01*
X144375000Y-93651000D01*
X144355315Y-93718039D01*
X144302511Y-93763794D01*
X144251000Y-93775000D01*
X143999000Y-93775000D01*
X143931961Y-93755315D01*
X143886206Y-93702511D01*
X143875000Y-93651000D01*
X143875000Y-92500000D01*
X143225028Y-92500000D01*
X143225012Y-92500001D01*
X143122302Y-92510494D01*
X142955880Y-92565641D01*
X142955871Y-92565645D01*
X142828415Y-92644261D01*
X142761023Y-92662701D01*
X142694359Y-92641778D01*
X142675638Y-92626403D01*
X141511818Y-91462583D01*
X141478333Y-91401260D01*
X141475499Y-91374902D01*
X141475499Y-91151662D01*
X141475498Y-91151644D01*
X141465349Y-91052292D01*
X141465348Y-91052289D01*
X141454162Y-91018533D01*
X141412003Y-90891303D01*
X141411999Y-90891297D01*
X141411998Y-90891294D01*
X141322970Y-90746959D01*
X141322967Y-90746955D01*
X141203044Y-90627032D01*
X141203040Y-90627029D01*
X141058705Y-90538001D01*
X141058699Y-90537998D01*
X141058697Y-90537997D01*
X141058694Y-90537996D01*
X140897709Y-90484651D01*
X140798346Y-90474500D01*
X140201662Y-90474500D01*
X140201644Y-90474501D01*
X140102292Y-90484650D01*
X140102289Y-90484651D01*
X139941305Y-90537996D01*
X139941294Y-90538001D01*
X139796959Y-90627029D01*
X139677032Y-90746955D01*
X139672724Y-90752405D01*
X139615704Y-90792785D01*
X139575453Y-90799500D01*
X138462785Y-90799500D01*
X138395746Y-90779815D01*
X138351061Y-90729294D01*
X138349158Y-90725345D01*
X138349156Y-90725337D01*
X138251085Y-90569258D01*
X138120742Y-90438915D01*
X138078743Y-90412525D01*
X137964665Y-90340845D01*
X137964664Y-90340844D01*
X137964663Y-90340844D01*
X137922896Y-90326229D01*
X137790671Y-90279961D01*
X137653442Y-90264500D01*
X137653438Y-90264500D01*
X135246562Y-90264500D01*
X135246558Y-90264500D01*
X135109328Y-90279961D01*
X134935334Y-90340845D01*
X134779257Y-90438915D01*
X134648915Y-90569257D01*
X134550845Y-90725334D01*
X134489961Y-90899328D01*
X134474500Y-91036557D01*
X134474500Y-91763442D01*
X134489961Y-91900671D01*
X134550845Y-92074665D01*
X134648915Y-92230742D01*
X134730845Y-92312672D01*
X134764330Y-92373995D01*
X134759346Y-92443687D01*
X134730846Y-92488034D01*
X134649307Y-92569573D01*
X134551296Y-92725556D01*
X134490452Y-92899440D01*
X134490451Y-92899446D01*
X134475000Y-93036581D01*
X134475000Y-93150000D01*
X136576000Y-93150000D01*
X136643039Y-93169685D01*
X136688794Y-93222489D01*
X136700000Y-93274000D01*
X136700000Y-93526000D01*
X136680315Y-93593039D01*
X136627511Y-93638794D01*
X136576000Y-93650000D01*
X134475000Y-93650000D01*
X134475000Y-93763418D01*
X134490451Y-93900553D01*
X134490452Y-93900559D01*
X134551296Y-94074443D01*
X134649308Y-94230428D01*
X134730845Y-94311965D01*
X134764330Y-94373288D01*
X134759346Y-94442980D01*
X134730846Y-94487327D01*
X134648914Y-94569259D01*
X134550845Y-94725334D01*
X134489961Y-94899328D01*
X134474500Y-95036557D01*
X134474500Y-95763442D01*
X134489961Y-95900671D01*
X134550845Y-96074665D01*
X134648915Y-96230742D01*
X134730492Y-96312319D01*
X134763977Y-96373642D01*
X134758993Y-96443334D01*
X134730492Y-96487681D01*
X134648915Y-96569257D01*
X134550845Y-96725334D01*
X134489961Y-96899328D01*
X134474500Y-97036557D01*
X134474500Y-97763442D01*
X134489961Y-97900671D01*
X134550845Y-98074665D01*
X134648915Y-98230742D01*
X134730492Y-98312319D01*
X134763977Y-98373642D01*
X134758993Y-98443334D01*
X134730492Y-98487681D01*
X134648915Y-98569257D01*
X134550845Y-98725334D01*
X134489961Y-98899328D01*
X134474500Y-99036557D01*
X134474500Y-99763442D01*
X134489961Y-99900671D01*
X134531312Y-100018843D01*
X134549459Y-100070706D01*
X134550845Y-100074665D01*
X134648915Y-100230742D01*
X134730492Y-100312319D01*
X134763977Y-100373642D01*
X134758993Y-100443334D01*
X134730492Y-100487681D01*
X134648915Y-100569257D01*
X134550845Y-100725334D01*
X134489961Y-100899328D01*
X134474500Y-101036557D01*
X134474500Y-101763442D01*
X134489961Y-101900671D01*
X134536229Y-102032896D01*
X134548522Y-102068028D01*
X134550845Y-102074665D01*
X134648915Y-102230742D01*
X134730492Y-102312319D01*
X134763977Y-102373642D01*
X134758993Y-102443334D01*
X134730492Y-102487681D01*
X134648915Y-102569257D01*
X134550845Y-102725334D01*
X134489961Y-102899328D01*
X134474500Y-103036557D01*
X134474500Y-103763442D01*
X134489961Y-103900671D01*
X134550845Y-104074665D01*
X134648915Y-104230742D01*
X134730492Y-104312319D01*
X134763977Y-104373642D01*
X134758993Y-104443334D01*
X134730492Y-104487681D01*
X134648915Y-104569257D01*
X134550845Y-104725334D01*
X134489961Y-104899328D01*
X134474500Y-105036557D01*
X134474500Y-105763442D01*
X134489961Y-105900671D01*
X134550845Y-106074665D01*
X134603672Y-106158738D01*
X134648915Y-106230742D01*
X134779258Y-106361085D01*
X134935337Y-106459156D01*
X135067559Y-106505422D01*
X135109328Y-106520038D01*
X135197090Y-106529925D01*
X135246557Y-106535499D01*
X135246558Y-106535500D01*
X135246562Y-106535500D01*
X137653442Y-106535500D01*
X137653442Y-106535499D01*
X137715673Y-106528487D01*
X137790671Y-106520038D01*
X137792074Y-106519547D01*
X137964663Y-106459156D01*
X138120742Y-106361085D01*
X138251085Y-106230742D01*
X138349156Y-106074663D01*
X138410037Y-105900674D01*
X138410037Y-105900673D01*
X138410038Y-105900671D01*
X138423898Y-105777652D01*
X138425500Y-105763438D01*
X138425500Y-105036562D01*
X138415247Y-104945565D01*
X138410038Y-104899328D01*
X138383947Y-104824765D01*
X138349156Y-104725337D01*
X138251085Y-104569258D01*
X138169508Y-104487681D01*
X138136023Y-104426358D01*
X138141007Y-104356666D01*
X138169508Y-104312319D01*
X138199313Y-104282514D01*
X138251085Y-104230742D01*
X138349156Y-104074663D01*
X138410037Y-103900674D01*
X138410037Y-103900673D01*
X138410038Y-103900671D01*
X138422453Y-103790478D01*
X138425500Y-103763438D01*
X138425500Y-103036562D01*
X138416590Y-102957482D01*
X138410038Y-102899328D01*
X138383562Y-102823664D01*
X138349156Y-102725337D01*
X138251085Y-102569258D01*
X138169508Y-102487681D01*
X138136023Y-102426358D01*
X138141007Y-102356666D01*
X138169508Y-102312319D01*
X138202012Y-102279815D01*
X138251085Y-102230742D01*
X138349156Y-102074663D01*
X138410037Y-101900674D01*
X138410037Y-101900673D01*
X138410038Y-101900671D01*
X138418487Y-101825673D01*
X138425500Y-101763438D01*
X138425500Y-101036562D01*
X138416447Y-100956216D01*
X138410038Y-100899328D01*
X138382030Y-100819287D01*
X138349156Y-100725337D01*
X138251085Y-100569258D01*
X138169508Y-100487681D01*
X138136023Y-100426358D01*
X138141007Y-100356666D01*
X138169508Y-100312319D01*
X138194425Y-100287402D01*
X138251085Y-100230742D01*
X138349156Y-100074663D01*
X138349160Y-100074651D01*
X138351061Y-100070706D01*
X138397880Y-100018843D01*
X138462785Y-100000500D01*
X138686773Y-100000500D01*
X138721369Y-100005424D01*
X138729007Y-100007643D01*
X138765310Y-100010500D01*
X138765318Y-100010500D01*
X139234682Y-100010500D01*
X139234690Y-100010500D01*
X139270993Y-100007643D01*
X139270995Y-100007642D01*
X139270997Y-100007642D01*
X139311975Y-99995736D01*
X139426395Y-99962494D01*
X139565687Y-99880117D01*
X139680117Y-99765687D01*
X139762494Y-99626395D01*
X139807643Y-99470993D01*
X139810500Y-99434690D01*
X139810500Y-99025310D01*
X139807643Y-98989007D01*
X139801771Y-98968797D01*
X139762495Y-98833609D01*
X139762494Y-98833605D01*
X139750089Y-98812630D01*
X139732906Y-98744909D01*
X139750091Y-98686384D01*
X139762032Y-98666194D01*
X139804504Y-98520000D01*
X139498352Y-98520000D01*
X139435233Y-98502732D01*
X139426395Y-98497506D01*
X139426393Y-98497505D01*
X139426389Y-98497503D01*
X139270997Y-98452357D01*
X139270991Y-98452356D01*
X139234697Y-98449500D01*
X139234690Y-98449500D01*
X138874000Y-98449500D01*
X138806961Y-98429815D01*
X138761206Y-98377011D01*
X138750000Y-98325500D01*
X138750000Y-98020000D01*
X139250000Y-98020000D01*
X139804504Y-98020000D01*
X139762031Y-97873804D01*
X139679721Y-97734625D01*
X139679714Y-97734616D01*
X139565383Y-97620285D01*
X139565374Y-97620278D01*
X139426195Y-97537968D01*
X139426190Y-97537966D01*
X139270918Y-97492855D01*
X139270912Y-97492854D01*
X139250000Y-97491209D01*
X139250000Y-98020000D01*
X138750000Y-98020000D01*
X138750000Y-97491210D01*
X138749999Y-97491209D01*
X138729087Y-97492854D01*
X138729081Y-97492855D01*
X138584095Y-97534978D01*
X138514225Y-97534779D01*
X138455555Y-97496837D01*
X138426712Y-97433198D01*
X138425500Y-97415902D01*
X138425500Y-97036558D01*
X138425499Y-97036557D01*
X138410038Y-96899328D01*
X138375288Y-96800019D01*
X138375276Y-96799986D01*
X142525001Y-96799986D01*
X142535494Y-96902697D01*
X142590641Y-97069119D01*
X142590643Y-97069124D01*
X142682684Y-97218345D01*
X142806654Y-97342315D01*
X142955875Y-97434356D01*
X142955880Y-97434358D01*
X143122302Y-97489505D01*
X143122309Y-97489506D01*
X143225019Y-97499999D01*
X143874999Y-97499999D01*
X143875000Y-97499998D01*
X143875000Y-96725000D01*
X142525001Y-96725000D01*
X142525001Y-96799986D01*
X138375276Y-96799986D01*
X138349156Y-96725337D01*
X138251085Y-96569258D01*
X138169508Y-96487681D01*
X138136023Y-96426358D01*
X138141007Y-96356666D01*
X138169508Y-96312319D01*
X138191701Y-96290126D01*
X138251085Y-96230742D01*
X138349156Y-96074663D01*
X138410037Y-95900674D01*
X138410037Y-95900673D01*
X138410038Y-95900671D01*
X138424774Y-95769879D01*
X138425500Y-95763438D01*
X138425500Y-95036562D01*
X138410037Y-94899326D01*
X138410037Y-94899325D01*
X138410037Y-94899323D01*
X138352718Y-94735516D01*
X138349156Y-94665737D01*
X138383884Y-94605110D01*
X138445878Y-94572882D01*
X138515453Y-94579287D01*
X138532880Y-94587829D01*
X138573804Y-94612031D01*
X138729089Y-94657145D01*
X138750000Y-94658789D01*
X138750000Y-93824500D01*
X138769685Y-93757461D01*
X138822489Y-93711706D01*
X138874000Y-93700500D01*
X139126000Y-93700500D01*
X139193039Y-93720185D01*
X139238794Y-93772989D01*
X139250000Y-93824500D01*
X139250000Y-94658789D01*
X139270910Y-94657145D01*
X139426195Y-94612031D01*
X139565374Y-94529721D01*
X139565383Y-94529714D01*
X139679714Y-94415383D01*
X139679721Y-94415374D01*
X139762030Y-94276196D01*
X139807145Y-94120910D01*
X139807145Y-94120907D01*
X139809999Y-94084644D01*
X139809999Y-93990214D01*
X139829683Y-93923175D01*
X139882486Y-93877419D01*
X139951645Y-93867475D01*
X139973000Y-93872506D01*
X140102292Y-93915349D01*
X140201655Y-93925500D01*
X140798344Y-93925499D01*
X140798352Y-93925498D01*
X140798355Y-93925498D01*
X140852760Y-93919940D01*
X140897708Y-93915349D01*
X141058697Y-93862003D01*
X141203044Y-93772968D01*
X141322968Y-93653044D01*
X141412003Y-93508697D01*
X141460137Y-93363435D01*
X141499909Y-93305991D01*
X141564425Y-93279168D01*
X141633201Y-93291483D01*
X141665524Y-93314759D01*
X141763181Y-93412416D01*
X141796666Y-93473739D01*
X141799500Y-93500097D01*
X141799500Y-94162770D01*
X141779815Y-94229809D01*
X141763181Y-94250451D01*
X141732289Y-94281342D01*
X141640187Y-94430663D01*
X141640185Y-94430668D01*
X141631320Y-94457422D01*
X141585001Y-94597203D01*
X141585001Y-94597204D01*
X141585000Y-94597204D01*
X141574500Y-94699983D01*
X141574500Y-95300001D01*
X141574501Y-95300019D01*
X141585000Y-95402796D01*
X141585001Y-95402799D01*
X141631421Y-95542883D01*
X141640186Y-95569334D01*
X141732288Y-95718656D01*
X141856344Y-95842712D01*
X142005666Y-95934814D01*
X142172203Y-95989999D01*
X142274991Y-96000500D01*
X142402962Y-96000499D01*
X142470000Y-96020183D01*
X142515755Y-96072987D01*
X142526319Y-96137096D01*
X142525001Y-96149998D01*
X142525000Y-96150026D01*
X142525000Y-96225000D01*
X144251000Y-96225000D01*
X144318039Y-96244685D01*
X144363794Y-96297489D01*
X144375000Y-96349000D01*
X144375000Y-97499999D01*
X145024972Y-97499999D01*
X145024986Y-97499998D01*
X145127697Y-97489505D01*
X145294119Y-97434358D01*
X145294126Y-97434355D01*
X145310402Y-97424316D01*
X145377794Y-97405875D01*
X145444458Y-97426797D01*
X145489228Y-97480438D01*
X145499500Y-97529854D01*
X145499500Y-103427497D01*
X145479815Y-103494536D01*
X145427011Y-103540291D01*
X145357853Y-103550235D01*
X145294297Y-103521210D01*
X145279956Y-103506538D01*
X145275256Y-103500857D01*
X145153349Y-103353496D01*
X145150156Y-103350498D01*
X144998062Y-103207671D01*
X144933162Y-103146726D01*
X144933159Y-103146724D01*
X144933153Y-103146719D01*
X144688806Y-102969191D01*
X144688799Y-102969186D01*
X144688795Y-102969184D01*
X144424104Y-102823668D01*
X144424101Y-102823666D01*
X144424096Y-102823664D01*
X144424095Y-102823663D01*
X144143265Y-102712475D01*
X144143262Y-102712474D01*
X143850695Y-102637357D01*
X143551036Y-102599500D01*
X143551027Y-102599500D01*
X143248973Y-102599500D01*
X143248963Y-102599500D01*
X142949304Y-102637357D01*
X142656737Y-102712474D01*
X142656734Y-102712475D01*
X142375904Y-102823663D01*
X142375903Y-102823664D01*
X142111205Y-102969184D01*
X142111193Y-102969191D01*
X141866846Y-103146719D01*
X141866836Y-103146727D01*
X141646652Y-103353494D01*
X141454111Y-103586236D01*
X141292268Y-103841261D01*
X141292265Y-103841267D01*
X141163661Y-104114563D01*
X141163659Y-104114568D01*
X141070320Y-104401835D01*
X141013719Y-104698546D01*
X141013718Y-104698553D01*
X140994754Y-104999994D01*
X140994754Y-105000005D01*
X141013718Y-105301446D01*
X141013719Y-105301453D01*
X141042019Y-105449808D01*
X141062559Y-105557483D01*
X141070320Y-105598164D01*
X141163659Y-105885431D01*
X141163661Y-105885436D01*
X141292265Y-106158732D01*
X141292268Y-106158738D01*
X141454111Y-106413763D01*
X141454114Y-106413767D01*
X141454115Y-106413768D01*
X141646651Y-106646504D01*
X141772169Y-106764374D01*
X141794249Y-106785108D01*
X141829644Y-106845349D01*
X141826851Y-106915163D01*
X141786757Y-106972384D01*
X141722092Y-106998845D01*
X141709365Y-106999500D01*
X116993079Y-106999500D01*
X116926040Y-106979815D01*
X116880285Y-106927011D01*
X116870341Y-106857853D01*
X116888085Y-106809528D01*
X116905023Y-106782571D01*
X116925789Y-106749522D01*
X116985368Y-106579255D01*
X116995161Y-106492329D01*
X117022226Y-106427918D01*
X117030690Y-106418543D01*
X117685815Y-105763418D01*
X119425000Y-105763418D01*
X119440451Y-105900553D01*
X119440452Y-105900559D01*
X119501296Y-106074443D01*
X119599308Y-106230428D01*
X119729571Y-106360691D01*
X119885556Y-106458703D01*
X120059440Y-106519547D01*
X120059446Y-106519548D01*
X120196581Y-106534999D01*
X120196585Y-106535000D01*
X121150000Y-106535000D01*
X121650000Y-106535000D01*
X122603415Y-106535000D01*
X122603418Y-106534999D01*
X122740553Y-106519548D01*
X122740559Y-106519547D01*
X122914443Y-106458703D01*
X123070428Y-106360691D01*
X123200691Y-106230428D01*
X123298703Y-106074443D01*
X123359547Y-105900559D01*
X123359548Y-105900553D01*
X123374999Y-105763418D01*
X123375000Y-105763414D01*
X123375000Y-105650000D01*
X121650000Y-105650000D01*
X121650000Y-106535000D01*
X121150000Y-106535000D01*
X121150000Y-105650000D01*
X119425000Y-105650000D01*
X119425000Y-105763418D01*
X117685815Y-105763418D01*
X118612186Y-104837048D01*
X118673507Y-104803565D01*
X118685982Y-104801511D01*
X118829249Y-104785369D01*
X118829252Y-104785368D01*
X118829255Y-104785368D01*
X118999522Y-104725789D01*
X119152262Y-104629816D01*
X119279816Y-104502262D01*
X119375789Y-104349522D01*
X119399236Y-104282513D01*
X119439957Y-104225737D01*
X119504910Y-104199989D01*
X119573471Y-104213445D01*
X119603959Y-104235786D01*
X119680845Y-104312672D01*
X119714330Y-104373995D01*
X119709346Y-104443687D01*
X119680846Y-104488034D01*
X119599307Y-104569573D01*
X119501296Y-104725556D01*
X119440452Y-104899440D01*
X119440451Y-104899446D01*
X119425000Y-105036581D01*
X119425000Y-105150000D01*
X123375000Y-105150000D01*
X123375000Y-105036585D01*
X123374999Y-105036581D01*
X123359548Y-104899446D01*
X123359547Y-104899440D01*
X123298703Y-104725556D01*
X123200691Y-104569571D01*
X123119154Y-104488034D01*
X123085669Y-104426711D01*
X123090653Y-104357019D01*
X123119150Y-104312676D01*
X123201085Y-104230742D01*
X123258105Y-104139996D01*
X130124435Y-104139996D01*
X130124435Y-104140003D01*
X130144630Y-104319249D01*
X130144631Y-104319254D01*
X130204211Y-104489523D01*
X130254509Y-104569571D01*
X130300184Y-104642262D01*
X130427738Y-104769816D01*
X130481449Y-104803565D01*
X130561841Y-104854079D01*
X130580478Y-104865789D01*
X130750745Y-104925368D01*
X130750750Y-104925369D01*
X130929996Y-104945565D01*
X130930000Y-104945565D01*
X130930004Y-104945565D01*
X131109249Y-104925369D01*
X131109252Y-104925368D01*
X131109255Y-104925368D01*
X131279522Y-104865789D01*
X131432262Y-104769816D01*
X131559816Y-104642262D01*
X131655789Y-104489522D01*
X131715368Y-104319255D01*
X131716110Y-104312671D01*
X131735565Y-104140003D01*
X131735565Y-104139996D01*
X131715369Y-103960750D01*
X131715368Y-103960745D01*
X131655788Y-103790476D01*
X131559815Y-103637737D01*
X131432262Y-103510184D01*
X131279523Y-103414211D01*
X131109254Y-103354631D01*
X131109249Y-103354630D01*
X130930004Y-103334435D01*
X130929996Y-103334435D01*
X130750750Y-103354630D01*
X130750745Y-103354631D01*
X130580476Y-103414211D01*
X130427737Y-103510184D01*
X130300184Y-103637737D01*
X130204211Y-103790476D01*
X130144631Y-103960745D01*
X130144630Y-103960750D01*
X130124435Y-104139996D01*
X123258105Y-104139996D01*
X123299156Y-104074663D01*
X123360037Y-103900674D01*
X123360037Y-103900673D01*
X123360038Y-103900671D01*
X123372453Y-103790478D01*
X123375500Y-103763438D01*
X123375500Y-103036562D01*
X123366590Y-102957482D01*
X123360038Y-102899328D01*
X123333562Y-102823664D01*
X123299156Y-102725337D01*
X123201085Y-102569258D01*
X123119508Y-102487681D01*
X123086023Y-102426358D01*
X123091007Y-102356666D01*
X123119508Y-102312319D01*
X123152012Y-102279815D01*
X123201085Y-102230742D01*
X123299156Y-102074663D01*
X123360037Y-101900674D01*
X123360037Y-101900673D01*
X123360038Y-101900671D01*
X123368487Y-101825673D01*
X123375500Y-101763438D01*
X123375500Y-101374996D01*
X126431935Y-101374996D01*
X126431935Y-101375003D01*
X126452130Y-101554249D01*
X126452131Y-101554254D01*
X126511711Y-101724523D01*
X126577519Y-101829255D01*
X126607684Y-101877262D01*
X126735238Y-102004816D01*
X126887978Y-102100789D01*
X127035079Y-102152262D01*
X127058245Y-102160368D01*
X127058250Y-102160369D01*
X127237496Y-102180565D01*
X127237500Y-102180565D01*
X127237504Y-102180565D01*
X127416749Y-102160369D01*
X127416752Y-102160368D01*
X127416755Y-102160368D01*
X127587022Y-102100789D01*
X127739762Y-102004816D01*
X127867316Y-101877262D01*
X127963289Y-101724522D01*
X128022868Y-101554255D01*
X128032661Y-101467329D01*
X128059726Y-101402918D01*
X128068190Y-101393543D01*
X128383506Y-101078228D01*
X128383511Y-101078224D01*
X128393714Y-101068020D01*
X128393716Y-101068020D01*
X128505520Y-100956216D01*
X128572373Y-100840423D01*
X128584577Y-100819285D01*
X128625500Y-100666557D01*
X128625500Y-100508443D01*
X128625500Y-93582412D01*
X128645185Y-93515373D01*
X128652555Y-93505097D01*
X128654810Y-93502267D01*
X128654816Y-93502262D01*
X128750789Y-93349522D01*
X128810368Y-93179255D01*
X128810775Y-93175643D01*
X128822115Y-93074996D01*
X130069435Y-93074996D01*
X130069435Y-93075003D01*
X130089630Y-93254249D01*
X130089631Y-93254254D01*
X130149211Y-93424523D01*
X130245184Y-93577262D01*
X130372740Y-93704818D01*
X130427113Y-93738982D01*
X130473405Y-93791316D01*
X130485142Y-93843976D01*
X130485142Y-101067587D01*
X130465457Y-101134626D01*
X130458092Y-101144896D01*
X130455828Y-101147734D01*
X130359853Y-101300476D01*
X130300273Y-101470745D01*
X130300272Y-101470750D01*
X130280077Y-101649996D01*
X130280077Y-101650003D01*
X130300272Y-101829249D01*
X130300273Y-101829254D01*
X130359853Y-101999523D01*
X130423483Y-102100789D01*
X130455826Y-102152262D01*
X130583380Y-102279816D01*
X130635108Y-102312319D01*
X130712718Y-102361085D01*
X130736120Y-102375789D01*
X130880638Y-102426358D01*
X130906387Y-102435368D01*
X130906392Y-102435369D01*
X131085638Y-102455565D01*
X131085642Y-102455565D01*
X131085646Y-102455565D01*
X131264891Y-102435369D01*
X131264894Y-102435368D01*
X131264897Y-102435368D01*
X131435164Y-102375789D01*
X131587904Y-102279816D01*
X131715458Y-102152262D01*
X131811431Y-101999522D01*
X131871010Y-101829255D01*
X131871011Y-101829249D01*
X131891207Y-101650003D01*
X131891207Y-101649996D01*
X131871011Y-101470750D01*
X131871010Y-101470745D01*
X131847276Y-101402918D01*
X131811431Y-101300478D01*
X131715458Y-101147738D01*
X131715456Y-101147736D01*
X131715455Y-101147734D01*
X131713192Y-101144896D01*
X131712301Y-101142715D01*
X131711753Y-101141842D01*
X131711906Y-101141745D01*
X131686786Y-101080209D01*
X131686142Y-101067587D01*
X131686142Y-93374702D01*
X131686143Y-93374689D01*
X131686143Y-93206585D01*
X131678819Y-93179254D01*
X131677850Y-93175640D01*
X131674405Y-93129662D01*
X131680565Y-93075000D01*
X131680565Y-93074996D01*
X131660369Y-92895750D01*
X131660368Y-92895745D01*
X131600788Y-92725476D01*
X131517474Y-92592883D01*
X131504816Y-92572738D01*
X131377262Y-92445184D01*
X131346737Y-92426004D01*
X131224523Y-92349211D01*
X131054254Y-92289631D01*
X131054249Y-92289630D01*
X130875004Y-92269435D01*
X130874996Y-92269435D01*
X130695750Y-92289630D01*
X130695745Y-92289631D01*
X130525476Y-92349211D01*
X130372737Y-92445184D01*
X130245184Y-92572737D01*
X130149211Y-92725476D01*
X130089631Y-92895745D01*
X130089630Y-92895750D01*
X130069435Y-93074996D01*
X128822115Y-93074996D01*
X128830565Y-93000003D01*
X128830565Y-92999996D01*
X128810369Y-92820750D01*
X128810368Y-92820745D01*
X128777060Y-92725556D01*
X128750789Y-92650478D01*
X128745322Y-92641778D01*
X128697482Y-92565641D01*
X128654816Y-92497738D01*
X128527262Y-92370184D01*
X128480568Y-92340844D01*
X128374523Y-92274211D01*
X128204254Y-92214631D01*
X128204249Y-92214630D01*
X128025004Y-92194435D01*
X128024996Y-92194435D01*
X127845750Y-92214630D01*
X127845745Y-92214631D01*
X127675476Y-92274211D01*
X127522737Y-92370184D01*
X127395184Y-92497737D01*
X127299211Y-92650476D01*
X127239631Y-92820745D01*
X127239630Y-92820750D01*
X127219435Y-92999996D01*
X127219435Y-93000003D01*
X127239630Y-93179249D01*
X127239631Y-93179254D01*
X127299211Y-93349523D01*
X127395185Y-93502263D01*
X127397445Y-93505097D01*
X127398334Y-93507275D01*
X127398889Y-93508158D01*
X127398734Y-93508255D01*
X127423855Y-93569783D01*
X127424500Y-93582412D01*
X127424500Y-100287402D01*
X127404815Y-100354441D01*
X127388181Y-100375083D01*
X127218965Y-100544298D01*
X127157642Y-100577783D01*
X127145168Y-100579837D01*
X127058250Y-100589630D01*
X126887978Y-100649210D01*
X126735237Y-100745184D01*
X126607684Y-100872737D01*
X126511711Y-101025476D01*
X126452131Y-101195745D01*
X126452130Y-101195750D01*
X126431935Y-101374996D01*
X123375500Y-101374996D01*
X123375500Y-101036562D01*
X123366447Y-100956216D01*
X123360038Y-100899328D01*
X123332030Y-100819287D01*
X123299156Y-100725337D01*
X123201085Y-100569258D01*
X123119508Y-100487681D01*
X123086023Y-100426358D01*
X123091007Y-100356666D01*
X123119508Y-100312319D01*
X123144425Y-100287402D01*
X123201085Y-100230742D01*
X123299156Y-100074663D01*
X123360037Y-99900674D01*
X123360037Y-99900673D01*
X123360038Y-99900671D01*
X123375246Y-99765692D01*
X123375500Y-99763438D01*
X123375500Y-99036562D01*
X123367865Y-98968797D01*
X123360038Y-98899328D01*
X123337040Y-98833605D01*
X123299156Y-98725337D01*
X123201085Y-98569258D01*
X123119508Y-98487681D01*
X123086023Y-98426358D01*
X123091007Y-98356666D01*
X123119508Y-98312319D01*
X123201085Y-98230742D01*
X123299156Y-98074663D01*
X123356866Y-97909734D01*
X123386226Y-97863010D01*
X123480520Y-97768716D01*
X123480520Y-97768714D01*
X123490724Y-97758511D01*
X123490728Y-97758506D01*
X124418535Y-96830698D01*
X124479856Y-96797215D01*
X124492311Y-96795163D01*
X124579255Y-96785368D01*
X124749522Y-96725789D01*
X124902262Y-96629816D01*
X125029816Y-96502262D01*
X125125789Y-96349522D01*
X125185368Y-96179255D01*
X125185369Y-96179249D01*
X125205565Y-96000003D01*
X125205565Y-95999996D01*
X125185369Y-95820750D01*
X125185368Y-95820745D01*
X125149646Y-95718657D01*
X125125789Y-95650478D01*
X125029816Y-95497738D01*
X124903183Y-95371105D01*
X124869698Y-95309782D01*
X124874682Y-95240090D01*
X124916554Y-95184157D01*
X124924877Y-95178439D01*
X125002262Y-95129816D01*
X125129816Y-95002262D01*
X125225789Y-94849522D01*
X125285368Y-94679255D01*
X125285369Y-94679249D01*
X125305565Y-94500003D01*
X125305565Y-94499996D01*
X125285369Y-94320750D01*
X125285368Y-94320745D01*
X125260771Y-94250451D01*
X125225789Y-94150478D01*
X125129816Y-93997738D01*
X125002262Y-93870184D01*
X124988548Y-93861567D01*
X124849523Y-93774211D01*
X124679254Y-93714631D01*
X124679249Y-93714630D01*
X124500004Y-93694435D01*
X124499996Y-93694435D01*
X124320750Y-93714630D01*
X124320745Y-93714631D01*
X124150476Y-93774211D01*
X123997737Y-93870184D01*
X123870184Y-93997737D01*
X123774211Y-94150476D01*
X123714631Y-94320745D01*
X123714630Y-94320750D01*
X123694435Y-94499996D01*
X123694435Y-94500003D01*
X123714630Y-94679249D01*
X123714631Y-94679254D01*
X123774211Y-94849523D01*
X123870184Y-95002262D01*
X123996816Y-95128894D01*
X124030301Y-95190217D01*
X124025317Y-95259909D01*
X123983445Y-95315842D01*
X123975108Y-95321568D01*
X123897740Y-95370182D01*
X123897737Y-95370184D01*
X123770184Y-95497737D01*
X123674209Y-95650480D01*
X123615887Y-95817155D01*
X123575166Y-95873931D01*
X123510213Y-95899678D01*
X123441651Y-95886222D01*
X123391249Y-95837834D01*
X123375007Y-95769879D01*
X123375424Y-95764788D01*
X123375500Y-95763442D01*
X123375500Y-95036558D01*
X123375499Y-95036557D01*
X123360038Y-94899328D01*
X123342610Y-94849522D01*
X123299156Y-94725337D01*
X123201085Y-94569258D01*
X123119508Y-94487681D01*
X123086023Y-94426358D01*
X123091007Y-94356666D01*
X123119508Y-94312319D01*
X123155631Y-94276196D01*
X123201085Y-94230742D01*
X123299156Y-94074663D01*
X123360037Y-93900674D01*
X123360037Y-93900673D01*
X123360038Y-93900671D01*
X123368620Y-93824500D01*
X123375500Y-93763438D01*
X123375500Y-93036562D01*
X123367799Y-92968215D01*
X123360038Y-92899328D01*
X123332540Y-92820745D01*
X123299156Y-92725337D01*
X123201085Y-92569258D01*
X123119154Y-92487327D01*
X123085669Y-92426004D01*
X123090653Y-92356312D01*
X123119154Y-92311964D01*
X123200693Y-92230425D01*
X123298703Y-92074443D01*
X123359547Y-91900559D01*
X123359548Y-91900553D01*
X123374999Y-91763418D01*
X123375000Y-91763414D01*
X123375000Y-91650000D01*
X119425000Y-91650000D01*
X119425000Y-91763418D01*
X119440451Y-91900553D01*
X119440452Y-91900559D01*
X119501296Y-92074443D01*
X119599308Y-92230428D01*
X119680845Y-92311965D01*
X119714330Y-92373288D01*
X119709346Y-92442980D01*
X119680846Y-92487327D01*
X119598914Y-92569259D01*
X119500845Y-92725334D01*
X119439961Y-92899328D01*
X119424500Y-93036557D01*
X119424500Y-93763442D01*
X119439961Y-93900671D01*
X119500845Y-94074665D01*
X119598915Y-94230742D01*
X119680492Y-94312319D01*
X119713977Y-94373642D01*
X119708993Y-94443334D01*
X119680492Y-94487681D01*
X119598915Y-94569257D01*
X119500845Y-94725334D01*
X119439961Y-94899328D01*
X119424500Y-95036557D01*
X119424500Y-95763442D01*
X119439961Y-95900671D01*
X119500845Y-96074665D01*
X119598915Y-96230742D01*
X119680492Y-96312319D01*
X119713977Y-96373642D01*
X119708993Y-96443334D01*
X119680492Y-96487681D01*
X119598915Y-96569257D01*
X119500845Y-96725334D01*
X119439961Y-96899328D01*
X119424500Y-97036557D01*
X119424500Y-97763442D01*
X119439961Y-97900671D01*
X119500845Y-98074665D01*
X119598915Y-98230742D01*
X119680492Y-98312319D01*
X119713977Y-98373642D01*
X119708993Y-98443334D01*
X119680492Y-98487681D01*
X119598915Y-98569257D01*
X119500846Y-98725333D01*
X119498939Y-98729294D01*
X119452120Y-98781157D01*
X119387215Y-98799500D01*
X119279057Y-98799500D01*
X119120943Y-98799500D01*
X118968215Y-98840423D01*
X118968214Y-98840423D01*
X118968212Y-98840424D01*
X118968209Y-98840425D01*
X118932084Y-98861283D01*
X118932082Y-98861284D01*
X118831290Y-98919475D01*
X118831282Y-98919481D01*
X113769481Y-103981282D01*
X113769480Y-103981284D01*
X113732688Y-104045010D01*
X113715568Y-104074663D01*
X113692529Y-104114568D01*
X113690423Y-104118215D01*
X113649499Y-104270943D01*
X113649499Y-104270945D01*
X113649499Y-104439046D01*
X113649500Y-104439059D01*
X113649500Y-104617587D01*
X113629815Y-104684626D01*
X113622450Y-104694896D01*
X113620186Y-104697734D01*
X113524210Y-104850478D01*
X113464630Y-105020750D01*
X113456898Y-105089383D01*
X113429832Y-105153797D01*
X113372237Y-105193352D01*
X113333678Y-105199500D01*
X113069500Y-105199500D01*
X113002461Y-105179815D01*
X112956706Y-105127011D01*
X112945500Y-105075500D01*
X112945499Y-103402129D01*
X112945498Y-103402123D01*
X112945497Y-103402116D01*
X112939091Y-103342517D01*
X112937931Y-103339408D01*
X112888797Y-103207671D01*
X112888793Y-103207664D01*
X112802547Y-103092455D01*
X112802544Y-103092452D01*
X112687335Y-103006206D01*
X112687328Y-103006202D01*
X112552482Y-102955908D01*
X112552483Y-102955908D01*
X112492883Y-102949501D01*
X112492881Y-102949500D01*
X112492873Y-102949500D01*
X112492864Y-102949500D01*
X110897129Y-102949500D01*
X110897123Y-102949501D01*
X110837516Y-102955908D01*
X110702671Y-103006202D01*
X110702664Y-103006206D01*
X110587455Y-103092452D01*
X110587452Y-103092455D01*
X110501206Y-103207664D01*
X110501202Y-103207671D01*
X110450908Y-103342517D01*
X110446146Y-103386818D01*
X110444501Y-103402123D01*
X110444500Y-103402135D01*
X110444500Y-104400903D01*
X110424815Y-104467942D01*
X110372011Y-104513697D01*
X110302853Y-104523641D01*
X110239297Y-104494616D01*
X110232819Y-104488584D01*
X109306415Y-103562180D01*
X109272930Y-103500857D01*
X109277914Y-103431165D01*
X109319786Y-103375232D01*
X109385250Y-103350815D01*
X109394096Y-103350499D01*
X109672871Y-103350499D01*
X109672872Y-103350499D01*
X109732483Y-103344091D01*
X109867331Y-103293796D01*
X109982546Y-103207546D01*
X110068796Y-103092331D01*
X110119091Y-102957483D01*
X110125500Y-102897873D01*
X110125499Y-101602128D01*
X110119091Y-101542517D01*
X110103233Y-101500000D01*
X110068797Y-101407671D01*
X110068793Y-101407664D01*
X109982547Y-101292455D01*
X109982544Y-101292452D01*
X109867335Y-101206206D01*
X109867328Y-101206202D01*
X109732482Y-101155908D01*
X109732483Y-101155908D01*
X109672883Y-101149501D01*
X109672881Y-101149500D01*
X109672873Y-101149500D01*
X109672865Y-101149500D01*
X108849500Y-101149500D01*
X108782461Y-101129815D01*
X108736706Y-101077011D01*
X108725500Y-101025500D01*
X108725500Y-95202135D01*
X110444500Y-95202135D01*
X110444500Y-97297870D01*
X110444501Y-97297876D01*
X110450908Y-97357483D01*
X110501202Y-97492328D01*
X110501206Y-97492335D01*
X110587452Y-97607544D01*
X110587455Y-97607547D01*
X110702664Y-97693793D01*
X110702671Y-97693797D01*
X110837517Y-97744091D01*
X110837516Y-97744091D01*
X110844444Y-97744835D01*
X110897127Y-97750500D01*
X112492872Y-97750499D01*
X112552483Y-97744091D01*
X112687331Y-97693796D01*
X112802546Y-97607546D01*
X112888796Y-97492331D01*
X112939091Y-97357483D01*
X112945500Y-97297873D01*
X112945499Y-95202128D01*
X112939091Y-95142517D01*
X112934353Y-95129815D01*
X112888797Y-95007671D01*
X112888793Y-95007664D01*
X112802547Y-94892455D01*
X112802544Y-94892452D01*
X112687335Y-94806206D01*
X112687328Y-94806202D01*
X112552482Y-94755908D01*
X112552483Y-94755908D01*
X112492883Y-94749501D01*
X112492881Y-94749500D01*
X112492873Y-94749500D01*
X112492864Y-94749500D01*
X110897129Y-94749500D01*
X110897123Y-94749501D01*
X110837516Y-94755908D01*
X110702671Y-94806202D01*
X110702664Y-94806206D01*
X110587455Y-94892452D01*
X110587452Y-94892455D01*
X110501206Y-95007664D01*
X110501202Y-95007671D01*
X110450908Y-95142517D01*
X110444640Y-95200826D01*
X110444501Y-95202123D01*
X110444500Y-95202135D01*
X108725500Y-95202135D01*
X108725500Y-91614059D01*
X108725501Y-91614046D01*
X108725501Y-91445945D01*
X108725501Y-91445943D01*
X108684577Y-91293215D01*
X108638089Y-91212696D01*
X108605520Y-91156284D01*
X108493716Y-91044480D01*
X108493715Y-91044479D01*
X108489385Y-91040149D01*
X108489374Y-91040139D01*
X107980636Y-90531401D01*
X107980634Y-90531398D01*
X107861763Y-90412527D01*
X107861762Y-90412526D01*
X107752357Y-90349361D01*
X107752355Y-90349360D01*
X107724831Y-90333469D01*
X107724830Y-90333468D01*
X107724829Y-90333468D01*
X107668927Y-90318489D01*
X107572103Y-90292545D01*
X107413989Y-90292545D01*
X107406393Y-90292545D01*
X107406377Y-90292546D01*
X107340411Y-90292546D01*
X107273372Y-90272861D01*
X107268054Y-90269121D01*
X107266990Y-90268507D01*
X107120919Y-90208003D01*
X107120914Y-90208001D01*
X107003515Y-90192546D01*
X106664790Y-90192546D01*
X106547388Y-90208001D01*
X106546237Y-90208310D01*
X106545045Y-90208310D01*
X106539333Y-90209062D01*
X106539234Y-90208310D01*
X106489073Y-90208310D01*
X106488974Y-90209063D01*
X106483261Y-90208310D01*
X106482071Y-90208311D01*
X106480919Y-90208002D01*
X106363515Y-90192546D01*
X106024790Y-90192546D01*
X105907400Y-90207999D01*
X105907388Y-90208003D01*
X105761317Y-90268507D01*
X105754278Y-90272572D01*
X105753271Y-90270829D01*
X105698222Y-90292115D01*
X105687897Y-90292546D01*
X105360472Y-90292546D01*
X105293433Y-90272861D01*
X105285117Y-90266159D01*
X105284729Y-90266666D01*
X105278283Y-90261720D01*
X105278282Y-90261718D01*
X105200943Y-90202374D01*
X105159743Y-90145948D01*
X105155588Y-90076202D01*
X105189801Y-90015281D01*
X105251518Y-89982529D01*
X105276432Y-89980000D01*
X105445959Y-89980000D01*
X105445960Y-89979998D01*
X105434557Y-89893372D01*
X105434555Y-89893366D01*
X105374100Y-89747414D01*
X105277924Y-89622075D01*
X105152586Y-89525899D01*
X105006631Y-89465444D01*
X104950000Y-89457987D01*
X104950000Y-89965500D01*
X104930315Y-90032539D01*
X104877511Y-90078294D01*
X104826000Y-90089500D01*
X104761642Y-90089500D01*
X104694603Y-90069815D01*
X104673961Y-90053181D01*
X104586319Y-89965539D01*
X104552834Y-89904216D01*
X104550000Y-89877858D01*
X104550000Y-89457987D01*
X104493368Y-89465444D01*
X104347411Y-89525900D01*
X104325895Y-89542410D01*
X104260725Y-89567603D01*
X104192281Y-89553564D01*
X104174923Y-89542408D01*
X104152842Y-89525464D01*
X104006762Y-89464956D01*
X104006760Y-89464955D01*
X103889361Y-89449500D01*
X103610636Y-89449500D01*
X103493246Y-89464953D01*
X103493234Y-89464957D01*
X103347163Y-89525461D01*
X103347162Y-89525461D01*
X103331149Y-89537748D01*
X103310130Y-89553876D01*
X103244964Y-89579070D01*
X103234646Y-89579500D01*
X103015354Y-89579500D01*
X102948315Y-89559815D01*
X102939881Y-89553886D01*
X102902841Y-89525464D01*
X102902838Y-89525463D01*
X102902836Y-89525461D01*
X102756765Y-89464957D01*
X102756760Y-89464955D01*
X102639361Y-89449500D01*
X102360636Y-89449500D01*
X102243239Y-89464954D01*
X102238886Y-89466121D01*
X102169037Y-89464452D01*
X102111177Y-89425284D01*
X102101813Y-89412321D01*
X102029816Y-89297738D01*
X101902262Y-89170184D01*
X101885381Y-89159577D01*
X101749523Y-89074211D01*
X101579254Y-89014631D01*
X101579249Y-89014630D01*
X101400004Y-88994435D01*
X101399996Y-88994435D01*
X101220750Y-89014630D01*
X101220745Y-89014631D01*
X101050476Y-89074211D01*
X100897737Y-89170184D01*
X100770184Y-89297737D01*
X100674211Y-89450476D01*
X100614631Y-89620745D01*
X100614630Y-89620750D01*
X100594435Y-89799996D01*
X100594435Y-89800003D01*
X100614630Y-89979249D01*
X100614631Y-89979254D01*
X100674211Y-90149523D01*
X100751710Y-90272861D01*
X100770184Y-90302262D01*
X100897738Y-90429816D01*
X100968852Y-90474500D01*
X101028413Y-90511925D01*
X101050478Y-90525789D01*
X101220745Y-90585368D01*
X101307668Y-90595161D01*
X101372079Y-90622226D01*
X101381464Y-90630700D01*
X101411284Y-90660520D01*
X101471832Y-90695477D01*
X101548215Y-90739577D01*
X101700943Y-90780500D01*
X101700946Y-90780500D01*
X101707593Y-90782281D01*
X101767254Y-90818646D01*
X101797783Y-90881492D01*
X101799500Y-90902055D01*
X101799500Y-90989362D01*
X101814953Y-91106753D01*
X101814956Y-91106762D01*
X101875464Y-91252842D01*
X101971715Y-91378279D01*
X101971716Y-91378280D01*
X101971718Y-91378282D01*
X101975982Y-91381554D01*
X102017187Y-91437978D01*
X102024500Y-91479932D01*
X102024500Y-101025500D01*
X102004815Y-101092539D01*
X101952011Y-101138294D01*
X101900500Y-101149500D01*
X101077129Y-101149500D01*
X101077123Y-101149501D01*
X101017516Y-101155908D01*
X100882671Y-101206202D01*
X100882664Y-101206206D01*
X100767455Y-101292452D01*
X100767452Y-101292455D01*
X100681206Y-101407664D01*
X100681202Y-101407671D01*
X100630908Y-101542517D01*
X100624501Y-101602116D01*
X100624501Y-101602123D01*
X100624500Y-101602135D01*
X100624500Y-102897870D01*
X100624501Y-102897876D01*
X100630908Y-102957483D01*
X100681202Y-103092328D01*
X100681206Y-103092335D01*
X100767452Y-103207544D01*
X100767455Y-103207547D01*
X100882664Y-103293793D01*
X100882671Y-103293797D01*
X101017517Y-103344091D01*
X101017516Y-103344091D01*
X101024444Y-103344835D01*
X101077127Y-103350500D01*
X101972872Y-103350499D01*
X102032483Y-103344091D01*
X102032485Y-103344090D01*
X102032487Y-103344090D01*
X102040031Y-103342308D01*
X102040377Y-103343775D01*
X102101342Y-103339408D01*
X102116378Y-103343822D01*
X102117511Y-103344089D01*
X102117517Y-103344091D01*
X102177127Y-103350500D01*
X102324901Y-103350499D01*
X102391941Y-103370183D01*
X102412582Y-103386817D01*
X103730549Y-104704785D01*
X103730551Y-104704786D01*
X103730555Y-104704789D01*
X103766929Y-104725789D01*
X103867481Y-104783842D01*
X104020208Y-104824766D01*
X104020210Y-104824766D01*
X104185919Y-104824766D01*
X104185935Y-104824765D01*
X105393323Y-104824765D01*
X105460362Y-104844450D01*
X105470638Y-104851820D01*
X105473471Y-104854079D01*
X105473473Y-104854081D01*
X105545671Y-104899446D01*
X105626209Y-104950052D01*
X105626213Y-104950054D01*
X105768965Y-105000005D01*
X105796480Y-105009633D01*
X105796485Y-105009634D01*
X105975731Y-105029830D01*
X105975735Y-105029830D01*
X105975739Y-105029830D01*
X106154984Y-105009634D01*
X106154987Y-105009633D01*
X106154990Y-105009633D01*
X106325257Y-104950054D01*
X106325259Y-104950052D01*
X106325261Y-104950052D01*
X106472168Y-104857744D01*
X106539404Y-104838743D01*
X106606239Y-104859110D01*
X106625821Y-104875056D01*
X108515139Y-106764374D01*
X108515160Y-106764397D01*
X108538582Y-106787819D01*
X108572067Y-106849142D01*
X108567083Y-106918834D01*
X108525211Y-106974767D01*
X108459747Y-106999184D01*
X108450901Y-106999500D01*
X95917660Y-106999500D01*
X95850621Y-106979815D01*
X95804866Y-106927011D01*
X95794922Y-106857853D01*
X95823947Y-106794297D01*
X95876705Y-106758458D01*
X95876977Y-106758362D01*
X95978061Y-106722992D01*
X96130801Y-106627019D01*
X96258355Y-106499465D01*
X96354328Y-106346725D01*
X96413907Y-106176458D01*
X96415904Y-106158736D01*
X96434104Y-105997206D01*
X96434104Y-105997199D01*
X96413407Y-105813506D01*
X96425462Y-105744685D01*
X96472811Y-105693305D01*
X96540421Y-105675681D01*
X96606827Y-105697408D01*
X96635893Y-105725312D01*
X96697452Y-105807544D01*
X96697455Y-105807547D01*
X96812664Y-105893793D01*
X96812671Y-105893797D01*
X96947517Y-105944091D01*
X96947516Y-105944091D01*
X96954444Y-105944835D01*
X97007127Y-105950500D01*
X98602872Y-105950499D01*
X98662483Y-105944091D01*
X98797331Y-105893796D01*
X98912546Y-105807546D01*
X98998796Y-105692331D01*
X99049091Y-105557483D01*
X99055500Y-105497873D01*
X99055499Y-103402128D01*
X99049091Y-103342517D01*
X99047931Y-103339408D01*
X98998797Y-103207671D01*
X98998793Y-103207664D01*
X98912547Y-103092455D01*
X98912544Y-103092452D01*
X98797335Y-103006206D01*
X98797328Y-103006202D01*
X98662482Y-102955908D01*
X98662483Y-102955908D01*
X98602883Y-102949501D01*
X98602881Y-102949500D01*
X98602873Y-102949500D01*
X98602864Y-102949500D01*
X97007129Y-102949500D01*
X97007123Y-102949501D01*
X96947516Y-102955908D01*
X96812671Y-103006202D01*
X96812664Y-103006206D01*
X96697455Y-103092452D01*
X96697452Y-103092455D01*
X96611206Y-103207664D01*
X96611202Y-103207671D01*
X96560908Y-103342517D01*
X96556146Y-103386818D01*
X96554501Y-103402123D01*
X96554500Y-103402135D01*
X96554500Y-105497870D01*
X96554501Y-105497879D01*
X96557852Y-105529052D01*
X96545444Y-105597812D01*
X96497832Y-105648948D01*
X96430133Y-105666225D01*
X96363839Y-105644158D01*
X96329568Y-105608276D01*
X96297652Y-105557482D01*
X96258355Y-105494941D01*
X96130801Y-105367387D01*
X96121537Y-105361566D01*
X95978062Y-105271414D01*
X95807793Y-105211834D01*
X95807788Y-105211833D01*
X95628543Y-105191638D01*
X95628535Y-105191638D01*
X95449289Y-105211833D01*
X95449284Y-105211834D01*
X95279015Y-105271414D01*
X95126276Y-105367387D01*
X94998722Y-105494941D01*
X94990768Y-105507600D01*
X94938431Y-105553889D01*
X94869377Y-105564534D01*
X94805530Y-105536155D01*
X94767161Y-105477764D01*
X94763974Y-105418387D01*
X94773703Y-105367387D01*
X94786280Y-105301457D01*
X94792695Y-105199500D01*
X94805246Y-105000005D01*
X94805246Y-104999994D01*
X94786281Y-104698553D01*
X94786280Y-104698546D01*
X94786280Y-104698543D01*
X94729681Y-104401840D01*
X94636341Y-104114570D01*
X94507733Y-103841264D01*
X94345885Y-103586232D01*
X94153349Y-103353496D01*
X94150156Y-103350498D01*
X93998062Y-103207671D01*
X93933162Y-103146726D01*
X93933159Y-103146724D01*
X93933153Y-103146719D01*
X93688806Y-102969191D01*
X93688799Y-102969186D01*
X93688795Y-102969184D01*
X93424104Y-102823668D01*
X93424101Y-102823666D01*
X93424096Y-102823664D01*
X93424095Y-102823663D01*
X93143265Y-102712475D01*
X93143262Y-102712474D01*
X92850695Y-102637357D01*
X92551036Y-102599500D01*
X92551027Y-102599500D01*
X92248973Y-102599500D01*
X92248963Y-102599500D01*
X91949304Y-102637357D01*
X91656737Y-102712474D01*
X91656734Y-102712475D01*
X91375904Y-102823663D01*
X91375903Y-102823664D01*
X91111205Y-102969184D01*
X91111193Y-102969191D01*
X90866846Y-103146719D01*
X90866836Y-103146727D01*
X90709384Y-103294585D01*
X90647039Y-103326127D01*
X90577538Y-103318956D01*
X90522948Y-103275349D01*
X90500599Y-103209150D01*
X90500500Y-103204193D01*
X90500500Y-96777135D01*
X91049500Y-96777135D01*
X91049500Y-98572870D01*
X91049501Y-98572876D01*
X91055908Y-98632483D01*
X91106202Y-98767328D01*
X91106206Y-98767335D01*
X91192452Y-98882544D01*
X91192455Y-98882547D01*
X91307664Y-98968793D01*
X91307671Y-98968797D01*
X91442517Y-99019091D01*
X91442516Y-99019091D01*
X91449444Y-99019835D01*
X91502127Y-99025500D01*
X93297872Y-99025499D01*
X93357483Y-99019091D01*
X93492331Y-98968796D01*
X93607546Y-98882546D01*
X93693796Y-98767331D01*
X93744091Y-98632483D01*
X93750500Y-98572873D01*
X93750499Y-96777128D01*
X93744091Y-96717517D01*
X93711380Y-96629815D01*
X93693797Y-96582671D01*
X93693793Y-96582664D01*
X93607547Y-96467455D01*
X93607544Y-96467452D01*
X93492335Y-96381206D01*
X93492328Y-96381202D01*
X93360401Y-96331997D01*
X93304467Y-96290126D01*
X93280050Y-96224662D01*
X93294902Y-96156389D01*
X93316053Y-96128133D01*
X93438108Y-96006078D01*
X93573600Y-95812578D01*
X93673429Y-95598492D01*
X93673432Y-95598486D01*
X93730636Y-95385000D01*
X92833012Y-95385000D01*
X92865925Y-95327993D01*
X92899649Y-95202135D01*
X96554500Y-95202135D01*
X96554500Y-97297870D01*
X96554501Y-97297876D01*
X96560908Y-97357483D01*
X96611202Y-97492328D01*
X96611206Y-97492335D01*
X96697452Y-97607544D01*
X96697455Y-97607547D01*
X96812664Y-97693793D01*
X96812671Y-97693797D01*
X96947517Y-97744091D01*
X96947516Y-97744091D01*
X96954444Y-97744835D01*
X97007127Y-97750500D01*
X98602872Y-97750499D01*
X98662483Y-97744091D01*
X98797331Y-97693796D01*
X98912546Y-97607546D01*
X98998796Y-97492331D01*
X99049091Y-97357483D01*
X99055500Y-97297873D01*
X99055499Y-95202128D01*
X99049091Y-95142517D01*
X99044353Y-95129815D01*
X98998797Y-95007671D01*
X98998793Y-95007664D01*
X98912547Y-94892455D01*
X98912544Y-94892452D01*
X98797335Y-94806206D01*
X98797328Y-94806202D01*
X98662482Y-94755908D01*
X98662483Y-94755908D01*
X98602883Y-94749501D01*
X98602881Y-94749500D01*
X98602873Y-94749500D01*
X98602864Y-94749500D01*
X97007129Y-94749500D01*
X97007123Y-94749501D01*
X96947516Y-94755908D01*
X96812671Y-94806202D01*
X96812664Y-94806206D01*
X96697455Y-94892452D01*
X96697452Y-94892455D01*
X96611206Y-95007664D01*
X96611202Y-95007671D01*
X96560908Y-95142517D01*
X96554640Y-95200826D01*
X96554501Y-95202123D01*
X96554500Y-95202135D01*
X92899649Y-95202135D01*
X92900000Y-95200826D01*
X92900000Y-95069174D01*
X92865925Y-94942007D01*
X92833012Y-94885000D01*
X93730636Y-94885000D01*
X93730635Y-94884999D01*
X93673432Y-94671513D01*
X93673429Y-94671507D01*
X93573600Y-94457422D01*
X93573599Y-94457420D01*
X93438113Y-94263926D01*
X93438108Y-94263920D01*
X93271082Y-94096894D01*
X93077578Y-93961399D01*
X92863492Y-93861570D01*
X92863486Y-93861567D01*
X92650000Y-93804364D01*
X92650000Y-94701988D01*
X92592993Y-94669075D01*
X92465826Y-94635000D01*
X92334174Y-94635000D01*
X92207007Y-94669075D01*
X92150000Y-94701988D01*
X92150000Y-93804364D01*
X92149999Y-93804364D01*
X91936513Y-93861567D01*
X91936507Y-93861570D01*
X91722422Y-93961399D01*
X91722420Y-93961400D01*
X91528926Y-94096886D01*
X91528920Y-94096891D01*
X91361891Y-94263920D01*
X91361886Y-94263926D01*
X91226400Y-94457420D01*
X91226399Y-94457422D01*
X91126570Y-94671507D01*
X91126567Y-94671513D01*
X91069364Y-94884999D01*
X91069364Y-94885000D01*
X91966988Y-94885000D01*
X91934075Y-94942007D01*
X91900000Y-95069174D01*
X91900000Y-95200826D01*
X91934075Y-95327993D01*
X91966988Y-95385000D01*
X91069364Y-95385000D01*
X91126567Y-95598486D01*
X91126570Y-95598492D01*
X91226399Y-95812578D01*
X91361894Y-96006082D01*
X91483946Y-96128134D01*
X91517431Y-96189457D01*
X91512447Y-96259149D01*
X91470575Y-96315082D01*
X91439598Y-96331997D01*
X91307671Y-96381202D01*
X91307664Y-96381206D01*
X91192455Y-96467452D01*
X91192452Y-96467455D01*
X91106206Y-96582664D01*
X91106202Y-96582671D01*
X91055908Y-96717517D01*
X91049501Y-96777116D01*
X91049501Y-96777123D01*
X91049500Y-96777135D01*
X90500500Y-96777135D01*
X90500500Y-91925229D01*
X90520185Y-91858190D01*
X90572989Y-91812435D01*
X90642147Y-91802491D01*
X90671954Y-91810668D01*
X90717781Y-91829650D01*
X90717785Y-91829651D01*
X90920631Y-91869999D01*
X90920635Y-91870000D01*
X91524052Y-91870000D01*
X91524052Y-91120000D01*
X92024052Y-91120000D01*
X92024052Y-91870000D01*
X92627469Y-91870000D01*
X92627472Y-91869999D01*
X92830318Y-91829651D01*
X92830326Y-91829649D01*
X93021410Y-91750499D01*
X93021420Y-91750494D01*
X93193387Y-91635589D01*
X93193391Y-91635586D01*
X93339638Y-91489339D01*
X93339641Y-91489335D01*
X93454546Y-91317368D01*
X93454551Y-91317358D01*
X93533700Y-91126276D01*
X93533701Y-91126274D01*
X93544895Y-91070000D01*
X92691040Y-91070000D01*
X92708257Y-91060060D01*
X92764112Y-91004205D01*
X92803608Y-90935796D01*
X92824052Y-90859496D01*
X92824052Y-90780504D01*
X92803608Y-90704204D01*
X92764112Y-90635795D01*
X92708257Y-90579940D01*
X92691040Y-90570000D01*
X93544895Y-90570000D01*
X95613209Y-90570000D01*
X96467064Y-90570000D01*
X96449847Y-90579940D01*
X96393992Y-90635795D01*
X96354496Y-90704204D01*
X96334052Y-90780504D01*
X96334052Y-90859496D01*
X96354496Y-90935796D01*
X96393992Y-91004205D01*
X96449847Y-91060060D01*
X96467064Y-91070000D01*
X95613209Y-91070000D01*
X95624402Y-91126274D01*
X95624403Y-91126276D01*
X95703552Y-91317358D01*
X95703557Y-91317368D01*
X95818462Y-91489335D01*
X95818465Y-91489339D01*
X95964712Y-91635586D01*
X95964716Y-91635589D01*
X96136683Y-91750494D01*
X96136693Y-91750499D01*
X96327777Y-91829649D01*
X96327785Y-91829651D01*
X96530631Y-91869999D01*
X96530635Y-91870000D01*
X96884052Y-91870000D01*
X96884052Y-91120000D01*
X97384052Y-91120000D01*
X97384052Y-91870000D01*
X97737469Y-91870000D01*
X97737472Y-91869999D01*
X97940318Y-91829651D01*
X97940326Y-91829649D01*
X98131410Y-91750499D01*
X98131420Y-91750494D01*
X98303387Y-91635589D01*
X98303391Y-91635586D01*
X98449638Y-91489339D01*
X98449641Y-91489335D01*
X98564546Y-91317368D01*
X98564551Y-91317358D01*
X98643700Y-91126276D01*
X98643701Y-91126274D01*
X98654895Y-91070000D01*
X97801040Y-91070000D01*
X97818257Y-91060060D01*
X97874112Y-91004205D01*
X97913608Y-90935796D01*
X97934052Y-90859496D01*
X97934052Y-90780504D01*
X97913608Y-90704204D01*
X97874112Y-90635795D01*
X97818257Y-90579940D01*
X97801040Y-90570000D01*
X98654895Y-90570000D01*
X98643701Y-90513725D01*
X98643700Y-90513723D01*
X98564551Y-90322641D01*
X98564546Y-90322631D01*
X98449641Y-90150664D01*
X98449638Y-90150660D01*
X98303391Y-90004413D01*
X98303387Y-90004410D01*
X98131420Y-89889505D01*
X98131410Y-89889500D01*
X97940326Y-89810350D01*
X97940318Y-89810348D01*
X97737472Y-89770000D01*
X97384052Y-89770000D01*
X97384052Y-90520000D01*
X96884052Y-90520000D01*
X96884052Y-89770000D01*
X96530631Y-89770000D01*
X96327785Y-89810348D01*
X96327777Y-89810350D01*
X96136693Y-89889500D01*
X96136683Y-89889505D01*
X95964716Y-90004410D01*
X95964712Y-90004413D01*
X95818465Y-90150660D01*
X95818462Y-90150664D01*
X95703557Y-90322631D01*
X95703552Y-90322641D01*
X95624403Y-90513723D01*
X95624402Y-90513725D01*
X95613209Y-90570000D01*
X93544895Y-90570000D01*
X93533701Y-90513725D01*
X93533700Y-90513723D01*
X93454551Y-90322641D01*
X93454546Y-90322631D01*
X93339641Y-90150664D01*
X93339638Y-90150660D01*
X93193391Y-90004413D01*
X93193387Y-90004410D01*
X93021420Y-89889505D01*
X93021410Y-89889500D01*
X92830326Y-89810350D01*
X92830318Y-89810348D01*
X92627472Y-89770000D01*
X92024052Y-89770000D01*
X92024052Y-90520000D01*
X91524052Y-90520000D01*
X91524052Y-89770000D01*
X90920631Y-89770000D01*
X90717785Y-89810348D01*
X90717773Y-89810351D01*
X90671952Y-89829331D01*
X90602482Y-89836800D01*
X90540003Y-89805524D01*
X90504352Y-89745435D01*
X90500500Y-89714770D01*
X90500500Y-83285229D01*
X90520185Y-83218190D01*
X90572989Y-83172435D01*
X90642147Y-83162491D01*
X90671954Y-83170668D01*
X90717781Y-83189650D01*
X90717785Y-83189651D01*
X90920631Y-83229999D01*
X90920635Y-83230000D01*
X91524052Y-83230000D01*
X91524052Y-82480000D01*
X92024052Y-82480000D01*
X92024052Y-83230000D01*
X92627469Y-83230000D01*
X92627472Y-83229999D01*
X92830318Y-83189651D01*
X92830326Y-83189649D01*
X93021410Y-83110499D01*
X93021420Y-83110494D01*
X93193387Y-82995589D01*
X93193391Y-82995586D01*
X93339638Y-82849339D01*
X93339641Y-82849335D01*
X93454546Y-82677368D01*
X93454551Y-82677358D01*
X93533700Y-82486276D01*
X93533701Y-82486274D01*
X93544895Y-82430000D01*
X92691040Y-82430000D01*
X92708257Y-82420060D01*
X92764112Y-82364205D01*
X92803608Y-82295796D01*
X92824052Y-82219496D01*
X92824052Y-82140504D01*
X92803608Y-82064204D01*
X92764112Y-81995795D01*
X92708257Y-81939940D01*
X92691040Y-81930000D01*
X93544895Y-81930000D01*
X95613209Y-81930000D01*
X96467064Y-81930000D01*
X96449847Y-81939940D01*
X96393992Y-81995795D01*
X96354496Y-82064204D01*
X96334052Y-82140504D01*
X96334052Y-82219496D01*
X96354496Y-82295796D01*
X96393992Y-82364205D01*
X96449847Y-82420060D01*
X96467064Y-82430000D01*
X95613209Y-82430000D01*
X95624402Y-82486274D01*
X95624403Y-82486276D01*
X95703552Y-82677358D01*
X95703557Y-82677368D01*
X95818462Y-82849335D01*
X95818465Y-82849339D01*
X95964712Y-82995586D01*
X95964716Y-82995589D01*
X96136683Y-83110494D01*
X96136693Y-83110499D01*
X96327777Y-83189649D01*
X96327785Y-83189651D01*
X96530631Y-83229999D01*
X96530635Y-83230000D01*
X96884052Y-83230000D01*
X96884052Y-82480000D01*
X97384052Y-82480000D01*
X97384052Y-83230000D01*
X97737469Y-83230000D01*
X97737472Y-83229999D01*
X97940318Y-83189651D01*
X97940326Y-83189649D01*
X98131410Y-83110499D01*
X98131420Y-83110494D01*
X98303387Y-82995589D01*
X98303391Y-82995586D01*
X98449638Y-82849339D01*
X98449641Y-82849335D01*
X98564546Y-82677368D01*
X98564551Y-82677358D01*
X98643700Y-82486276D01*
X98643701Y-82486274D01*
X98654895Y-82430000D01*
X97801040Y-82430000D01*
X97818257Y-82420060D01*
X97874112Y-82364205D01*
X97913608Y-82295796D01*
X97934052Y-82219496D01*
X97934052Y-82140504D01*
X97913608Y-82064204D01*
X97874112Y-81995795D01*
X97818257Y-81939940D01*
X97801040Y-81930000D01*
X98654895Y-81930000D01*
X98643701Y-81873725D01*
X98643700Y-81873723D01*
X98564551Y-81682641D01*
X98564546Y-81682631D01*
X98449641Y-81510664D01*
X98449638Y-81510660D01*
X98303391Y-81364413D01*
X98303387Y-81364410D01*
X98131420Y-81249505D01*
X98131410Y-81249500D01*
X97940326Y-81170350D01*
X97940318Y-81170348D01*
X97737472Y-81130000D01*
X97384052Y-81130000D01*
X97384052Y-81880000D01*
X96884052Y-81880000D01*
X96884052Y-81130000D01*
X96530631Y-81130000D01*
X96327785Y-81170348D01*
X96327777Y-81170350D01*
X96136693Y-81249500D01*
X96136683Y-81249505D01*
X95964716Y-81364410D01*
X95964712Y-81364413D01*
X95818465Y-81510660D01*
X95818462Y-81510664D01*
X95703557Y-81682631D01*
X95703552Y-81682641D01*
X95624403Y-81873723D01*
X95624402Y-81873725D01*
X95613209Y-81930000D01*
X93544895Y-81930000D01*
X93533701Y-81873725D01*
X93533700Y-81873723D01*
X93454551Y-81682641D01*
X93454546Y-81682631D01*
X93339641Y-81510664D01*
X93339638Y-81510660D01*
X93193391Y-81364413D01*
X93193387Y-81364410D01*
X93021420Y-81249505D01*
X93021410Y-81249500D01*
X92830326Y-81170350D01*
X92830318Y-81170348D01*
X92627472Y-81130000D01*
X92024052Y-81130000D01*
X92024052Y-81880000D01*
X91524052Y-81880000D01*
X91524052Y-81130000D01*
X90920631Y-81130000D01*
X90717785Y-81170348D01*
X90717773Y-81170351D01*
X90671952Y-81189331D01*
X90602482Y-81196800D01*
X90540003Y-81165524D01*
X90504352Y-81105435D01*
X90500500Y-81074770D01*
X90500500Y-79795806D01*
X90520185Y-79728767D01*
X90572989Y-79683012D01*
X90642147Y-79673068D01*
X90705703Y-79702093D01*
X90709373Y-79705404D01*
X90866836Y-79853272D01*
X90866846Y-79853280D01*
X91111193Y-80030808D01*
X91111198Y-80030810D01*
X91111205Y-80030816D01*
X91375896Y-80176332D01*
X91375901Y-80176334D01*
X91375903Y-80176335D01*
X91375904Y-80176336D01*
X91656734Y-80287524D01*
X91656737Y-80287525D01*
X91754259Y-80312564D01*
X91949302Y-80362642D01*
X92090818Y-80380520D01*
X92248963Y-80400499D01*
X92248969Y-80400499D01*
X92248973Y-80400500D01*
X92248975Y-80400500D01*
X92551025Y-80400500D01*
X92551027Y-80400500D01*
X92551032Y-80400499D01*
X92551036Y-80400499D01*
X92630591Y-80390448D01*
X92850698Y-80362642D01*
X93143262Y-80287525D01*
X93143265Y-80287524D01*
X93424095Y-80176336D01*
X93424096Y-80176335D01*
X93424094Y-80176335D01*
X93424104Y-80176332D01*
X93688795Y-80030816D01*
X93933162Y-79853274D01*
X94153349Y-79646504D01*
X94345885Y-79413768D01*
X94507733Y-79158736D01*
X94636341Y-78885430D01*
X94729681Y-78598160D01*
X94786280Y-78301457D01*
X94786281Y-78301446D01*
X94805246Y-78000005D01*
X94805246Y-77999994D01*
X94786281Y-77698553D01*
X94786280Y-77698546D01*
X94786280Y-77698543D01*
X94729681Y-77401840D01*
X94636341Y-77114570D01*
X94633208Y-77107913D01*
X94554021Y-76939631D01*
X94507733Y-76841264D01*
X94453202Y-76755337D01*
X94345888Y-76586236D01*
X94304608Y-76536337D01*
X94153349Y-76353496D01*
X94104550Y-76307671D01*
X94005751Y-76214892D01*
X93970356Y-76154651D01*
X93973149Y-76084837D01*
X94013243Y-76027616D01*
X94077908Y-76001155D01*
X94090635Y-76000500D01*
X119305500Y-76000500D01*
X119372539Y-76020185D01*
G37*
%TD.AperFunction*%
%TA.AperFunction,Conductor*%
G36*
X105754936Y-91513231D02*
G01*
X105760253Y-91516970D01*
X105761311Y-91517580D01*
X105761313Y-91517582D01*
X105761314Y-91517582D01*
X105761317Y-91517584D01*
X105818870Y-91541423D01*
X105907392Y-91578090D01*
X106024793Y-91593546D01*
X106363514Y-91593545D01*
X106363517Y-91593545D01*
X106480909Y-91578091D01*
X106480909Y-91578090D01*
X106480916Y-91578090D01*
X106480921Y-91578087D01*
X106482054Y-91577785D01*
X106483239Y-91577784D01*
X106488975Y-91577030D01*
X106489074Y-91577784D01*
X106539234Y-91577783D01*
X106539334Y-91577029D01*
X106545061Y-91577783D01*
X106546245Y-91577783D01*
X106547388Y-91578089D01*
X106547390Y-91578089D01*
X106547392Y-91578090D01*
X106664793Y-91593546D01*
X107003514Y-91593545D01*
X107003517Y-91593545D01*
X107120907Y-91578092D01*
X107120910Y-91578090D01*
X107120916Y-91578090D01*
X107191407Y-91548891D01*
X107260871Y-91541423D01*
X107323351Y-91572697D01*
X107326537Y-91575772D01*
X107488181Y-91737416D01*
X107521666Y-91798739D01*
X107524500Y-91825097D01*
X107524500Y-101026000D01*
X107504815Y-101093039D01*
X107452011Y-101138794D01*
X107400500Y-101150000D01*
X107275000Y-101150000D01*
X107275000Y-101401930D01*
X107267182Y-101445263D01*
X107230908Y-101542517D01*
X107224501Y-101602116D01*
X107224500Y-101602127D01*
X107224500Y-102230742D01*
X107224501Y-102376000D01*
X107204817Y-102443039D01*
X107152013Y-102488794D01*
X107100501Y-102500000D01*
X106949499Y-102500000D01*
X106882460Y-102480315D01*
X106836705Y-102427511D01*
X106825499Y-102376000D01*
X106825499Y-101602129D01*
X106825498Y-101602123D01*
X106825497Y-101602116D01*
X106819091Y-101542517D01*
X106803233Y-101500000D01*
X106782818Y-101445263D01*
X106775000Y-101401930D01*
X106775000Y-101150000D01*
X106577155Y-101150000D01*
X106517624Y-101156401D01*
X106510073Y-101158186D01*
X106509684Y-101156542D01*
X106449348Y-101160853D01*
X106432614Y-101155939D01*
X106432483Y-101155908D01*
X106372883Y-101149501D01*
X106372881Y-101149500D01*
X106372873Y-101149500D01*
X106372865Y-101149500D01*
X105549500Y-101149500D01*
X105482461Y-101129815D01*
X105436706Y-101077011D01*
X105425500Y-101025500D01*
X105425500Y-91617546D01*
X105445185Y-91550507D01*
X105497989Y-91504752D01*
X105549500Y-91493546D01*
X105687897Y-91493546D01*
X105754936Y-91513231D01*
G37*
%TD.AperFunction*%
%TA.AperFunction,Conductor*%
G36*
X118166942Y-79420185D02*
G01*
X118187584Y-79436819D01*
X119757017Y-81006252D01*
X119790502Y-81067575D01*
X119785518Y-81137267D01*
X119757018Y-81181614D01*
X119682287Y-81256345D01*
X119590187Y-81405663D01*
X119590185Y-81405668D01*
X119568300Y-81471713D01*
X119535001Y-81572203D01*
X119535001Y-81572204D01*
X119535000Y-81572204D01*
X119524500Y-81674983D01*
X119524500Y-81802961D01*
X119504815Y-81870000D01*
X119452011Y-81915755D01*
X119387902Y-81926319D01*
X119374998Y-81925001D01*
X119374974Y-81925000D01*
X119300000Y-81925000D01*
X119300000Y-83651000D01*
X119280315Y-83718039D01*
X119227511Y-83763794D01*
X119176000Y-83775000D01*
X118025001Y-83775000D01*
X118025001Y-84424986D01*
X118035494Y-84527697D01*
X118071547Y-84636496D01*
X118073949Y-84706324D01*
X118038217Y-84766366D01*
X117975697Y-84797559D01*
X117953841Y-84799500D01*
X117619675Y-84799500D01*
X117552636Y-84779815D01*
X117506881Y-84727011D01*
X117496937Y-84657853D01*
X117501969Y-84636495D01*
X117514856Y-84597605D01*
X117524999Y-84498322D01*
X117525000Y-84498309D01*
X117525000Y-84450000D01*
X116449000Y-84450000D01*
X116381961Y-84430315D01*
X116336206Y-84377511D01*
X116325000Y-84326000D01*
X116325000Y-83950000D01*
X116825000Y-83950000D01*
X117524999Y-83950000D01*
X117524999Y-83901692D01*
X117524998Y-83901677D01*
X117514855Y-83802392D01*
X117461547Y-83641518D01*
X117461542Y-83641507D01*
X117372575Y-83497271D01*
X117372572Y-83497267D01*
X117252732Y-83377427D01*
X117252728Y-83377424D01*
X117108492Y-83288457D01*
X117108481Y-83288452D01*
X116947606Y-83235144D01*
X116848322Y-83225000D01*
X116825000Y-83225000D01*
X116825000Y-83950000D01*
X116325000Y-83950000D01*
X116325000Y-83224999D01*
X116301693Y-83225000D01*
X116301674Y-83225001D01*
X116202392Y-83235144D01*
X116041518Y-83288452D01*
X116041507Y-83288457D01*
X115897271Y-83377424D01*
X115897264Y-83377430D01*
X115888028Y-83386665D01*
X115826703Y-83420146D01*
X115757011Y-83415157D01*
X115712672Y-83386659D01*
X115703047Y-83377034D01*
X115684400Y-83365532D01*
X115637677Y-83313582D01*
X115625500Y-83259995D01*
X115625500Y-82634796D01*
X115628373Y-82625013D01*
X118025000Y-82625013D01*
X118025000Y-83275000D01*
X118800000Y-83275000D01*
X118800000Y-81925000D01*
X118799999Y-81924999D01*
X118725028Y-81925000D01*
X118725011Y-81925001D01*
X118622302Y-81935494D01*
X118455880Y-81990641D01*
X118455875Y-81990643D01*
X118306654Y-82082684D01*
X118182684Y-82206654D01*
X118090643Y-82355875D01*
X118090641Y-82355880D01*
X118035494Y-82522302D01*
X118035493Y-82522309D01*
X118025000Y-82625013D01*
X115628373Y-82625013D01*
X115645185Y-82567757D01*
X115687498Y-82527410D01*
X115768716Y-82480520D01*
X115880520Y-82368716D01*
X115880520Y-82368714D01*
X115890724Y-82358511D01*
X115890728Y-82358506D01*
X116558506Y-81690728D01*
X116558511Y-81690724D01*
X116568714Y-81680520D01*
X116568716Y-81680520D01*
X116680520Y-81568716D01*
X116736521Y-81471718D01*
X116759577Y-81431785D01*
X116800501Y-81279057D01*
X116800501Y-81279053D01*
X116801502Y-81275318D01*
X116837867Y-81215658D01*
X116856178Y-81201874D01*
X116903044Y-81172968D01*
X117022968Y-81053044D01*
X117112003Y-80908697D01*
X117165349Y-80747708D01*
X117175500Y-80648345D01*
X117175499Y-80101656D01*
X117165349Y-80002292D01*
X117112003Y-79841303D01*
X117111999Y-79841297D01*
X117111998Y-79841294D01*
X117022970Y-79696959D01*
X117022967Y-79696955D01*
X117013693Y-79687681D01*
X116980208Y-79626358D01*
X116985192Y-79556666D01*
X117013693Y-79512319D01*
X117022968Y-79503044D01*
X117049887Y-79459402D01*
X117101835Y-79412678D01*
X117155425Y-79400500D01*
X118099903Y-79400500D01*
X118166942Y-79420185D01*
G37*
%TD.AperFunction*%
%TD*%
M02*
