%TF.GenerationSoftware,KiCad,Pcbnew,8.0.6*%
%TF.CreationDate,2024-11-04T20:58:39-05:00*%
%TF.ProjectId,VanguardFlightComputer,56616e67-7561-4726-9446-6c6967687443,rev?*%
%TF.SameCoordinates,Original*%
%TF.FileFunction,Soldermask,Top*%
%TF.FilePolarity,Negative*%
%FSLAX46Y46*%
G04 Gerber Fmt 4.6, Leading zero omitted, Abs format (unit mm)*
G04 Created by KiCad (PCBNEW 8.0.6) date 2024-11-04 20:58:39*
%MOMM*%
%LPD*%
G01*
G04 APERTURE LIST*
G04 Aperture macros list*
%AMRoundRect*
0 Rectangle with rounded corners*
0 $1 Rounding radius*
0 $2 $3 $4 $5 $6 $7 $8 $9 X,Y pos of 4 corners*
0 Add a 4 corners polygon primitive as box body*
4,1,4,$2,$3,$4,$5,$6,$7,$8,$9,$2,$3,0*
0 Add four circle primitives for the rounded corners*
1,1,$1+$1,$2,$3*
1,1,$1+$1,$4,$5*
1,1,$1+$1,$6,$7*
1,1,$1+$1,$8,$9*
0 Add four rect primitives between the rounded corners*
20,1,$1+$1,$2,$3,$4,$5,0*
20,1,$1+$1,$4,$5,$6,$7,0*
20,1,$1+$1,$6,$7,$8,$9,0*
20,1,$1+$1,$8,$9,$2,$3,0*%
G04 Aperture macros list end*
%ADD10R,0.900000X1.000000*%
%ADD11R,1.700000X1.700000*%
%ADD12O,1.700000X1.700000*%
%ADD13R,0.250000X0.475000*%
%ADD14R,0.475000X0.250000*%
%ADD15R,2.500000X1.750000*%
%ADD16R,0.400000X0.800000*%
%ADD17RoundRect,0.135000X-0.185000X0.135000X-0.185000X-0.135000X0.185000X-0.135000X0.185000X0.135000X0*%
%ADD18R,0.650000X1.050000*%
%ADD19RoundRect,0.100000X0.130000X0.100000X-0.130000X0.100000X-0.130000X-0.100000X0.130000X-0.100000X0*%
%ADD20RoundRect,0.135000X-0.135000X-0.185000X0.135000X-0.185000X0.135000X0.185000X-0.135000X0.185000X0*%
%ADD21RoundRect,0.100000X-0.100000X0.130000X-0.100000X-0.130000X0.100000X-0.130000X0.100000X0.130000X0*%
%ADD22RoundRect,0.140000X-0.170000X0.140000X-0.170000X-0.140000X0.170000X-0.140000X0.170000X0.140000X0*%
%ADD23C,2.600000*%
%ADD24C,3.800000*%
%ADD25RoundRect,0.075000X-0.725000X-0.075000X0.725000X-0.075000X0.725000X0.075000X-0.725000X0.075000X0*%
%ADD26RoundRect,0.075000X-0.075000X-0.725000X0.075000X-0.725000X0.075000X0.725000X-0.075000X0.725000X0*%
%ADD27RoundRect,0.225000X-0.225000X-0.250000X0.225000X-0.250000X0.225000X0.250000X-0.225000X0.250000X0*%
%ADD28RoundRect,0.225000X0.250000X-0.225000X0.250000X0.225000X-0.250000X0.225000X-0.250000X-0.225000X0*%
%ADD29RoundRect,0.225000X-0.250000X0.225000X-0.250000X-0.225000X0.250000X-0.225000X0.250000X0.225000X0*%
%ADD30RoundRect,0.100000X0.100000X-0.130000X0.100000X0.130000X-0.100000X0.130000X-0.100000X-0.130000X0*%
%ADD31RoundRect,0.093750X-0.156250X-0.093750X0.156250X-0.093750X0.156250X0.093750X-0.156250X0.093750X0*%
%ADD32RoundRect,0.075000X-0.250000X-0.075000X0.250000X-0.075000X0.250000X0.075000X-0.250000X0.075000X0*%
%ADD33R,0.375000X0.350000*%
%ADD34R,0.350000X0.375000*%
%ADD35RoundRect,0.100000X-0.130000X-0.100000X0.130000X-0.100000X0.130000X0.100000X-0.130000X0.100000X0*%
%ADD36R,0.700000X0.300000*%
%ADD37R,0.700000X1.000000*%
%ADD38O,2.100000X1.100000*%
%ADD39O,2.600000X1.100000*%
%ADD40RoundRect,0.087500X-0.125000X-0.087500X0.125000X-0.087500X0.125000X0.087500X-0.125000X0.087500X0*%
%ADD41RoundRect,0.087500X-0.087500X-0.125000X0.087500X-0.125000X0.087500X0.125000X-0.087500X0.125000X0*%
%ADD42RoundRect,0.375000X-0.625000X-0.375000X0.625000X-0.375000X0.625000X0.375000X-0.625000X0.375000X0*%
%ADD43RoundRect,0.500000X-0.500000X-1.400000X0.500000X-1.400000X0.500000X1.400000X-0.500000X1.400000X0*%
%ADD44RoundRect,0.200000X-0.275000X0.200000X-0.275000X-0.200000X0.275000X-0.200000X0.275000X0.200000X0*%
G04 APERTURE END LIST*
D10*
%TO.C,Y2*%
X116787000Y-91375000D03*
X116787000Y-93025000D03*
X118013000Y-93025000D03*
X118013000Y-91375000D03*
%TD*%
D11*
%TO.C,J8*%
X92400000Y-97675000D03*
D12*
X92400000Y-95135000D03*
%TD*%
D13*
%TO.C,IC2*%
X134850000Y-105163000D03*
X135350000Y-105163000D03*
X135850000Y-105163000D03*
X136350000Y-105163000D03*
D14*
X136512000Y-104500000D03*
X136512000Y-104000000D03*
X136512000Y-103500000D03*
D13*
X136350000Y-102837000D03*
X135850000Y-102837000D03*
X135350000Y-102837000D03*
X134850000Y-102837000D03*
D14*
X134688000Y-103500000D03*
X134688000Y-104000000D03*
X134688000Y-104500000D03*
%TD*%
D15*
%TO.C,IC1*%
X109000000Y-87000000D03*
D16*
X108050000Y-85500000D03*
X109000000Y-85500000D03*
X109950000Y-85500000D03*
X109950000Y-88500000D03*
X109000000Y-88500000D03*
X108050000Y-88500000D03*
%TD*%
D11*
%TO.C,J7*%
X120780000Y-77000000D03*
D12*
X123320000Y-77000000D03*
X125860000Y-77000000D03*
X128400000Y-77000000D03*
%TD*%
D11*
%TO.C,J6*%
X136325000Y-77400000D03*
D12*
X138865000Y-77400000D03*
%TD*%
D17*
%TO.C,R10*%
X141800000Y-84510000D03*
X141800000Y-83490000D03*
%TD*%
%TO.C,R9*%
X141800000Y-87110000D03*
X141800000Y-86090000D03*
%TD*%
D12*
%TO.C,J5*%
X144200000Y-89620000D03*
X144200000Y-87080000D03*
X144200000Y-84540000D03*
D11*
X144200000Y-82000000D03*
%TD*%
D18*
%TO.C,SW2*%
X97125000Y-106475000D03*
X97125000Y-102325000D03*
X99275000Y-106475000D03*
X99275000Y-102325000D03*
%TD*%
%TO.C,SW1*%
X101325000Y-106475000D03*
X101325000Y-102325000D03*
X103475000Y-106475000D03*
X103475000Y-102325000D03*
%TD*%
D19*
%TO.C,R8*%
X98708539Y-100997203D03*
X99348539Y-100997203D03*
%TD*%
%TO.C,C30*%
X103465000Y-101000000D03*
X102825000Y-101000000D03*
%TD*%
D20*
%TO.C,R3*%
X131763086Y-105000000D03*
X132783086Y-105000000D03*
%TD*%
%TO.C,R2*%
X132783086Y-103667443D03*
X131763086Y-103667443D03*
%TD*%
D21*
%TO.C,C5*%
X122465891Y-80633657D03*
X122465891Y-79993657D03*
%TD*%
%TO.C,C21*%
X138000000Y-105680000D03*
X138000000Y-106320000D03*
%TD*%
D19*
%TO.C,C8*%
X120935000Y-79956345D03*
X121575000Y-79956345D03*
%TD*%
D22*
%TO.C,C18*%
X114650000Y-90420000D03*
X114650000Y-91380000D03*
%TD*%
D23*
%TO.C,H5*%
X143400000Y-78000000D03*
D24*
X143400000Y-78000000D03*
%TD*%
D25*
%TO.C,U1*%
X122925000Y-85000000D03*
X122925000Y-85500000D03*
X122925000Y-86000000D03*
X122925000Y-86500000D03*
X122925000Y-87000000D03*
X122925000Y-87500000D03*
X122925000Y-88000000D03*
X122925000Y-88500000D03*
X122925000Y-89000000D03*
X122925000Y-89500000D03*
X122925000Y-90000000D03*
X122925000Y-90500000D03*
X122925000Y-91000000D03*
X122925000Y-91500000D03*
X122925000Y-92000000D03*
X122925000Y-92500000D03*
X122925000Y-93000000D03*
X122925000Y-93500000D03*
X122925000Y-94000000D03*
X122925000Y-94500000D03*
X122925000Y-95000000D03*
X122925000Y-95500000D03*
X122925000Y-96000000D03*
X122925000Y-96500000D03*
X122925000Y-97000000D03*
D26*
X124600000Y-98675000D03*
X125100000Y-98675000D03*
X125600000Y-98675000D03*
X126100000Y-98675000D03*
X126600000Y-98675000D03*
X127100000Y-98675000D03*
X127600000Y-98675000D03*
X128100000Y-98675000D03*
X128600000Y-98675000D03*
X129100000Y-98675000D03*
X129600000Y-98675000D03*
X130100000Y-98675000D03*
X130600000Y-98675000D03*
X131100000Y-98675000D03*
X131600000Y-98675000D03*
X132100000Y-98675000D03*
X132600000Y-98675000D03*
X133100000Y-98675000D03*
X133600000Y-98675000D03*
X134100000Y-98675000D03*
X134600000Y-98675000D03*
X135100000Y-98675000D03*
X135600000Y-98675000D03*
X136100000Y-98675000D03*
X136600000Y-98675000D03*
D25*
X138275000Y-97000000D03*
X138275000Y-96500000D03*
X138275000Y-96000000D03*
X138275000Y-95500000D03*
X138275000Y-95000000D03*
X138275000Y-94500000D03*
X138275000Y-94000000D03*
X138275000Y-93500000D03*
X138275000Y-93000000D03*
X138275000Y-92500000D03*
X138275000Y-92000000D03*
X138275000Y-91500000D03*
X138275000Y-91000000D03*
X138275000Y-90500000D03*
X138275000Y-90000000D03*
X138275000Y-89500000D03*
X138275000Y-89000000D03*
X138275000Y-88500000D03*
X138275000Y-88000000D03*
X138275000Y-87500000D03*
X138275000Y-87000000D03*
X138275000Y-86500000D03*
X138275000Y-86000000D03*
X138275000Y-85500000D03*
X138275000Y-85000000D03*
D26*
X136600000Y-83325000D03*
X136100000Y-83325000D03*
X135600000Y-83325000D03*
X135100000Y-83325000D03*
X134600000Y-83325000D03*
X134100000Y-83325000D03*
X133600000Y-83325000D03*
X133100000Y-83325000D03*
X132600000Y-83325000D03*
X132100000Y-83325000D03*
X131600000Y-83325000D03*
X131100000Y-83325000D03*
X130600000Y-83325000D03*
X130100000Y-83325000D03*
X129600000Y-83325000D03*
X129100000Y-83325000D03*
X128600000Y-83325000D03*
X128100000Y-83325000D03*
X127600000Y-83325000D03*
X127100000Y-83325000D03*
X126600000Y-83325000D03*
X126100000Y-83325000D03*
X125600000Y-83325000D03*
X125100000Y-83325000D03*
X124600000Y-83325000D03*
%TD*%
D23*
%TO.C,H6*%
X92400000Y-105000000D03*
D24*
X92400000Y-105000000D03*
%TD*%
D27*
%TO.C,C13*%
X108025000Y-90400000D03*
X109575000Y-90400000D03*
%TD*%
D28*
%TO.C,C10*%
X95850000Y-95475000D03*
X95850000Y-93925000D03*
%TD*%
D29*
%TO.C,C9*%
X96000000Y-97800000D03*
X96000000Y-99350000D03*
%TD*%
D21*
%TO.C,C25*%
X130140000Y-104030000D03*
X130140000Y-104670000D03*
%TD*%
D24*
%TO.C,H1*%
X92400000Y-78000000D03*
D23*
X92400000Y-78000000D03*
%TD*%
D21*
%TO.C,C4*%
X123388508Y-80632761D03*
X123388508Y-79992761D03*
%TD*%
D30*
%TO.C,C20*%
X138000000Y-104520000D03*
X138000000Y-103880000D03*
%TD*%
D31*
%TO.C,U3*%
X101800000Y-86000000D03*
D32*
X101725000Y-86537500D03*
D31*
X101800000Y-87075000D03*
X103500000Y-87075000D03*
D32*
X103575000Y-86537500D03*
D31*
X103500000Y-86000000D03*
%TD*%
D33*
%TO.C,U4*%
X126815000Y-103250000D03*
X126815000Y-103750000D03*
X126815000Y-104250000D03*
X126815000Y-104750000D03*
D34*
X127327500Y-104762500D03*
X127827500Y-104762500D03*
D33*
X128340000Y-104750000D03*
X128340000Y-104250000D03*
X128340000Y-103750000D03*
X128340000Y-103250000D03*
D34*
X127827500Y-103237500D03*
X127327500Y-103237500D03*
%TD*%
D35*
%TO.C,C15*%
X138025000Y-82600000D03*
X138665000Y-82600000D03*
%TD*%
%TO.C,C1*%
X120880000Y-98200000D03*
X121520000Y-98200000D03*
%TD*%
D21*
%TO.C,C26*%
X129340000Y-103230000D03*
X129340000Y-103870000D03*
%TD*%
D35*
%TO.C,C24*%
X130206567Y-103198379D03*
X130846567Y-103198379D03*
%TD*%
D24*
%TO.C,H7*%
X143400000Y-105000000D03*
D23*
X143400000Y-105000000D03*
%TD*%
D36*
%TO.C,J1*%
X97544052Y-83500000D03*
X97544052Y-84000000D03*
X97544052Y-84500000D03*
X97544052Y-85000000D03*
X97544052Y-85500000D03*
X97544052Y-86000000D03*
X97544052Y-87000000D03*
X97544052Y-87500000D03*
X97544052Y-88000000D03*
X97544052Y-88500000D03*
X97544052Y-89000000D03*
X97544052Y-89500000D03*
D37*
X96244052Y-89600000D03*
D36*
X96244052Y-88750000D03*
X96244052Y-88250000D03*
X96244052Y-87750000D03*
X96244052Y-87250000D03*
X96244052Y-86750000D03*
X96244052Y-86250000D03*
X96244052Y-85750000D03*
X96244052Y-85250000D03*
X96244052Y-84750000D03*
X96244052Y-84250000D03*
D37*
X96244052Y-83400000D03*
D38*
X97134052Y-82180000D03*
D39*
X91774052Y-82180000D03*
D38*
X97134052Y-90820000D03*
D39*
X91774052Y-90820000D03*
%TD*%
D35*
%TO.C,C2*%
X120880000Y-99000000D03*
X121520000Y-99000000D03*
%TD*%
D19*
%TO.C,FB1*%
X122920000Y-99800000D03*
X122280000Y-99800000D03*
%TD*%
D40*
%TO.C,U5*%
X132037500Y-78837500D03*
X132037500Y-79337500D03*
D41*
X132300000Y-79850000D03*
X132800000Y-79850000D03*
X133300000Y-79850000D03*
D40*
X133562500Y-79337500D03*
X133562500Y-78837500D03*
D41*
X133300000Y-78325000D03*
X132800000Y-78325000D03*
X132300000Y-78325000D03*
%TD*%
D42*
%TO.C,U2*%
X98300000Y-93300000D03*
X98300000Y-95600000D03*
D43*
X104600000Y-95600000D03*
D42*
X98300000Y-97900000D03*
%TD*%
D35*
%TO.C,C27*%
X132280000Y-77050000D03*
X132920000Y-77050000D03*
%TD*%
D27*
%TO.C,C11*%
X106545000Y-84000000D03*
X108095000Y-84000000D03*
%TD*%
%TO.C,C12*%
X109545000Y-84000000D03*
X111095000Y-84000000D03*
%TD*%
D19*
%TO.C,C6*%
X120935000Y-80790074D03*
X121575000Y-80790074D03*
%TD*%
%TO.C,C7*%
X120944925Y-81653579D03*
X121584925Y-81653579D03*
%TD*%
D35*
%TO.C,C23*%
X127920000Y-105750000D03*
X128560000Y-105750000D03*
%TD*%
D44*
%TO.C,R1*%
X106384585Y-86926910D03*
X106384585Y-88576910D03*
%TD*%
D19*
%TO.C,C22*%
X136720000Y-106400000D03*
X136080000Y-106400000D03*
%TD*%
D22*
%TO.C,C19*%
X114600000Y-92720000D03*
X114600000Y-93680000D03*
%TD*%
D21*
%TO.C,C3*%
X124388508Y-80632761D03*
X124388508Y-79992761D03*
%TD*%
D35*
%TO.C,C14*%
X138025000Y-81800000D03*
X138665000Y-81800000D03*
%TD*%
D21*
%TO.C,D1*%
X105000000Y-85680000D03*
X105000000Y-86320000D03*
%TD*%
M02*
