%TF.GenerationSoftware,KiCad,Pcbnew,8.0.6*%
%TF.CreationDate,2024-11-10T20:59:16-05:00*%
%TF.ProjectId,VanguardFlightComputer,56616e67-7561-4726-9446-6c6967687443,rev?*%
%TF.SameCoordinates,Original*%
%TF.FileFunction,Copper,L1,Top*%
%TF.FilePolarity,Positive*%
%FSLAX46Y46*%
G04 Gerber Fmt 4.6, Leading zero omitted, Abs format (unit mm)*
G04 Created by KiCad (PCBNEW 8.0.6) date 2024-11-10 20:59:16*
%MOMM*%
%LPD*%
G01*
G04 APERTURE LIST*
G04 Aperture macros list*
%AMRoundRect*
0 Rectangle with rounded corners*
0 $1 Rounding radius*
0 $2 $3 $4 $5 $6 $7 $8 $9 X,Y pos of 4 corners*
0 Add a 4 corners polygon primitive as box body*
4,1,4,$2,$3,$4,$5,$6,$7,$8,$9,$2,$3,0*
0 Add four circle primitives for the rounded corners*
1,1,$1+$1,$2,$3*
1,1,$1+$1,$4,$5*
1,1,$1+$1,$6,$7*
1,1,$1+$1,$8,$9*
0 Add four rect primitives between the rounded corners*
20,1,$1+$1,$2,$3,$4,$5,0*
20,1,$1+$1,$4,$5,$6,$7,0*
20,1,$1+$1,$6,$7,$8,$9,0*
20,1,$1+$1,$8,$9,$2,$3,0*%
G04 Aperture macros list end*
%TA.AperFunction,SMDPad,CuDef*%
%ADD10R,0.250000X0.475000*%
%TD*%
%TA.AperFunction,SMDPad,CuDef*%
%ADD11R,0.475000X0.250000*%
%TD*%
%TA.AperFunction,SMDPad,CuDef*%
%ADD12R,0.900000X1.000000*%
%TD*%
%TA.AperFunction,SMDPad,CuDef*%
%ADD13R,0.400000X0.800000*%
%TD*%
%TA.AperFunction,SMDPad,CuDef*%
%ADD14R,2.500000X1.750000*%
%TD*%
%TA.AperFunction,SMDPad,CuDef*%
%ADD15R,0.700000X0.300000*%
%TD*%
%TA.AperFunction,SMDPad,CuDef*%
%ADD16R,0.700000X1.000000*%
%TD*%
%TA.AperFunction,ComponentPad*%
%ADD17O,2.100000X1.100000*%
%TD*%
%TA.AperFunction,ComponentPad*%
%ADD18O,2.600000X1.100000*%
%TD*%
%TA.AperFunction,SMDPad,CuDef*%
%ADD19RoundRect,0.075000X-0.725000X-0.075000X0.725000X-0.075000X0.725000X0.075000X-0.725000X0.075000X0*%
%TD*%
%TA.AperFunction,SMDPad,CuDef*%
%ADD20RoundRect,0.075000X-0.075000X-0.725000X0.075000X-0.725000X0.075000X0.725000X-0.075000X0.725000X0*%
%TD*%
%TA.AperFunction,SMDPad,CuDef*%
%ADD21R,0.650000X1.050000*%
%TD*%
%TA.AperFunction,SMDPad,CuDef*%
%ADD22RoundRect,0.140000X-0.170000X0.140000X-0.170000X-0.140000X0.170000X-0.140000X0.170000X0.140000X0*%
%TD*%
%TA.AperFunction,SMDPad,CuDef*%
%ADD23RoundRect,0.140000X0.140000X0.170000X-0.140000X0.170000X-0.140000X-0.170000X0.140000X-0.170000X0*%
%TD*%
%TA.AperFunction,SMDPad,CuDef*%
%ADD24RoundRect,0.135000X-0.185000X0.135000X-0.185000X-0.135000X0.185000X-0.135000X0.185000X0.135000X0*%
%TD*%
%TA.AperFunction,ComponentPad*%
%ADD25C,2.600000*%
%TD*%
%TA.AperFunction,ConnectorPad*%
%ADD26C,3.800000*%
%TD*%
%TA.AperFunction,ComponentPad*%
%ADD27R,1.700000X1.700000*%
%TD*%
%TA.AperFunction,ComponentPad*%
%ADD28O,1.700000X1.700000*%
%TD*%
%TA.AperFunction,SMDPad,CuDef*%
%ADD29RoundRect,0.225000X-0.225000X-0.250000X0.225000X-0.250000X0.225000X0.250000X-0.225000X0.250000X0*%
%TD*%
%TA.AperFunction,SMDPad,CuDef*%
%ADD30RoundRect,0.225000X0.250000X-0.225000X0.250000X0.225000X-0.250000X0.225000X-0.250000X-0.225000X0*%
%TD*%
%TA.AperFunction,SMDPad,CuDef*%
%ADD31RoundRect,0.225000X-0.250000X0.225000X-0.250000X-0.225000X0.250000X-0.225000X0.250000X0.225000X0*%
%TD*%
%TA.AperFunction,SMDPad,CuDef*%
%ADD32RoundRect,0.135000X0.135000X0.185000X-0.135000X0.185000X-0.135000X-0.185000X0.135000X-0.185000X0*%
%TD*%
%TA.AperFunction,SMDPad,CuDef*%
%ADD33RoundRect,0.140000X0.170000X-0.140000X0.170000X0.140000X-0.170000X0.140000X-0.170000X-0.140000X0*%
%TD*%
%TA.AperFunction,SMDPad,CuDef*%
%ADD34RoundRect,0.093750X-0.156250X-0.093750X0.156250X-0.093750X0.156250X0.093750X-0.156250X0.093750X0*%
%TD*%
%TA.AperFunction,SMDPad,CuDef*%
%ADD35RoundRect,0.075000X-0.250000X-0.075000X0.250000X-0.075000X0.250000X0.075000X-0.250000X0.075000X0*%
%TD*%
%TA.AperFunction,SMDPad,CuDef*%
%ADD36R,0.375000X0.350000*%
%TD*%
%TA.AperFunction,SMDPad,CuDef*%
%ADD37R,0.350000X0.375000*%
%TD*%
%TA.AperFunction,SMDPad,CuDef*%
%ADD38RoundRect,0.140000X-0.140000X-0.170000X0.140000X-0.170000X0.140000X0.170000X-0.140000X0.170000X0*%
%TD*%
%TA.AperFunction,SMDPad,CuDef*%
%ADD39RoundRect,0.225000X0.225000X0.250000X-0.225000X0.250000X-0.225000X-0.250000X0.225000X-0.250000X0*%
%TD*%
%TA.AperFunction,SMDPad,CuDef*%
%ADD40RoundRect,0.087500X-0.125000X-0.087500X0.125000X-0.087500X0.125000X0.087500X-0.125000X0.087500X0*%
%TD*%
%TA.AperFunction,SMDPad,CuDef*%
%ADD41RoundRect,0.087500X-0.087500X-0.125000X0.087500X-0.125000X0.087500X0.125000X-0.087500X0.125000X0*%
%TD*%
%TA.AperFunction,SMDPad,CuDef*%
%ADD42RoundRect,0.375000X-0.625000X-0.375000X0.625000X-0.375000X0.625000X0.375000X-0.625000X0.375000X0*%
%TD*%
%TA.AperFunction,SMDPad,CuDef*%
%ADD43RoundRect,0.500000X-0.500000X-1.400000X0.500000X-1.400000X0.500000X1.400000X-0.500000X1.400000X0*%
%TD*%
%TA.AperFunction,SMDPad,CuDef*%
%ADD44RoundRect,0.200000X-0.275000X0.200000X-0.275000X-0.200000X0.275000X-0.200000X0.275000X0.200000X0*%
%TD*%
%TA.AperFunction,SMDPad,CuDef*%
%ADD45RoundRect,0.135000X-0.135000X-0.185000X0.135000X-0.185000X0.135000X0.185000X-0.135000X0.185000X0*%
%TD*%
%TA.AperFunction,SMDPad,CuDef*%
%ADD46RoundRect,0.147500X-0.172500X0.147500X-0.172500X-0.147500X0.172500X-0.147500X0.172500X0.147500X0*%
%TD*%
%TA.AperFunction,ViaPad*%
%ADD47C,0.600000*%
%TD*%
%TA.AperFunction,Conductor*%
%ADD48C,0.200000*%
%TD*%
%TA.AperFunction,Conductor*%
%ADD49C,0.500000*%
%TD*%
G04 APERTURE END LIST*
D10*
%TO.P,IC2,1,SDO/SA0*%
%TO.N,unconnected-(IC2-SDO{slash}SA0-Pad1)*%
X134850000Y-105163000D03*
%TO.P,IC2,2,RES_1*%
%TO.N,GND*%
X135350000Y-105163000D03*
%TO.P,IC2,3,RES_2*%
X135850000Y-105163000D03*
%TO.P,IC2,4,INT1*%
%TO.N,unconnected-(IC2-INT1-Pad4)*%
X136350000Y-105163000D03*
D11*
%TO.P,IC2,5,VDDIO*%
%TO.N,Net-(IC2-VDDIO)*%
X136512000Y-104500000D03*
%TO.P,IC2,6,GND_1*%
%TO.N,GND*%
X136512000Y-104000000D03*
%TO.P,IC2,7,GND_2*%
X136512000Y-103500000D03*
D10*
%TO.P,IC2,8,VDD*%
%TO.N,+3.3V*%
X136350000Y-102837000D03*
%TO.P,IC2,9,INT2*%
%TO.N,unconnected-(IC2-INT2-Pad9)*%
X135850000Y-102837000D03*
%TO.P,IC2,10,NC_1*%
%TO.N,unconnected-(IC2-NC_1-Pad10)*%
X135350000Y-102837000D03*
%TO.P,IC2,11,NC_2*%
%TO.N,unconnected-(IC2-NC_2-Pad11)*%
X134850000Y-102837000D03*
D11*
%TO.P,IC2,12,CS*%
%TO.N,unconnected-(IC2-CS-Pad12)*%
X134688000Y-103500000D03*
%TO.P,IC2,13,SCL*%
%TO.N,I2C1_SCL*%
X134688000Y-104000000D03*
%TO.P,IC2,14,SDA*%
%TO.N,I2C1_SDA*%
X134688000Y-104500000D03*
%TD*%
D12*
%TO.P,Y2,1,CRYSTAL_1*%
%TO.N,OSC_IN*%
X116787000Y-91375000D03*
%TO.P,Y2,2,GND_1*%
%TO.N,GND*%
X116787000Y-93025000D03*
%TO.P,Y2,3,CRYSTAL_2*%
%TO.N,OSC_OUT*%
X118013000Y-93025000D03*
%TO.P,Y2,4,GND_2*%
%TO.N,GND*%
X118013000Y-91375000D03*
%TD*%
D13*
%TO.P,IC1,1,EN*%
%TO.N,Net-(IC1-EN)*%
X108050000Y-88500000D03*
%TO.P,IC1,2,GND*%
%TO.N,GND*%
X109000000Y-88500000D03*
%TO.P,IC1,3,N.C.*%
%TO.N,unconnected-(IC1-N.C.-Pad3)*%
X109950000Y-88500000D03*
%TO.P,IC1,4,VO*%
%TO.N,+3.3V*%
X109950000Y-85500000D03*
%TO.P,IC1,5,V_O_SENSE*%
X109000000Y-85500000D03*
%TO.P,IC1,6,VI*%
%TO.N,+5V*%
X108050000Y-85500000D03*
D14*
%TO.P,IC1,7,EP*%
%TO.N,GND*%
X109000000Y-87000000D03*
%TD*%
D15*
%TO.P,J1,A1,GND*%
%TO.N,GND*%
X97544052Y-83500000D03*
%TO.P,J1,A2,TX1+*%
%TO.N,unconnected-(J1-TX1+-PadA2)*%
X97544052Y-84000000D03*
%TO.P,J1,A3,TX1-*%
%TO.N,unconnected-(J1-TX1--PadA3)*%
X97544052Y-84500000D03*
%TO.P,J1,A4,VBUS*%
%TO.N,VBUS*%
X97544052Y-85000000D03*
%TO.P,J1,A5,CC1*%
%TO.N,unconnected-(J1-CC1-PadA5)*%
X97544052Y-85500000D03*
%TO.P,J1,A6,D+*%
%TO.N,Net-(J1-D+-PadA6)*%
X97544052Y-86000000D03*
%TO.P,J1,A7,D-*%
%TO.N,Net-(J1-D--PadA7)*%
X97544052Y-87000000D03*
%TO.P,J1,A8,SBU1*%
%TO.N,unconnected-(J1-SBU1-PadA8)*%
X97544052Y-87500000D03*
%TO.P,J1,A9,VBUS*%
%TO.N,VBUS*%
X97544052Y-88000000D03*
%TO.P,J1,A10,RX2-*%
%TO.N,unconnected-(J1-RX2--PadA10)*%
X97544052Y-88500000D03*
%TO.P,J1,A11,RX2+*%
%TO.N,unconnected-(J1-RX2+-PadA11)*%
X97544052Y-89000000D03*
%TO.P,J1,A12,GND*%
%TO.N,GND*%
X97544052Y-89500000D03*
D16*
%TO.P,J1,B1,GND*%
X96244052Y-89600000D03*
D15*
%TO.P,J1,B2,TX2+*%
%TO.N,unconnected-(J1-TX2+-PadB2)*%
X96244052Y-88750000D03*
%TO.P,J1,B3,TX2-*%
%TO.N,unconnected-(J1-TX2--PadB3)*%
X96244052Y-88250000D03*
%TO.P,J1,B4,VBUS*%
%TO.N,VBUS*%
X96244052Y-87750000D03*
%TO.P,J1,B5,CC2*%
%TO.N,unconnected-(J1-CC2-PadB5)*%
X96244052Y-87250000D03*
%TO.P,J1,B6,D+*%
%TO.N,Net-(J1-D+-PadA6)*%
X96244052Y-86750000D03*
%TO.P,J1,B7,D-*%
%TO.N,Net-(J1-D--PadA7)*%
X96244052Y-86250000D03*
%TO.P,J1,B8,SBU2*%
%TO.N,unconnected-(J1-SBU2-PadB8)*%
X96244052Y-85750000D03*
%TO.P,J1,B9,VBUS*%
%TO.N,VBUS*%
X96244052Y-85250000D03*
%TO.P,J1,B10,RX1-*%
%TO.N,unconnected-(J1-RX1--PadB10)*%
X96244052Y-84750000D03*
%TO.P,J1,B11,RX1+*%
%TO.N,unconnected-(J1-RX1+-PadB11)*%
X96244052Y-84250000D03*
D16*
%TO.P,J1,B12,GND*%
%TO.N,GND*%
X96244052Y-83400000D03*
D17*
%TO.P,J1,S1,SHIELD*%
X97134052Y-82180000D03*
D18*
X91774052Y-82180000D03*
D17*
X97134052Y-90820000D03*
D18*
X91774052Y-90820000D03*
%TD*%
D19*
%TO.P,U6,1,PE2*%
%TO.N,unconnected-(U6-PE2-Pad1)*%
X122923863Y-85000000D03*
%TO.P,U6,2,PE3*%
%TO.N,unconnected-(U6-PE3-Pad2)*%
X122923863Y-85500000D03*
%TO.P,U6,3,PE4*%
%TO.N,unconnected-(U6-PE4-Pad3)*%
X122923863Y-86000000D03*
%TO.P,U6,4,PE5*%
%TO.N,unconnected-(U6-PE5-Pad4)*%
X122923863Y-86500000D03*
%TO.P,U6,5,PE6*%
%TO.N,unconnected-(U6-PE6-Pad5)*%
X122923863Y-87000000D03*
%TO.P,U6,6,VBAT*%
%TO.N,+3.3V*%
X122923863Y-87500000D03*
%TO.P,U6,7,PC13*%
%TO.N,unconnected-(U6-PC13-Pad7)*%
X122923863Y-88000000D03*
%TO.P,U6,8,PC14*%
%TO.N,OSC32_IN*%
X122923863Y-88500000D03*
%TO.P,U6,9,PC15*%
%TO.N,OSC32_OUT*%
X122923863Y-89000000D03*
%TO.P,U6,10,VSS*%
%TO.N,GND*%
X122923863Y-89500000D03*
%TO.P,U6,11,VDD*%
%TO.N,+3.3V*%
X122923863Y-90000000D03*
%TO.P,U6,12,PH0*%
%TO.N,OSC_IN*%
X122923863Y-90500000D03*
%TO.P,U6,13,PH1*%
%TO.N,OSC_OUT*%
X122923863Y-91000000D03*
%TO.P,U6,14,NRST*%
%TO.N,RST*%
X122923863Y-91500000D03*
%TO.P,U6,15,PC0*%
%TO.N,unconnected-(U6-PC0-Pad15)*%
X122923863Y-92000000D03*
%TO.P,U6,16,PC1*%
%TO.N,unconnected-(U6-PC1-Pad16)*%
X122923863Y-92500000D03*
%TO.P,U6,17,PC2_C*%
%TO.N,unconnected-(U6-PC2_C-Pad17)*%
X122923863Y-93000000D03*
%TO.P,U6,18,PC3_C*%
%TO.N,unconnected-(U6-PC3_C-Pad18)*%
X122923863Y-93500000D03*
%TO.P,U6,19,VSSA*%
%TO.N,GND*%
X122923863Y-94000000D03*
%TO.P,U6,20,VREF+*%
%TO.N,+3.3V*%
X122923863Y-94500000D03*
%TO.P,U6,21,VDDA*%
%TO.N,Net-(U6-VDDA)*%
X122923863Y-95000000D03*
%TO.P,U6,22,PA0*%
%TO.N,TELEM_CS*%
X122923863Y-95500000D03*
%TO.P,U6,23,PA1*%
%TO.N,unconnected-(U6-PA1-Pad23)*%
X122923863Y-96000000D03*
%TO.P,U6,24,PA2*%
%TO.N,unconnected-(U6-PA2-Pad24)*%
X122923863Y-96500000D03*
%TO.P,U6,25,PA3*%
%TO.N,unconnected-(U6-PA3-Pad25)*%
X122923863Y-97000000D03*
D20*
%TO.P,U6,26,VSS*%
%TO.N,GND*%
X124598863Y-98675000D03*
%TO.P,U6,27,VDD*%
%TO.N,+3.3V*%
X125098863Y-98675000D03*
%TO.P,U6,28,PA4*%
%TO.N,SD_CS*%
X125598863Y-98675000D03*
%TO.P,U6,29,PA5*%
%TO.N,SPI1_SCK*%
X126098863Y-98675000D03*
%TO.P,U6,30,PA6*%
%TO.N,SPI1_MISO*%
X126598863Y-98675000D03*
%TO.P,U6,31,PA7*%
%TO.N,SPI1_MOSI*%
X127098863Y-98675000D03*
%TO.P,U6,32,PC4*%
%TO.N,unconnected-(U6-PC4-Pad32)*%
X127598863Y-98675000D03*
%TO.P,U6,33,PC5*%
%TO.N,unconnected-(U6-PC5-Pad33)*%
X128098863Y-98675000D03*
%TO.P,U6,34,PB0*%
%TO.N,unconnected-(U6-PB0-Pad34)*%
X128598863Y-98675000D03*
%TO.P,U6,35,PB1*%
%TO.N,unconnected-(U6-PB1-Pad35)*%
X129098863Y-98675000D03*
%TO.P,U6,36,PB2*%
%TO.N,unconnected-(U6-PB2-Pad36)*%
X129598863Y-98675000D03*
%TO.P,U6,37,PE7*%
%TO.N,unconnected-(U6-PE7-Pad37)*%
X130098863Y-98675000D03*
%TO.P,U6,38,PE8*%
%TO.N,unconnected-(U6-PE8-Pad38)*%
X130598863Y-98675000D03*
%TO.P,U6,39,PE9*%
%TO.N,unconnected-(U6-PE9-Pad39)*%
X131098863Y-98675000D03*
%TO.P,U6,40,PE10*%
%TO.N,unconnected-(U6-PE10-Pad40)*%
X131598863Y-98675000D03*
%TO.P,U6,41,PE11*%
%TO.N,unconnected-(U6-PE11-Pad41)*%
X132098863Y-98675000D03*
%TO.P,U6,42,PE12*%
%TO.N,unconnected-(U6-PE12-Pad42)*%
X132598863Y-98675000D03*
%TO.P,U6,43,PE13*%
%TO.N,unconnected-(U6-PE13-Pad43)*%
X133098863Y-98675000D03*
%TO.P,U6,44,PE14*%
%TO.N,unconnected-(U6-PE14-Pad44)*%
X133598863Y-98675000D03*
%TO.P,U6,45,PE15*%
%TO.N,unconnected-(U6-PE15-Pad45)*%
X134098863Y-98675000D03*
%TO.P,U6,46,PB10*%
%TO.N,unconnected-(U6-PB10-Pad46)*%
X134598863Y-98675000D03*
%TO.P,U6,47,PB11*%
%TO.N,unconnected-(U6-PB11-Pad47)*%
X135098863Y-98675000D03*
%TO.P,U6,48,VCAP*%
%TO.N,Net-(C14-Pad1)*%
X135598863Y-98675000D03*
%TO.P,U6,49,VSS*%
%TO.N,GND*%
X136098863Y-98675000D03*
%TO.P,U6,50,VDD*%
%TO.N,+3.3V*%
X136598863Y-98675000D03*
D19*
%TO.P,U6,51,PB12*%
%TO.N,unconnected-(U6-PB12-Pad51)*%
X138273863Y-97000000D03*
%TO.P,U6,52,PB13*%
%TO.N,unconnected-(U6-PB13-Pad52)*%
X138273863Y-96500000D03*
%TO.P,U6,53,PB14*%
%TO.N,unconnected-(U6-PB14-Pad53)*%
X138273863Y-96000000D03*
%TO.P,U6,54,PB15*%
%TO.N,unconnected-(U6-PB15-Pad54)*%
X138273863Y-95500000D03*
%TO.P,U6,55,PD8*%
%TO.N,unconnected-(U6-PD8-Pad55)*%
X138273863Y-95000000D03*
%TO.P,U6,56,PD9*%
%TO.N,unconnected-(U6-PD9-Pad56)*%
X138273863Y-94500000D03*
%TO.P,U6,57,PD10*%
%TO.N,unconnected-(U6-PD10-Pad57)*%
X138273863Y-94000000D03*
%TO.P,U6,58,PD11*%
%TO.N,unconnected-(U6-PD11-Pad58)*%
X138273863Y-93500000D03*
%TO.P,U6,59,PD12*%
%TO.N,unconnected-(U6-PD12-Pad59)*%
X138273863Y-93000000D03*
%TO.P,U6,60,PD13*%
%TO.N,unconnected-(U6-PD13-Pad60)*%
X138273863Y-92500000D03*
%TO.P,U6,61,PD14*%
%TO.N,unconnected-(U6-PD14-Pad61)*%
X138273863Y-92000000D03*
%TO.P,U6,62,PD15*%
%TO.N,unconnected-(U6-PD15-Pad62)*%
X138273863Y-91500000D03*
%TO.P,U6,63,PC6*%
%TO.N,unconnected-(U6-PC6-Pad63)*%
X138273863Y-91000000D03*
%TO.P,U6,64,PC7*%
%TO.N,unconnected-(U6-PC7-Pad64)*%
X138273863Y-90500000D03*
%TO.P,U6,65,PC8*%
%TO.N,unconnected-(U6-PC8-Pad65)*%
X138273863Y-90000000D03*
%TO.P,U6,66,PC9*%
%TO.N,unconnected-(U6-PC9-Pad66)*%
X138273863Y-89500000D03*
%TO.P,U6,67,PA8*%
%TO.N,unconnected-(U6-PA8-Pad67)*%
X138273863Y-89000000D03*
%TO.P,U6,68,PA9*%
%TO.N,unconnected-(U6-PA9-Pad68)*%
X138273863Y-88500000D03*
%TO.P,U6,69,PA10*%
%TO.N,unconnected-(U6-PA10-Pad69)*%
X138273863Y-88000000D03*
%TO.P,U6,70,PA11*%
%TO.N,USB_DM*%
X138273863Y-87500000D03*
%TO.P,U6,71,PA12*%
%TO.N,USB_DP*%
X138273863Y-87000000D03*
%TO.P,U6,72,PA13*%
%TO.N,SWDIO*%
X138273863Y-86500000D03*
%TO.P,U6,73,VCAP*%
%TO.N,Net-(C14-Pad1)*%
X138273863Y-86000000D03*
%TO.P,U6,74,VSS*%
%TO.N,GND*%
X138273863Y-85500000D03*
%TO.P,U6,75,VDD*%
%TO.N,+3.3V*%
X138273863Y-85000000D03*
D20*
%TO.P,U6,76,PA14*%
%TO.N,SWCLK*%
X136598863Y-83325000D03*
%TO.P,U6,77,PA15*%
%TO.N,unconnected-(U6-PA15-Pad77)*%
X136098863Y-83325000D03*
%TO.P,U6,78,PC10*%
%TO.N,unconnected-(U6-PC10-Pad78)*%
X135598863Y-83325000D03*
%TO.P,U6,79,PC11*%
%TO.N,unconnected-(U6-PC11-Pad79)*%
X135098863Y-83325000D03*
%TO.P,U6,80,PC12*%
%TO.N,unconnected-(U6-PC12-Pad80)*%
X134598863Y-83325000D03*
%TO.P,U6,81,PD0*%
%TO.N,unconnected-(U6-PD0-Pad81)*%
X134098863Y-83325000D03*
%TO.P,U6,82,PD1*%
%TO.N,unconnected-(U6-PD1-Pad82)*%
X133598863Y-83325000D03*
%TO.P,U6,83,PD2*%
%TO.N,unconnected-(U6-PD2-Pad83)*%
X133098863Y-83325000D03*
%TO.P,U6,84,PD3*%
%TO.N,unconnected-(U6-PD3-Pad84)*%
X132598863Y-83325000D03*
%TO.P,U6,85,PD4*%
%TO.N,unconnected-(U6-PD4-Pad85)*%
X132098863Y-83325000D03*
%TO.P,U6,86,PD5*%
%TO.N,unconnected-(U6-PD5-Pad86)*%
X131598863Y-83325000D03*
%TO.P,U6,87,PD6*%
%TO.N,unconnected-(U6-PD6-Pad87)*%
X131098863Y-83325000D03*
%TO.P,U6,88,PD7*%
%TO.N,unconnected-(U6-PD7-Pad88)*%
X130598863Y-83325000D03*
%TO.P,U6,89,PB3*%
%TO.N,unconnected-(U6-PB3-Pad89)*%
X130098863Y-83325000D03*
%TO.P,U6,90,PB4*%
%TO.N,unconnected-(U6-PB4-Pad90)*%
X129598863Y-83325000D03*
%TO.P,U6,91,PB5*%
%TO.N,unconnected-(U6-PB5-Pad91)*%
X129098863Y-83325000D03*
%TO.P,U6,92,PB6*%
%TO.N,I2C1_SCL*%
X128598863Y-83325000D03*
%TO.P,U6,93,PB7*%
%TO.N,I2C1_SDA*%
X128098863Y-83325000D03*
%TO.P,U6,94,BOOT0*%
%TO.N,BOOT0*%
X127598863Y-83325000D03*
%TO.P,U6,95,PB8*%
%TO.N,SERVO_4_PWM*%
X127098863Y-83325000D03*
%TO.P,U6,96,PB9*%
%TO.N,SERVO_3_PWM*%
X126598863Y-83325000D03*
%TO.P,U6,97,PE0*%
%TO.N,SERVO_2_PWM*%
X126098863Y-83325000D03*
%TO.P,U6,98,PE1*%
%TO.N,SERVO_1_PWM*%
X125598863Y-83325000D03*
%TO.P,U6,99,VSS*%
%TO.N,GND*%
X125098863Y-83325000D03*
%TO.P,U6,100,VDD*%
%TO.N,+3.3V*%
X124598863Y-83325000D03*
%TD*%
D21*
%TO.P,SW1,1,1*%
%TO.N,GND*%
X101325000Y-106475000D03*
X101325000Y-102325000D03*
%TO.P,SW1,2,2*%
%TO.N,RST*%
X103475000Y-106475000D03*
X103475000Y-102325000D03*
%TD*%
D22*
%TO.P,C5,1*%
%TO.N,+3.3V*%
X121438400Y-79969329D03*
%TO.P,C5,2*%
%TO.N,GND*%
X121438400Y-80929329D03*
%TD*%
%TO.P,C21,1*%
%TO.N,Net-(IC2-VDDIO)*%
X138600000Y-105520000D03*
%TO.P,C21,2*%
%TO.N,GND*%
X138600000Y-106480000D03*
%TD*%
D23*
%TO.P,C8,1*%
%TO.N,+3.3V*%
X120400000Y-80000000D03*
%TO.P,C8,2*%
%TO.N,GND*%
X119440000Y-80000000D03*
%TD*%
D22*
%TO.P,C18,1*%
%TO.N,GND*%
X114600000Y-90420000D03*
%TO.P,C18,2*%
%TO.N,OSC_IN*%
X114600000Y-91380000D03*
%TD*%
D24*
%TO.P,R10,1*%
%TO.N,SWCLK*%
X141800000Y-83490000D03*
%TO.P,R10,2*%
%TO.N,Net-(J5-Pin_2)*%
X141800000Y-84510000D03*
%TD*%
D25*
%TO.P,H5,1*%
%TO.N,N/C*%
X143500000Y-78000000D03*
D26*
X143500000Y-78000000D03*
%TD*%
D27*
%TO.P,J5,1,Pin_1*%
%TO.N,GND*%
X144200000Y-82000000D03*
D28*
%TO.P,J5,2,Pin_2*%
%TO.N,Net-(J5-Pin_2)*%
X144200000Y-84540000D03*
%TO.P,J5,3,Pin_3*%
%TO.N,Net-(J5-Pin_3)*%
X144200000Y-87080000D03*
%TO.P,J5,4,Pin_4*%
%TO.N,+3.3V*%
X144200000Y-89620000D03*
%TD*%
D25*
%TO.P,H6,1*%
%TO.N,N/C*%
X92500000Y-105000000D03*
D26*
X92500000Y-105000000D03*
%TD*%
D29*
%TO.P,C13,1*%
%TO.N,Net-(IC1-EN)*%
X108025000Y-90400000D03*
%TO.P,C13,2*%
%TO.N,GND*%
X109575000Y-90400000D03*
%TD*%
D30*
%TO.P,C10,1*%
%TO.N,+5V*%
X95850000Y-95475000D03*
%TO.P,C10,2*%
%TO.N,GND*%
X95850000Y-93925000D03*
%TD*%
D23*
%TO.P,C30,1*%
%TO.N,RST*%
X103480000Y-100800000D03*
%TO.P,C30,2*%
%TO.N,GND*%
X102520000Y-100800000D03*
%TD*%
D31*
%TO.P,C9,1*%
%TO.N,VIN*%
X96000000Y-97800000D03*
%TO.P,C9,2*%
%TO.N,GND*%
X96000000Y-99350000D03*
%TD*%
D27*
%TO.P,J6,1,Pin_1*%
%TO.N,I2C1_SDA*%
X136325000Y-77400000D03*
D28*
%TO.P,J6,2,Pin_2*%
%TO.N,I2C1_SCL*%
X138865000Y-77400000D03*
%TD*%
D22*
%TO.P,C25,1*%
%TO.N,+3.3V*%
X130200000Y-104320000D03*
%TO.P,C25,2*%
%TO.N,GND*%
X130200000Y-105280000D03*
%TD*%
D26*
%TO.P,H1,1*%
%TO.N,N/C*%
X92500000Y-78000000D03*
D25*
X92500000Y-78000000D03*
%TD*%
D22*
%TO.P,C4,1*%
%TO.N,+3.3V*%
X122361017Y-79968433D03*
%TO.P,C4,2*%
%TO.N,GND*%
X122361017Y-80928433D03*
%TD*%
D32*
%TO.P,R8,1*%
%TO.N,BOOT0*%
X99310000Y-100800000D03*
%TO.P,R8,2*%
%TO.N,GND*%
X98290000Y-100800000D03*
%TD*%
D24*
%TO.P,R9,1*%
%TO.N,SWDIO*%
X141800000Y-86090000D03*
%TO.P,R9,2*%
%TO.N,Net-(J5-Pin_3)*%
X141800000Y-87110000D03*
%TD*%
D33*
%TO.P,C20,1*%
%TO.N,Net-(IC2-VDDIO)*%
X138600000Y-104480000D03*
%TO.P,C20,2*%
%TO.N,GND*%
X138600000Y-103520000D03*
%TD*%
D34*
%TO.P,U3,1,I/O1*%
%TO.N,Net-(J1-D--PadA7)*%
X101800000Y-86000000D03*
D35*
%TO.P,U3,2,GND*%
%TO.N,GND*%
X101725000Y-86537500D03*
D34*
%TO.P,U3,3,I/O2*%
%TO.N,Net-(J1-D+-PadA6)*%
X101800000Y-87075000D03*
%TO.P,U3,4,I/O2*%
%TO.N,USB_DP*%
X103500000Y-87075000D03*
D35*
%TO.P,U3,5,VBUS*%
%TO.N,VBUS*%
X103575000Y-86537500D03*
D34*
%TO.P,U3,6,I/O1*%
%TO.N,USB_DM*%
X103500000Y-86000000D03*
%TD*%
D36*
%TO.P,U4,1,SCL/SPC*%
%TO.N,I2C1_SCL*%
X126287500Y-103212500D03*
%TO.P,U4,2,CS_XL*%
%TO.N,unconnected-(U4-CS_XL-Pad2)*%
X126287500Y-103712500D03*
%TO.P,U4,3,CS_MAG*%
%TO.N,unconnected-(U4-CS_MAG-Pad3)*%
X126287500Y-104212500D03*
%TO.P,U4,4,SDA/SDI/SDO*%
%TO.N,I2C1_SDA*%
X126287500Y-104712500D03*
D37*
%TO.P,U4,5,C1*%
%TO.N,Net-(U4-C1)*%
X126800000Y-104725000D03*
%TO.P,U4,6,GND*%
%TO.N,GND*%
X127300000Y-104725000D03*
D36*
%TO.P,U4,7,INT_MAG*%
%TO.N,unconnected-(U4-INT_MAG-Pad7)*%
X127812500Y-104712500D03*
%TO.P,U4,8,GND*%
%TO.N,GND*%
X127812500Y-104212500D03*
%TO.P,U4,9,VDD*%
%TO.N,+3.3V*%
X127812500Y-103712500D03*
%TO.P,U4,10,VDDIO*%
X127812500Y-103212500D03*
D37*
%TO.P,U4,11,DRDY_MAG*%
%TO.N,unconnected-(U4-DRDY_MAG-Pad11)*%
X127300000Y-103200000D03*
%TO.P,U4,12,INT_XL*%
%TO.N,unconnected-(U4-INT_XL-Pad12)*%
X126800000Y-103200000D03*
%TD*%
D38*
%TO.P,C15,2*%
%TO.N,GND*%
X138825000Y-82800000D03*
%TO.P,C15,1*%
%TO.N,Net-(C14-Pad1)*%
X137865000Y-82800000D03*
%TD*%
%TO.P,C1,2*%
%TO.N,GND*%
X121880000Y-98000000D03*
%TO.P,C1,1*%
%TO.N,Net-(U6-VDDA)*%
X120920000Y-98000000D03*
%TD*%
D22*
%TO.P,C26,1*%
%TO.N,+3.3V*%
X129000000Y-103120000D03*
%TO.P,C26,2*%
%TO.N,GND*%
X129000000Y-104080000D03*
%TD*%
D38*
%TO.P,C24,1*%
%TO.N,+3.3V*%
X130046567Y-103198379D03*
%TO.P,C24,2*%
%TO.N,GND*%
X131006567Y-103198379D03*
%TD*%
D27*
%TO.P,J8,1,Pin_1*%
%TO.N,VIN*%
X92400000Y-97675000D03*
D28*
%TO.P,J8,2,Pin_2*%
%TO.N,GND*%
X92400000Y-95135000D03*
%TD*%
D26*
%TO.P,H7,1*%
%TO.N,N/C*%
X143500000Y-105000000D03*
D25*
X143500000Y-105000000D03*
%TD*%
D38*
%TO.P,C2,2*%
%TO.N,GND*%
X121880000Y-99200000D03*
%TO.P,C2,1*%
%TO.N,Net-(U6-VDDA)*%
X120920000Y-99200000D03*
%TD*%
D39*
%TO.P,FB1,2*%
%TO.N,Net-(U6-VDDA)*%
X121425000Y-100600000D03*
%TO.P,FB1,1*%
%TO.N,+3.3V*%
X122975000Y-100600000D03*
%TD*%
D40*
%TO.P,U5,1,Vdd_IO*%
%TO.N,+3.3V*%
X132037500Y-78837500D03*
%TO.P,U5,2,SCL*%
%TO.N,I2C1_SCL*%
X132037500Y-79337500D03*
D41*
%TO.P,U5,3,GND*%
%TO.N,GND*%
X132300000Y-79850000D03*
%TO.P,U5,4,SDA*%
%TO.N,I2C1_SDA*%
X132800000Y-79850000D03*
%TO.P,U5,5,SA0*%
%TO.N,unconnected-(U5-SA0-Pad5)*%
X133300000Y-79850000D03*
D40*
%TO.P,U5,6,~{CS}*%
%TO.N,+3.3V*%
X133562500Y-79337500D03*
%TO.P,U5,7,INT_DRDY*%
%TO.N,unconnected-(U5-INT_DRDY-Pad7)*%
X133562500Y-78837500D03*
D41*
%TO.P,U5,8,GND*%
%TO.N,GND*%
X133300000Y-78325000D03*
%TO.P,U5,9,GND*%
X132800000Y-78325000D03*
%TO.P,U5,10,VDD*%
%TO.N,+3.3V*%
X132300000Y-78325000D03*
%TD*%
D27*
%TO.P,J7,1,Pin_1*%
%TO.N,SERVO_1_PWM*%
X120780000Y-77000000D03*
D28*
%TO.P,J7,2,Pin_2*%
%TO.N,SERVO_2_PWM*%
X123320000Y-77000000D03*
%TO.P,J7,3,Pin_3*%
%TO.N,SERVO_3_PWM*%
X125860000Y-77000000D03*
%TO.P,J7,4,Pin_4*%
%TO.N,SERVO_4_PWM*%
X128400000Y-77000000D03*
%TD*%
D42*
%TO.P,U2,1,GND*%
%TO.N,GND*%
X98300000Y-93300000D03*
%TO.P,U2,2,VO*%
%TO.N,+5V*%
X98300000Y-95600000D03*
D43*
X104600000Y-95600000D03*
D42*
%TO.P,U2,3,VI*%
%TO.N,VIN*%
X98300000Y-97900000D03*
%TD*%
D38*
%TO.P,C27,1*%
%TO.N,+3.3V*%
X132320000Y-77050000D03*
%TO.P,C27,2*%
%TO.N,GND*%
X133280000Y-77050000D03*
%TD*%
%TO.P,C11,1*%
%TO.N,+5V*%
X107120000Y-84200000D03*
%TO.P,C11,2*%
%TO.N,GND*%
X108080000Y-84200000D03*
%TD*%
%TO.P,C12,1*%
%TO.N,+3.3V*%
X109520000Y-84000000D03*
%TO.P,C12,2*%
%TO.N,GND*%
X110480000Y-84000000D03*
%TD*%
D23*
%TO.P,C6,1*%
%TO.N,+3.3V*%
X120400000Y-80990074D03*
%TO.P,C6,2*%
%TO.N,GND*%
X119440000Y-80990074D03*
%TD*%
%TO.P,C7,1*%
%TO.N,+3.3V*%
X120400000Y-82000000D03*
%TO.P,C7,2*%
%TO.N,GND*%
X119440000Y-82000000D03*
%TD*%
D38*
%TO.P,C23,1*%
%TO.N,Net-(U4-C1)*%
X127232500Y-106000000D03*
%TO.P,C23,2*%
%TO.N,GND*%
X128192500Y-106000000D03*
%TD*%
D44*
%TO.P,R1,1*%
%TO.N,+5V*%
X106384585Y-86926910D03*
%TO.P,R1,2*%
%TO.N,Net-(IC1-EN)*%
X106384585Y-88576910D03*
%TD*%
D21*
%TO.P,SW2,1,1*%
%TO.N,BOOT0*%
X99275000Y-102325000D03*
X99275000Y-106475000D03*
%TO.P,SW2,2,2*%
%TO.N,+3.3V*%
X97125000Y-102325000D03*
X97125000Y-106475000D03*
%TD*%
D22*
%TO.P,C22,1*%
%TO.N,Net-(IC2-VDDIO)*%
X139800000Y-105520000D03*
%TO.P,C22,2*%
%TO.N,GND*%
X139800000Y-106480000D03*
%TD*%
%TO.P,C19,1*%
%TO.N,GND*%
X114600000Y-92720000D03*
%TO.P,C19,2*%
%TO.N,OSC_OUT*%
X114600000Y-93680000D03*
%TD*%
%TO.P,C3,1*%
%TO.N,+3.3V*%
X123361017Y-79968433D03*
%TO.P,C3,2*%
%TO.N,GND*%
X123361017Y-80928433D03*
%TD*%
D38*
%TO.P,C14,2*%
%TO.N,GND*%
X138825000Y-81600000D03*
%TO.P,C14,1*%
%TO.N,Net-(C14-Pad1)*%
X137865000Y-81600000D03*
%TD*%
D45*
%TO.P,R2,1*%
%TO.N,+3.3V*%
X129290000Y-80200000D03*
%TO.P,R2,2*%
%TO.N,I2C1_SCL*%
X130310000Y-80200000D03*
%TD*%
D46*
%TO.P,D1,1,K*%
%TO.N,+5V*%
X105000000Y-85515000D03*
%TO.P,D1,2,A*%
%TO.N,VBUS*%
X105000000Y-86485000D03*
%TD*%
D24*
%TO.P,R3,1*%
%TO.N,+3.3V*%
X134800000Y-79890000D03*
%TO.P,R3,2*%
%TO.N,I2C1_SDA*%
X134800000Y-80910000D03*
%TD*%
D47*
%TO.N,GND*%
X112750000Y-98500000D03*
X112750000Y-100500000D03*
X112750000Y-102250000D03*
X109750000Y-100500000D03*
X109750000Y-98500000D03*
X109750000Y-96250000D03*
X109750000Y-78000000D03*
X104500000Y-78000000D03*
X107000000Y-78000000D03*
X109750000Y-80000000D03*
X107000000Y-80000000D03*
X104500000Y-80000000D03*
X104500000Y-82750000D03*
X107000000Y-82750000D03*
X141750000Y-89750000D03*
X141750000Y-88250000D03*
X144000000Y-91750000D03*
X98500000Y-80000000D03*
X96500000Y-80000000D03*
X96500000Y-77500000D03*
X140500000Y-98750000D03*
X140500000Y-97000000D03*
X140500000Y-95250000D03*
X145200000Y-98750000D03*
X142750000Y-98750000D03*
X115750000Y-102250000D03*
X115750000Y-100500000D03*
X115750000Y-98500000D03*
X115750000Y-96250000D03*
X118750000Y-98500000D03*
X118750000Y-96250000D03*
X94750000Y-101000000D03*
X94750000Y-92750000D03*
X134200000Y-100400000D03*
X125000000Y-92800000D03*
X100800000Y-101000000D03*
X116000000Y-76600000D03*
X117400000Y-83400000D03*
X106500000Y-100875000D03*
X129090000Y-105400000D03*
X111200000Y-89800000D03*
X139800000Y-103000000D03*
X134000000Y-76300000D03*
X132000000Y-103800000D03*
X125250000Y-84800000D03*
X123400000Y-98800000D03*
X99400000Y-83000000D03*
X100166840Y-87100000D03*
X139800000Y-84600000D03*
X120200000Y-89800000D03*
X131200000Y-80600000D03*
%TO.N,+3.3V*%
X101400000Y-89800000D03*
X138600000Y-100600000D03*
X138800000Y-83800000D03*
X124500000Y-94500000D03*
X98800000Y-77800000D03*
X129400000Y-102250000D03*
X130775000Y-77725000D03*
X95628539Y-105997203D03*
X124600000Y-81800000D03*
X124800000Y-90600000D03*
X109200000Y-82800000D03*
%TO.N,VBUS*%
X100000000Y-85000000D03*
X99211768Y-87626899D03*
%TO.N,USB_DM*%
X136524265Y-87124265D03*
X104000000Y-85000000D03*
%TO.N,USB_DP*%
X104000000Y-88200000D03*
X139800000Y-87400000D03*
%TO.N,I2C1_SDA*%
X128025000Y-100200000D03*
X128100000Y-85400000D03*
X130600000Y-81400000D03*
X128025000Y-93000000D03*
%TO.N,I2C1_SCL*%
X131085642Y-101650000D03*
X130875000Y-93075000D03*
X129400000Y-86200000D03*
%TO.N,SPI1_MISO*%
X115600000Y-105800000D03*
%TO.N,SPI1_MOSI*%
X118800000Y-101500000D03*
X116200000Y-106400000D03*
X118650000Y-104000000D03*
%TO.N,SPI1_SCK*%
X114250000Y-105200000D03*
X108624265Y-105175735D03*
%TO.N,SD_CS*%
X105975735Y-104224265D03*
%TO.N,TELEM_CS*%
X124400000Y-96000000D03*
%TO.N,BOOT0*%
X126400000Y-89200000D03*
X112600000Y-91000000D03*
%TD*%
D48*
%TO.N,SPI1_MOSI*%
X118750000Y-103900000D02*
X118650000Y-104000000D01*
X118750000Y-101550000D02*
X118750000Y-103900000D01*
X118800000Y-101500000D02*
X118750000Y-101550000D01*
%TO.N,SPI1_SCK*%
X126098863Y-98676137D02*
X126100000Y-98675000D01*
X126098863Y-100101137D02*
X126098863Y-98676137D01*
X121000000Y-105200000D02*
X126098863Y-100101137D01*
X114250000Y-105200000D02*
X121000000Y-105200000D01*
%TO.N,SD_CS*%
X125598863Y-99801137D02*
X125598863Y-98676137D01*
X120800000Y-104600000D02*
X125598863Y-99801137D01*
X108897059Y-104600000D02*
X120800000Y-104600000D01*
X125598863Y-98676137D02*
X125600000Y-98675000D01*
X108521324Y-104224265D02*
X108897059Y-104600000D01*
X105975735Y-104224265D02*
X108521324Y-104224265D01*
%TO.N,+3.3V*%
X125100000Y-95100000D02*
X124500000Y-94500000D01*
X125100000Y-98673863D02*
X125100000Y-95100000D01*
X125098863Y-99508547D02*
X125098863Y-98675000D01*
X124007410Y-100600000D02*
X125098863Y-99508547D01*
X125098863Y-98675000D02*
X125100000Y-98673863D01*
X122975000Y-100600000D02*
X124007410Y-100600000D01*
%TO.N,Net-(U6-VDDA)*%
X121671295Y-95000000D02*
X122925000Y-95000000D01*
X120920000Y-95751295D02*
X121671295Y-95000000D01*
X120920000Y-98000000D02*
X120920000Y-95751295D01*
%TO.N,GND*%
X124151471Y-94000000D02*
X122925000Y-94000000D01*
X125000000Y-93151471D02*
X124151471Y-94000000D01*
X125000000Y-92800000D02*
X125000000Y-93151471D01*
%TO.N,OSC_IN*%
X117500000Y-90500000D02*
X122925000Y-90500000D01*
X116787000Y-91213000D02*
X117500000Y-90500000D01*
X116787000Y-91375000D02*
X116787000Y-91213000D01*
%TO.N,RST*%
X121100000Y-91500000D02*
X122925000Y-91500000D01*
X117800000Y-94800000D02*
X121100000Y-91500000D01*
X109665000Y-94800000D02*
X117800000Y-94800000D01*
X103665000Y-100800000D02*
X109665000Y-94800000D01*
X103625000Y-100800000D02*
X103665000Y-100800000D01*
%TO.N,OSC_OUT*%
X120038000Y-91000000D02*
X122923863Y-91000000D01*
X118013000Y-93025000D02*
X120038000Y-91000000D01*
%TO.N,+3.3V*%
X123756273Y-87500000D02*
X122923863Y-87500000D01*
X124800000Y-88543727D02*
X123756273Y-87500000D01*
X124800000Y-90600000D02*
X124800000Y-88543727D01*
X124800000Y-90600000D02*
X124200000Y-90000000D01*
X124200000Y-90000000D02*
X122925000Y-90000000D01*
%TO.N,GND*%
X120500000Y-89500000D02*
X122925000Y-89500000D01*
X120200000Y-89800000D02*
X120500000Y-89500000D01*
X125098863Y-83326137D02*
X125100000Y-83325000D01*
X125098863Y-84648863D02*
X125098863Y-83326137D01*
X125250000Y-84800000D02*
X125098863Y-84648863D01*
%TO.N,+3.3V*%
X124600000Y-83323863D02*
X124598863Y-83325000D01*
X124600000Y-81800000D02*
X124600000Y-83323863D01*
%TO.N,SERVO_1_PWM*%
X125598863Y-79998863D02*
X125598863Y-83323863D01*
X125598863Y-83323863D02*
X125600000Y-83325000D01*
X122580000Y-78800000D02*
X124400000Y-78800000D01*
X120780000Y-77000000D02*
X122580000Y-78800000D01*
X124400000Y-78800000D02*
X125598863Y-79998863D01*
%TO.N,SERVO_2_PWM*%
X126100000Y-83323863D02*
X126098863Y-83325000D01*
X126100000Y-79780000D02*
X126100000Y-83323863D01*
X123320000Y-77000000D02*
X126100000Y-79780000D01*
%TO.N,SERVO_3_PWM*%
X126000000Y-79114314D02*
X126600000Y-79714314D01*
X126000000Y-77140000D02*
X126000000Y-79114314D01*
X126600000Y-79714314D02*
X126600000Y-83323863D01*
X126600000Y-83323863D02*
X126598863Y-83325000D01*
X125860000Y-77000000D02*
X126000000Y-77140000D01*
%TO.N,SERVO_4_PWM*%
X127100000Y-83323863D02*
X127098863Y-83325000D01*
X127100000Y-78300000D02*
X127100000Y-83323863D01*
X128400000Y-77000000D02*
X127100000Y-78300000D01*
%TO.N,I2C1_SCL*%
X128598863Y-81911137D02*
X130310000Y-80200000D01*
X128598863Y-84798863D02*
X128598863Y-81911137D01*
X129400000Y-85600000D02*
X128598863Y-84798863D01*
X129400000Y-86200000D02*
X129400000Y-85600000D01*
%TO.N,Net-(U6-VDDA)*%
X121425000Y-100600000D02*
X121400000Y-100600000D01*
X120920000Y-98000000D02*
X120920000Y-99200000D01*
X120920000Y-100120000D02*
X120920000Y-99200000D01*
X121400000Y-100600000D02*
X120920000Y-100120000D01*
X120880000Y-99000000D02*
X120880000Y-99199999D01*
%TO.N,GND*%
X127300000Y-104262500D02*
X127350000Y-104212500D01*
X133280000Y-77020000D02*
X134000000Y-76300000D01*
X132800000Y-77530000D02*
X133280000Y-77050000D01*
X135850000Y-104300000D02*
X135850000Y-104199500D01*
X101325000Y-102325000D02*
X101325000Y-101525000D01*
X132300000Y-79850000D02*
X131950000Y-79850000D01*
X129090000Y-105400000D02*
X130080000Y-105400000D01*
X128867500Y-104212500D02*
X129000000Y-104080000D01*
X136049500Y-104000000D02*
X136512000Y-104000000D01*
X127350000Y-104212500D02*
X127812500Y-104212500D01*
X136512000Y-103500000D02*
X138580000Y-103500000D01*
X124600000Y-98675000D02*
X123525000Y-98675000D01*
X129090000Y-105400000D02*
X129090000Y-104170000D01*
X109000000Y-88500000D02*
X109000000Y-87000000D01*
X139800000Y-83775000D02*
X138825000Y-82800000D01*
X138825000Y-81600000D02*
X138825000Y-82800000D01*
X135600000Y-100400000D02*
X136100000Y-99900000D01*
X138600000Y-103520000D02*
X139280000Y-103520000D01*
X96244052Y-89600000D02*
X96244052Y-89930000D01*
X127812500Y-104212500D02*
X128867500Y-104212500D01*
X110600000Y-90400000D02*
X109575000Y-90400000D01*
X130080000Y-105400000D02*
X130200000Y-105280000D01*
X95850000Y-93925000D02*
X95825000Y-93925000D01*
X135850000Y-105163000D02*
X135850000Y-104300000D01*
X136512000Y-103500000D02*
X136100000Y-103500000D01*
X139107410Y-85500000D02*
X138275000Y-85500000D01*
X100166840Y-87833160D02*
X100166840Y-87100000D01*
X109575000Y-90400000D02*
X109000000Y-89825000D01*
X109000000Y-89825000D02*
X109000000Y-88500000D01*
X138580000Y-103500000D02*
X138600000Y-103520000D01*
X139800000Y-84600000D02*
X139800000Y-83775000D01*
X135850000Y-104199500D02*
X136049500Y-104000000D01*
X132800000Y-78325000D02*
X132800000Y-77530000D01*
X97544052Y-89500000D02*
X98500000Y-89500000D01*
X135350000Y-104250000D02*
X136100000Y-103500000D01*
X128800000Y-106000000D02*
X128192500Y-106000000D01*
X131398379Y-103198379D02*
X132000000Y-103800000D01*
X129090000Y-105400000D02*
X129090000Y-105710000D01*
X131950000Y-79850000D02*
X131200000Y-80600000D01*
X129090000Y-105710000D02*
X128800000Y-106000000D01*
X131006567Y-103198379D02*
X131398379Y-103198379D01*
X133280000Y-77050000D02*
X133280000Y-77020000D01*
X97544052Y-83500000D02*
X98900000Y-83500000D01*
X97544052Y-83500000D02*
X96344052Y-83500000D01*
X100166840Y-87100000D02*
X100465554Y-87100000D01*
X134200000Y-100400000D02*
X135600000Y-100400000D01*
X127312500Y-104737500D02*
X127300000Y-104725000D01*
X96475000Y-93300000D02*
X98300000Y-93300000D01*
X116787000Y-92813000D02*
X116787000Y-93025000D01*
X135350000Y-105163000D02*
X135350000Y-104250000D01*
X133300000Y-77070000D02*
X133280000Y-77050000D01*
X139800000Y-84807410D02*
X139107410Y-85500000D01*
X111200000Y-89800000D02*
X110600000Y-90400000D01*
X136100000Y-99900000D02*
X136100000Y-98675000D01*
X101325000Y-101525000D02*
X100800000Y-101000000D01*
X98500000Y-89500000D02*
X100166840Y-87833160D01*
X101028054Y-86537500D02*
X101725000Y-86537500D01*
X129090000Y-104170000D02*
X129000000Y-104080000D01*
X139280000Y-103520000D02*
X139800000Y-103000000D01*
X118013000Y-91587000D02*
X116787000Y-92813000D01*
X127300000Y-104725000D02*
X127300000Y-104262500D01*
X100465554Y-87100000D02*
X101028054Y-86537500D01*
X136100000Y-103500000D02*
X135850000Y-103750000D01*
X135850000Y-103750000D02*
X135850000Y-104300000D01*
X139800000Y-84600000D02*
X139800000Y-84807410D01*
X123525000Y-98675000D02*
X123400000Y-98800000D01*
X133300000Y-78325000D02*
X133300000Y-77070000D01*
X118013000Y-91375000D02*
X118013000Y-91587000D01*
X96344052Y-83500000D02*
X96244052Y-83400000D01*
X132800000Y-78325000D02*
X132825000Y-78300000D01*
X95850000Y-93925000D02*
X96475000Y-93300000D01*
X98900000Y-83500000D02*
X99400000Y-83000000D01*
X96244052Y-89930000D02*
X97134052Y-90820000D01*
%TO.N,+3.3V*%
X124600000Y-81207416D02*
X123361017Y-79968433D01*
X131037500Y-78837500D02*
X130775000Y-78575000D01*
X123361017Y-79968433D02*
X120431567Y-79968433D01*
X109520000Y-84000000D02*
X109950000Y-84430000D01*
X127812500Y-103712500D02*
X128407500Y-103712500D01*
X132300000Y-77070000D02*
X132280000Y-77050000D01*
X128907500Y-103212500D02*
X129000000Y-103120000D01*
X138600000Y-100600000D02*
X137200000Y-100600000D01*
X109545000Y-83145000D02*
X109545000Y-84000000D01*
X133299568Y-79337500D02*
X132799568Y-78837500D01*
X96106336Y-106475000D02*
X95628539Y-105997203D01*
X124600000Y-81800000D02*
X124600000Y-81207416D01*
X97125000Y-106475000D02*
X96106336Y-106475000D01*
X130425000Y-78575000D02*
X129290000Y-79710000D01*
X97125000Y-106475000D02*
X97125000Y-102325000D01*
X132037500Y-78837500D02*
X131037500Y-78837500D01*
X109000000Y-84520000D02*
X109520000Y-84000000D01*
X109000000Y-85500000D02*
X109000000Y-84520000D01*
X136600000Y-100000000D02*
X136600000Y-98675000D01*
X130775000Y-77650000D02*
X130775000Y-77725000D01*
X138800000Y-83800000D02*
X138800000Y-84475000D01*
X129000000Y-103120000D02*
X129968188Y-103120000D01*
X130775000Y-78575000D02*
X130775000Y-77725000D01*
X137200000Y-100600000D02*
X136600000Y-100000000D01*
X129400000Y-102250000D02*
X129400000Y-102200000D01*
X132799568Y-78837500D02*
X132037500Y-78837500D01*
X124500000Y-94500000D02*
X122925000Y-94500000D01*
X136600000Y-100000000D02*
X136400000Y-100200000D01*
X134800000Y-79890000D02*
X134690000Y-79890000D01*
X136400000Y-100200000D02*
X136400000Y-102787000D01*
X129000000Y-102650000D02*
X129000000Y-103120000D01*
X134137500Y-79337500D02*
X133562500Y-79337500D01*
X134690000Y-79890000D02*
X134137500Y-79337500D01*
X127812500Y-103212500D02*
X128907500Y-103212500D01*
X130775000Y-78575000D02*
X130425000Y-78575000D01*
X130200000Y-103351812D02*
X130200000Y-104320000D01*
X130046567Y-103198379D02*
X130200000Y-103351812D01*
X109950000Y-84430000D02*
X109950000Y-85500000D01*
X138800000Y-84475000D02*
X138275000Y-85000000D01*
X120400000Y-82000000D02*
X120400000Y-80000000D01*
X138600000Y-100600000D02*
X138600000Y-100800000D01*
X128407500Y-103712500D02*
X129000000Y-103120000D01*
X132280000Y-77050000D02*
X131375000Y-77050000D01*
X132300000Y-77070000D02*
X132320000Y-77050000D01*
X129968188Y-103120000D02*
X130046567Y-103198379D01*
X129290000Y-79710000D02*
X129290000Y-80200000D01*
X109200000Y-82800000D02*
X109545000Y-83145000D01*
X133562500Y-79337500D02*
X133299568Y-79337500D01*
X129400000Y-102250000D02*
X129000000Y-102650000D01*
X120431567Y-79968433D02*
X120400000Y-80000000D01*
X131375000Y-77050000D02*
X130775000Y-77650000D01*
X130140000Y-103264946D02*
X130206567Y-103198379D01*
X136400000Y-102787000D02*
X136350000Y-102837000D01*
X130174946Y-103230000D02*
X130206567Y-103198379D01*
X132300000Y-78325000D02*
X132300000Y-77070000D01*
D49*
%TO.N,VIN*%
X98300000Y-97900000D02*
X96100000Y-97900000D01*
D48*
X96100000Y-97900000D02*
X96000000Y-97800000D01*
D49*
X92400000Y-97675000D02*
X95875000Y-97675000D01*
D48*
X95875000Y-97675000D02*
X96000000Y-97800000D01*
X98275000Y-97875000D02*
X98300000Y-97900000D01*
%TO.N,+5V*%
X95850000Y-95475000D02*
X98175000Y-95475000D01*
X104600000Y-95600000D02*
X104600000Y-88711495D01*
X106500000Y-85500000D02*
X106500000Y-84820000D01*
X105000000Y-85515000D02*
X105015000Y-85500000D01*
X106500000Y-84820000D02*
X107120000Y-84200000D01*
X106384585Y-86926910D02*
X106500000Y-86811495D01*
X105015000Y-85500000D02*
X106500000Y-85500000D01*
X104600000Y-88711495D02*
X106384585Y-86926910D01*
X98300000Y-95600000D02*
X104600000Y-95600000D01*
X106500000Y-85500000D02*
X108050000Y-85500000D01*
X98175000Y-95475000D02*
X98300000Y-95600000D01*
X106500000Y-86811495D02*
X106500000Y-85500000D01*
%TO.N,Net-(IC1-EN)*%
X108050000Y-88500000D02*
X106461495Y-88500000D01*
X108025000Y-88525000D02*
X108050000Y-88500000D01*
X106461495Y-88500000D02*
X106384585Y-88576910D01*
X108025000Y-90400000D02*
X108025000Y-88525000D01*
%TO.N,Net-(C14-Pad1)*%
X137865000Y-83706295D02*
X137000000Y-84571295D01*
X137200000Y-86000000D02*
X137000000Y-85800000D01*
X137865000Y-82800000D02*
X137865000Y-83706295D01*
X137865000Y-82800000D02*
X137865000Y-81600000D01*
X137000000Y-84571295D02*
X137000000Y-85800000D01*
X135600000Y-98675000D02*
X135600000Y-87200000D01*
X135600000Y-87200000D02*
X137000000Y-85800000D01*
X138275000Y-86000000D02*
X137200000Y-86000000D01*
%TO.N,VBUS*%
X103575000Y-86537500D02*
X104947500Y-86537500D01*
X97544052Y-88000000D02*
X98838667Y-88000000D01*
X103612500Y-86500000D02*
X103575000Y-86537500D01*
X98838667Y-88000000D02*
X99211768Y-87626899D01*
X104947500Y-86537500D02*
X105000000Y-86485000D01*
X97544052Y-85000000D02*
X102175132Y-85000000D01*
X102175132Y-85000000D02*
X102750000Y-85574868D01*
X96994052Y-85000000D02*
X96744052Y-85250000D01*
X96744052Y-85250000D02*
X96244052Y-85250000D01*
X97544052Y-85000000D02*
X96994052Y-85000000D01*
X102787500Y-86537500D02*
X103575000Y-86537500D01*
X102750000Y-85574868D02*
X102750000Y-86500000D01*
X102750000Y-86500000D02*
X102787500Y-86537500D01*
%TO.N,Net-(J1-D--PadA7)*%
X97022026Y-86477974D02*
X97544052Y-87000000D01*
X97044052Y-86500000D02*
X100500000Y-86500000D01*
X101000000Y-86000000D02*
X101800000Y-86000000D01*
X100500000Y-86500000D02*
X101000000Y-86000000D01*
X97022026Y-86477974D02*
X97044052Y-86500000D01*
X96794052Y-86250000D02*
X97022026Y-86477974D01*
X96244052Y-86250000D02*
X96794052Y-86250000D01*
%TO.N,Net-(J1-D+-PadA6)*%
X99550000Y-89950000D02*
X101800000Y-87700000D01*
X101800000Y-87700000D02*
X101800000Y-87075000D01*
X96728366Y-86750000D02*
X96894052Y-86915686D01*
X102350000Y-85740554D02*
X102350000Y-86769910D01*
X102121946Y-85512500D02*
X102350000Y-85740554D01*
X96894052Y-86915686D02*
X96894052Y-89950000D01*
X102350000Y-86769910D02*
X102044910Y-87075000D01*
X96244052Y-86750000D02*
X96728366Y-86750000D01*
X100921814Y-85512500D02*
X102121946Y-85512500D01*
X96894052Y-89950000D02*
X99550000Y-89950000D01*
X97544052Y-86000000D02*
X100434314Y-86000000D01*
X100434314Y-86000000D02*
X100921814Y-85512500D01*
X102044910Y-87075000D02*
X101800000Y-87075000D01*
%TO.N,USB_DM*%
X103500000Y-85500000D02*
X103500000Y-86000000D01*
X136524265Y-87124265D02*
X136900000Y-87500000D01*
X104000000Y-85000000D02*
X103500000Y-85500000D01*
X136900000Y-87500000D02*
X138275000Y-87500000D01*
%TO.N,USB_DP*%
X103500000Y-87075000D02*
X103500000Y-87700000D01*
X103500000Y-87700000D02*
X104000000Y-88200000D01*
X139400000Y-87000000D02*
X138275000Y-87000000D01*
X139800000Y-87400000D02*
X139400000Y-87000000D01*
%TO.N,OSC_IN*%
X116787000Y-91063000D02*
X116787000Y-91375000D01*
X114655000Y-91375000D02*
X116787000Y-91375000D01*
X114650000Y-91380000D02*
X114655000Y-91375000D01*
%TO.N,OSC_OUT*%
X117375000Y-93825000D02*
X114945000Y-93825000D01*
X118013000Y-93025000D02*
X118013000Y-93187000D01*
X114945000Y-93825000D02*
X114600000Y-93480000D01*
X118013000Y-93187000D02*
X117375000Y-93825000D01*
X117880000Y-93158000D02*
X118013000Y-93025000D01*
%TO.N,Net-(IC2-VDDIO)*%
X136512000Y-104488000D02*
X136520000Y-104480000D01*
X138600000Y-105520000D02*
X139800000Y-105520000D01*
X136520000Y-104480000D02*
X138600000Y-104480000D01*
X136512000Y-104500000D02*
X136512000Y-104488000D01*
X138600000Y-104480000D02*
X138600000Y-105520000D01*
%TO.N,Net-(U4-C1)*%
X127232500Y-105800000D02*
X126800000Y-105367500D01*
X127232500Y-106000000D02*
X127232500Y-105800000D01*
X126800000Y-105367500D02*
X126800000Y-104725000D01*
%TO.N,I2C1_SDA*%
X134800000Y-80910000D02*
X134310000Y-81400000D01*
X131800000Y-106800000D02*
X126400000Y-106800000D01*
X132800000Y-80356466D02*
X132800000Y-79850000D01*
X134310000Y-81400000D02*
X133843534Y-81400000D01*
X134800000Y-80910000D02*
X134890000Y-80910000D01*
X134100000Y-104500000D02*
X131800000Y-106800000D01*
X128025000Y-100200000D02*
X125200000Y-103025000D01*
X134890000Y-80910000D02*
X136325000Y-79475000D01*
X125200000Y-105600000D02*
X125200000Y-104087500D01*
X136325000Y-79475000D02*
X136325000Y-77400000D01*
X128100000Y-92925000D02*
X128100000Y-85400000D01*
X125200000Y-104087500D02*
X125825000Y-104712500D01*
X134688000Y-104500000D02*
X134100000Y-104500000D01*
X128025000Y-93000000D02*
X128100000Y-92925000D01*
X125200000Y-103025000D02*
X125200000Y-104087500D01*
X128075000Y-83300000D02*
X128100000Y-83325000D01*
X126400000Y-106800000D02*
X125200000Y-105600000D01*
X133843534Y-81400000D02*
X132800000Y-80356466D01*
X126262500Y-104737500D02*
X126287500Y-104712500D01*
X130600000Y-81400000D02*
X131556466Y-81400000D01*
X128100000Y-85400000D02*
X128100000Y-83325000D01*
X134310000Y-81400000D02*
X131556466Y-81400000D01*
X125825000Y-104712500D02*
X126287500Y-104712500D01*
%TO.N,I2C1_SCL*%
X129400000Y-91600000D02*
X130875000Y-93075000D01*
X134688000Y-104000000D02*
X133435642Y-104000000D01*
X127387500Y-101650000D02*
X126287500Y-102750000D01*
X126287500Y-102750000D02*
X126287500Y-103212500D01*
X131172500Y-79337500D02*
X132037500Y-79337500D01*
X130310000Y-80200000D02*
X131172500Y-79337500D01*
X133435642Y-104000000D02*
X131085642Y-101650000D01*
X131085642Y-101650000D02*
X127387500Y-101650000D01*
X129400000Y-86200000D02*
X129400000Y-91600000D01*
%TO.N,SPI1_SCK*%
X108624265Y-105175735D02*
X108648530Y-105200000D01*
X108648530Y-105200000D02*
X114250000Y-105200000D01*
%TO.N,SWDIO*%
X139375000Y-86232410D02*
X139107410Y-86500000D01*
X139375000Y-86200000D02*
X139375000Y-86232410D01*
X139107410Y-86500000D02*
X138275000Y-86500000D01*
X141690000Y-86200000D02*
X139375000Y-86200000D01*
X141800000Y-86090000D02*
X141690000Y-86200000D01*
%TO.N,TELEM_CS*%
X124400000Y-96000000D02*
X123900000Y-95500000D01*
X123900000Y-95500000D02*
X122925000Y-95500000D01*
%TO.N,BOOT0*%
X126400000Y-89200000D02*
X126400000Y-86000000D01*
X112600000Y-91000000D02*
X103800000Y-99800000D01*
X126400000Y-86000000D02*
X127600000Y-84800000D01*
X127600000Y-84800000D02*
X127600000Y-83325000D01*
X103800000Y-99800000D02*
X100280000Y-99800000D01*
X99275000Y-106475000D02*
X99275000Y-102325000D01*
X99275000Y-102325000D02*
X99275000Y-100805000D01*
X100280000Y-99800000D02*
X99280000Y-100800000D01*
X99275000Y-100805000D02*
X99280000Y-100800000D01*
%TO.N,RST*%
X103475000Y-102325000D02*
X103475000Y-100805000D01*
X103475000Y-100805000D02*
X103480000Y-100800000D01*
X103475000Y-106475000D02*
X103475000Y-102325000D01*
%TO.N,Net-(J5-Pin_3)*%
X141830000Y-87080000D02*
X141800000Y-87110000D01*
X144200000Y-87080000D02*
X141830000Y-87080000D01*
%TO.N,Net-(J5-Pin_2)*%
X144170000Y-84510000D02*
X144200000Y-84540000D01*
X141800000Y-84510000D02*
X144170000Y-84510000D01*
%TO.N,SWCLK*%
X136600000Y-81600000D02*
X136600000Y-83325000D01*
X139400000Y-80800000D02*
X137400000Y-80800000D01*
X141200000Y-80800000D02*
X139400000Y-80800000D01*
X137400000Y-80800000D02*
X136600000Y-81600000D01*
X141800000Y-81400000D02*
X141200000Y-80800000D01*
X141800000Y-83490000D02*
X141800000Y-81400000D01*
%TO.N,SPI1_MOSI*%
X127098863Y-100301137D02*
X127098863Y-98676137D01*
X121000000Y-106400000D02*
X127098863Y-100301137D01*
X116200000Y-106400000D02*
X121000000Y-106400000D01*
X127098863Y-98676137D02*
X127100000Y-98675000D01*
%TO.N,SPI1_MISO*%
X126598863Y-98676137D02*
X126600000Y-98675000D01*
X126598863Y-100201137D02*
X126598863Y-98676137D01*
X121000000Y-105800000D02*
X126598863Y-100201137D01*
X115600000Y-105800000D02*
X121000000Y-105800000D01*
%TD*%
%TA.AperFunction,Conductor*%
%TO.N,GND*%
G36*
X95337091Y-90019685D02*
G01*
X95382846Y-90072489D01*
X95394052Y-90124000D01*
X95394052Y-90147844D01*
X95400453Y-90207372D01*
X95400455Y-90207379D01*
X95450697Y-90342086D01*
X95450701Y-90342093D01*
X95536860Y-90457185D01*
X95536867Y-90457193D01*
X95560293Y-90474729D01*
X95602165Y-90530662D01*
X95604475Y-90559359D01*
X95613208Y-90570000D01*
X96467064Y-90570000D01*
X96449847Y-90579940D01*
X96393992Y-90635795D01*
X96354496Y-90704204D01*
X96334052Y-90780504D01*
X96334052Y-90859496D01*
X96354496Y-90935796D01*
X96393992Y-91004205D01*
X96449847Y-91060060D01*
X96467064Y-91070000D01*
X95613209Y-91070000D01*
X95624402Y-91126274D01*
X95624403Y-91126276D01*
X95703552Y-91317358D01*
X95703557Y-91317368D01*
X95818462Y-91489335D01*
X95818465Y-91489339D01*
X95964712Y-91635586D01*
X95964716Y-91635589D01*
X96136683Y-91750494D01*
X96136693Y-91750499D01*
X96327777Y-91829649D01*
X96327785Y-91829651D01*
X96530631Y-91869999D01*
X96530635Y-91870000D01*
X96884052Y-91870000D01*
X96884052Y-91120000D01*
X97384052Y-91120000D01*
X97384052Y-91870000D01*
X97410847Y-91896795D01*
X97444332Y-91958118D01*
X97439348Y-92027810D01*
X97397476Y-92083743D01*
X97377014Y-92094859D01*
X97377502Y-92095843D01*
X97200977Y-92183390D01*
X97200974Y-92183392D01*
X97052633Y-92302632D01*
X97052632Y-92302633D01*
X96933392Y-92450974D01*
X96933390Y-92450977D01*
X96848831Y-92621476D01*
X96802897Y-92806175D01*
X96800000Y-92848903D01*
X96800000Y-93075333D01*
X96780315Y-93142372D01*
X96727511Y-93188127D01*
X96658353Y-93198071D01*
X96594797Y-93169046D01*
X96588319Y-93163014D01*
X96552732Y-93127427D01*
X96552728Y-93127424D01*
X96408492Y-93038457D01*
X96408481Y-93038452D01*
X96247606Y-92985144D01*
X96148322Y-92975000D01*
X96100000Y-92975000D01*
X96100000Y-94051000D01*
X96080315Y-94118039D01*
X96027511Y-94163794D01*
X95976000Y-94175000D01*
X94875001Y-94175000D01*
X94875001Y-94198322D01*
X94885144Y-94297607D01*
X94938452Y-94458481D01*
X94938457Y-94458492D01*
X95027424Y-94602728D01*
X95027427Y-94602732D01*
X95036660Y-94611965D01*
X95070145Y-94673288D01*
X95065161Y-94742980D01*
X95036663Y-94787324D01*
X95027033Y-94796953D01*
X95027029Y-94796959D01*
X94938001Y-94941294D01*
X94937996Y-94941305D01*
X94884651Y-95102290D01*
X94874500Y-95201647D01*
X94874500Y-95748337D01*
X94874501Y-95748355D01*
X94884650Y-95847707D01*
X94884651Y-95847710D01*
X94937996Y-96008694D01*
X94938001Y-96008705D01*
X95027029Y-96153040D01*
X95027032Y-96153044D01*
X95146955Y-96272967D01*
X95146959Y-96272970D01*
X95291294Y-96361998D01*
X95291297Y-96361999D01*
X95291303Y-96362003D01*
X95452292Y-96415349D01*
X95551655Y-96425500D01*
X96148344Y-96425499D01*
X96148352Y-96425498D01*
X96148355Y-96425498D01*
X96202760Y-96419940D01*
X96247708Y-96415349D01*
X96408697Y-96362003D01*
X96553044Y-96272968D01*
X96633322Y-96192689D01*
X96694641Y-96159207D01*
X96764333Y-96164191D01*
X96820267Y-96206062D01*
X96841333Y-96250444D01*
X96847097Y-96273617D01*
X96848360Y-96278696D01*
X96932967Y-96449292D01*
X96932969Y-96449295D01*
X97052277Y-96597721D01*
X97052278Y-96597722D01*
X97121486Y-96653353D01*
X97161405Y-96710696D01*
X97163985Y-96780518D01*
X97128406Y-96840651D01*
X97121486Y-96846647D01*
X97052278Y-96902277D01*
X97052277Y-96902278D01*
X96938793Y-97043459D01*
X96881450Y-97083378D01*
X96811628Y-97085958D01*
X96754465Y-97053453D01*
X96703044Y-97002032D01*
X96703040Y-97002029D01*
X96558705Y-96913001D01*
X96558699Y-96912998D01*
X96558697Y-96912997D01*
X96481088Y-96887280D01*
X96397709Y-96859651D01*
X96298346Y-96849500D01*
X95701662Y-96849500D01*
X95701644Y-96849501D01*
X95602292Y-96859650D01*
X95602289Y-96859651D01*
X95518912Y-96887280D01*
X95441303Y-96912997D01*
X95441301Y-96912997D01*
X95434448Y-96915269D01*
X95434197Y-96914512D01*
X95389145Y-96924500D01*
X93874499Y-96924500D01*
X93807460Y-96904815D01*
X93761705Y-96852011D01*
X93750499Y-96800500D01*
X93750499Y-96777129D01*
X93750498Y-96777123D01*
X93750497Y-96777116D01*
X93744091Y-96717517D01*
X93743909Y-96717030D01*
X93693797Y-96582671D01*
X93693793Y-96582664D01*
X93607547Y-96467455D01*
X93607544Y-96467452D01*
X93492335Y-96381206D01*
X93492328Y-96381202D01*
X93360401Y-96331997D01*
X93304467Y-96290126D01*
X93280050Y-96224662D01*
X93294902Y-96156389D01*
X93316053Y-96128133D01*
X93438108Y-96006078D01*
X93573600Y-95812578D01*
X93673429Y-95598492D01*
X93673432Y-95598486D01*
X93730636Y-95385000D01*
X92833012Y-95385000D01*
X92865925Y-95327993D01*
X92900000Y-95200826D01*
X92900000Y-95069174D01*
X92865925Y-94942007D01*
X92833012Y-94885000D01*
X93730636Y-94885000D01*
X93730635Y-94884999D01*
X93673432Y-94671513D01*
X93673429Y-94671507D01*
X93573600Y-94457422D01*
X93573599Y-94457420D01*
X93438113Y-94263926D01*
X93438108Y-94263920D01*
X93271082Y-94096894D01*
X93077578Y-93961399D01*
X92863492Y-93861570D01*
X92863486Y-93861567D01*
X92650000Y-93804364D01*
X92650000Y-94701988D01*
X92592993Y-94669075D01*
X92465826Y-94635000D01*
X92334174Y-94635000D01*
X92207007Y-94669075D01*
X92150000Y-94701988D01*
X92150000Y-93804364D01*
X92149999Y-93804364D01*
X91936513Y-93861567D01*
X91936507Y-93861570D01*
X91722422Y-93961399D01*
X91722420Y-93961400D01*
X91528926Y-94096886D01*
X91528920Y-94096891D01*
X91361891Y-94263920D01*
X91361886Y-94263926D01*
X91226400Y-94457420D01*
X91226399Y-94457422D01*
X91126570Y-94671507D01*
X91126567Y-94671513D01*
X91069364Y-94884999D01*
X91069364Y-94885000D01*
X91966988Y-94885000D01*
X91934075Y-94942007D01*
X91900000Y-95069174D01*
X91900000Y-95200826D01*
X91934075Y-95327993D01*
X91966988Y-95385000D01*
X91069364Y-95385000D01*
X91126567Y-95598486D01*
X91126570Y-95598492D01*
X91226399Y-95812578D01*
X91361894Y-96006082D01*
X91483946Y-96128134D01*
X91517431Y-96189457D01*
X91512447Y-96259149D01*
X91470575Y-96315082D01*
X91439598Y-96331997D01*
X91307671Y-96381202D01*
X91307664Y-96381206D01*
X91192455Y-96467452D01*
X91192452Y-96467455D01*
X91106206Y-96582664D01*
X91106202Y-96582671D01*
X91055908Y-96717517D01*
X91050620Y-96766708D01*
X91049501Y-96777123D01*
X91049500Y-96777135D01*
X91049500Y-98572870D01*
X91049501Y-98572876D01*
X91055908Y-98632483D01*
X91106202Y-98767328D01*
X91106206Y-98767335D01*
X91192452Y-98882544D01*
X91192455Y-98882547D01*
X91307664Y-98968793D01*
X91307671Y-98968797D01*
X91442517Y-99019091D01*
X91442516Y-99019091D01*
X91449444Y-99019835D01*
X91502127Y-99025500D01*
X93297872Y-99025499D01*
X93357483Y-99019091D01*
X93492331Y-98968796D01*
X93607546Y-98882546D01*
X93693796Y-98767331D01*
X93744091Y-98632483D01*
X93750500Y-98572873D01*
X93750500Y-98549500D01*
X93770185Y-98482461D01*
X93822989Y-98436706D01*
X93874500Y-98425500D01*
X95075453Y-98425500D01*
X95142492Y-98445185D01*
X95172724Y-98472595D01*
X95177036Y-98478049D01*
X95186659Y-98487672D01*
X95220144Y-98548995D01*
X95215160Y-98618687D01*
X95186665Y-98663028D01*
X95177430Y-98672264D01*
X95177424Y-98672271D01*
X95088457Y-98816507D01*
X95088452Y-98816518D01*
X95035144Y-98977393D01*
X95025000Y-99076677D01*
X95025000Y-99100000D01*
X96974999Y-99100000D01*
X96974999Y-99094370D01*
X96994684Y-99027331D01*
X97047488Y-98981576D01*
X97116646Y-98971632D01*
X97176684Y-98997722D01*
X97200704Y-99017030D01*
X97200707Y-99017031D01*
X97200708Y-99017032D01*
X97371302Y-99101639D01*
X97371303Y-99101639D01*
X97371307Y-99101641D01*
X97556111Y-99147600D01*
X97598877Y-99150500D01*
X99001122Y-99150499D01*
X99043889Y-99147600D01*
X99228693Y-99101641D01*
X99399296Y-99017030D01*
X99547722Y-98897722D01*
X99667030Y-98749296D01*
X99751641Y-98578693D01*
X99797600Y-98393889D01*
X99800500Y-98351123D01*
X99800499Y-97448878D01*
X99797600Y-97406111D01*
X99751641Y-97221307D01*
X99702368Y-97121956D01*
X99667032Y-97050707D01*
X99667030Y-97050704D01*
X99547722Y-96902278D01*
X99547721Y-96902277D01*
X99478514Y-96846647D01*
X99438595Y-96789304D01*
X99436015Y-96719482D01*
X99471594Y-96659349D01*
X99478514Y-96653353D01*
X99529052Y-96612729D01*
X99547722Y-96597722D01*
X99667030Y-96449296D01*
X99697792Y-96387270D01*
X99754628Y-96272671D01*
X99756535Y-96273617D01*
X99792131Y-96225590D01*
X99857478Y-96200860D01*
X99866916Y-96200500D01*
X102975501Y-96200500D01*
X103042540Y-96220185D01*
X103088295Y-96272989D01*
X103099501Y-96324500D01*
X103099501Y-97058034D01*
X103110113Y-97177415D01*
X103166089Y-97373045D01*
X103166090Y-97373048D01*
X103166091Y-97373049D01*
X103260302Y-97553407D01*
X103260304Y-97553409D01*
X103388890Y-97711109D01*
X103436587Y-97750000D01*
X103546593Y-97839698D01*
X103726951Y-97933909D01*
X103922582Y-97989886D01*
X104041963Y-98000500D01*
X104450903Y-98000499D01*
X104517941Y-98020183D01*
X104563696Y-98072987D01*
X104573640Y-98142146D01*
X104544615Y-98205702D01*
X104538583Y-98212180D01*
X103587584Y-99163181D01*
X103526261Y-99196666D01*
X103499903Y-99199500D01*
X100366670Y-99199500D01*
X100366654Y-99199499D01*
X100359058Y-99199499D01*
X100200943Y-99199499D01*
X100124579Y-99219961D01*
X100048214Y-99240423D01*
X100048209Y-99240426D01*
X99911290Y-99319475D01*
X99911282Y-99319481D01*
X99287581Y-99943181D01*
X99226258Y-99976666D01*
X99199901Y-99979500D01*
X99110831Y-99979500D01*
X99110807Y-99979501D01*
X99074794Y-99982335D01*
X98920611Y-100027129D01*
X98920607Y-100027130D01*
X98862628Y-100061419D01*
X98794903Y-100078600D01*
X98736388Y-100061419D01*
X98679189Y-100027592D01*
X98679188Y-100027591D01*
X98540001Y-99987153D01*
X98540000Y-99987154D01*
X98540000Y-100539591D01*
X98539618Y-100549316D01*
X98539500Y-100550803D01*
X98539500Y-101049170D01*
X98539501Y-101049182D01*
X98539618Y-101050663D01*
X98540000Y-101060393D01*
X98540000Y-101471251D01*
X98520315Y-101538290D01*
X98515268Y-101545561D01*
X98506206Y-101557666D01*
X98506202Y-101557671D01*
X98455908Y-101692517D01*
X98452123Y-101727727D01*
X98449501Y-101752123D01*
X98449500Y-101752135D01*
X98449500Y-102897870D01*
X98449501Y-102897876D01*
X98455908Y-102957483D01*
X98506202Y-103092328D01*
X98506203Y-103092329D01*
X98506204Y-103092331D01*
X98592452Y-103207543D01*
X98592451Y-103207543D01*
X98592452Y-103207544D01*
X98592454Y-103207546D01*
X98624812Y-103231769D01*
X98666681Y-103287700D01*
X98674500Y-103331034D01*
X98674500Y-105468964D01*
X98654815Y-105536003D01*
X98624812Y-105568230D01*
X98592457Y-105592450D01*
X98592451Y-105592457D01*
X98506206Y-105707664D01*
X98506202Y-105707671D01*
X98455908Y-105842517D01*
X98449678Y-105900472D01*
X98449500Y-105902127D01*
X98449500Y-106429816D01*
X98449501Y-106875500D01*
X98429817Y-106942539D01*
X98377013Y-106988294D01*
X98325501Y-106999500D01*
X98074500Y-106999500D01*
X98007461Y-106979815D01*
X97961706Y-106927011D01*
X97950500Y-106875500D01*
X97950499Y-105902129D01*
X97950498Y-105902123D01*
X97950497Y-105902116D01*
X97944091Y-105842517D01*
X97943042Y-105839705D01*
X97893797Y-105707671D01*
X97893793Y-105707664D01*
X97812660Y-105599285D01*
X97807546Y-105592454D01*
X97807544Y-105592452D01*
X97807542Y-105592450D01*
X97775188Y-105568230D01*
X97733318Y-105512296D01*
X97725500Y-105468964D01*
X97725500Y-103331034D01*
X97745185Y-103263995D01*
X97775185Y-103231770D01*
X97807546Y-103207546D01*
X97893796Y-103092331D01*
X97944091Y-102957483D01*
X97950500Y-102897873D01*
X97950499Y-101752128D01*
X97950498Y-101752124D01*
X97950326Y-101748908D01*
X97966391Y-101680911D01*
X97999697Y-101643103D01*
X98040000Y-101612843D01*
X98040000Y-101050000D01*
X97520069Y-101050000D01*
X97522832Y-101085122D01*
X97539039Y-101140906D01*
X97538839Y-101210775D01*
X97500896Y-101269445D01*
X97437258Y-101298288D01*
X97419962Y-101299500D01*
X96752129Y-101299500D01*
X96752123Y-101299501D01*
X96692516Y-101305908D01*
X96557671Y-101356202D01*
X96557664Y-101356206D01*
X96442455Y-101442452D01*
X96442452Y-101442455D01*
X96356206Y-101557664D01*
X96356202Y-101557671D01*
X96305908Y-101692517D01*
X96302123Y-101727727D01*
X96299501Y-101752123D01*
X96299500Y-101752135D01*
X96299500Y-102897870D01*
X96299501Y-102897876D01*
X96305908Y-102957483D01*
X96356202Y-103092328D01*
X96356203Y-103092329D01*
X96356204Y-103092331D01*
X96442452Y-103207543D01*
X96442451Y-103207543D01*
X96442452Y-103207544D01*
X96442454Y-103207546D01*
X96474812Y-103231769D01*
X96516681Y-103287700D01*
X96524500Y-103331034D01*
X96524500Y-105468964D01*
X96504815Y-105536003D01*
X96474813Y-105568230D01*
X96466638Y-105574350D01*
X96401174Y-105598768D01*
X96332900Y-105583917D01*
X96287331Y-105541056D01*
X96274693Y-105520943D01*
X96258355Y-105494941D01*
X96130801Y-105367387D01*
X96050681Y-105317044D01*
X95978062Y-105271414D01*
X95807793Y-105211834D01*
X95807788Y-105211833D01*
X95628543Y-105191638D01*
X95628535Y-105191638D01*
X95449289Y-105211833D01*
X95449284Y-105211834D01*
X95279015Y-105271414D01*
X95126278Y-105367386D01*
X95097781Y-105395883D01*
X95036457Y-105429367D01*
X94966766Y-105424381D01*
X94910833Y-105382509D01*
X94886417Y-105317044D01*
X94886346Y-105300414D01*
X94905246Y-105000005D01*
X94905246Y-104999994D01*
X94886281Y-104698553D01*
X94886280Y-104698546D01*
X94886280Y-104698543D01*
X94829681Y-104401840D01*
X94736341Y-104114570D01*
X94719606Y-104079007D01*
X94652017Y-103935372D01*
X94607733Y-103841264D01*
X94549815Y-103750000D01*
X94445888Y-103586236D01*
X94445885Y-103586232D01*
X94253349Y-103353496D01*
X94229429Y-103331034D01*
X94033163Y-103146727D01*
X94033153Y-103146719D01*
X93788806Y-102969191D01*
X93788799Y-102969186D01*
X93788795Y-102969184D01*
X93524104Y-102823668D01*
X93524101Y-102823666D01*
X93524096Y-102823664D01*
X93524095Y-102823663D01*
X93243265Y-102712475D01*
X93243262Y-102712474D01*
X92950695Y-102637357D01*
X92651036Y-102599500D01*
X92651027Y-102599500D01*
X92348973Y-102599500D01*
X92348963Y-102599500D01*
X92049304Y-102637357D01*
X91756737Y-102712474D01*
X91756734Y-102712475D01*
X91475904Y-102823663D01*
X91475903Y-102823664D01*
X91211205Y-102969184D01*
X91211193Y-102969191D01*
X90966846Y-103146719D01*
X90966836Y-103146727D01*
X90746651Y-103353495D01*
X90720043Y-103385659D01*
X90662142Y-103424765D01*
X90592291Y-103426361D01*
X90532666Y-103389938D01*
X90502197Y-103327062D01*
X90500500Y-103306617D01*
X90500500Y-100550000D01*
X97520069Y-100550000D01*
X98040000Y-100550000D01*
X98040000Y-99987154D01*
X98039998Y-99987153D01*
X97900811Y-100027591D01*
X97900808Y-100027593D01*
X97762714Y-100109261D01*
X97762705Y-100109268D01*
X97649268Y-100222705D01*
X97649261Y-100222714D01*
X97567593Y-100360808D01*
X97567592Y-100360811D01*
X97522833Y-100514871D01*
X97522832Y-100514877D01*
X97520069Y-100550000D01*
X90500500Y-100550000D01*
X90500500Y-99623322D01*
X95025001Y-99623322D01*
X95035144Y-99722607D01*
X95088452Y-99883481D01*
X95088457Y-99883492D01*
X95177424Y-100027728D01*
X95177427Y-100027732D01*
X95297267Y-100147572D01*
X95297271Y-100147575D01*
X95441507Y-100236542D01*
X95441518Y-100236547D01*
X95602393Y-100289855D01*
X95701683Y-100299999D01*
X96250000Y-100299999D01*
X96298308Y-100299999D01*
X96298322Y-100299998D01*
X96397607Y-100289855D01*
X96558481Y-100236547D01*
X96558492Y-100236542D01*
X96702728Y-100147575D01*
X96702732Y-100147572D01*
X96822572Y-100027732D01*
X96822575Y-100027728D01*
X96911542Y-99883492D01*
X96911547Y-99883481D01*
X96964855Y-99722606D01*
X96974999Y-99623322D01*
X96975000Y-99623309D01*
X96975000Y-99600000D01*
X96250000Y-99600000D01*
X96250000Y-100299999D01*
X95701683Y-100299999D01*
X95749999Y-100299998D01*
X95750000Y-100299998D01*
X95750000Y-99600000D01*
X95025001Y-99600000D01*
X95025001Y-99623322D01*
X90500500Y-99623322D01*
X90500500Y-93651677D01*
X94875000Y-93651677D01*
X94875000Y-93675000D01*
X95600000Y-93675000D01*
X95600000Y-92975000D01*
X95599999Y-92974999D01*
X95551693Y-92975000D01*
X95551675Y-92975001D01*
X95452392Y-92985144D01*
X95291518Y-93038452D01*
X95291507Y-93038457D01*
X95147271Y-93127424D01*
X95147267Y-93127427D01*
X95027427Y-93247267D01*
X95027424Y-93247271D01*
X94938457Y-93391507D01*
X94938452Y-93391518D01*
X94885144Y-93552393D01*
X94875000Y-93651677D01*
X90500500Y-93651677D01*
X90500500Y-91925229D01*
X90520185Y-91858190D01*
X90572989Y-91812435D01*
X90642147Y-91802491D01*
X90671954Y-91810668D01*
X90717781Y-91829650D01*
X90717785Y-91829651D01*
X90920631Y-91869999D01*
X90920635Y-91870000D01*
X91524052Y-91870000D01*
X91524052Y-91120000D01*
X92024052Y-91120000D01*
X92024052Y-91870000D01*
X92627469Y-91870000D01*
X92627472Y-91869999D01*
X92830318Y-91829651D01*
X92830326Y-91829649D01*
X93021410Y-91750499D01*
X93021420Y-91750494D01*
X93193387Y-91635589D01*
X93193391Y-91635586D01*
X93339638Y-91489339D01*
X93339641Y-91489335D01*
X93454546Y-91317368D01*
X93454551Y-91317358D01*
X93533700Y-91126276D01*
X93533701Y-91126274D01*
X93544895Y-91070000D01*
X92691040Y-91070000D01*
X92708257Y-91060060D01*
X92764112Y-91004205D01*
X92803608Y-90935796D01*
X92824052Y-90859496D01*
X92824052Y-90780504D01*
X92803608Y-90704204D01*
X92764112Y-90635795D01*
X92708257Y-90579940D01*
X92691040Y-90570000D01*
X93544895Y-90570000D01*
X93533701Y-90513725D01*
X93533700Y-90513723D01*
X93454551Y-90322641D01*
X93454543Y-90322626D01*
X93367857Y-90192890D01*
X93346979Y-90126213D01*
X93365464Y-90058833D01*
X93417443Y-90012143D01*
X93470959Y-90000000D01*
X95270052Y-90000000D01*
X95337091Y-90019685D01*
G37*
%TD.AperFunction*%
%TA.AperFunction,Conductor*%
G36*
X101685871Y-100420185D02*
G01*
X101731626Y-100472989D01*
X101742450Y-100534228D01*
X101741208Y-100549998D01*
X101741210Y-100550000D01*
X102575500Y-100550000D01*
X102642539Y-100569685D01*
X102688294Y-100622489D01*
X102699500Y-100674000D01*
X102699500Y-101034697D01*
X102702356Y-101070991D01*
X102702357Y-101070997D01*
X102747503Y-101226389D01*
X102747505Y-101226393D01*
X102747506Y-101226395D01*
X102752732Y-101235233D01*
X102770000Y-101298352D01*
X102770000Y-101431176D01*
X102750315Y-101498215D01*
X102745267Y-101505486D01*
X102706206Y-101557665D01*
X102706202Y-101557671D01*
X102655908Y-101692517D01*
X102652123Y-101727727D01*
X102649501Y-101752123D01*
X102649500Y-101752135D01*
X102649500Y-102897870D01*
X102649501Y-102897876D01*
X102655908Y-102957483D01*
X102706202Y-103092328D01*
X102706203Y-103092329D01*
X102706204Y-103092331D01*
X102792452Y-103207543D01*
X102792451Y-103207543D01*
X102792452Y-103207544D01*
X102792454Y-103207546D01*
X102824812Y-103231769D01*
X102866681Y-103287700D01*
X102874500Y-103331034D01*
X102874500Y-105468964D01*
X102854815Y-105536003D01*
X102824812Y-105568230D01*
X102792457Y-105592450D01*
X102792451Y-105592457D01*
X102706206Y-105707664D01*
X102706202Y-105707671D01*
X102655908Y-105842517D01*
X102649678Y-105900472D01*
X102649500Y-105902127D01*
X102649500Y-106429816D01*
X102649501Y-106875500D01*
X102629817Y-106942539D01*
X102577013Y-106988294D01*
X102525501Y-106999500D01*
X102274000Y-106999500D01*
X102206961Y-106979815D01*
X102161206Y-106927011D01*
X102150000Y-106875500D01*
X102150000Y-106725000D01*
X100500000Y-106725000D01*
X100500000Y-106875500D01*
X100480315Y-106942539D01*
X100427511Y-106988294D01*
X100376000Y-106999500D01*
X100224500Y-106999500D01*
X100157461Y-106979815D01*
X100111706Y-106927011D01*
X100100500Y-106875500D01*
X100100499Y-105902155D01*
X100500000Y-105902155D01*
X100500000Y-106225000D01*
X101075000Y-106225000D01*
X101575000Y-106225000D01*
X102150000Y-106225000D01*
X102150000Y-105902172D01*
X102149999Y-105902155D01*
X102143598Y-105842627D01*
X102143596Y-105842620D01*
X102093354Y-105707913D01*
X102093350Y-105707906D01*
X102007190Y-105592812D01*
X102007187Y-105592809D01*
X101892093Y-105506649D01*
X101892086Y-105506645D01*
X101757379Y-105456403D01*
X101757372Y-105456401D01*
X101697844Y-105450000D01*
X101575000Y-105450000D01*
X101575000Y-106225000D01*
X101075000Y-106225000D01*
X101075000Y-105450000D01*
X100952155Y-105450000D01*
X100892627Y-105456401D01*
X100892620Y-105456403D01*
X100757913Y-105506645D01*
X100757906Y-105506649D01*
X100642812Y-105592809D01*
X100642809Y-105592812D01*
X100556649Y-105707906D01*
X100556645Y-105707913D01*
X100506403Y-105842620D01*
X100506401Y-105842627D01*
X100500000Y-105902155D01*
X100100499Y-105902155D01*
X100100499Y-105902129D01*
X100100498Y-105902123D01*
X100100497Y-105902116D01*
X100094091Y-105842517D01*
X100093042Y-105839705D01*
X100043797Y-105707671D01*
X100043793Y-105707664D01*
X99962660Y-105599285D01*
X99957546Y-105592454D01*
X99957544Y-105592452D01*
X99957542Y-105592450D01*
X99925188Y-105568230D01*
X99883318Y-105512296D01*
X99875500Y-105468964D01*
X99875500Y-103331034D01*
X99895185Y-103263995D01*
X99925185Y-103231770D01*
X99957546Y-103207546D01*
X100043796Y-103092331D01*
X100094091Y-102957483D01*
X100100500Y-102897873D01*
X100100500Y-102897844D01*
X100500000Y-102897844D01*
X100506401Y-102957372D01*
X100506403Y-102957379D01*
X100556645Y-103092086D01*
X100556649Y-103092093D01*
X100642809Y-103207187D01*
X100642812Y-103207190D01*
X100757906Y-103293350D01*
X100757913Y-103293354D01*
X100892620Y-103343596D01*
X100892627Y-103343598D01*
X100952155Y-103349999D01*
X100952172Y-103350000D01*
X101075000Y-103350000D01*
X101575000Y-103350000D01*
X101697828Y-103350000D01*
X101697844Y-103349999D01*
X101757372Y-103343598D01*
X101757379Y-103343596D01*
X101892086Y-103293354D01*
X101892093Y-103293350D01*
X102007187Y-103207190D01*
X102007190Y-103207187D01*
X102093350Y-103092093D01*
X102093354Y-103092086D01*
X102143596Y-102957379D01*
X102143598Y-102957372D01*
X102149999Y-102897844D01*
X102150000Y-102897827D01*
X102150000Y-102575000D01*
X101575000Y-102575000D01*
X101575000Y-103350000D01*
X101075000Y-103350000D01*
X101075000Y-102575000D01*
X100500000Y-102575000D01*
X100500000Y-102897844D01*
X100100500Y-102897844D01*
X100100499Y-101752155D01*
X100500000Y-101752155D01*
X100500000Y-102075000D01*
X101075000Y-102075000D01*
X101075000Y-101300000D01*
X101575000Y-101300000D01*
X101575000Y-102075000D01*
X102150000Y-102075000D01*
X102150000Y-101752172D01*
X102149999Y-101752170D01*
X102149520Y-101747709D01*
X102161922Y-101678948D01*
X102209530Y-101627809D01*
X102254125Y-101616424D01*
X102270000Y-101604504D01*
X102270000Y-101050000D01*
X101741210Y-101050000D01*
X101742854Y-101070910D01*
X101763335Y-101141406D01*
X101763135Y-101211275D01*
X101725192Y-101269945D01*
X101661553Y-101298788D01*
X101644258Y-101300000D01*
X101575000Y-101300000D01*
X101075000Y-101300000D01*
X100952155Y-101300000D01*
X100892627Y-101306401D01*
X100892620Y-101306403D01*
X100757913Y-101356645D01*
X100757906Y-101356649D01*
X100642812Y-101442809D01*
X100642809Y-101442812D01*
X100556649Y-101557906D01*
X100556645Y-101557913D01*
X100506403Y-101692620D01*
X100506401Y-101692627D01*
X100500000Y-101752155D01*
X100100499Y-101752155D01*
X100100499Y-101752128D01*
X100094091Y-101692517D01*
X100089762Y-101680911D01*
X100043797Y-101557671D01*
X100043794Y-101557666D01*
X100009610Y-101512003D01*
X99982112Y-101475270D01*
X99957695Y-101409808D01*
X99972546Y-101341534D01*
X99974598Y-101337922D01*
X100032869Y-101239393D01*
X100077665Y-101085204D01*
X100080500Y-101049181D01*
X100080499Y-100900096D01*
X100100183Y-100833057D01*
X100116809Y-100812425D01*
X100492418Y-100436816D01*
X100553740Y-100403334D01*
X100580098Y-100400500D01*
X101618832Y-100400500D01*
X101685871Y-100420185D01*
G37*
%TD.AperFunction*%
%TA.AperFunction,Conductor*%
G36*
X121580048Y-92120185D02*
G01*
X121625803Y-92172989D01*
X121635948Y-92208312D01*
X121639237Y-92233290D01*
X121636262Y-92233681D01*
X121636262Y-92266316D01*
X121639237Y-92266708D01*
X121638176Y-92274762D01*
X121638176Y-92274764D01*
X121637103Y-92282913D01*
X121623363Y-92387272D01*
X121623363Y-92612727D01*
X121639237Y-92733292D01*
X121636262Y-92733683D01*
X121636262Y-92766316D01*
X121639237Y-92766708D01*
X121623363Y-92887272D01*
X121623363Y-93112727D01*
X121639237Y-93233292D01*
X121636262Y-93233683D01*
X121636262Y-93266316D01*
X121639237Y-93266708D01*
X121623363Y-93387272D01*
X121623363Y-93612727D01*
X121639237Y-93733293D01*
X121637456Y-93733527D01*
X121639667Y-93767270D01*
X121628774Y-93849999D01*
X121630664Y-93852154D01*
X121690366Y-93869685D01*
X121721701Y-93898512D01*
X121741654Y-93924515D01*
X121766847Y-93989684D01*
X121752808Y-94058129D01*
X121741654Y-94075484D01*
X121721702Y-94101486D01*
X121665276Y-94142689D01*
X121629757Y-94148879D01*
X121628774Y-94150000D01*
X121639667Y-94232729D01*
X121637458Y-94266473D01*
X121639237Y-94266708D01*
X121633648Y-94309157D01*
X121605381Y-94373053D01*
X121547056Y-94411523D01*
X121542804Y-94412744D01*
X121439515Y-94440421D01*
X121439504Y-94440426D01*
X121302585Y-94519475D01*
X121302577Y-94519481D01*
X120439481Y-95382577D01*
X120439475Y-95382585D01*
X120389749Y-95468715D01*
X120389749Y-95468716D01*
X120360423Y-95519510D01*
X120319499Y-95672238D01*
X120319499Y-95672240D01*
X120319499Y-95840341D01*
X120319500Y-95840354D01*
X120319500Y-97333333D01*
X120299815Y-97400372D01*
X120283181Y-97421014D01*
X120269887Y-97434307D01*
X120269881Y-97434315D01*
X120187505Y-97573606D01*
X120187504Y-97573609D01*
X120142357Y-97729002D01*
X120142356Y-97729008D01*
X120139500Y-97765302D01*
X120139500Y-98234697D01*
X120142356Y-98270991D01*
X120142357Y-98270997D01*
X120187504Y-98426390D01*
X120187504Y-98426391D01*
X120187505Y-98426393D01*
X120187506Y-98426395D01*
X120212245Y-98468227D01*
X120252846Y-98536880D01*
X120270028Y-98604604D01*
X120252846Y-98663120D01*
X120187504Y-98773608D01*
X120187504Y-98773609D01*
X120142357Y-98929002D01*
X120142356Y-98929008D01*
X120139500Y-98965302D01*
X120139500Y-99434697D01*
X120142356Y-99470991D01*
X120142357Y-99470997D01*
X120187504Y-99626390D01*
X120187505Y-99626393D01*
X120187506Y-99626395D01*
X120205667Y-99657104D01*
X120246566Y-99726261D01*
X120269883Y-99765687D01*
X120283180Y-99778984D01*
X120316666Y-99840305D01*
X120319500Y-99866666D01*
X120319500Y-100033330D01*
X120319499Y-100033348D01*
X120319499Y-100199054D01*
X120319498Y-100199054D01*
X120360423Y-100351786D01*
X120360424Y-100351787D01*
X120389205Y-100401637D01*
X120439482Y-100488719D01*
X120444429Y-100495166D01*
X120443007Y-100496256D01*
X120471666Y-100548740D01*
X120474500Y-100575098D01*
X120474500Y-100898336D01*
X120474501Y-100898355D01*
X120484650Y-100997707D01*
X120484651Y-100997710D01*
X120537996Y-101158694D01*
X120538001Y-101158705D01*
X120627029Y-101303040D01*
X120627032Y-101303044D01*
X120746955Y-101422967D01*
X120746959Y-101422970D01*
X120891294Y-101511998D01*
X120891297Y-101511999D01*
X120891303Y-101512003D01*
X121052292Y-101565349D01*
X121151655Y-101575500D01*
X121698344Y-101575499D01*
X121698352Y-101575498D01*
X121698355Y-101575498D01*
X121752760Y-101569940D01*
X121797708Y-101565349D01*
X121958697Y-101512003D01*
X122103044Y-101422968D01*
X122112319Y-101413693D01*
X122173642Y-101380208D01*
X122243334Y-101385192D01*
X122287681Y-101413693D01*
X122296955Y-101422967D01*
X122296959Y-101422970D01*
X122441294Y-101511998D01*
X122441297Y-101511999D01*
X122441303Y-101512003D01*
X122602292Y-101565349D01*
X122690306Y-101574340D01*
X122754997Y-101600736D01*
X122795148Y-101657916D01*
X122798012Y-101727727D01*
X122765384Y-101785379D01*
X120587584Y-103963181D01*
X120526261Y-103996666D01*
X120499903Y-103999500D01*
X119566322Y-103999500D01*
X119499283Y-103979815D01*
X119453528Y-103927011D01*
X119443102Y-103889383D01*
X119435369Y-103820750D01*
X119435368Y-103820748D01*
X119435368Y-103820745D01*
X119375789Y-103650478D01*
X119369506Y-103640478D01*
X119350500Y-103574507D01*
X119350500Y-102132940D01*
X119370185Y-102065901D01*
X119386819Y-102045259D01*
X119390039Y-102042039D01*
X119429816Y-102002262D01*
X119525789Y-101849522D01*
X119585368Y-101679255D01*
X119585403Y-101678948D01*
X119605565Y-101500003D01*
X119605565Y-101499996D01*
X119585369Y-101320750D01*
X119585368Y-101320745D01*
X119584022Y-101316897D01*
X119525789Y-101150478D01*
X119524067Y-101147738D01*
X119453039Y-101034697D01*
X119429816Y-100997738D01*
X119302262Y-100870184D01*
X119293426Y-100864632D01*
X119149523Y-100774211D01*
X118979254Y-100714631D01*
X118979249Y-100714630D01*
X118800004Y-100694435D01*
X118799996Y-100694435D01*
X118620750Y-100714630D01*
X118620745Y-100714631D01*
X118450476Y-100774211D01*
X118297737Y-100870184D01*
X118170184Y-100997737D01*
X118074211Y-101150476D01*
X118014631Y-101320745D01*
X118014630Y-101320750D01*
X117994435Y-101499996D01*
X117994435Y-101500003D01*
X118014630Y-101679249D01*
X118014631Y-101679254D01*
X118074211Y-101849524D01*
X118130493Y-101939094D01*
X118149500Y-102005067D01*
X118149500Y-103317059D01*
X118129815Y-103384098D01*
X118113182Y-103404740D01*
X118020183Y-103497739D01*
X117924210Y-103650478D01*
X117864630Y-103820750D01*
X117856898Y-103889383D01*
X117829832Y-103953797D01*
X117772237Y-103993352D01*
X117733678Y-103999500D01*
X109197157Y-103999500D01*
X109130118Y-103979815D01*
X109109476Y-103963181D01*
X108890041Y-103743746D01*
X108890033Y-103743740D01*
X108778898Y-103679577D01*
X108778897Y-103679576D01*
X108760770Y-103669111D01*
X108753109Y-103664688D01*
X108600381Y-103623764D01*
X108442267Y-103623764D01*
X108434671Y-103623764D01*
X108434655Y-103623765D01*
X106558147Y-103623765D01*
X106491108Y-103604080D01*
X106480832Y-103596710D01*
X106477998Y-103594450D01*
X106477997Y-103594449D01*
X106408818Y-103550981D01*
X106325258Y-103498476D01*
X106154989Y-103438896D01*
X106154984Y-103438895D01*
X105975739Y-103418700D01*
X105975731Y-103418700D01*
X105796485Y-103438895D01*
X105796480Y-103438896D01*
X105626211Y-103498476D01*
X105473472Y-103594449D01*
X105345919Y-103722002D01*
X105249946Y-103874741D01*
X105190366Y-104045010D01*
X105190365Y-104045015D01*
X105170170Y-104224261D01*
X105170170Y-104224268D01*
X105190365Y-104403514D01*
X105190366Y-104403519D01*
X105249946Y-104573788D01*
X105312205Y-104672872D01*
X105345919Y-104726527D01*
X105473473Y-104854081D01*
X105626213Y-104950054D01*
X105768965Y-105000005D01*
X105796480Y-105009633D01*
X105796485Y-105009634D01*
X105975731Y-105029830D01*
X105975735Y-105029830D01*
X105975739Y-105029830D01*
X106154984Y-105009634D01*
X106154987Y-105009633D01*
X106154990Y-105009633D01*
X106325257Y-104950054D01*
X106477997Y-104854081D01*
X106478002Y-104854075D01*
X106480832Y-104851820D01*
X106483010Y-104850930D01*
X106483893Y-104850376D01*
X106483990Y-104850530D01*
X106545518Y-104825410D01*
X106558147Y-104824765D01*
X107724220Y-104824765D01*
X107791259Y-104844450D01*
X107837014Y-104897254D01*
X107846958Y-104966412D01*
X107841263Y-104989716D01*
X107838897Y-104996475D01*
X107838895Y-104996485D01*
X107818700Y-105175731D01*
X107818700Y-105175738D01*
X107838895Y-105354984D01*
X107838896Y-105354989D01*
X107898476Y-105525258D01*
X107944666Y-105598768D01*
X107994449Y-105677997D01*
X108122003Y-105805551D01*
X108183665Y-105844296D01*
X108273905Y-105900998D01*
X108274743Y-105901524D01*
X108377171Y-105937365D01*
X108445010Y-105961103D01*
X108445015Y-105961104D01*
X108624261Y-105981300D01*
X108624265Y-105981300D01*
X108624269Y-105981300D01*
X108803514Y-105961104D01*
X108803517Y-105961103D01*
X108803520Y-105961103D01*
X108973787Y-105901524D01*
X109104318Y-105819505D01*
X109170289Y-105800500D01*
X113667588Y-105800500D01*
X113734627Y-105820185D01*
X113744903Y-105827555D01*
X113747736Y-105829814D01*
X113747738Y-105829816D01*
X113849294Y-105893628D01*
X113885530Y-105916397D01*
X113900478Y-105925789D01*
X114034899Y-105972825D01*
X114070745Y-105985368D01*
X114070750Y-105985369D01*
X114249996Y-106005565D01*
X114250000Y-106005565D01*
X114250004Y-106005565D01*
X114429249Y-105985369D01*
X114429252Y-105985368D01*
X114429255Y-105985368D01*
X114599522Y-105925789D01*
X114614470Y-105916397D01*
X114629003Y-105907265D01*
X114696239Y-105888264D01*
X114763075Y-105908631D01*
X114808289Y-105961898D01*
X114811927Y-105972825D01*
X114812333Y-105972683D01*
X114814631Y-105979252D01*
X114814632Y-105979255D01*
X114841377Y-106055687D01*
X114874210Y-106149521D01*
X114905614Y-106199500D01*
X114970184Y-106302262D01*
X115097738Y-106429816D01*
X115250478Y-106525789D01*
X115359851Y-106564060D01*
X115416627Y-106604782D01*
X115435938Y-106640146D01*
X115474211Y-106749523D01*
X115474212Y-106749524D01*
X115511915Y-106809528D01*
X115530915Y-106876765D01*
X115510547Y-106943600D01*
X115457279Y-106988814D01*
X115406921Y-106999500D01*
X104424500Y-106999500D01*
X104357461Y-106979815D01*
X104311706Y-106927011D01*
X104300500Y-106875500D01*
X104300499Y-105902129D01*
X104300498Y-105902123D01*
X104300497Y-105902116D01*
X104294091Y-105842517D01*
X104293042Y-105839705D01*
X104243797Y-105707671D01*
X104243793Y-105707664D01*
X104162660Y-105599285D01*
X104157546Y-105592454D01*
X104157544Y-105592452D01*
X104157542Y-105592450D01*
X104125188Y-105568230D01*
X104083318Y-105512296D01*
X104075500Y-105468964D01*
X104075500Y-103331034D01*
X104095185Y-103263995D01*
X104125185Y-103231770D01*
X104157546Y-103207546D01*
X104243796Y-103092331D01*
X104294091Y-102957483D01*
X104300500Y-102897873D01*
X104300499Y-101752128D01*
X104294091Y-101692517D01*
X104289762Y-101680911D01*
X104243797Y-101557671D01*
X104243794Y-101557666D01*
X104166436Y-101454329D01*
X104142019Y-101388865D01*
X104156871Y-101320592D01*
X104158971Y-101316897D01*
X104165177Y-101306403D01*
X104212494Y-101226395D01*
X104254659Y-101081261D01*
X104286051Y-101028182D01*
X109877416Y-95436819D01*
X109938739Y-95403334D01*
X109965097Y-95400500D01*
X117713331Y-95400500D01*
X117713347Y-95400501D01*
X117720943Y-95400501D01*
X117879054Y-95400501D01*
X117879057Y-95400501D01*
X118031785Y-95359577D01*
X118125336Y-95305565D01*
X118168716Y-95280520D01*
X118280520Y-95168716D01*
X118280520Y-95168714D01*
X118290724Y-95158511D01*
X118290727Y-95158506D01*
X121312417Y-92136819D01*
X121373740Y-92103334D01*
X121400098Y-92100500D01*
X121513009Y-92100500D01*
X121580048Y-92120185D01*
G37*
%TD.AperFunction*%
%TA.AperFunction,Conductor*%
G36*
X140922539Y-86820185D02*
G01*
X140968294Y-86872989D01*
X140979500Y-86924500D01*
X140979500Y-87309169D01*
X140979501Y-87309191D01*
X140982335Y-87345205D01*
X141027129Y-87499388D01*
X141027131Y-87499393D01*
X141108863Y-87637595D01*
X141108869Y-87637603D01*
X141222396Y-87751130D01*
X141222400Y-87751133D01*
X141222402Y-87751135D01*
X141360607Y-87832869D01*
X141401268Y-87844682D01*
X141514791Y-87877664D01*
X141514794Y-87877664D01*
X141514796Y-87877665D01*
X141550819Y-87880500D01*
X142049180Y-87880499D01*
X142085204Y-87877665D01*
X142239393Y-87832869D01*
X142377598Y-87751135D01*
X142411913Y-87716820D01*
X142473235Y-87683334D01*
X142499595Y-87680500D01*
X142910909Y-87680500D01*
X142977948Y-87700185D01*
X143023292Y-87752097D01*
X143025965Y-87757830D01*
X143161501Y-87951396D01*
X143161506Y-87951402D01*
X143328597Y-88118493D01*
X143328603Y-88118498D01*
X143514158Y-88248425D01*
X143557783Y-88303002D01*
X143564977Y-88372500D01*
X143533454Y-88434855D01*
X143514158Y-88451575D01*
X143328597Y-88581505D01*
X143161505Y-88748597D01*
X143025965Y-88942169D01*
X143025964Y-88942171D01*
X142926098Y-89156335D01*
X142926094Y-89156344D01*
X142864938Y-89384586D01*
X142864936Y-89384596D01*
X142844341Y-89619999D01*
X142844341Y-89620000D01*
X142864936Y-89855403D01*
X142864938Y-89855413D01*
X142926094Y-90083655D01*
X142926096Y-90083659D01*
X142926097Y-90083663D01*
X143003884Y-90250478D01*
X143025965Y-90297830D01*
X143025967Y-90297834D01*
X143119356Y-90431206D01*
X143161505Y-90491401D01*
X143328599Y-90658495D01*
X143390746Y-90702011D01*
X143522165Y-90794032D01*
X143522167Y-90794033D01*
X143522170Y-90794035D01*
X143736337Y-90893903D01*
X143964592Y-90955063D01*
X144152918Y-90971539D01*
X144199999Y-90975659D01*
X144200000Y-90975659D01*
X144200001Y-90975659D01*
X144240884Y-90972082D01*
X144435408Y-90955063D01*
X144663663Y-90893903D01*
X144877830Y-90794035D01*
X145071401Y-90658495D01*
X145238495Y-90491401D01*
X145273925Y-90440802D01*
X145328502Y-90397177D01*
X145398000Y-90389983D01*
X145460355Y-90421506D01*
X145495769Y-90481735D01*
X145499500Y-90511925D01*
X145499500Y-103306617D01*
X145479815Y-103373656D01*
X145427011Y-103419411D01*
X145357853Y-103429355D01*
X145294297Y-103400330D01*
X145279957Y-103385659D01*
X145253348Y-103353495D01*
X145123720Y-103231766D01*
X145033162Y-103146726D01*
X145033159Y-103146724D01*
X145033153Y-103146719D01*
X144788806Y-102969191D01*
X144788799Y-102969186D01*
X144788795Y-102969184D01*
X144524104Y-102823668D01*
X144524101Y-102823666D01*
X144524096Y-102823664D01*
X144524095Y-102823663D01*
X144243265Y-102712475D01*
X144243262Y-102712474D01*
X143950695Y-102637357D01*
X143651036Y-102599500D01*
X143651027Y-102599500D01*
X143348973Y-102599500D01*
X143348963Y-102599500D01*
X143049304Y-102637357D01*
X142756737Y-102712474D01*
X142756734Y-102712475D01*
X142475904Y-102823663D01*
X142475903Y-102823664D01*
X142211205Y-102969184D01*
X142211193Y-102969191D01*
X141966846Y-103146719D01*
X141966836Y-103146727D01*
X141746652Y-103353494D01*
X141554111Y-103586236D01*
X141392268Y-103841261D01*
X141392265Y-103841267D01*
X141263661Y-104114563D01*
X141263659Y-104114568D01*
X141170320Y-104401835D01*
X141113719Y-104698546D01*
X141113718Y-104698553D01*
X141094754Y-104999994D01*
X141094754Y-105000005D01*
X141113718Y-105301446D01*
X141113719Y-105301453D01*
X141126297Y-105367387D01*
X141153117Y-105507986D01*
X141170320Y-105598164D01*
X141263659Y-105885431D01*
X141263661Y-105885436D01*
X141392265Y-106158732D01*
X141392268Y-106158738D01*
X141554111Y-106413763D01*
X141554114Y-106413767D01*
X141554115Y-106413768D01*
X141746651Y-106646504D01*
X141830240Y-106725000D01*
X141894249Y-106785108D01*
X141929644Y-106845349D01*
X141926851Y-106915163D01*
X141886757Y-106972384D01*
X141822092Y-106998845D01*
X141809365Y-106999500D01*
X140691361Y-106999500D01*
X140624322Y-106979815D01*
X140578567Y-106927011D01*
X140568623Y-106857853D01*
X140572284Y-106840906D01*
X140604504Y-106730000D01*
X137795496Y-106730000D01*
X137827716Y-106840906D01*
X137827516Y-106910775D01*
X137789573Y-106969445D01*
X137725935Y-106998288D01*
X137708639Y-106999500D01*
X132749097Y-106999500D01*
X132682058Y-106979815D01*
X132636303Y-106927011D01*
X132626359Y-106857853D01*
X132655384Y-106794297D01*
X132661416Y-106787819D01*
X132949770Y-106499465D01*
X134019526Y-105429707D01*
X134080847Y-105396224D01*
X134150538Y-105401208D01*
X134206472Y-105443079D01*
X134229045Y-105500450D01*
X134229124Y-105500432D01*
X134229253Y-105500978D01*
X134230494Y-105504132D01*
X134230907Y-105507980D01*
X134281202Y-105642828D01*
X134281206Y-105642835D01*
X134367452Y-105758044D01*
X134367455Y-105758047D01*
X134482664Y-105844293D01*
X134482671Y-105844297D01*
X134492656Y-105848021D01*
X134617517Y-105894591D01*
X134677127Y-105901000D01*
X135022872Y-105900999D01*
X135082483Y-105894591D01*
X135082483Y-105894590D01*
X135089096Y-105893880D01*
X135115607Y-105893881D01*
X135177157Y-105900499D01*
X135177172Y-105900500D01*
X135225000Y-105900500D01*
X135225051Y-105900448D01*
X135244685Y-105833584D01*
X135274691Y-105801356D01*
X135276697Y-105799853D01*
X135342161Y-105775441D01*
X135410433Y-105790297D01*
X135459836Y-105839705D01*
X135475000Y-105899126D01*
X135475000Y-105900500D01*
X135522828Y-105900500D01*
X135522841Y-105900499D01*
X135586743Y-105893628D01*
X135613257Y-105893628D01*
X135677158Y-105900499D01*
X135677172Y-105900500D01*
X135725000Y-105900500D01*
X135725000Y-105899126D01*
X135744685Y-105832087D01*
X135797489Y-105786332D01*
X135866647Y-105776388D01*
X135923301Y-105799853D01*
X135925307Y-105801354D01*
X135967179Y-105857283D01*
X135974972Y-105900472D01*
X135975000Y-105900500D01*
X136022828Y-105900500D01*
X136022839Y-105900499D01*
X136084395Y-105893880D01*
X136110909Y-105893880D01*
X136117514Y-105894590D01*
X136117517Y-105894591D01*
X136177127Y-105901000D01*
X136522872Y-105900999D01*
X136582483Y-105894591D01*
X136717331Y-105844296D01*
X136832546Y-105758046D01*
X136918796Y-105642831D01*
X136969091Y-105507983D01*
X136975500Y-105448373D01*
X136975499Y-105204499D01*
X136995183Y-105137461D01*
X137047987Y-105091706D01*
X137099499Y-105080500D01*
X137684876Y-105080500D01*
X137751915Y-105100185D01*
X137797670Y-105152989D01*
X137807614Y-105222147D01*
X137803952Y-105239095D01*
X137792357Y-105279002D01*
X137792356Y-105279008D01*
X137789500Y-105315302D01*
X137789500Y-105724697D01*
X137792356Y-105760991D01*
X137792357Y-105760997D01*
X137837504Y-105916390D01*
X137837507Y-105916397D01*
X137849910Y-105937370D01*
X137867093Y-106005094D01*
X137849912Y-106063608D01*
X137837968Y-106083804D01*
X137795496Y-106230000D01*
X138101648Y-106230000D01*
X138164766Y-106247267D01*
X138173605Y-106252494D01*
X138173608Y-106252494D01*
X138173610Y-106252496D01*
X138329002Y-106297642D01*
X138329005Y-106297642D01*
X138329007Y-106297643D01*
X138365310Y-106300500D01*
X138365318Y-106300500D01*
X138834682Y-106300500D01*
X138834690Y-106300500D01*
X138870993Y-106297643D01*
X138870995Y-106297642D01*
X138870997Y-106297642D01*
X139026389Y-106252496D01*
X139026389Y-106252495D01*
X139026395Y-106252494D01*
X139035233Y-106247267D01*
X139098352Y-106230000D01*
X139301648Y-106230000D01*
X139364766Y-106247267D01*
X139373605Y-106252494D01*
X139373608Y-106252494D01*
X139373610Y-106252496D01*
X139529002Y-106297642D01*
X139529005Y-106297642D01*
X139529007Y-106297643D01*
X139565310Y-106300500D01*
X139565318Y-106300500D01*
X140034682Y-106300500D01*
X140034690Y-106300500D01*
X140070993Y-106297643D01*
X140070995Y-106297642D01*
X140070997Y-106297642D01*
X140226389Y-106252496D01*
X140226389Y-106252495D01*
X140226395Y-106252494D01*
X140235233Y-106247267D01*
X140298352Y-106230000D01*
X140604504Y-106230000D01*
X140562031Y-106083803D01*
X140550090Y-106063613D01*
X140532906Y-105995889D01*
X140550089Y-105937369D01*
X140562494Y-105916395D01*
X140603170Y-105776388D01*
X140607642Y-105760997D01*
X140607643Y-105760991D01*
X140609593Y-105736216D01*
X140610500Y-105724690D01*
X140610500Y-105315310D01*
X140607643Y-105279007D01*
X140597776Y-105245046D01*
X140571031Y-105152989D01*
X140562494Y-105123605D01*
X140480117Y-104984313D01*
X140480115Y-104984311D01*
X140480112Y-104984307D01*
X140365692Y-104869887D01*
X140365684Y-104869881D01*
X140226393Y-104787505D01*
X140226390Y-104787504D01*
X140070997Y-104742357D01*
X140070991Y-104742356D01*
X140034697Y-104739500D01*
X140034690Y-104739500D01*
X139565310Y-104739500D01*
X139565302Y-104739500D01*
X139544228Y-104741159D01*
X139475851Y-104726794D01*
X139426094Y-104677743D01*
X139410500Y-104617541D01*
X139410500Y-104275317D01*
X139410499Y-104275302D01*
X139410245Y-104272077D01*
X139407643Y-104239007D01*
X139405399Y-104231284D01*
X139362495Y-104083609D01*
X139362494Y-104083605D01*
X139356898Y-104074143D01*
X139350089Y-104062630D01*
X139332906Y-103994909D01*
X139350091Y-103936384D01*
X139362032Y-103916194D01*
X139404504Y-103770000D01*
X139098352Y-103770000D01*
X139035233Y-103752732D01*
X139026395Y-103747506D01*
X139026393Y-103747505D01*
X139026389Y-103747503D01*
X138870997Y-103702357D01*
X138870991Y-103702356D01*
X138834697Y-103699500D01*
X138834690Y-103699500D01*
X138365310Y-103699500D01*
X138365302Y-103699500D01*
X138329008Y-103702356D01*
X138329002Y-103702357D01*
X138173610Y-103747503D01*
X138173605Y-103747506D01*
X138164766Y-103752732D01*
X138101648Y-103770000D01*
X137795495Y-103770000D01*
X137781037Y-103789255D01*
X137781033Y-103790774D01*
X137743091Y-103849444D01*
X137679453Y-103878288D01*
X137662156Y-103879500D01*
X137366509Y-103879500D01*
X137299470Y-103859815D01*
X137253715Y-103807011D01*
X137243221Y-103768770D01*
X137242629Y-103763270D01*
X137242628Y-103736743D01*
X137249499Y-103672841D01*
X137249500Y-103672827D01*
X137249500Y-103625000D01*
X136935823Y-103625000D01*
X136868784Y-103605315D01*
X136823029Y-103552511D01*
X136813085Y-103483353D01*
X136836552Y-103426695D01*
X136838049Y-103424695D01*
X136893980Y-103382821D01*
X136937320Y-103375000D01*
X137249500Y-103375000D01*
X137249500Y-103327172D01*
X137249499Y-103327155D01*
X137243353Y-103270000D01*
X137795496Y-103270000D01*
X138350000Y-103270000D01*
X138850000Y-103270000D01*
X139404504Y-103270000D01*
X139362031Y-103123804D01*
X139279721Y-102984625D01*
X139279714Y-102984616D01*
X139165383Y-102870285D01*
X139165374Y-102870278D01*
X139026195Y-102787968D01*
X139026190Y-102787966D01*
X138870918Y-102742855D01*
X138870912Y-102742854D01*
X138850000Y-102741209D01*
X138850000Y-103270000D01*
X138350000Y-103270000D01*
X138350000Y-102741210D01*
X138349999Y-102741209D01*
X138329087Y-102742854D01*
X138329081Y-102742855D01*
X138173809Y-102787966D01*
X138173804Y-102787968D01*
X138034625Y-102870278D01*
X138034616Y-102870285D01*
X137920285Y-102984616D01*
X137920278Y-102984625D01*
X137837968Y-103123804D01*
X137795496Y-103270000D01*
X137243353Y-103270000D01*
X137243098Y-103267627D01*
X137243096Y-103267620D01*
X137192854Y-103132913D01*
X137192850Y-103132906D01*
X137106690Y-103017812D01*
X137049941Y-102975329D01*
X137008071Y-102919395D01*
X137002947Y-102874185D01*
X137000501Y-102874185D01*
X137000501Y-102700347D01*
X137000500Y-102700329D01*
X137000500Y-101324500D01*
X137020185Y-101257461D01*
X137072989Y-101211706D01*
X137124500Y-101200500D01*
X137279057Y-101200500D01*
X138017588Y-101200500D01*
X138084627Y-101220185D01*
X138094903Y-101227555D01*
X138097736Y-101229814D01*
X138097738Y-101229816D01*
X138206812Y-101298352D01*
X138248426Y-101324500D01*
X138250478Y-101325789D01*
X138420745Y-101385368D01*
X138486970Y-101392829D01*
X138505167Y-101396273D01*
X138510009Y-101397570D01*
X138520943Y-101400500D01*
X138548085Y-101400500D01*
X138561969Y-101401280D01*
X138599998Y-101405565D01*
X138600000Y-101405565D01*
X138600002Y-101405565D01*
X138638031Y-101401280D01*
X138651915Y-101400500D01*
X138679055Y-101400500D01*
X138679057Y-101400500D01*
X138694834Y-101396272D01*
X138713020Y-101392830D01*
X138779255Y-101385368D01*
X138949522Y-101325789D01*
X139102262Y-101229816D01*
X139229816Y-101102262D01*
X139325789Y-100949522D01*
X139385368Y-100779255D01*
X139385369Y-100779249D01*
X139405565Y-100600003D01*
X139405565Y-100599996D01*
X139385369Y-100420750D01*
X139385368Y-100420745D01*
X139364325Y-100360607D01*
X139325789Y-100250478D01*
X139317032Y-100236542D01*
X139261129Y-100147572D01*
X139229816Y-100097738D01*
X139102262Y-99970184D01*
X139059287Y-99943181D01*
X138949523Y-99874211D01*
X138779254Y-99814631D01*
X138779249Y-99814630D01*
X138600004Y-99794435D01*
X138599996Y-99794435D01*
X138420750Y-99814630D01*
X138420745Y-99814631D01*
X138250476Y-99874211D01*
X138097736Y-99970185D01*
X138094903Y-99972445D01*
X138092724Y-99973334D01*
X138091842Y-99973889D01*
X138091744Y-99973734D01*
X138030217Y-99998855D01*
X138017588Y-99999500D01*
X137500097Y-99999500D01*
X137433058Y-99979815D01*
X137412416Y-99963181D01*
X137236819Y-99787584D01*
X137203334Y-99726261D01*
X137200500Y-99699903D01*
X137200500Y-99657104D01*
X137209939Y-99609651D01*
X137211942Y-99604815D01*
X137234550Y-99550236D01*
X137249363Y-99437720D01*
X137249363Y-97912280D01*
X137234550Y-97799764D01*
X137233090Y-97796240D01*
X137232745Y-97793030D01*
X137232446Y-97791913D01*
X137232620Y-97791866D01*
X137225621Y-97726775D01*
X137256893Y-97664295D01*
X137316981Y-97628641D01*
X137386807Y-97631132D01*
X137395083Y-97634219D01*
X137398627Y-97635687D01*
X137511143Y-97650500D01*
X137511150Y-97650500D01*
X139036576Y-97650500D01*
X139036583Y-97650500D01*
X139149099Y-97635687D01*
X139289096Y-97577698D01*
X139409314Y-97485451D01*
X139501561Y-97365233D01*
X139559550Y-97225236D01*
X139574363Y-97112720D01*
X139574363Y-96887280D01*
X139559550Y-96774764D01*
X139559549Y-96774763D01*
X139558489Y-96766705D01*
X139561552Y-96766301D01*
X139561552Y-96733698D01*
X139558489Y-96733295D01*
X139559550Y-96725236D01*
X139574363Y-96612720D01*
X139574363Y-96387280D01*
X139559550Y-96274764D01*
X139559549Y-96274763D01*
X139558489Y-96266705D01*
X139561552Y-96266301D01*
X139561552Y-96233698D01*
X139558489Y-96233295D01*
X139559550Y-96225236D01*
X139574363Y-96112720D01*
X139574363Y-95950000D01*
X143135000Y-95950000D01*
X145225000Y-95950000D01*
X145225000Y-94050000D01*
X143135000Y-94050000D01*
X143135000Y-95950000D01*
X139574363Y-95950000D01*
X139574363Y-95887280D01*
X139559550Y-95774764D01*
X139559549Y-95774763D01*
X139558489Y-95766705D01*
X139561552Y-95766301D01*
X139561552Y-95733698D01*
X139558489Y-95733295D01*
X139566527Y-95672238D01*
X139574363Y-95612720D01*
X139574363Y-95387280D01*
X139559550Y-95274764D01*
X139559549Y-95274763D01*
X139558489Y-95266705D01*
X139561552Y-95266301D01*
X139561552Y-95233698D01*
X139558489Y-95233295D01*
X139562654Y-95201655D01*
X139574363Y-95112720D01*
X139574363Y-94887280D01*
X139559550Y-94774764D01*
X139559549Y-94774763D01*
X139558489Y-94766705D01*
X139561552Y-94766301D01*
X139561552Y-94733698D01*
X139558489Y-94733295D01*
X139566389Y-94673288D01*
X139574363Y-94612720D01*
X139574363Y-94387280D01*
X139559550Y-94274764D01*
X139559549Y-94274763D01*
X139558489Y-94266705D01*
X139561552Y-94266301D01*
X139561552Y-94233698D01*
X139558489Y-94233295D01*
X139563098Y-94198288D01*
X139574363Y-94112720D01*
X139574363Y-93887280D01*
X139559550Y-93774764D01*
X139559549Y-93774763D01*
X139558489Y-93766705D01*
X139561552Y-93766301D01*
X139561552Y-93733698D01*
X139558489Y-93733295D01*
X139563605Y-93694435D01*
X139574363Y-93612720D01*
X139574363Y-93387280D01*
X139559550Y-93274764D01*
X139559549Y-93274763D01*
X139558489Y-93266705D01*
X139561552Y-93266301D01*
X139561552Y-93233698D01*
X139558489Y-93233295D01*
X139564435Y-93188127D01*
X139574363Y-93112720D01*
X139574363Y-92887280D01*
X139559550Y-92774764D01*
X139559549Y-92774763D01*
X139558489Y-92766705D01*
X139561552Y-92766301D01*
X139561552Y-92733698D01*
X139558489Y-92733295D01*
X139559550Y-92725236D01*
X139574363Y-92612720D01*
X139574363Y-92387280D01*
X139559550Y-92274764D01*
X139559549Y-92274763D01*
X139558489Y-92266705D01*
X139561552Y-92266301D01*
X139561552Y-92233698D01*
X139558489Y-92233295D01*
X139563982Y-92191571D01*
X139574363Y-92112720D01*
X139574363Y-91887280D01*
X139559550Y-91774764D01*
X139559549Y-91774763D01*
X139558489Y-91766705D01*
X139561552Y-91766301D01*
X139561552Y-91733698D01*
X139558489Y-91733295D01*
X139559550Y-91725236D01*
X139574363Y-91612720D01*
X139574363Y-91387280D01*
X139559550Y-91274764D01*
X139559549Y-91274763D01*
X139558489Y-91266705D01*
X139561552Y-91266301D01*
X139561552Y-91233698D01*
X139558489Y-91233295D01*
X139565524Y-91179856D01*
X139574363Y-91112720D01*
X139574363Y-90887280D01*
X139559550Y-90774764D01*
X139559549Y-90774763D01*
X139558489Y-90766705D01*
X139561552Y-90766301D01*
X139561552Y-90733698D01*
X139558489Y-90733295D01*
X139562319Y-90704204D01*
X139574363Y-90612720D01*
X139574363Y-90387280D01*
X139559550Y-90274764D01*
X139559549Y-90274763D01*
X139558489Y-90266705D01*
X139561552Y-90266301D01*
X139561552Y-90233698D01*
X139558489Y-90233295D01*
X139563808Y-90192890D01*
X139574363Y-90112720D01*
X139574363Y-89887280D01*
X139559550Y-89774764D01*
X139559549Y-89774763D01*
X139558489Y-89766705D01*
X139561552Y-89766301D01*
X139561552Y-89733698D01*
X139558489Y-89733295D01*
X139559550Y-89725236D01*
X139574363Y-89612720D01*
X139574363Y-89387280D01*
X139559550Y-89274764D01*
X139559549Y-89274763D01*
X139558489Y-89266705D01*
X139561552Y-89266301D01*
X139561552Y-89233698D01*
X139558489Y-89233295D01*
X139561260Y-89212245D01*
X139574363Y-89112720D01*
X139574363Y-88887280D01*
X139559550Y-88774764D01*
X139559549Y-88774763D01*
X139558489Y-88766705D01*
X139561552Y-88766301D01*
X139561552Y-88733698D01*
X139558489Y-88733295D01*
X139561392Y-88711241D01*
X139574363Y-88612720D01*
X139574363Y-88387280D01*
X139567371Y-88334173D01*
X139578136Y-88265142D01*
X139624515Y-88212885D01*
X139691784Y-88193999D01*
X139704186Y-88194769D01*
X139762907Y-88201385D01*
X139799998Y-88205565D01*
X139800000Y-88205565D01*
X139800004Y-88205565D01*
X139979249Y-88185369D01*
X139979252Y-88185368D01*
X139979255Y-88185368D01*
X140149522Y-88125789D01*
X140302262Y-88029816D01*
X140429816Y-87902262D01*
X140525789Y-87749522D01*
X140585368Y-87579255D01*
X140586867Y-87565954D01*
X140605565Y-87400003D01*
X140605565Y-87399996D01*
X140585369Y-87220750D01*
X140585368Y-87220745D01*
X140577365Y-87197873D01*
X140525789Y-87050478D01*
X140513325Y-87030642D01*
X140488085Y-86990472D01*
X140469085Y-86923235D01*
X140489453Y-86856400D01*
X140542721Y-86811186D01*
X140593079Y-86800500D01*
X140855500Y-86800500D01*
X140922539Y-86820185D01*
G37*
%TD.AperFunction*%
%TA.AperFunction,Conductor*%
G36*
X131944599Y-103376593D02*
G01*
X131992899Y-103406492D01*
X132950781Y-104364374D01*
X132950791Y-104364385D01*
X132955121Y-104368715D01*
X132955122Y-104368716D01*
X133066926Y-104480520D01*
X133066928Y-104480521D01*
X133066930Y-104480523D01*
X133069793Y-104482720D01*
X133071595Y-104485188D01*
X133072673Y-104486266D01*
X133072504Y-104486434D01*
X133110996Y-104539148D01*
X133115150Y-104608894D01*
X133081987Y-104668776D01*
X131587584Y-106163181D01*
X131526261Y-106196666D01*
X131499903Y-106199500D01*
X130762471Y-106199500D01*
X130695432Y-106179815D01*
X130649677Y-106127011D01*
X130639733Y-106057853D01*
X130668758Y-105994297D01*
X130699350Y-105968768D01*
X130765374Y-105929721D01*
X130765383Y-105929714D01*
X130879714Y-105815383D01*
X130879721Y-105815374D01*
X130962031Y-105676195D01*
X131004504Y-105530000D01*
X129395496Y-105530000D01*
X129437968Y-105676195D01*
X129520278Y-105815374D01*
X129520285Y-105815383D01*
X129634616Y-105929714D01*
X129634625Y-105929721D01*
X129700650Y-105968768D01*
X129748334Y-106019837D01*
X129760837Y-106088579D01*
X129734192Y-106153168D01*
X129676856Y-106193098D01*
X129637529Y-106199500D01*
X128137000Y-106199500D01*
X128069961Y-106179815D01*
X128024206Y-106127011D01*
X128013000Y-106075500D01*
X128013000Y-105874000D01*
X128032685Y-105806961D01*
X128085489Y-105761206D01*
X128137000Y-105750000D01*
X128971290Y-105750000D01*
X128969645Y-105729089D01*
X128924531Y-105573804D01*
X128842221Y-105434625D01*
X128842214Y-105434616D01*
X128727883Y-105320285D01*
X128727874Y-105320278D01*
X128588695Y-105237968D01*
X128588689Y-105237966D01*
X128549836Y-105226678D01*
X128490950Y-105189072D01*
X128461744Y-105125599D01*
X128468249Y-105064269D01*
X128494090Y-104994986D01*
X128494090Y-104994985D01*
X128494091Y-104994983D01*
X128499765Y-104942207D01*
X128526500Y-104877661D01*
X128583892Y-104837812D01*
X128653717Y-104835317D01*
X128657648Y-104836390D01*
X128729086Y-104857145D01*
X128750000Y-104858789D01*
X128750000Y-104303147D01*
X128748814Y-104300976D01*
X128750000Y-104284391D01*
X128750000Y-104278638D01*
X128750411Y-104278638D01*
X128753798Y-104231284D01*
X128782299Y-104186937D01*
X128836858Y-104132378D01*
X128888020Y-104081216D01*
X128888021Y-104081214D01*
X129032418Y-103936816D01*
X129093739Y-103903334D01*
X129120097Y-103900500D01*
X129126000Y-103900500D01*
X129193039Y-103920185D01*
X129238794Y-103972989D01*
X129250000Y-104024500D01*
X129250000Y-104858789D01*
X129270949Y-104857142D01*
X129339326Y-104871509D01*
X129389081Y-104920562D01*
X129404417Y-104988728D01*
X129399750Y-105015353D01*
X129395494Y-105029999D01*
X129395495Y-105030000D01*
X129701648Y-105030000D01*
X129764766Y-105047267D01*
X129773605Y-105052494D01*
X129773608Y-105052494D01*
X129773610Y-105052496D01*
X129929002Y-105097642D01*
X129929005Y-105097642D01*
X129929007Y-105097643D01*
X129965310Y-105100500D01*
X129965318Y-105100500D01*
X130434682Y-105100500D01*
X130434690Y-105100500D01*
X130470993Y-105097643D01*
X130470995Y-105097642D01*
X130470997Y-105097642D01*
X130626389Y-105052496D01*
X130626389Y-105052495D01*
X130626395Y-105052494D01*
X130635233Y-105047267D01*
X130698352Y-105030000D01*
X131004504Y-105030000D01*
X130962031Y-104883803D01*
X130950090Y-104863613D01*
X130932906Y-104795889D01*
X130950089Y-104737369D01*
X130962494Y-104716395D01*
X131007643Y-104560993D01*
X131010500Y-104524690D01*
X131010500Y-104132378D01*
X131030185Y-104065339D01*
X131082989Y-104019584D01*
X131134500Y-104008378D01*
X131211191Y-104008378D01*
X131211216Y-104008377D01*
X131247477Y-104005524D01*
X131402763Y-103960409D01*
X131541941Y-103878100D01*
X131541950Y-103878093D01*
X131656281Y-103763762D01*
X131656288Y-103763753D01*
X131738597Y-103624575D01*
X131785479Y-103463208D01*
X131787342Y-103463749D01*
X131814623Y-103409506D01*
X131874779Y-103373967D01*
X131944599Y-103376593D01*
G37*
%TD.AperFunction*%
%TA.AperFunction,Conductor*%
G36*
X135613254Y-103568133D02*
G01*
X135665645Y-103573766D01*
X135730196Y-103600504D01*
X135770044Y-103657897D01*
X135775678Y-103683798D01*
X135781371Y-103736743D01*
X135781371Y-103763255D01*
X135774501Y-103827153D01*
X135774500Y-103827172D01*
X135774500Y-103875000D01*
X135775873Y-103875000D01*
X135842912Y-103894685D01*
X135888667Y-103947489D01*
X135898611Y-104016647D01*
X135875144Y-104073305D01*
X135873647Y-104075305D01*
X135817716Y-104117179D01*
X135774527Y-104124972D01*
X135774500Y-104125000D01*
X135774500Y-104172844D01*
X135781119Y-104234398D01*
X135781119Y-104260911D01*
X135775113Y-104316767D01*
X135748374Y-104381318D01*
X135690981Y-104421165D01*
X135665080Y-104426799D01*
X135613256Y-104432371D01*
X135586745Y-104432371D01*
X135534919Y-104426799D01*
X135470368Y-104400061D01*
X135430519Y-104342669D01*
X135424885Y-104316767D01*
X135419591Y-104267517D01*
X135419590Y-104267514D01*
X135419132Y-104263253D01*
X135419132Y-104236745D01*
X135419589Y-104232486D01*
X135419591Y-104232483D01*
X135426000Y-104172873D01*
X135425999Y-103827128D01*
X135419591Y-103767517D01*
X135419589Y-103767513D01*
X135419132Y-103763255D01*
X135419133Y-103736743D01*
X135424832Y-103683742D01*
X135451571Y-103619191D01*
X135508964Y-103579344D01*
X135534861Y-103573710D01*
X135582483Y-103568591D01*
X135582486Y-103568589D01*
X135586744Y-103568132D01*
X135613254Y-103568133D01*
G37*
%TD.AperFunction*%
%TA.AperFunction,Conductor*%
G36*
X135373626Y-99960686D02*
G01*
X135373627Y-99960687D01*
X135486143Y-99975500D01*
X135486150Y-99975500D01*
X135677252Y-99975500D01*
X135744291Y-99995185D01*
X135790046Y-100047989D01*
X135800191Y-100115686D01*
X135799499Y-100120942D01*
X135799499Y-100289046D01*
X135799500Y-100289059D01*
X135799500Y-101975000D01*
X135779815Y-102042039D01*
X135727011Y-102087794D01*
X135680389Y-102097950D01*
X135680424Y-102098617D01*
X135680428Y-102098646D01*
X135680426Y-102098646D01*
X135680436Y-102098824D01*
X135677120Y-102099001D01*
X135613248Y-102105867D01*
X135586742Y-102105867D01*
X135582483Y-102105409D01*
X135522873Y-102099000D01*
X135522865Y-102099000D01*
X135177130Y-102099000D01*
X135177120Y-102099001D01*
X135113248Y-102105867D01*
X135086742Y-102105867D01*
X135082483Y-102105409D01*
X135022873Y-102099000D01*
X135022865Y-102099000D01*
X134677130Y-102099000D01*
X134677123Y-102099001D01*
X134617516Y-102105408D01*
X134482671Y-102155702D01*
X134482664Y-102155706D01*
X134367455Y-102241952D01*
X134367452Y-102241955D01*
X134281206Y-102357164D01*
X134281202Y-102357171D01*
X134230908Y-102492017D01*
X134224501Y-102551616D01*
X134224500Y-102551635D01*
X134224500Y-102856909D01*
X134204815Y-102923948D01*
X134174811Y-102956175D01*
X134092955Y-103017452D01*
X134092952Y-103017455D01*
X134006706Y-103132664D01*
X134006702Y-103132671D01*
X133956408Y-103267516D01*
X133954125Y-103288757D01*
X133927386Y-103353308D01*
X133869993Y-103393155D01*
X133830836Y-103399500D01*
X133735739Y-103399500D01*
X133668700Y-103379815D01*
X133648058Y-103363181D01*
X131916342Y-101631465D01*
X131882857Y-101570142D01*
X131880805Y-101557686D01*
X131871010Y-101470745D01*
X131811431Y-101300478D01*
X131715458Y-101147738D01*
X131587904Y-101020184D01*
X131555812Y-101000019D01*
X131435165Y-100924211D01*
X131264896Y-100864631D01*
X131264891Y-100864630D01*
X131085646Y-100844435D01*
X131085638Y-100844435D01*
X130906392Y-100864630D01*
X130906387Y-100864631D01*
X130736118Y-100924211D01*
X130583378Y-101020185D01*
X130580545Y-101022445D01*
X130578366Y-101023334D01*
X130577484Y-101023889D01*
X130577386Y-101023734D01*
X130515859Y-101048855D01*
X130503230Y-101049500D01*
X128606158Y-101049500D01*
X128539119Y-101029815D01*
X128493364Y-100977011D01*
X128483420Y-100907853D01*
X128512445Y-100844297D01*
X128522368Y-100834770D01*
X128522338Y-100834740D01*
X128582867Y-100774211D01*
X128654816Y-100702262D01*
X128750789Y-100549522D01*
X128810368Y-100379255D01*
X128812446Y-100360811D01*
X128830565Y-100200003D01*
X128830565Y-100199997D01*
X128820294Y-100108841D01*
X128832348Y-100040019D01*
X128879697Y-99988639D01*
X128947308Y-99971015D01*
X128959682Y-99972016D01*
X128986143Y-99975500D01*
X128986150Y-99975500D01*
X129211576Y-99975500D01*
X129211583Y-99975500D01*
X129324099Y-99960687D01*
X129324099Y-99960686D01*
X129332158Y-99959626D01*
X129332561Y-99962689D01*
X129365165Y-99962689D01*
X129365568Y-99959626D01*
X129373626Y-99960686D01*
X129373627Y-99960687D01*
X129486143Y-99975500D01*
X129486150Y-99975500D01*
X129711576Y-99975500D01*
X129711583Y-99975500D01*
X129824099Y-99960687D01*
X129824099Y-99960686D01*
X129832158Y-99959626D01*
X129832561Y-99962689D01*
X129865165Y-99962689D01*
X129865568Y-99959626D01*
X129873626Y-99960686D01*
X129873627Y-99960687D01*
X129986143Y-99975500D01*
X129986150Y-99975500D01*
X130211576Y-99975500D01*
X130211583Y-99975500D01*
X130324099Y-99960687D01*
X130324099Y-99960686D01*
X130332158Y-99959626D01*
X130332561Y-99962689D01*
X130365165Y-99962689D01*
X130365568Y-99959626D01*
X130373626Y-99960686D01*
X130373627Y-99960687D01*
X130486143Y-99975500D01*
X130486150Y-99975500D01*
X130711576Y-99975500D01*
X130711583Y-99975500D01*
X130824099Y-99960687D01*
X130824099Y-99960686D01*
X130832158Y-99959626D01*
X130832561Y-99962689D01*
X130865165Y-99962689D01*
X130865568Y-99959626D01*
X130873626Y-99960686D01*
X130873627Y-99960687D01*
X130986143Y-99975500D01*
X130986150Y-99975500D01*
X131211576Y-99975500D01*
X131211583Y-99975500D01*
X131324099Y-99960687D01*
X131324099Y-99960686D01*
X131332158Y-99959626D01*
X131332561Y-99962689D01*
X131365165Y-99962689D01*
X131365568Y-99959626D01*
X131373626Y-99960686D01*
X131373627Y-99960687D01*
X131486143Y-99975500D01*
X131486150Y-99975500D01*
X131711576Y-99975500D01*
X131711583Y-99975500D01*
X131824099Y-99960687D01*
X131824099Y-99960686D01*
X131832158Y-99959626D01*
X131832561Y-99962689D01*
X131865165Y-99962689D01*
X131865568Y-99959626D01*
X131873626Y-99960686D01*
X131873627Y-99960687D01*
X131986143Y-99975500D01*
X131986150Y-99975500D01*
X132211576Y-99975500D01*
X132211583Y-99975500D01*
X132324099Y-99960687D01*
X132324099Y-99960686D01*
X132332158Y-99959626D01*
X132332561Y-99962689D01*
X132365165Y-99962689D01*
X132365568Y-99959626D01*
X132373626Y-99960686D01*
X132373627Y-99960687D01*
X132486143Y-99975500D01*
X132486150Y-99975500D01*
X132711576Y-99975500D01*
X132711583Y-99975500D01*
X132824099Y-99960687D01*
X132824099Y-99960686D01*
X132832158Y-99959626D01*
X132832561Y-99962689D01*
X132865165Y-99962689D01*
X132865568Y-99959626D01*
X132873626Y-99960686D01*
X132873627Y-99960687D01*
X132986143Y-99975500D01*
X132986150Y-99975500D01*
X133211576Y-99975500D01*
X133211583Y-99975500D01*
X133324099Y-99960687D01*
X133324099Y-99960686D01*
X133332158Y-99959626D01*
X133332561Y-99962689D01*
X133365165Y-99962689D01*
X133365568Y-99959626D01*
X133373626Y-99960686D01*
X133373627Y-99960687D01*
X133486143Y-99975500D01*
X133486150Y-99975500D01*
X133711576Y-99975500D01*
X133711583Y-99975500D01*
X133824099Y-99960687D01*
X133824099Y-99960686D01*
X133832158Y-99959626D01*
X133832561Y-99962689D01*
X133865165Y-99962689D01*
X133865568Y-99959626D01*
X133873626Y-99960686D01*
X133873627Y-99960687D01*
X133986143Y-99975500D01*
X133986150Y-99975500D01*
X134211576Y-99975500D01*
X134211583Y-99975500D01*
X134324099Y-99960687D01*
X134324099Y-99960686D01*
X134332158Y-99959626D01*
X134332561Y-99962689D01*
X134365165Y-99962689D01*
X134365568Y-99959626D01*
X134373626Y-99960686D01*
X134373627Y-99960687D01*
X134486143Y-99975500D01*
X134486150Y-99975500D01*
X134711576Y-99975500D01*
X134711583Y-99975500D01*
X134824099Y-99960687D01*
X134824099Y-99960686D01*
X134832158Y-99959626D01*
X134832561Y-99962689D01*
X134865165Y-99962689D01*
X134865568Y-99959626D01*
X134873626Y-99960686D01*
X134873627Y-99960687D01*
X134986143Y-99975500D01*
X134986150Y-99975500D01*
X135211576Y-99975500D01*
X135211583Y-99975500D01*
X135324099Y-99960687D01*
X135324099Y-99960686D01*
X135332158Y-99959626D01*
X135332561Y-99962689D01*
X135365165Y-99962689D01*
X135365568Y-99959626D01*
X135373626Y-99960686D01*
G37*
%TD.AperFunction*%
%TA.AperFunction,Conductor*%
G36*
X123935221Y-97657761D02*
G01*
X123970874Y-97717849D01*
X123968382Y-97787674D01*
X123965291Y-97795965D01*
X123963663Y-97799895D01*
X123948863Y-97912302D01*
X123948863Y-98525000D01*
X124324363Y-98525000D01*
X124391402Y-98544685D01*
X124437157Y-98597489D01*
X124448363Y-98649000D01*
X124448363Y-98701000D01*
X124428678Y-98768039D01*
X124375874Y-98813794D01*
X124324363Y-98825000D01*
X123948863Y-98825000D01*
X123948863Y-99437697D01*
X123963663Y-99550104D01*
X123963664Y-99550108D01*
X124003540Y-99646379D01*
X124011009Y-99715849D01*
X123979733Y-99778328D01*
X123976660Y-99781512D01*
X123904773Y-99853399D01*
X123843450Y-99886884D01*
X123773758Y-99881900D01*
X123729411Y-99853399D01*
X123653044Y-99777032D01*
X123653040Y-99777029D01*
X123508705Y-99688001D01*
X123508699Y-99687998D01*
X123508697Y-99687997D01*
X123508694Y-99687996D01*
X123347709Y-99634651D01*
X123248352Y-99624500D01*
X122777676Y-99624500D01*
X122710637Y-99604815D01*
X122664882Y-99552011D01*
X122654938Y-99482853D01*
X122656166Y-99477173D01*
X122656007Y-99477144D01*
X122657145Y-99470912D01*
X122658790Y-99450000D01*
X121824500Y-99450000D01*
X121757461Y-99430315D01*
X121711706Y-99377511D01*
X121700500Y-99326000D01*
X121700500Y-98965317D01*
X121700499Y-98965302D01*
X121699295Y-98950000D01*
X122130000Y-98950000D01*
X122658790Y-98950000D01*
X122657145Y-98929089D01*
X122612031Y-98773804D01*
X122546573Y-98663121D01*
X122529390Y-98595398D01*
X122546573Y-98536879D01*
X122612031Y-98426195D01*
X122612033Y-98426190D01*
X122657144Y-98270918D01*
X122657145Y-98270912D01*
X122658790Y-98250000D01*
X122130000Y-98250000D01*
X122130000Y-98950000D01*
X121699295Y-98950000D01*
X121697643Y-98929008D01*
X121697642Y-98929002D01*
X121652495Y-98773608D01*
X121652492Y-98773600D01*
X121647266Y-98764763D01*
X121630000Y-98701645D01*
X121630000Y-98498352D01*
X121647267Y-98435233D01*
X121652494Y-98426395D01*
X121697643Y-98270993D01*
X121700500Y-98234690D01*
X121700500Y-97874000D01*
X121720185Y-97806961D01*
X121772989Y-97761206D01*
X121824500Y-97750000D01*
X122658790Y-97750000D01*
X122671579Y-97736165D01*
X122675849Y-97715846D01*
X122724903Y-97666092D01*
X122785100Y-97650500D01*
X123686576Y-97650500D01*
X123686583Y-97650500D01*
X123799099Y-97635687D01*
X123803273Y-97633957D01*
X123872741Y-97626488D01*
X123935221Y-97657761D01*
G37*
%TD.AperFunction*%
%TA.AperFunction,Conductor*%
G36*
X135873626Y-84610686D02*
G01*
X135873627Y-84610687D01*
X135986143Y-84625500D01*
X135986150Y-84625500D01*
X136211576Y-84625500D01*
X136211583Y-84625500D01*
X136259314Y-84619216D01*
X136328350Y-84629981D01*
X136380606Y-84676361D01*
X136399500Y-84742155D01*
X136399500Y-85499902D01*
X136379815Y-85566941D01*
X136363181Y-85587583D01*
X135119481Y-86831282D01*
X135119477Y-86831287D01*
X135073561Y-86910818D01*
X135073561Y-86910819D01*
X135040423Y-86968214D01*
X135040423Y-86968215D01*
X134999499Y-87120943D01*
X134999499Y-87120945D01*
X134999499Y-87289046D01*
X134999500Y-87289059D01*
X134999500Y-97263996D01*
X134979815Y-97331035D01*
X134927011Y-97376790D01*
X134891689Y-97386935D01*
X134889411Y-97387235D01*
X134873627Y-97389313D01*
X134873625Y-97389313D01*
X134865574Y-97390374D01*
X134865182Y-97387399D01*
X134832547Y-97387399D01*
X134832155Y-97390374D01*
X134824100Y-97389313D01*
X134824099Y-97389313D01*
X134795134Y-97385499D01*
X134711590Y-97374500D01*
X134711583Y-97374500D01*
X134486143Y-97374500D01*
X134486135Y-97374500D01*
X134399256Y-97385938D01*
X134373627Y-97389313D01*
X134373625Y-97389313D01*
X134365571Y-97390374D01*
X134365179Y-97387399D01*
X134332547Y-97387399D01*
X134332155Y-97390374D01*
X134324100Y-97389313D01*
X134324099Y-97389313D01*
X134295134Y-97385499D01*
X134211590Y-97374500D01*
X134211583Y-97374500D01*
X133986143Y-97374500D01*
X133986135Y-97374500D01*
X133899256Y-97385938D01*
X133873627Y-97389313D01*
X133873625Y-97389313D01*
X133865571Y-97390374D01*
X133865179Y-97387399D01*
X133832547Y-97387399D01*
X133832155Y-97390374D01*
X133824100Y-97389313D01*
X133824099Y-97389313D01*
X133795134Y-97385499D01*
X133711590Y-97374500D01*
X133711583Y-97374500D01*
X133486143Y-97374500D01*
X133486135Y-97374500D01*
X133399256Y-97385938D01*
X133373627Y-97389313D01*
X133373625Y-97389313D01*
X133365571Y-97390374D01*
X133365179Y-97387399D01*
X133332547Y-97387399D01*
X133332155Y-97390374D01*
X133324100Y-97389313D01*
X133324099Y-97389313D01*
X133295134Y-97385499D01*
X133211590Y-97374500D01*
X133211583Y-97374500D01*
X132986143Y-97374500D01*
X132986135Y-97374500D01*
X132899256Y-97385938D01*
X132873627Y-97389313D01*
X132873625Y-97389313D01*
X132865571Y-97390374D01*
X132865179Y-97387399D01*
X132832547Y-97387399D01*
X132832155Y-97390374D01*
X132824100Y-97389313D01*
X132824099Y-97389313D01*
X132795134Y-97385499D01*
X132711590Y-97374500D01*
X132711583Y-97374500D01*
X132486143Y-97374500D01*
X132486135Y-97374500D01*
X132399256Y-97385938D01*
X132373627Y-97389313D01*
X132373625Y-97389313D01*
X132365571Y-97390374D01*
X132365179Y-97387399D01*
X132332547Y-97387399D01*
X132332155Y-97390374D01*
X132324100Y-97389313D01*
X132324099Y-97389313D01*
X132295134Y-97385499D01*
X132211590Y-97374500D01*
X132211583Y-97374500D01*
X131986143Y-97374500D01*
X131986135Y-97374500D01*
X131899256Y-97385938D01*
X131873627Y-97389313D01*
X131873625Y-97389313D01*
X131865571Y-97390374D01*
X131865179Y-97387399D01*
X131832547Y-97387399D01*
X131832155Y-97390374D01*
X131824100Y-97389313D01*
X131824099Y-97389313D01*
X131795134Y-97385499D01*
X131711590Y-97374500D01*
X131711583Y-97374500D01*
X131486143Y-97374500D01*
X131486135Y-97374500D01*
X131399256Y-97385938D01*
X131373627Y-97389313D01*
X131373625Y-97389313D01*
X131365571Y-97390374D01*
X131365179Y-97387399D01*
X131332547Y-97387399D01*
X131332155Y-97390374D01*
X131324100Y-97389313D01*
X131324099Y-97389313D01*
X131295134Y-97385499D01*
X131211590Y-97374500D01*
X131211583Y-97374500D01*
X130986143Y-97374500D01*
X130986135Y-97374500D01*
X130899256Y-97385938D01*
X130873627Y-97389313D01*
X130873625Y-97389313D01*
X130865571Y-97390374D01*
X130865179Y-97387399D01*
X130832547Y-97387399D01*
X130832155Y-97390374D01*
X130824100Y-97389313D01*
X130824099Y-97389313D01*
X130795134Y-97385499D01*
X130711590Y-97374500D01*
X130711583Y-97374500D01*
X130486143Y-97374500D01*
X130486135Y-97374500D01*
X130399256Y-97385938D01*
X130373627Y-97389313D01*
X130373625Y-97389313D01*
X130365571Y-97390374D01*
X130365179Y-97387399D01*
X130332547Y-97387399D01*
X130332155Y-97390374D01*
X130324100Y-97389313D01*
X130324099Y-97389313D01*
X130295134Y-97385499D01*
X130211590Y-97374500D01*
X130211583Y-97374500D01*
X129986143Y-97374500D01*
X129986135Y-97374500D01*
X129899256Y-97385938D01*
X129873627Y-97389313D01*
X129873625Y-97389313D01*
X129865571Y-97390374D01*
X129865179Y-97387399D01*
X129832547Y-97387399D01*
X129832155Y-97390374D01*
X129824100Y-97389313D01*
X129824099Y-97389313D01*
X129795134Y-97385499D01*
X129711590Y-97374500D01*
X129711583Y-97374500D01*
X129486143Y-97374500D01*
X129486135Y-97374500D01*
X129399256Y-97385938D01*
X129373627Y-97389313D01*
X129373625Y-97389313D01*
X129365571Y-97390374D01*
X129365179Y-97387399D01*
X129332547Y-97387399D01*
X129332155Y-97390374D01*
X129324100Y-97389313D01*
X129324099Y-97389313D01*
X129295134Y-97385499D01*
X129211590Y-97374500D01*
X129211583Y-97374500D01*
X128986143Y-97374500D01*
X128986135Y-97374500D01*
X128899256Y-97385938D01*
X128873627Y-97389313D01*
X128873625Y-97389313D01*
X128865571Y-97390374D01*
X128865179Y-97387399D01*
X128832547Y-97387399D01*
X128832155Y-97390374D01*
X128824100Y-97389313D01*
X128824099Y-97389313D01*
X128795134Y-97385499D01*
X128711590Y-97374500D01*
X128711583Y-97374500D01*
X128486143Y-97374500D01*
X128486135Y-97374500D01*
X128399256Y-97385938D01*
X128373627Y-97389313D01*
X128373625Y-97389313D01*
X128365571Y-97390374D01*
X128365179Y-97387399D01*
X128332547Y-97387399D01*
X128332155Y-97390374D01*
X128324100Y-97389313D01*
X128324099Y-97389313D01*
X128295134Y-97385499D01*
X128211590Y-97374500D01*
X128211583Y-97374500D01*
X127986143Y-97374500D01*
X127986135Y-97374500D01*
X127899256Y-97385938D01*
X127873627Y-97389313D01*
X127873625Y-97389313D01*
X127865571Y-97390374D01*
X127865179Y-97387399D01*
X127832547Y-97387399D01*
X127832155Y-97390374D01*
X127824100Y-97389313D01*
X127824099Y-97389313D01*
X127795134Y-97385499D01*
X127711590Y-97374500D01*
X127711583Y-97374500D01*
X127486143Y-97374500D01*
X127486135Y-97374500D01*
X127399256Y-97385938D01*
X127373627Y-97389313D01*
X127373625Y-97389313D01*
X127365571Y-97390374D01*
X127365179Y-97387399D01*
X127332547Y-97387399D01*
X127332155Y-97390374D01*
X127324100Y-97389313D01*
X127324099Y-97389313D01*
X127295134Y-97385499D01*
X127211590Y-97374500D01*
X127211583Y-97374500D01*
X126986143Y-97374500D01*
X126986135Y-97374500D01*
X126899256Y-97385938D01*
X126873627Y-97389313D01*
X126873625Y-97389313D01*
X126865571Y-97390374D01*
X126865179Y-97387399D01*
X126832547Y-97387399D01*
X126832155Y-97390374D01*
X126824100Y-97389313D01*
X126824099Y-97389313D01*
X126795134Y-97385499D01*
X126711590Y-97374500D01*
X126711583Y-97374500D01*
X126486143Y-97374500D01*
X126486135Y-97374500D01*
X126399256Y-97385938D01*
X126373627Y-97389313D01*
X126373625Y-97389313D01*
X126365571Y-97390374D01*
X126365179Y-97387399D01*
X126332547Y-97387399D01*
X126332155Y-97390374D01*
X126324100Y-97389313D01*
X126324099Y-97389313D01*
X126295134Y-97385499D01*
X126211590Y-97374500D01*
X126211583Y-97374500D01*
X125986143Y-97374500D01*
X125986135Y-97374500D01*
X125899256Y-97385938D01*
X125873627Y-97389313D01*
X125873625Y-97389313D01*
X125865571Y-97390374D01*
X125865179Y-97387399D01*
X125832546Y-97387399D01*
X125832154Y-97390374D01*
X125824100Y-97389313D01*
X125824099Y-97389313D01*
X125808312Y-97387234D01*
X125744417Y-97358968D01*
X125705947Y-97300643D01*
X125700500Y-97264296D01*
X125700500Y-95020945D01*
X125700500Y-95020943D01*
X125664683Y-94887272D01*
X125659578Y-94868219D01*
X125659577Y-94868216D01*
X125659577Y-94868215D01*
X125642188Y-94838097D01*
X125618435Y-94796955D01*
X125618434Y-94796954D01*
X125591325Y-94750000D01*
X125580520Y-94731284D01*
X125468716Y-94619480D01*
X125468715Y-94619479D01*
X125464385Y-94615149D01*
X125464374Y-94615139D01*
X125330700Y-94481465D01*
X125297215Y-94420142D01*
X125295163Y-94407686D01*
X125285368Y-94320745D01*
X125225789Y-94150478D01*
X125129816Y-93997738D01*
X125002262Y-93870184D01*
X124986640Y-93860368D01*
X124849523Y-93774211D01*
X124679254Y-93714631D01*
X124679249Y-93714630D01*
X124500004Y-93694435D01*
X124499996Y-93694435D01*
X124362246Y-93709955D01*
X124293424Y-93697900D01*
X124242045Y-93650551D01*
X124224363Y-93586735D01*
X124224363Y-93387286D01*
X124224363Y-93387280D01*
X124209550Y-93274764D01*
X124209549Y-93274763D01*
X124208489Y-93266705D01*
X124211552Y-93266301D01*
X124211552Y-93233698D01*
X124208489Y-93233295D01*
X124214435Y-93188127D01*
X124224363Y-93112720D01*
X124224363Y-92887280D01*
X124209550Y-92774764D01*
X124209549Y-92774763D01*
X124208489Y-92766705D01*
X124211552Y-92766301D01*
X124211552Y-92733698D01*
X124208489Y-92733295D01*
X124209550Y-92725236D01*
X124224363Y-92612720D01*
X124224363Y-92387280D01*
X124209550Y-92274764D01*
X124209549Y-92274763D01*
X124208489Y-92266705D01*
X124211552Y-92266301D01*
X124211552Y-92233698D01*
X124208489Y-92233295D01*
X124213982Y-92191571D01*
X124224363Y-92112720D01*
X124224363Y-91887280D01*
X124209550Y-91774764D01*
X124209549Y-91774763D01*
X124208489Y-91766705D01*
X124211552Y-91766301D01*
X124211552Y-91733698D01*
X124208489Y-91733295D01*
X124209550Y-91725236D01*
X124224363Y-91612720D01*
X124224363Y-91408072D01*
X124244048Y-91341033D01*
X124296852Y-91295278D01*
X124366010Y-91285334D01*
X124414332Y-91303077D01*
X124450476Y-91325788D01*
X124450478Y-91325789D01*
X124620745Y-91385368D01*
X124620750Y-91385369D01*
X124799996Y-91405565D01*
X124800000Y-91405565D01*
X124800004Y-91405565D01*
X124979249Y-91385369D01*
X124979252Y-91385368D01*
X124979255Y-91385368D01*
X125149522Y-91325789D01*
X125302262Y-91229816D01*
X125429816Y-91102262D01*
X125525789Y-90949522D01*
X125585368Y-90779255D01*
X125585904Y-90774500D01*
X125605565Y-90600003D01*
X125605565Y-90599996D01*
X125585369Y-90420750D01*
X125585368Y-90420745D01*
X125571428Y-90380908D01*
X125525789Y-90250478D01*
X125515245Y-90233698D01*
X125475221Y-90170000D01*
X125429816Y-90097738D01*
X125429814Y-90097736D01*
X125429813Y-90097734D01*
X125427550Y-90094896D01*
X125426659Y-90092715D01*
X125426111Y-90091842D01*
X125426264Y-90091745D01*
X125401144Y-90030209D01*
X125400500Y-90017587D01*
X125400500Y-89497114D01*
X125420185Y-89430075D01*
X125472989Y-89384320D01*
X125542147Y-89374376D01*
X125605703Y-89403401D01*
X125641542Y-89456160D01*
X125674210Y-89549521D01*
X125761201Y-89687966D01*
X125770184Y-89702262D01*
X125897738Y-89829816D01*
X126050478Y-89925789D01*
X126174994Y-89969359D01*
X126220745Y-89985368D01*
X126220750Y-89985369D01*
X126399996Y-90005565D01*
X126400000Y-90005565D01*
X126400004Y-90005565D01*
X126579249Y-89985369D01*
X126579252Y-89985368D01*
X126579255Y-89985368D01*
X126749522Y-89925789D01*
X126902262Y-89829816D01*
X127029816Y-89702262D01*
X127125789Y-89549522D01*
X127185368Y-89379255D01*
X127185918Y-89374376D01*
X127205565Y-89200003D01*
X127205565Y-89199996D01*
X127185369Y-89020750D01*
X127185368Y-89020745D01*
X127172989Y-88985367D01*
X127125789Y-88850478D01*
X127115137Y-88833526D01*
X127052411Y-88733698D01*
X127029816Y-88697738D01*
X127029814Y-88697736D01*
X127029813Y-88697734D01*
X127027550Y-88694896D01*
X127026659Y-88692715D01*
X127026111Y-88691842D01*
X127026264Y-88691745D01*
X127001144Y-88630209D01*
X127000500Y-88617587D01*
X127000500Y-86300096D01*
X127020185Y-86233057D01*
X127036815Y-86212419D01*
X127287819Y-85961414D01*
X127349142Y-85927930D01*
X127418834Y-85932914D01*
X127474767Y-85974786D01*
X127499184Y-86040250D01*
X127499500Y-86049096D01*
X127499500Y-92342060D01*
X127479815Y-92409099D01*
X127463181Y-92429741D01*
X127395184Y-92497737D01*
X127299211Y-92650476D01*
X127239631Y-92820745D01*
X127239630Y-92820750D01*
X127219435Y-92999996D01*
X127219435Y-93000003D01*
X127239630Y-93179249D01*
X127239631Y-93179254D01*
X127299211Y-93349523D01*
X127346337Y-93424523D01*
X127395184Y-93502262D01*
X127522738Y-93629816D01*
X127555738Y-93650551D01*
X127657721Y-93714632D01*
X127675478Y-93725789D01*
X127768498Y-93758338D01*
X127845745Y-93785368D01*
X127845750Y-93785369D01*
X128024996Y-93805565D01*
X128025000Y-93805565D01*
X128025004Y-93805565D01*
X128204249Y-93785369D01*
X128204252Y-93785368D01*
X128204255Y-93785368D01*
X128374522Y-93725789D01*
X128527262Y-93629816D01*
X128654816Y-93502262D01*
X128750789Y-93349522D01*
X128810368Y-93179255D01*
X128810369Y-93179249D01*
X128830565Y-93000003D01*
X128830565Y-92999996D01*
X128810369Y-92820750D01*
X128810366Y-92820737D01*
X128750790Y-92650479D01*
X128719506Y-92600690D01*
X128700500Y-92534719D01*
X128700500Y-92048627D01*
X128720185Y-91981588D01*
X128772989Y-91935833D01*
X128842147Y-91925889D01*
X128905703Y-91954914D01*
X128913505Y-91963196D01*
X128913733Y-91962969D01*
X129038349Y-92087585D01*
X129038355Y-92087590D01*
X130044298Y-93093533D01*
X130077783Y-93154856D01*
X130079837Y-93167330D01*
X130089630Y-93254249D01*
X130089631Y-93254254D01*
X130089632Y-93254255D01*
X130096808Y-93274764D01*
X130149210Y-93424521D01*
X130158313Y-93439008D01*
X130245184Y-93577262D01*
X130372738Y-93704816D01*
X130444648Y-93750000D01*
X130500935Y-93785368D01*
X130525478Y-93800789D01*
X130666112Y-93849999D01*
X130695745Y-93860368D01*
X130695750Y-93860369D01*
X130874996Y-93880565D01*
X130875000Y-93880565D01*
X130875004Y-93880565D01*
X131054249Y-93860369D01*
X131054252Y-93860368D01*
X131054255Y-93860368D01*
X131224522Y-93800789D01*
X131377262Y-93704816D01*
X131504816Y-93577262D01*
X131600789Y-93424522D01*
X131660368Y-93254255D01*
X131660369Y-93254249D01*
X131680565Y-93075003D01*
X131680565Y-93074996D01*
X131660369Y-92895750D01*
X131660368Y-92895745D01*
X131634124Y-92820745D01*
X131600789Y-92725478D01*
X131504816Y-92572738D01*
X131377262Y-92445184D01*
X131319833Y-92409099D01*
X131224521Y-92349210D01*
X131054249Y-92289630D01*
X130967330Y-92279837D01*
X130902916Y-92252770D01*
X130893533Y-92244298D01*
X130036819Y-91387584D01*
X130003334Y-91326261D01*
X130000500Y-91299903D01*
X130000500Y-86782412D01*
X130020185Y-86715373D01*
X130027555Y-86705097D01*
X130029810Y-86702267D01*
X130029816Y-86702262D01*
X130125789Y-86549522D01*
X130185368Y-86379255D01*
X130185369Y-86379249D01*
X130205565Y-86200003D01*
X130205565Y-86199996D01*
X130185369Y-86020750D01*
X130185368Y-86020745D01*
X130169286Y-85974786D01*
X130125789Y-85850478D01*
X130029816Y-85697738D01*
X130029815Y-85697737D01*
X130027555Y-85694903D01*
X130026665Y-85692724D01*
X130026111Y-85691842D01*
X130026265Y-85691744D01*
X130001146Y-85630216D01*
X130000501Y-85617589D01*
X130000501Y-85520945D01*
X130000501Y-85520943D01*
X129959577Y-85368215D01*
X129909059Y-85280716D01*
X129880520Y-85231284D01*
X129768716Y-85119480D01*
X129768715Y-85119479D01*
X129764385Y-85115149D01*
X129764374Y-85115139D01*
X129486416Y-84837181D01*
X129452931Y-84775858D01*
X129457915Y-84706166D01*
X129499787Y-84650233D01*
X129565251Y-84625816D01*
X129574097Y-84625500D01*
X129711576Y-84625500D01*
X129711583Y-84625500D01*
X129824099Y-84610687D01*
X129824099Y-84610686D01*
X129832158Y-84609626D01*
X129832561Y-84612689D01*
X129865165Y-84612689D01*
X129865568Y-84609626D01*
X129873626Y-84610686D01*
X129873627Y-84610687D01*
X129986143Y-84625500D01*
X129986150Y-84625500D01*
X130211576Y-84625500D01*
X130211583Y-84625500D01*
X130324099Y-84610687D01*
X130324099Y-84610686D01*
X130332158Y-84609626D01*
X130332561Y-84612689D01*
X130365165Y-84612689D01*
X130365568Y-84609626D01*
X130373626Y-84610686D01*
X130373627Y-84610687D01*
X130486143Y-84625500D01*
X130486150Y-84625500D01*
X130711576Y-84625500D01*
X130711583Y-84625500D01*
X130824099Y-84610687D01*
X130824099Y-84610686D01*
X130832158Y-84609626D01*
X130832561Y-84612689D01*
X130865165Y-84612689D01*
X130865568Y-84609626D01*
X130873626Y-84610686D01*
X130873627Y-84610687D01*
X130986143Y-84625500D01*
X130986150Y-84625500D01*
X131211576Y-84625500D01*
X131211583Y-84625500D01*
X131324099Y-84610687D01*
X131324099Y-84610686D01*
X131332158Y-84609626D01*
X131332561Y-84612689D01*
X131365165Y-84612689D01*
X131365568Y-84609626D01*
X131373626Y-84610686D01*
X131373627Y-84610687D01*
X131486143Y-84625500D01*
X131486150Y-84625500D01*
X131711576Y-84625500D01*
X131711583Y-84625500D01*
X131824099Y-84610687D01*
X131824099Y-84610686D01*
X131832158Y-84609626D01*
X131832561Y-84612689D01*
X131865165Y-84612689D01*
X131865568Y-84609626D01*
X131873626Y-84610686D01*
X131873627Y-84610687D01*
X131986143Y-84625500D01*
X131986150Y-84625500D01*
X132211576Y-84625500D01*
X132211583Y-84625500D01*
X132324099Y-84610687D01*
X132324099Y-84610686D01*
X132332158Y-84609626D01*
X132332561Y-84612689D01*
X132365165Y-84612689D01*
X132365568Y-84609626D01*
X132373626Y-84610686D01*
X132373627Y-84610687D01*
X132486143Y-84625500D01*
X132486150Y-84625500D01*
X132711576Y-84625500D01*
X132711583Y-84625500D01*
X132824099Y-84610687D01*
X132824099Y-84610686D01*
X132832158Y-84609626D01*
X132832561Y-84612689D01*
X132865165Y-84612689D01*
X132865568Y-84609626D01*
X132873626Y-84610686D01*
X132873627Y-84610687D01*
X132986143Y-84625500D01*
X132986150Y-84625500D01*
X133211576Y-84625500D01*
X133211583Y-84625500D01*
X133324099Y-84610687D01*
X133324099Y-84610686D01*
X133332158Y-84609626D01*
X133332561Y-84612689D01*
X133365165Y-84612689D01*
X133365568Y-84609626D01*
X133373626Y-84610686D01*
X133373627Y-84610687D01*
X133486143Y-84625500D01*
X133486150Y-84625500D01*
X133711576Y-84625500D01*
X133711583Y-84625500D01*
X133824099Y-84610687D01*
X133824099Y-84610686D01*
X133832158Y-84609626D01*
X133832561Y-84612689D01*
X133865165Y-84612689D01*
X133865568Y-84609626D01*
X133873626Y-84610686D01*
X133873627Y-84610687D01*
X133986143Y-84625500D01*
X133986150Y-84625500D01*
X134211576Y-84625500D01*
X134211583Y-84625500D01*
X134324099Y-84610687D01*
X134324099Y-84610686D01*
X134332158Y-84609626D01*
X134332561Y-84612689D01*
X134365165Y-84612689D01*
X134365568Y-84609626D01*
X134373626Y-84610686D01*
X134373627Y-84610687D01*
X134486143Y-84625500D01*
X134486150Y-84625500D01*
X134711576Y-84625500D01*
X134711583Y-84625500D01*
X134824099Y-84610687D01*
X134824099Y-84610686D01*
X134832158Y-84609626D01*
X134832561Y-84612689D01*
X134865165Y-84612689D01*
X134865568Y-84609626D01*
X134873626Y-84610686D01*
X134873627Y-84610687D01*
X134986143Y-84625500D01*
X134986150Y-84625500D01*
X135211576Y-84625500D01*
X135211583Y-84625500D01*
X135324099Y-84610687D01*
X135324099Y-84610686D01*
X135332158Y-84609626D01*
X135332561Y-84612689D01*
X135365165Y-84612689D01*
X135365568Y-84609626D01*
X135373626Y-84610686D01*
X135373627Y-84610687D01*
X135486143Y-84625500D01*
X135486150Y-84625500D01*
X135711576Y-84625500D01*
X135711583Y-84625500D01*
X135824099Y-84610687D01*
X135824099Y-84610686D01*
X135832158Y-84609626D01*
X135832561Y-84612689D01*
X135865165Y-84612689D01*
X135865568Y-84609626D01*
X135873626Y-84610686D01*
G37*
%TD.AperFunction*%
%TA.AperFunction,Conductor*%
G36*
X119372539Y-76020185D02*
G01*
X119418294Y-76072989D01*
X119429500Y-76124500D01*
X119429500Y-77897870D01*
X119429501Y-77897876D01*
X119435908Y-77957483D01*
X119486202Y-78092328D01*
X119486206Y-78092335D01*
X119572452Y-78207544D01*
X119572455Y-78207547D01*
X119687664Y-78293793D01*
X119687671Y-78293797D01*
X119822517Y-78344091D01*
X119822516Y-78344091D01*
X119829444Y-78344835D01*
X119882127Y-78350500D01*
X121229902Y-78350499D01*
X121296941Y-78370184D01*
X121317583Y-78386818D01*
X121950101Y-79019336D01*
X121983586Y-79080659D01*
X121978602Y-79150351D01*
X121936730Y-79206284D01*
X121871266Y-79230701D01*
X121827825Y-79226093D01*
X121709397Y-79191686D01*
X121709391Y-79191685D01*
X121673097Y-79188829D01*
X121673090Y-79188829D01*
X121203710Y-79188829D01*
X121203702Y-79188829D01*
X121167408Y-79191685D01*
X121167402Y-79191686D01*
X121012009Y-79236833D01*
X121012004Y-79236835D01*
X120966751Y-79263597D01*
X120899027Y-79280778D01*
X120840511Y-79263596D01*
X120803894Y-79241941D01*
X120796395Y-79237506D01*
X120796394Y-79237505D01*
X120796393Y-79237505D01*
X120796390Y-79237504D01*
X120640997Y-79192357D01*
X120640991Y-79192356D01*
X120604697Y-79189500D01*
X120604690Y-79189500D01*
X120195310Y-79189500D01*
X120195302Y-79189500D01*
X120159008Y-79192356D01*
X120159002Y-79192357D01*
X120003609Y-79237504D01*
X120003604Y-79237506D01*
X119982628Y-79249911D01*
X119914903Y-79267092D01*
X119856389Y-79249911D01*
X119836191Y-79237966D01*
X119836190Y-79237965D01*
X119690001Y-79195493D01*
X119690000Y-79195494D01*
X119690000Y-79501645D01*
X119672734Y-79564763D01*
X119667507Y-79573600D01*
X119667504Y-79573608D01*
X119622357Y-79729002D01*
X119622356Y-79729008D01*
X119619500Y-79765302D01*
X119619500Y-80234697D01*
X119622356Y-80270991D01*
X119622357Y-80270997D01*
X119667504Y-80426390D01*
X119667506Y-80426395D01*
X119670773Y-80431920D01*
X119687952Y-80499644D01*
X119670774Y-80558151D01*
X119667507Y-80563674D01*
X119667504Y-80563682D01*
X119622357Y-80719076D01*
X119622356Y-80719082D01*
X119619500Y-80755376D01*
X119619500Y-81224771D01*
X119622356Y-81261065D01*
X119622357Y-81261071D01*
X119667504Y-81416465D01*
X119667507Y-81416473D01*
X119672732Y-81425307D01*
X119690000Y-81488428D01*
X119690000Y-81501646D01*
X119672734Y-81564764D01*
X119667507Y-81573601D01*
X119667504Y-81573610D01*
X119622357Y-81729002D01*
X119622356Y-81729008D01*
X119619500Y-81765302D01*
X119619500Y-82234697D01*
X119622356Y-82270991D01*
X119622357Y-82270997D01*
X119652982Y-82376405D01*
X119652783Y-82446274D01*
X119614841Y-82504944D01*
X119596944Y-82513055D01*
X119575000Y-82535000D01*
X119575000Y-84625000D01*
X121500021Y-84625000D01*
X121477529Y-84582616D01*
X121475000Y-84557702D01*
X121475000Y-82535000D01*
X121266094Y-82535000D01*
X121199055Y-82515315D01*
X121153300Y-82462511D01*
X121143356Y-82393353D01*
X121147018Y-82376405D01*
X121177642Y-82270997D01*
X121177643Y-82270991D01*
X121180500Y-82234690D01*
X121180500Y-81769659D01*
X121188400Y-81742754D01*
X121188400Y-81708118D01*
X121688400Y-81708118D01*
X121709313Y-81706473D01*
X121866655Y-81660762D01*
X121935845Y-81660762D01*
X122090103Y-81705577D01*
X122111017Y-81707222D01*
X122611017Y-81707222D01*
X122631927Y-81705578D01*
X122787211Y-81660465D01*
X122797892Y-81654148D01*
X122865615Y-81636963D01*
X122924142Y-81654148D01*
X122934822Y-81660465D01*
X123090106Y-81705578D01*
X123111017Y-81707222D01*
X123111017Y-81178433D01*
X122611017Y-81178433D01*
X122611017Y-81707222D01*
X122111017Y-81707222D01*
X122111017Y-81179329D01*
X121688400Y-81179329D01*
X121688400Y-81708118D01*
X121188400Y-81708118D01*
X121188400Y-80873829D01*
X121208085Y-80806790D01*
X121260889Y-80761035D01*
X121312400Y-80749829D01*
X121673082Y-80749829D01*
X121673090Y-80749829D01*
X121709393Y-80746972D01*
X121709395Y-80746971D01*
X121709397Y-80746971D01*
X121866655Y-80701283D01*
X121935845Y-80701283D01*
X122090019Y-80746075D01*
X122090022Y-80746075D01*
X122090024Y-80746076D01*
X122126327Y-80748933D01*
X122126335Y-80748933D01*
X122595699Y-80748933D01*
X122595707Y-80748933D01*
X122632010Y-80746076D01*
X122632012Y-80746075D01*
X122632014Y-80746075D01*
X122787406Y-80700929D01*
X122787406Y-80700928D01*
X122787412Y-80700927D01*
X122796250Y-80695700D01*
X122859369Y-80678433D01*
X122862665Y-80678433D01*
X122925783Y-80695700D01*
X122934622Y-80700927D01*
X122934625Y-80700927D01*
X122934627Y-80700929D01*
X123090019Y-80746075D01*
X123090022Y-80746075D01*
X123090024Y-80746076D01*
X123126327Y-80748933D01*
X123240920Y-80748933D01*
X123307959Y-80768618D01*
X123328601Y-80785252D01*
X123574698Y-81031349D01*
X123608183Y-81092672D01*
X123611017Y-81119030D01*
X123611017Y-81707222D01*
X123631928Y-81705578D01*
X123637642Y-81703918D01*
X123707511Y-81704115D01*
X123766182Y-81742055D01*
X123795028Y-81805692D01*
X123795461Y-81809110D01*
X123814630Y-81979249D01*
X123814631Y-81979254D01*
X123874211Y-82149523D01*
X123968701Y-82299902D01*
X123987701Y-82367139D01*
X123978269Y-82413324D01*
X123963177Y-82449760D01*
X123963176Y-82449764D01*
X123948363Y-82562272D01*
X123948363Y-84087727D01*
X123963176Y-84200235D01*
X123964636Y-84203760D01*
X123964981Y-84206972D01*
X123965280Y-84208087D01*
X123965106Y-84208133D01*
X123972103Y-84273229D01*
X123940828Y-84335708D01*
X123880738Y-84371360D01*
X123810913Y-84368865D01*
X123802630Y-84365775D01*
X123799099Y-84364313D01*
X123785034Y-84362461D01*
X123686590Y-84349500D01*
X123686583Y-84349500D01*
X122161143Y-84349500D01*
X122161135Y-84349500D01*
X122048627Y-84364313D01*
X122048626Y-84364313D01*
X121908633Y-84422300D01*
X121908630Y-84422301D01*
X121908630Y-84422302D01*
X121788412Y-84514549D01*
X121788411Y-84514550D01*
X121788410Y-84514551D01*
X121697375Y-84633189D01*
X121640947Y-84674391D01*
X121611029Y-84676173D01*
X121629500Y-84697489D01*
X121639444Y-84766647D01*
X121638888Y-84769352D01*
X121623363Y-84887272D01*
X121623363Y-85112727D01*
X121639237Y-85233292D01*
X121636262Y-85233683D01*
X121636262Y-85266316D01*
X121639237Y-85266708D01*
X121638176Y-85274762D01*
X121638176Y-85274764D01*
X121634801Y-85300393D01*
X121623363Y-85387272D01*
X121623363Y-85612727D01*
X121630696Y-85668423D01*
X121636701Y-85714035D01*
X121639237Y-85733292D01*
X121636262Y-85733683D01*
X121636262Y-85766316D01*
X121639237Y-85766708D01*
X121623363Y-85887272D01*
X121623363Y-86112727D01*
X121639237Y-86233292D01*
X121636262Y-86233683D01*
X121636262Y-86266316D01*
X121639237Y-86266708D01*
X121638176Y-86274762D01*
X121638176Y-86274764D01*
X121636278Y-86289181D01*
X121623363Y-86387272D01*
X121623363Y-86612727D01*
X121639237Y-86733292D01*
X121636262Y-86733683D01*
X121636262Y-86766316D01*
X121639237Y-86766708D01*
X121623363Y-86887272D01*
X121623363Y-87112727D01*
X121632473Y-87181918D01*
X121637585Y-87220750D01*
X121639237Y-87233292D01*
X121636262Y-87233683D01*
X121636262Y-87266316D01*
X121639237Y-87266708D01*
X121638176Y-87274762D01*
X121638176Y-87274764D01*
X121637421Y-87280499D01*
X121623363Y-87387272D01*
X121623363Y-87612727D01*
X121639237Y-87733292D01*
X121636262Y-87733683D01*
X121636262Y-87766316D01*
X121639237Y-87766708D01*
X121623363Y-87887272D01*
X121623363Y-88112727D01*
X121639237Y-88233292D01*
X121636262Y-88233683D01*
X121636262Y-88266316D01*
X121639237Y-88266708D01*
X121638176Y-88274762D01*
X121638176Y-88274764D01*
X121635863Y-88292332D01*
X121623363Y-88387272D01*
X121623363Y-88612727D01*
X121639237Y-88733292D01*
X121636262Y-88733683D01*
X121636262Y-88766316D01*
X121639237Y-88766708D01*
X121623363Y-88887272D01*
X121623363Y-89112727D01*
X121639237Y-89233293D01*
X121637456Y-89233527D01*
X121639667Y-89267270D01*
X121628774Y-89349999D01*
X121630664Y-89352154D01*
X121690366Y-89369685D01*
X121721701Y-89398512D01*
X121738487Y-89420388D01*
X121741654Y-89424515D01*
X121766847Y-89489684D01*
X121752808Y-89558129D01*
X121741654Y-89575484D01*
X121721702Y-89601486D01*
X121665276Y-89642689D01*
X121629757Y-89648879D01*
X121628774Y-89650000D01*
X121639667Y-89732729D01*
X121637458Y-89766473D01*
X121639237Y-89766708D01*
X121635948Y-89791687D01*
X121607680Y-89855584D01*
X121549355Y-89894054D01*
X121513009Y-89899500D01*
X117579057Y-89899500D01*
X117420942Y-89899500D01*
X117268215Y-89940423D01*
X117268214Y-89940423D01*
X117268212Y-89940424D01*
X117268209Y-89940425D01*
X117218096Y-89969359D01*
X117218095Y-89969360D01*
X117185581Y-89988132D01*
X117131285Y-90019479D01*
X117131282Y-90019481D01*
X117019478Y-90131286D01*
X116812582Y-90338181D01*
X116751259Y-90371666D01*
X116724901Y-90374500D01*
X116289129Y-90374500D01*
X116289123Y-90374501D01*
X116229516Y-90380908D01*
X116094671Y-90431202D01*
X116094664Y-90431206D01*
X115979455Y-90517452D01*
X115979452Y-90517455D01*
X115893206Y-90632664D01*
X115893202Y-90632671D01*
X115870391Y-90693833D01*
X115828520Y-90749767D01*
X115763056Y-90774184D01*
X115754209Y-90774500D01*
X115539297Y-90774500D01*
X115472258Y-90754815D01*
X115426503Y-90702011D01*
X115426020Y-90698657D01*
X115404504Y-90670000D01*
X115098352Y-90670000D01*
X115035233Y-90652732D01*
X115026395Y-90647506D01*
X115026393Y-90647505D01*
X115026389Y-90647503D01*
X114870997Y-90602357D01*
X114870991Y-90602356D01*
X114834697Y-90599500D01*
X114834690Y-90599500D01*
X114365310Y-90599500D01*
X114365302Y-90599500D01*
X114329008Y-90602356D01*
X114329002Y-90602357D01*
X114173610Y-90647503D01*
X114173605Y-90647506D01*
X114164766Y-90652732D01*
X114101648Y-90670000D01*
X113795496Y-90670000D01*
X113837968Y-90816194D01*
X113849911Y-90836389D01*
X113867092Y-90904113D01*
X113849911Y-90962628D01*
X113837506Y-90983604D01*
X113837504Y-90983609D01*
X113792357Y-91139002D01*
X113792356Y-91139008D01*
X113789500Y-91175302D01*
X113789500Y-91584697D01*
X113792356Y-91620991D01*
X113792357Y-91620997D01*
X113837504Y-91776390D01*
X113837505Y-91776393D01*
X113837506Y-91776395D01*
X113869622Y-91830700D01*
X113919881Y-91915684D01*
X113919887Y-91915692D01*
X113966867Y-91962672D01*
X114000352Y-92023995D01*
X113995368Y-92093687D01*
X113966868Y-92138033D01*
X113920286Y-92184615D01*
X113920278Y-92184625D01*
X113837968Y-92323804D01*
X113795496Y-92470000D01*
X115404504Y-92470000D01*
X115362031Y-92323804D01*
X115279721Y-92184625D01*
X115274936Y-92178456D01*
X115276747Y-92177050D01*
X115248794Y-92125858D01*
X115253778Y-92056166D01*
X115295650Y-92000233D01*
X115361114Y-91975816D01*
X115369960Y-91975500D01*
X115754209Y-91975500D01*
X115821248Y-91995185D01*
X115867003Y-92047989D01*
X115870391Y-92056167D01*
X115893202Y-92117327D01*
X115893204Y-92117331D01*
X115899773Y-92126106D01*
X115924190Y-92191571D01*
X115909338Y-92259843D01*
X115899775Y-92274725D01*
X115893646Y-92282912D01*
X115893645Y-92282913D01*
X115843403Y-92417620D01*
X115843401Y-92417627D01*
X115837000Y-92477155D01*
X115837000Y-92775000D01*
X116913000Y-92775000D01*
X116980039Y-92794685D01*
X117025794Y-92847489D01*
X117037000Y-92899000D01*
X117037000Y-93100500D01*
X117017315Y-93167539D01*
X116964511Y-93213294D01*
X116913000Y-93224500D01*
X115495719Y-93224500D01*
X115428680Y-93204815D01*
X115382925Y-93152011D01*
X115372981Y-93082853D01*
X115376642Y-93065906D01*
X115404504Y-92970000D01*
X115098352Y-92970000D01*
X115035233Y-92952732D01*
X115026395Y-92947506D01*
X115026393Y-92947505D01*
X115026389Y-92947503D01*
X114870997Y-92902357D01*
X114870991Y-92902356D01*
X114834697Y-92899500D01*
X114834690Y-92899500D01*
X114770027Y-92899500D01*
X114737934Y-92895275D01*
X114708058Y-92887270D01*
X114679057Y-92879499D01*
X114520943Y-92879499D01*
X114462066Y-92895275D01*
X114429973Y-92899500D01*
X114365302Y-92899500D01*
X114329008Y-92902356D01*
X114329002Y-92902357D01*
X114173610Y-92947503D01*
X114173605Y-92947506D01*
X114164766Y-92952732D01*
X114101648Y-92970000D01*
X113795496Y-92970000D01*
X113837968Y-93116194D01*
X113849911Y-93136389D01*
X113867092Y-93204113D01*
X113849911Y-93262628D01*
X113837506Y-93283604D01*
X113837504Y-93283609D01*
X113792357Y-93439002D01*
X113792356Y-93439008D01*
X113789500Y-93475302D01*
X113789500Y-93884697D01*
X113792356Y-93920991D01*
X113792357Y-93920997D01*
X113827194Y-94040905D01*
X113826995Y-94110775D01*
X113789053Y-94169445D01*
X113725414Y-94198288D01*
X113708118Y-94199500D01*
X110549097Y-94199500D01*
X110482058Y-94179815D01*
X110436303Y-94127011D01*
X110426359Y-94057853D01*
X110455384Y-93994297D01*
X110461416Y-93987819D01*
X110973933Y-93475302D01*
X112618535Y-91830698D01*
X112679856Y-91797215D01*
X112692311Y-91795163D01*
X112779255Y-91785368D01*
X112949522Y-91725789D01*
X113102262Y-91629816D01*
X113229816Y-91502262D01*
X113325789Y-91349522D01*
X113385368Y-91179255D01*
X113385369Y-91179249D01*
X113405565Y-91000003D01*
X113405565Y-90999996D01*
X113385369Y-90820750D01*
X113385368Y-90820745D01*
X113370848Y-90779249D01*
X113325789Y-90650478D01*
X113302068Y-90612727D01*
X113262969Y-90550501D01*
X113229816Y-90497738D01*
X113102262Y-90370184D01*
X112949523Y-90274211D01*
X112779254Y-90214631D01*
X112779249Y-90214630D01*
X112600004Y-90194435D01*
X112599996Y-90194435D01*
X112420750Y-90214630D01*
X112420745Y-90214631D01*
X112250476Y-90274211D01*
X112097737Y-90370184D01*
X111970184Y-90497737D01*
X111874210Y-90650478D01*
X111814630Y-90820750D01*
X111804837Y-90907668D01*
X111777770Y-90972082D01*
X111769298Y-90981465D01*
X106312180Y-96438584D01*
X106250857Y-96472069D01*
X106181165Y-96467085D01*
X106125232Y-96425213D01*
X106100815Y-96359749D01*
X106100499Y-96350903D01*
X106100499Y-94141971D01*
X106100499Y-94141964D01*
X106089886Y-94022582D01*
X106043471Y-93860368D01*
X106033910Y-93826954D01*
X106033909Y-93826953D01*
X106033909Y-93826951D01*
X105939698Y-93646593D01*
X105822012Y-93502262D01*
X105811109Y-93488890D01*
X105653409Y-93360304D01*
X105653410Y-93360304D01*
X105653407Y-93360302D01*
X105473049Y-93266091D01*
X105473046Y-93266090D01*
X105290388Y-93213825D01*
X105231350Y-93176457D01*
X105201887Y-93113104D01*
X105200500Y-93094609D01*
X105200500Y-89028883D01*
X105220185Y-88961844D01*
X105272989Y-88916089D01*
X105342147Y-88906145D01*
X105405703Y-88935170D01*
X105442884Y-88991992D01*
X105466107Y-89066516D01*
X105546803Y-89200003D01*
X105554115Y-89212098D01*
X105674396Y-89332379D01*
X105674398Y-89332380D01*
X105674400Y-89332382D01*
X105819979Y-89420388D01*
X105982389Y-89470996D01*
X106052969Y-89477410D01*
X106052972Y-89477410D01*
X106716198Y-89477410D01*
X106716201Y-89477410D01*
X106786781Y-89470996D01*
X106949191Y-89420388D01*
X107094770Y-89332382D01*
X107152388Y-89274764D01*
X107212819Y-89214334D01*
X107274142Y-89180849D01*
X107343834Y-89185833D01*
X107399767Y-89227705D01*
X107424184Y-89293169D01*
X107424500Y-89302015D01*
X107424500Y-89459995D01*
X107404815Y-89527034D01*
X107365600Y-89565532D01*
X107346954Y-89577033D01*
X107227029Y-89696959D01*
X107138001Y-89841294D01*
X107137996Y-89841305D01*
X107084651Y-90002290D01*
X107074500Y-90101647D01*
X107074500Y-90698337D01*
X107074501Y-90698355D01*
X107084650Y-90797707D01*
X107084651Y-90797710D01*
X107137996Y-90958694D01*
X107138001Y-90958705D01*
X107227029Y-91103040D01*
X107227032Y-91103044D01*
X107346955Y-91222967D01*
X107346959Y-91222970D01*
X107491294Y-91311998D01*
X107491297Y-91311999D01*
X107491303Y-91312003D01*
X107652292Y-91365349D01*
X107751655Y-91375500D01*
X108298344Y-91375499D01*
X108298352Y-91375498D01*
X108298355Y-91375498D01*
X108352760Y-91369940D01*
X108397708Y-91365349D01*
X108558697Y-91312003D01*
X108703044Y-91222968D01*
X108712668Y-91213343D01*
X108773987Y-91179856D01*
X108843679Y-91184835D01*
X108888034Y-91213339D01*
X108897267Y-91222572D01*
X108897271Y-91222575D01*
X109041507Y-91311542D01*
X109041518Y-91311547D01*
X109202393Y-91364855D01*
X109301683Y-91374999D01*
X109825000Y-91374999D01*
X109848308Y-91374999D01*
X109848322Y-91374998D01*
X109947607Y-91364855D01*
X110108481Y-91311547D01*
X110108492Y-91311542D01*
X110252728Y-91222575D01*
X110252732Y-91222572D01*
X110372572Y-91102732D01*
X110372575Y-91102728D01*
X110461542Y-90958492D01*
X110461547Y-90958481D01*
X110514855Y-90797606D01*
X110524999Y-90698322D01*
X110525000Y-90698309D01*
X110525000Y-90650000D01*
X109825000Y-90650000D01*
X109825000Y-91374999D01*
X109301683Y-91374999D01*
X109325000Y-91374998D01*
X109325000Y-90274000D01*
X109344685Y-90206961D01*
X109387340Y-90170000D01*
X113795496Y-90170000D01*
X114350000Y-90170000D01*
X114850000Y-90170000D01*
X115404504Y-90170000D01*
X115362031Y-90023804D01*
X115279721Y-89884625D01*
X115279714Y-89884616D01*
X115165383Y-89770285D01*
X115165374Y-89770278D01*
X115026195Y-89687968D01*
X115026190Y-89687966D01*
X114870918Y-89642855D01*
X114870912Y-89642854D01*
X114850000Y-89641209D01*
X114850000Y-90170000D01*
X114350000Y-90170000D01*
X114350000Y-89641210D01*
X114349999Y-89641209D01*
X114329087Y-89642854D01*
X114329081Y-89642855D01*
X114173809Y-89687966D01*
X114173804Y-89687968D01*
X114034625Y-89770278D01*
X114034616Y-89770285D01*
X113920285Y-89884616D01*
X113920278Y-89884625D01*
X113837968Y-90023804D01*
X113795496Y-90170000D01*
X109387340Y-90170000D01*
X109397489Y-90161206D01*
X109449000Y-90150000D01*
X110524999Y-90150000D01*
X110524999Y-90101692D01*
X110524998Y-90101677D01*
X110514855Y-90002392D01*
X110461547Y-89841518D01*
X110461542Y-89841507D01*
X110372575Y-89697271D01*
X110372572Y-89697267D01*
X110256926Y-89581621D01*
X110223441Y-89520298D01*
X110228425Y-89450606D01*
X110270297Y-89394673D01*
X110301274Y-89377758D01*
X110375700Y-89349999D01*
X110392331Y-89343796D01*
X110507546Y-89257546D01*
X110593796Y-89142331D01*
X110644091Y-89007483D01*
X110650500Y-88947873D01*
X110650499Y-88215603D01*
X110670183Y-88148565D01*
X110675234Y-88141291D01*
X110693351Y-88117090D01*
X110693352Y-88117088D01*
X110743597Y-87982376D01*
X110743598Y-87982372D01*
X110749999Y-87922844D01*
X110750000Y-87922827D01*
X110750000Y-87250000D01*
X109250000Y-87250000D01*
X109250000Y-88040826D01*
X109249572Y-88048798D01*
X109249678Y-88048804D01*
X109249500Y-88052128D01*
X109249500Y-88317138D01*
X109229815Y-88384177D01*
X109213181Y-88404819D01*
X109200000Y-88418000D01*
X109200000Y-88576000D01*
X109180315Y-88643039D01*
X109127511Y-88688794D01*
X109076000Y-88700000D01*
X108924000Y-88700000D01*
X108856961Y-88680315D01*
X108811206Y-88627511D01*
X108800000Y-88576000D01*
X108800000Y-88418000D01*
X108786818Y-88404818D01*
X108753333Y-88343495D01*
X108750499Y-88317137D01*
X108750499Y-88052129D01*
X108750321Y-88048804D01*
X108750426Y-88048798D01*
X108750000Y-88040836D01*
X108750000Y-86874000D01*
X108769685Y-86806961D01*
X108822489Y-86761206D01*
X108874000Y-86750000D01*
X110750000Y-86750000D01*
X110750000Y-86077172D01*
X110749999Y-86077155D01*
X110743598Y-86017627D01*
X110743597Y-86017623D01*
X110693352Y-85882911D01*
X110675232Y-85858706D01*
X110650815Y-85793242D01*
X110650499Y-85784417D01*
X110650499Y-85052128D01*
X110644091Y-84992517D01*
X110635981Y-84970774D01*
X110635898Y-84970550D01*
X110630914Y-84900859D01*
X110664399Y-84839536D01*
X110717486Y-84808140D01*
X110876195Y-84762031D01*
X111015374Y-84679721D01*
X111015383Y-84679714D01*
X111129714Y-84565383D01*
X111129721Y-84565374D01*
X111212031Y-84426195D01*
X111212033Y-84426190D01*
X111257144Y-84270918D01*
X111257145Y-84270912D01*
X111258790Y-84250000D01*
X110611067Y-84250000D01*
X110544028Y-84230315D01*
X110503680Y-84188001D01*
X110494365Y-84171867D01*
X110457300Y-84107669D01*
X110430520Y-84061284D01*
X110336818Y-83967582D01*
X110303334Y-83906258D01*
X110300500Y-83879901D01*
X110300500Y-83765317D01*
X110300499Y-83765302D01*
X110297643Y-83729008D01*
X110297642Y-83729002D01*
X110252495Y-83573608D01*
X110252492Y-83573600D01*
X110247266Y-83564763D01*
X110230000Y-83501645D01*
X110230000Y-83195494D01*
X110730000Y-83195494D01*
X110730000Y-83750000D01*
X111258790Y-83750000D01*
X111257145Y-83729089D01*
X111212031Y-83573804D01*
X111129721Y-83434625D01*
X111129714Y-83434616D01*
X111015383Y-83320285D01*
X111015374Y-83320278D01*
X110876193Y-83237967D01*
X110876190Y-83237965D01*
X110730001Y-83195493D01*
X110730000Y-83195494D01*
X110230000Y-83195494D01*
X110195049Y-83169252D01*
X110153257Y-83113258D01*
X110145501Y-83070091D01*
X110145501Y-83065944D01*
X110139829Y-83044776D01*
X110104577Y-82913216D01*
X110066210Y-82846762D01*
X110025524Y-82776290D01*
X110025521Y-82776287D01*
X110025520Y-82776284D01*
X110025517Y-82776281D01*
X110020574Y-82769839D01*
X110023236Y-82767795D01*
X109997215Y-82720141D01*
X109995163Y-82707684D01*
X109985368Y-82620745D01*
X109925789Y-82450478D01*
X109925340Y-82449764D01*
X109877483Y-82373600D01*
X109829816Y-82297738D01*
X109782078Y-82250000D01*
X118661210Y-82250000D01*
X118662854Y-82270910D01*
X118707968Y-82426195D01*
X118790278Y-82565374D01*
X118790285Y-82565383D01*
X118904616Y-82679714D01*
X118904625Y-82679721D01*
X119043804Y-82762031D01*
X119190000Y-82804504D01*
X119190000Y-82250000D01*
X118661210Y-82250000D01*
X109782078Y-82250000D01*
X109702262Y-82170184D01*
X109669379Y-82149522D01*
X109549523Y-82074211D01*
X109379254Y-82014631D01*
X109379249Y-82014630D01*
X109200004Y-81994435D01*
X109199996Y-81994435D01*
X109020750Y-82014630D01*
X109020745Y-82014631D01*
X108850476Y-82074211D01*
X108697737Y-82170184D01*
X108570184Y-82297737D01*
X108474211Y-82450476D01*
X108414631Y-82620745D01*
X108414630Y-82620750D01*
X108394435Y-82799996D01*
X108394435Y-82800003D01*
X108414630Y-82979249D01*
X108414631Y-82979254D01*
X108474211Y-83149523D01*
X108522072Y-83225693D01*
X108541072Y-83292930D01*
X108520704Y-83359765D01*
X108467436Y-83404979D01*
X108398180Y-83414216D01*
X108382483Y-83410741D01*
X108330001Y-83395493D01*
X108330000Y-83395494D01*
X108330000Y-84326000D01*
X108310315Y-84393039D01*
X108257511Y-84438794D01*
X108206000Y-84450000D01*
X108024500Y-84450000D01*
X107957461Y-84430315D01*
X107911706Y-84377511D01*
X107900500Y-84326000D01*
X107900500Y-83965317D01*
X107900499Y-83965302D01*
X107897643Y-83929008D01*
X107897642Y-83929002D01*
X107852495Y-83773608D01*
X107852492Y-83773600D01*
X107847266Y-83764763D01*
X107830000Y-83701645D01*
X107830000Y-83395494D01*
X107829998Y-83395493D01*
X107683809Y-83437965D01*
X107683806Y-83437967D01*
X107663608Y-83449912D01*
X107595884Y-83467092D01*
X107537370Y-83449910D01*
X107516397Y-83437507D01*
X107516390Y-83437504D01*
X107360997Y-83392357D01*
X107360991Y-83392356D01*
X107324697Y-83389500D01*
X107324690Y-83389500D01*
X106915310Y-83389500D01*
X106915302Y-83389500D01*
X106879008Y-83392356D01*
X106879002Y-83392357D01*
X106723609Y-83437504D01*
X106723606Y-83437505D01*
X106584315Y-83519881D01*
X106584307Y-83519887D01*
X106469887Y-83634307D01*
X106469881Y-83634315D01*
X106387505Y-83773606D01*
X106387504Y-83773609D01*
X106342357Y-83929002D01*
X106342356Y-83929008D01*
X106339500Y-83965302D01*
X106339500Y-84079902D01*
X106319815Y-84146941D01*
X106303181Y-84167583D01*
X106019481Y-84451282D01*
X106019479Y-84451284D01*
X106001737Y-84482016D01*
X105980107Y-84519481D01*
X105970306Y-84536457D01*
X105940423Y-84588214D01*
X105928882Y-84631286D01*
X105899499Y-84740943D01*
X105899499Y-84740945D01*
X105899499Y-84775500D01*
X105879814Y-84842539D01*
X105827010Y-84888294D01*
X105775499Y-84899500D01*
X105672273Y-84899500D01*
X105605234Y-84879815D01*
X105584592Y-84863181D01*
X105572825Y-84851414D01*
X105572817Y-84851408D01*
X105485607Y-84799833D01*
X105431897Y-84768069D01*
X105431896Y-84768068D01*
X105431895Y-84768068D01*
X105431892Y-84768066D01*
X105274679Y-84722391D01*
X105274673Y-84722390D01*
X105237947Y-84719500D01*
X105237940Y-84719500D01*
X104836943Y-84719500D01*
X104769904Y-84699815D01*
X104730769Y-84655572D01*
X104729494Y-84656374D01*
X104672320Y-84565383D01*
X104629816Y-84497738D01*
X104502262Y-84370184D01*
X104469344Y-84349500D01*
X104349523Y-84274211D01*
X104179254Y-84214631D01*
X104179249Y-84214630D01*
X104000004Y-84194435D01*
X103999996Y-84194435D01*
X103820750Y-84214630D01*
X103820745Y-84214631D01*
X103650476Y-84274211D01*
X103497737Y-84370184D01*
X103370184Y-84497737D01*
X103274210Y-84650478D01*
X103214630Y-84820750D01*
X103206042Y-84896977D01*
X103178975Y-84961391D01*
X103121381Y-85000946D01*
X103051544Y-85003083D01*
X102995141Y-84970774D01*
X102662722Y-84638355D01*
X102662720Y-84638352D01*
X102543848Y-84519480D01*
X102543846Y-84519479D01*
X102535310Y-84514551D01*
X102457036Y-84469360D01*
X102457036Y-84469359D01*
X102457032Y-84469358D01*
X102406917Y-84440423D01*
X102254189Y-84399499D01*
X102096075Y-84399499D01*
X102088479Y-84399499D01*
X102088463Y-84399500D01*
X100582412Y-84399500D01*
X100515373Y-84379815D01*
X100505097Y-84372445D01*
X100502263Y-84370185D01*
X100502262Y-84370184D01*
X100415031Y-84315373D01*
X100349523Y-84274211D01*
X100179254Y-84214631D01*
X100179249Y-84214630D01*
X100000004Y-84194435D01*
X99999996Y-84194435D01*
X99820750Y-84214630D01*
X99820745Y-84214631D01*
X99650476Y-84274211D01*
X99497736Y-84370185D01*
X99494903Y-84372445D01*
X99492724Y-84373334D01*
X99491842Y-84373889D01*
X99491744Y-84373734D01*
X99430217Y-84398855D01*
X99417588Y-84399500D01*
X98516403Y-84399500D01*
X98449364Y-84379815D01*
X98403609Y-84327011D01*
X98393114Y-84288756D01*
X98390372Y-84263253D01*
X98390372Y-84236747D01*
X98394552Y-84197873D01*
X98394551Y-83802128D01*
X98390119Y-83760898D01*
X98390120Y-83734393D01*
X98394051Y-83697833D01*
X98394052Y-83697819D01*
X98394052Y-83650000D01*
X98378440Y-83634388D01*
X98364568Y-83630315D01*
X98332341Y-83600312D01*
X98309622Y-83569964D01*
X98293412Y-83548311D01*
X98268995Y-83482848D01*
X98283846Y-83414575D01*
X98333250Y-83365169D01*
X98392679Y-83350000D01*
X98394052Y-83350000D01*
X98394052Y-83302172D01*
X98394051Y-83302155D01*
X98387650Y-83242627D01*
X98387648Y-83242620D01*
X98337406Y-83107913D01*
X98333155Y-83100128D01*
X98335000Y-83099120D01*
X98314729Y-83044776D01*
X98329579Y-82976502D01*
X98350732Y-82948244D01*
X98449642Y-82849334D01*
X98564546Y-82677368D01*
X98564551Y-82677358D01*
X98643700Y-82486276D01*
X98643701Y-82486274D01*
X98654895Y-82430000D01*
X97801040Y-82430000D01*
X97818257Y-82420060D01*
X97874112Y-82364205D01*
X97913608Y-82295796D01*
X97934052Y-82219496D01*
X97934052Y-82140504D01*
X97913608Y-82064204D01*
X97874112Y-81995795D01*
X97818257Y-81939940D01*
X97801040Y-81930000D01*
X98654895Y-81930000D01*
X98643701Y-81873725D01*
X98643700Y-81873723D01*
X98592452Y-81749999D01*
X118661209Y-81749999D01*
X118661210Y-81750000D01*
X119190000Y-81750000D01*
X119190000Y-81240074D01*
X118661210Y-81240074D01*
X118662854Y-81260984D01*
X118707968Y-81416269D01*
X118717223Y-81431919D01*
X118734403Y-81499643D01*
X118717223Y-81558155D01*
X118707968Y-81573804D01*
X118707966Y-81573809D01*
X118662855Y-81729081D01*
X118662854Y-81729087D01*
X118661209Y-81749999D01*
X98592452Y-81749999D01*
X98564551Y-81682641D01*
X98564546Y-81682631D01*
X98449641Y-81510664D01*
X98449638Y-81510660D01*
X98303391Y-81364413D01*
X98303387Y-81364410D01*
X98131420Y-81249505D01*
X98131410Y-81249500D01*
X97940326Y-81170350D01*
X97940318Y-81170348D01*
X97737472Y-81130000D01*
X97384052Y-81130000D01*
X97384052Y-81880000D01*
X96884052Y-81880000D01*
X96884052Y-81130000D01*
X96530631Y-81130000D01*
X96327785Y-81170348D01*
X96327777Y-81170350D01*
X96136693Y-81249500D01*
X96136683Y-81249505D01*
X95964716Y-81364410D01*
X95964712Y-81364413D01*
X95818465Y-81510660D01*
X95818462Y-81510664D01*
X95703557Y-81682631D01*
X95703552Y-81682641D01*
X95624403Y-81873723D01*
X95624402Y-81873725D01*
X95613209Y-81930000D01*
X96467064Y-81930000D01*
X96449847Y-81939940D01*
X96393992Y-81995795D01*
X96354496Y-82064204D01*
X96334052Y-82140504D01*
X96334052Y-82219496D01*
X96354496Y-82295796D01*
X96393992Y-82364205D01*
X96449847Y-82420060D01*
X96467064Y-82430000D01*
X95613208Y-82430000D01*
X95604083Y-82441118D01*
X95601372Y-82471406D01*
X95560297Y-82525267D01*
X95536863Y-82542810D01*
X95536861Y-82542812D01*
X95450701Y-82657906D01*
X95450697Y-82657913D01*
X95400455Y-82792620D01*
X95400453Y-82792627D01*
X95394052Y-82852155D01*
X95394052Y-82876000D01*
X95374367Y-82943039D01*
X95321563Y-82988794D01*
X95270052Y-83000000D01*
X93470959Y-83000000D01*
X93403920Y-82980315D01*
X93358165Y-82927511D01*
X93348221Y-82858353D01*
X93367857Y-82807110D01*
X93454543Y-82677373D01*
X93454551Y-82677358D01*
X93533700Y-82486276D01*
X93533701Y-82486274D01*
X93544895Y-82430000D01*
X92691040Y-82430000D01*
X92708257Y-82420060D01*
X92764112Y-82364205D01*
X92803608Y-82295796D01*
X92824052Y-82219496D01*
X92824052Y-82140504D01*
X92803608Y-82064204D01*
X92764112Y-81995795D01*
X92708257Y-81939940D01*
X92691040Y-81930000D01*
X93544895Y-81930000D01*
X93533701Y-81873725D01*
X93533700Y-81873723D01*
X93454551Y-81682641D01*
X93454546Y-81682631D01*
X93339641Y-81510664D01*
X93339638Y-81510660D01*
X93193391Y-81364413D01*
X93193387Y-81364410D01*
X93021420Y-81249505D01*
X93021410Y-81249500D01*
X92830326Y-81170350D01*
X92830318Y-81170348D01*
X92627472Y-81130000D01*
X92024052Y-81130000D01*
X92024052Y-81880000D01*
X91524052Y-81880000D01*
X91524052Y-81130000D01*
X90920631Y-81130000D01*
X90717785Y-81170348D01*
X90717773Y-81170351D01*
X90671952Y-81189331D01*
X90602482Y-81196800D01*
X90540003Y-81165524D01*
X90504352Y-81105435D01*
X90500500Y-81074770D01*
X90500500Y-80740073D01*
X118661209Y-80740073D01*
X118661210Y-80740074D01*
X119190000Y-80740074D01*
X119190000Y-80250000D01*
X118661210Y-80250000D01*
X118662854Y-80270910D01*
X118707968Y-80426195D01*
X118707970Y-80426200D01*
X118711353Y-80431920D01*
X118728533Y-80499644D01*
X118711353Y-80558154D01*
X118707970Y-80563873D01*
X118707966Y-80563883D01*
X118662855Y-80719155D01*
X118662854Y-80719161D01*
X118661209Y-80740073D01*
X90500500Y-80740073D01*
X90500500Y-79693382D01*
X90520185Y-79626343D01*
X90572989Y-79580588D01*
X90642147Y-79570644D01*
X90705703Y-79599669D01*
X90720040Y-79614337D01*
X90746651Y-79646504D01*
X90871497Y-79763743D01*
X90966836Y-79853272D01*
X90966846Y-79853280D01*
X91211193Y-80030808D01*
X91211198Y-80030810D01*
X91211205Y-80030816D01*
X91475896Y-80176332D01*
X91475901Y-80176334D01*
X91475903Y-80176335D01*
X91475904Y-80176336D01*
X91756734Y-80287524D01*
X91756737Y-80287525D01*
X91854259Y-80312564D01*
X92049302Y-80362642D01*
X92196039Y-80381179D01*
X92348963Y-80400499D01*
X92348969Y-80400499D01*
X92348973Y-80400500D01*
X92348975Y-80400500D01*
X92651025Y-80400500D01*
X92651027Y-80400500D01*
X92651032Y-80400499D01*
X92651036Y-80400499D01*
X92730591Y-80390448D01*
X92950698Y-80362642D01*
X93243262Y-80287525D01*
X93243265Y-80287524D01*
X93524095Y-80176336D01*
X93524096Y-80176335D01*
X93524094Y-80176335D01*
X93524104Y-80176332D01*
X93788795Y-80030816D01*
X94033162Y-79853274D01*
X94143138Y-79749999D01*
X118661209Y-79749999D01*
X118661210Y-79750000D01*
X119190000Y-79750000D01*
X119190000Y-79195494D01*
X119189998Y-79195493D01*
X119043809Y-79237965D01*
X119043806Y-79237967D01*
X118904625Y-79320278D01*
X118904616Y-79320285D01*
X118790285Y-79434616D01*
X118790278Y-79434625D01*
X118707968Y-79573804D01*
X118707966Y-79573809D01*
X118662855Y-79729081D01*
X118662854Y-79729087D01*
X118661209Y-79749999D01*
X94143138Y-79749999D01*
X94253349Y-79646504D01*
X94445885Y-79413768D01*
X94607733Y-79158736D01*
X94736341Y-78885430D01*
X94829681Y-78598160D01*
X94886280Y-78301457D01*
X94886281Y-78301446D01*
X94905246Y-78000005D01*
X94905246Y-77999994D01*
X94892663Y-77799996D01*
X97994435Y-77799996D01*
X97994435Y-77800003D01*
X98014630Y-77979249D01*
X98014631Y-77979254D01*
X98074211Y-78149523D01*
X98152365Y-78273903D01*
X98170184Y-78302262D01*
X98297738Y-78429816D01*
X98450478Y-78525789D01*
X98516054Y-78548735D01*
X98620745Y-78585368D01*
X98620750Y-78585369D01*
X98799996Y-78605565D01*
X98800000Y-78605565D01*
X98800004Y-78605565D01*
X98979249Y-78585369D01*
X98979252Y-78585368D01*
X98979255Y-78585368D01*
X99149522Y-78525789D01*
X99302262Y-78429816D01*
X99429816Y-78302262D01*
X99525789Y-78149522D01*
X99585368Y-77979255D01*
X99593818Y-77904257D01*
X99605565Y-77800003D01*
X99605565Y-77799996D01*
X99585369Y-77620750D01*
X99585368Y-77620745D01*
X99583489Y-77615374D01*
X99525789Y-77450478D01*
X99429816Y-77297738D01*
X99302262Y-77170184D01*
X99213742Y-77114563D01*
X99149523Y-77074211D01*
X98979254Y-77014631D01*
X98979249Y-77014630D01*
X98800004Y-76994435D01*
X98799996Y-76994435D01*
X98620750Y-77014630D01*
X98620745Y-77014631D01*
X98450476Y-77074211D01*
X98297737Y-77170184D01*
X98170184Y-77297737D01*
X98074211Y-77450476D01*
X98014631Y-77620745D01*
X98014630Y-77620750D01*
X97994435Y-77799996D01*
X94892663Y-77799996D01*
X94886281Y-77698553D01*
X94886280Y-77698546D01*
X94886280Y-77698543D01*
X94829681Y-77401840D01*
X94736341Y-77114570D01*
X94607733Y-76841264D01*
X94553202Y-76755337D01*
X94445888Y-76586236D01*
X94432027Y-76569481D01*
X94253349Y-76353496D01*
X94204550Y-76307671D01*
X94183075Y-76287504D01*
X94105750Y-76214891D01*
X94070356Y-76154651D01*
X94073149Y-76084837D01*
X94113243Y-76027616D01*
X94177908Y-76001155D01*
X94190635Y-76000500D01*
X119305500Y-76000500D01*
X119372539Y-76020185D01*
G37*
%TD.AperFunction*%
%TA.AperFunction,Conductor*%
G36*
X102729575Y-87342082D02*
G01*
X102785508Y-87383954D01*
X102800802Y-87410811D01*
X102824671Y-87468436D01*
X102824672Y-87468438D01*
X102824673Y-87468439D01*
X102873876Y-87532560D01*
X102899070Y-87597727D01*
X102899500Y-87608046D01*
X102899500Y-87613330D01*
X102899499Y-87613348D01*
X102899499Y-87779054D01*
X102899498Y-87779054D01*
X102940424Y-87931789D01*
X102940425Y-87931790D01*
X102959843Y-87965422D01*
X102959844Y-87965423D01*
X103019477Y-88068712D01*
X103019481Y-88068717D01*
X103131284Y-88180520D01*
X103131285Y-88180522D01*
X103169298Y-88218535D01*
X103202783Y-88279858D01*
X103204837Y-88292332D01*
X103214630Y-88379249D01*
X103274210Y-88549521D01*
X103320246Y-88622787D01*
X103370184Y-88702262D01*
X103497738Y-88829816D01*
X103530625Y-88850480D01*
X103635040Y-88916089D01*
X103650478Y-88925789D01*
X103820745Y-88985368D01*
X103889384Y-88993101D01*
X103953796Y-89020166D01*
X103993352Y-89077760D01*
X103999500Y-89116321D01*
X103999500Y-93094609D01*
X103979815Y-93161648D01*
X103927011Y-93207403D01*
X103909612Y-93213825D01*
X103726953Y-93266090D01*
X103726951Y-93266090D01*
X103726951Y-93266091D01*
X103546593Y-93360302D01*
X103546591Y-93360303D01*
X103546590Y-93360304D01*
X103388890Y-93488890D01*
X103260304Y-93646590D01*
X103260302Y-93646593D01*
X103219222Y-93725236D01*
X103166089Y-93826954D01*
X103110114Y-94022583D01*
X103110113Y-94022586D01*
X103103508Y-94096886D01*
X103100830Y-94127011D01*
X103099500Y-94141966D01*
X103099500Y-94875500D01*
X103079815Y-94942539D01*
X103027011Y-94988294D01*
X102975500Y-94999500D01*
X99866916Y-94999500D01*
X99799877Y-94979815D01*
X99754122Y-94927011D01*
X99752425Y-94922887D01*
X99667032Y-94750707D01*
X99667030Y-94750704D01*
X99547724Y-94602280D01*
X99547722Y-94602278D01*
X99478112Y-94546324D01*
X99438196Y-94488985D01*
X99435616Y-94419163D01*
X99471194Y-94359030D01*
X99478115Y-94353033D01*
X99547366Y-94297367D01*
X99547367Y-94297366D01*
X99666607Y-94149025D01*
X99666609Y-94149022D01*
X99751168Y-93978523D01*
X99797102Y-93793824D01*
X99800000Y-93751096D01*
X99800000Y-93550000D01*
X98174000Y-93550000D01*
X98106961Y-93530315D01*
X98061206Y-93477511D01*
X98050000Y-93426000D01*
X98050000Y-93050000D01*
X98550000Y-93050000D01*
X99800000Y-93050000D01*
X99800000Y-92848903D01*
X99797102Y-92806175D01*
X99751168Y-92621476D01*
X99666609Y-92450977D01*
X99666607Y-92450974D01*
X99547367Y-92302633D01*
X99547366Y-92302632D01*
X99399025Y-92183392D01*
X99399022Y-92183390D01*
X99228523Y-92098831D01*
X99043824Y-92052897D01*
X99001097Y-92050000D01*
X98550000Y-92050000D01*
X98550000Y-93050000D01*
X98050000Y-93050000D01*
X98050000Y-92050000D01*
X98031744Y-92050000D01*
X97964705Y-92030315D01*
X97918950Y-91977511D01*
X97909006Y-91908353D01*
X97938031Y-91844797D01*
X97984291Y-91811439D01*
X98131410Y-91750499D01*
X98131420Y-91750494D01*
X98303387Y-91635589D01*
X98303391Y-91635586D01*
X98449638Y-91489339D01*
X98449641Y-91489335D01*
X98564546Y-91317368D01*
X98564551Y-91317358D01*
X98643700Y-91126276D01*
X98643701Y-91126274D01*
X98654895Y-91070000D01*
X97801040Y-91070000D01*
X97818257Y-91060060D01*
X97874112Y-91004205D01*
X97913608Y-90935796D01*
X97934052Y-90859496D01*
X97934052Y-90780504D01*
X97913608Y-90704204D01*
X97874112Y-90635795D01*
X97818257Y-90579940D01*
X97801040Y-90570000D01*
X98671620Y-90570000D01*
X98691440Y-90556500D01*
X98729545Y-90550500D01*
X99463331Y-90550500D01*
X99463347Y-90550501D01*
X99470943Y-90550501D01*
X99629054Y-90550501D01*
X99629057Y-90550501D01*
X99781785Y-90509577D01*
X99834647Y-90479057D01*
X99834648Y-90479057D01*
X99918709Y-90430524D01*
X99918708Y-90430524D01*
X99918716Y-90430520D01*
X100030520Y-90318716D01*
X100030520Y-90318714D01*
X100040724Y-90308511D01*
X100040728Y-90308506D01*
X100411672Y-89937561D01*
X100472993Y-89904078D01*
X100542685Y-89909062D01*
X100598618Y-89950934D01*
X100616392Y-89984289D01*
X100674209Y-90149519D01*
X100701461Y-90192890D01*
X100770184Y-90302262D01*
X100897738Y-90429816D01*
X100969217Y-90474729D01*
X101037214Y-90517455D01*
X101050478Y-90525789D01*
X101092360Y-90540444D01*
X101220745Y-90585368D01*
X101220750Y-90585369D01*
X101399996Y-90605565D01*
X101400000Y-90605565D01*
X101400004Y-90605565D01*
X101579249Y-90585369D01*
X101579252Y-90585368D01*
X101579255Y-90585368D01*
X101749522Y-90525789D01*
X101902262Y-90429816D01*
X102029816Y-90302262D01*
X102125789Y-90149522D01*
X102185368Y-89979255D01*
X102189743Y-89940424D01*
X102205565Y-89800003D01*
X102205565Y-89799996D01*
X102185369Y-89620750D01*
X102185368Y-89620745D01*
X102171678Y-89581621D01*
X102125789Y-89450478D01*
X102029816Y-89297738D01*
X101902262Y-89170184D01*
X101857934Y-89142331D01*
X101749519Y-89074209D01*
X101584290Y-89016392D01*
X101527514Y-88975670D01*
X101501767Y-88910718D01*
X101515223Y-88842156D01*
X101537560Y-88811674D01*
X102280520Y-88068716D01*
X102359577Y-87931784D01*
X102400501Y-87779057D01*
X102400501Y-87620942D01*
X102400501Y-87620007D01*
X102420186Y-87552968D01*
X102436820Y-87532326D01*
X102483443Y-87485703D01*
X102525430Y-87443716D01*
X102525430Y-87443714D01*
X102535634Y-87433511D01*
X102535638Y-87433506D01*
X102598562Y-87370581D01*
X102659883Y-87337098D01*
X102729575Y-87342082D01*
G37*
%TD.AperFunction*%
%TA.AperFunction,Conductor*%
G36*
X100997429Y-86989912D02*
G01*
X101040618Y-87044834D01*
X101049500Y-87090918D01*
X101049500Y-87207695D01*
X101049501Y-87207711D01*
X101064794Y-87323878D01*
X101064796Y-87323883D01*
X101109851Y-87432658D01*
X101117320Y-87502128D01*
X101086044Y-87564607D01*
X101082971Y-87567791D01*
X99337584Y-89313181D01*
X99276261Y-89346666D01*
X99249903Y-89349500D01*
X98516296Y-89349500D01*
X98449257Y-89329815D01*
X98403502Y-89277011D01*
X98393006Y-89212247D01*
X98394552Y-89197873D01*
X98394551Y-88802128D01*
X98394550Y-88802111D01*
X98390372Y-88763253D01*
X98390372Y-88736747D01*
X98393114Y-88711239D01*
X98419854Y-88646691D01*
X98477247Y-88606844D01*
X98516403Y-88600500D01*
X98751998Y-88600500D01*
X98752014Y-88600501D01*
X98759610Y-88600501D01*
X98917721Y-88600501D01*
X98917724Y-88600501D01*
X99070452Y-88559577D01*
X99120571Y-88530639D01*
X99207383Y-88480520D01*
X99230301Y-88457601D01*
X99291622Y-88424115D01*
X99304081Y-88422062D01*
X99391023Y-88412267D01*
X99561290Y-88352688D01*
X99714030Y-88256715D01*
X99841584Y-88129161D01*
X99937557Y-87976421D01*
X99997136Y-87806154D01*
X100000189Y-87779057D01*
X100017333Y-87626902D01*
X100017333Y-87626895D01*
X99997137Y-87447649D01*
X99997136Y-87447644D01*
X99948685Y-87309180D01*
X99937557Y-87277377D01*
X99937556Y-87277376D01*
X99935257Y-87270804D01*
X99936685Y-87270304D01*
X99926651Y-87209361D01*
X99954372Y-87145227D01*
X100012367Y-87106261D01*
X100049723Y-87100500D01*
X100413331Y-87100500D01*
X100413347Y-87100501D01*
X100420943Y-87100501D01*
X100579054Y-87100501D01*
X100579057Y-87100501D01*
X100731785Y-87059577D01*
X100781904Y-87030639D01*
X100863502Y-86983529D01*
X100931402Y-86967059D01*
X100997429Y-86989912D01*
G37*
%TD.AperFunction*%
%TA.AperFunction,Conductor*%
G36*
X125156992Y-84496055D02*
G01*
X125174347Y-84507208D01*
X125200349Y-84527160D01*
X125241552Y-84583587D01*
X125247741Y-84619102D01*
X125248863Y-84620086D01*
X125331593Y-84609195D01*
X125365332Y-84611415D01*
X125365568Y-84609626D01*
X125373626Y-84610686D01*
X125373627Y-84610687D01*
X125486143Y-84625500D01*
X125486150Y-84625500D01*
X125711576Y-84625500D01*
X125711583Y-84625500D01*
X125824099Y-84610687D01*
X125824099Y-84610686D01*
X125832158Y-84609626D01*
X125832561Y-84612689D01*
X125865165Y-84612689D01*
X125865568Y-84609626D01*
X125873626Y-84610686D01*
X125873627Y-84610687D01*
X125986143Y-84625500D01*
X125986150Y-84625500D01*
X126211576Y-84625500D01*
X126211583Y-84625500D01*
X126324099Y-84610687D01*
X126324099Y-84610686D01*
X126332158Y-84609626D01*
X126332561Y-84612689D01*
X126365165Y-84612689D01*
X126365568Y-84609626D01*
X126373626Y-84610686D01*
X126373627Y-84610687D01*
X126486143Y-84625500D01*
X126486150Y-84625500D01*
X126625902Y-84625500D01*
X126692941Y-84645185D01*
X126738696Y-84697989D01*
X126748640Y-84767147D01*
X126719615Y-84830703D01*
X126713583Y-84837181D01*
X125919481Y-85631282D01*
X125919480Y-85631284D01*
X125884200Y-85692391D01*
X125840423Y-85768215D01*
X125799499Y-85920943D01*
X125799499Y-85920945D01*
X125799499Y-86089046D01*
X125799500Y-86089059D01*
X125799500Y-88617587D01*
X125779815Y-88684626D01*
X125772450Y-88694896D01*
X125770186Y-88697734D01*
X125674209Y-88850480D01*
X125641541Y-88943840D01*
X125600820Y-89000616D01*
X125535867Y-89026363D01*
X125467305Y-89012907D01*
X125416903Y-88964519D01*
X125400500Y-88902885D01*
X125400500Y-88632786D01*
X125400501Y-88632773D01*
X125400501Y-88464672D01*
X125400501Y-88464670D01*
X125359577Y-88311942D01*
X125313298Y-88231785D01*
X125280520Y-88175011D01*
X125168716Y-88063207D01*
X125168715Y-88063206D01*
X125164385Y-88058876D01*
X125164374Y-88058866D01*
X124260682Y-87155174D01*
X124227197Y-87093851D01*
X124224363Y-87067493D01*
X124224363Y-86887286D01*
X124224363Y-86887280D01*
X124209550Y-86774764D01*
X124209549Y-86774763D01*
X124208489Y-86766705D01*
X124211552Y-86766301D01*
X124211552Y-86733698D01*
X124208489Y-86733295D01*
X124212574Y-86702263D01*
X124224363Y-86612720D01*
X124224363Y-86387280D01*
X124209550Y-86274764D01*
X124209549Y-86274763D01*
X124208489Y-86266705D01*
X124211552Y-86266301D01*
X124211552Y-86233698D01*
X124208489Y-86233295D01*
X124215878Y-86177168D01*
X124224363Y-86112720D01*
X124224363Y-85887280D01*
X124209550Y-85774764D01*
X124209549Y-85774763D01*
X124208489Y-85766705D01*
X124211552Y-85766301D01*
X124211552Y-85733698D01*
X124208489Y-85733295D01*
X124209562Y-85725145D01*
X124224363Y-85612720D01*
X124224363Y-85387280D01*
X124209550Y-85274764D01*
X124209549Y-85274763D01*
X124208489Y-85266705D01*
X124211552Y-85266301D01*
X124211552Y-85233698D01*
X124208489Y-85233295D01*
X124210525Y-85217829D01*
X124224363Y-85112720D01*
X124224363Y-84887280D01*
X124209550Y-84774764D01*
X124208090Y-84771240D01*
X124207745Y-84768030D01*
X124207446Y-84766913D01*
X124207620Y-84766866D01*
X124200621Y-84701775D01*
X124231893Y-84639295D01*
X124291981Y-84603641D01*
X124361807Y-84606132D01*
X124370083Y-84609219D01*
X124373627Y-84610687D01*
X124445020Y-84620086D01*
X124486127Y-84625498D01*
X124486143Y-84625500D01*
X124486150Y-84625500D01*
X124711576Y-84625500D01*
X124711583Y-84625500D01*
X124824099Y-84610687D01*
X124824099Y-84610686D01*
X124832158Y-84609626D01*
X124832393Y-84611418D01*
X124866132Y-84609195D01*
X124948862Y-84620086D01*
X124951018Y-84618195D01*
X124968548Y-84558497D01*
X124997375Y-84527161D01*
X125023378Y-84507208D01*
X125088547Y-84482016D01*
X125156992Y-84496055D01*
G37*
%TD.AperFunction*%
%TA.AperFunction,Conductor*%
G36*
X140966942Y-81420185D02*
G01*
X140987584Y-81436819D01*
X141163181Y-81612416D01*
X141196666Y-81673739D01*
X141199500Y-81700097D01*
X141199500Y-82820404D01*
X141179815Y-82887443D01*
X141163181Y-82908085D01*
X141108869Y-82962396D01*
X141108863Y-82962404D01*
X141027131Y-83100606D01*
X141027129Y-83100611D01*
X140982335Y-83254791D01*
X140982334Y-83254797D01*
X140979500Y-83290811D01*
X140979500Y-83689169D01*
X140979501Y-83689191D01*
X140982335Y-83725205D01*
X141027129Y-83879388D01*
X141027132Y-83879395D01*
X141061128Y-83936881D01*
X141078309Y-84004605D01*
X141061128Y-84063119D01*
X141027132Y-84120604D01*
X141027129Y-84120611D01*
X140982335Y-84274791D01*
X140982334Y-84274797D01*
X140979500Y-84310811D01*
X140979500Y-84709169D01*
X140979501Y-84709191D01*
X140982335Y-84745205D01*
X141027129Y-84899388D01*
X141027131Y-84899393D01*
X141108863Y-85037595D01*
X141108869Y-85037603D01*
X141222396Y-85151130D01*
X141222405Y-85151137D01*
X141293645Y-85193268D01*
X141341328Y-85244337D01*
X141353832Y-85313079D01*
X141327187Y-85377668D01*
X141293645Y-85406732D01*
X141222405Y-85448862D01*
X141222396Y-85448869D01*
X141108085Y-85563181D01*
X141046762Y-85596666D01*
X141020404Y-85599500D01*
X139573249Y-85599500D01*
X139506210Y-85579815D01*
X139460455Y-85527011D01*
X139450511Y-85457853D01*
X139474873Y-85400013D01*
X139476024Y-85398513D01*
X139532453Y-85357311D01*
X139567967Y-85351121D01*
X139568951Y-85349999D01*
X139558059Y-85267270D01*
X139560272Y-85233529D01*
X139558489Y-85233295D01*
X139560525Y-85217829D01*
X139574363Y-85112720D01*
X139574363Y-84887280D01*
X139559550Y-84774764D01*
X139501561Y-84634767D01*
X139426123Y-84536455D01*
X139400930Y-84471288D01*
X139400500Y-84460970D01*
X139400500Y-84382412D01*
X139420185Y-84315373D01*
X139427555Y-84305097D01*
X139429810Y-84302267D01*
X139429816Y-84302262D01*
X139525789Y-84149522D01*
X139585368Y-83979255D01*
X139585369Y-83979249D01*
X139605565Y-83800003D01*
X139605565Y-83799996D01*
X139585369Y-83620750D01*
X139585366Y-83620737D01*
X139537116Y-83482848D01*
X139525789Y-83450478D01*
X139513778Y-83431363D01*
X139494778Y-83364128D01*
X139512040Y-83302270D01*
X139557033Y-83226191D01*
X139557033Y-83226190D01*
X139602144Y-83070918D01*
X139602145Y-83070912D01*
X139603790Y-83050000D01*
X139101401Y-83050000D01*
X139060446Y-83043042D01*
X138979254Y-83014631D01*
X138979249Y-83014630D01*
X138800004Y-82994435D01*
X138800000Y-82994435D01*
X138783379Y-82996307D01*
X138714557Y-82984249D01*
X138663180Y-82936898D01*
X138645500Y-82873086D01*
X138645500Y-82565317D01*
X138645499Y-82565302D01*
X138645261Y-82562280D01*
X138644295Y-82550000D01*
X139075000Y-82550000D01*
X139603790Y-82550000D01*
X139602145Y-82529089D01*
X139557031Y-82373804D01*
X139491573Y-82263121D01*
X139474390Y-82195398D01*
X139491573Y-82136879D01*
X139557031Y-82026195D01*
X139557033Y-82026190D01*
X139602144Y-81870918D01*
X139602145Y-81870912D01*
X139603790Y-81850000D01*
X139075000Y-81850000D01*
X139075000Y-82550000D01*
X138644295Y-82550000D01*
X138642643Y-82529007D01*
X138641556Y-82525267D01*
X138597495Y-82373608D01*
X138597492Y-82373600D01*
X138592266Y-82364763D01*
X138575000Y-82301645D01*
X138575000Y-82098352D01*
X138592267Y-82035233D01*
X138597494Y-82026395D01*
X138605018Y-82000500D01*
X138642642Y-81870997D01*
X138642643Y-81870991D01*
X138645499Y-81834697D01*
X138645500Y-81834690D01*
X138645500Y-81524500D01*
X138665185Y-81457461D01*
X138717989Y-81411706D01*
X138769500Y-81400500D01*
X139320943Y-81400500D01*
X140899903Y-81400500D01*
X140966942Y-81420185D01*
G37*
%TD.AperFunction*%
%TA.AperFunction,Conductor*%
G36*
X141876404Y-76020185D02*
G01*
X141922159Y-76072989D01*
X141932103Y-76142147D01*
X141903078Y-76205703D01*
X141894249Y-76214892D01*
X141746652Y-76353494D01*
X141554111Y-76586236D01*
X141392268Y-76841261D01*
X141392265Y-76841267D01*
X141263661Y-77114563D01*
X141263659Y-77114568D01*
X141170320Y-77401835D01*
X141113719Y-77698546D01*
X141113718Y-77698553D01*
X141094754Y-77999994D01*
X141094754Y-78000005D01*
X141113718Y-78301446D01*
X141113719Y-78301453D01*
X141126830Y-78370184D01*
X141165716Y-78574032D01*
X141170320Y-78598164D01*
X141263659Y-78885431D01*
X141263661Y-78885436D01*
X141392265Y-79158732D01*
X141392268Y-79158738D01*
X141554111Y-79413763D01*
X141554114Y-79413767D01*
X141554115Y-79413768D01*
X141746651Y-79646504D01*
X141871497Y-79763743D01*
X141966836Y-79853272D01*
X141966846Y-79853280D01*
X142211193Y-80030808D01*
X142211198Y-80030810D01*
X142211205Y-80030816D01*
X142475896Y-80176332D01*
X142475901Y-80176334D01*
X142475903Y-80176335D01*
X142475904Y-80176336D01*
X142756734Y-80287524D01*
X142756737Y-80287525D01*
X142854259Y-80312564D01*
X143049302Y-80362642D01*
X143196039Y-80381179D01*
X143348963Y-80400499D01*
X143348969Y-80400499D01*
X143348973Y-80400500D01*
X143348975Y-80400500D01*
X143651025Y-80400500D01*
X143651027Y-80400500D01*
X143651032Y-80400499D01*
X143651036Y-80400499D01*
X143730591Y-80390448D01*
X143950698Y-80362642D01*
X144243262Y-80287525D01*
X144243265Y-80287524D01*
X144524095Y-80176336D01*
X144524096Y-80176335D01*
X144524094Y-80176335D01*
X144524104Y-80176332D01*
X144788795Y-80030816D01*
X145033162Y-79853274D01*
X145253349Y-79646504D01*
X145279957Y-79614340D01*
X145337856Y-79575234D01*
X145407708Y-79573638D01*
X145467333Y-79610059D01*
X145497803Y-79672935D01*
X145499500Y-79693382D01*
X145499500Y-80614192D01*
X145479815Y-80681231D01*
X145427011Y-80726986D01*
X145357853Y-80736930D01*
X145301190Y-80713460D01*
X145292088Y-80706646D01*
X145292086Y-80706645D01*
X145157379Y-80656403D01*
X145157372Y-80656401D01*
X145097844Y-80650000D01*
X144450000Y-80650000D01*
X144450000Y-81566988D01*
X144392993Y-81534075D01*
X144265826Y-81500000D01*
X144134174Y-81500000D01*
X144007007Y-81534075D01*
X143950000Y-81566988D01*
X143950000Y-80650000D01*
X143302155Y-80650000D01*
X143242627Y-80656401D01*
X143242620Y-80656403D01*
X143107913Y-80706645D01*
X143107906Y-80706649D01*
X142992812Y-80792809D01*
X142992809Y-80792812D01*
X142906649Y-80907906D01*
X142906645Y-80907913D01*
X142856403Y-81042620D01*
X142856401Y-81042627D01*
X142850000Y-81102155D01*
X142850000Y-81750000D01*
X143766988Y-81750000D01*
X143734075Y-81807007D01*
X143700000Y-81934174D01*
X143700000Y-82065826D01*
X143734075Y-82192993D01*
X143766988Y-82250000D01*
X142850000Y-82250000D01*
X142850000Y-82897844D01*
X142856401Y-82957372D01*
X142856403Y-82957379D01*
X142906645Y-83092086D01*
X142906649Y-83092093D01*
X142992809Y-83207187D01*
X142992812Y-83207190D01*
X143107906Y-83293350D01*
X143107913Y-83293354D01*
X143239470Y-83342421D01*
X143295403Y-83384292D01*
X143319821Y-83449756D01*
X143304970Y-83518029D01*
X143283819Y-83546284D01*
X143161503Y-83668600D01*
X143029849Y-83856623D01*
X142975272Y-83900248D01*
X142928274Y-83909500D01*
X142729275Y-83909500D01*
X142662236Y-83889815D01*
X142616481Y-83837011D01*
X142606537Y-83767853D01*
X142610198Y-83750906D01*
X142616536Y-83729089D01*
X142617665Y-83725204D01*
X142620500Y-83689181D01*
X142620499Y-83290820D01*
X142617665Y-83254796D01*
X142572869Y-83100607D01*
X142491135Y-82962402D01*
X142491133Y-82962400D01*
X142491130Y-82962396D01*
X142436819Y-82908085D01*
X142403334Y-82846762D01*
X142400500Y-82820404D01*
X142400500Y-81320945D01*
X142400500Y-81320943D01*
X142361021Y-81173605D01*
X142359577Y-81168215D01*
X142359575Y-81168211D01*
X142325493Y-81109179D01*
X142325492Y-81109179D01*
X142323330Y-81105435D01*
X142280520Y-81031284D01*
X142168716Y-80919480D01*
X142168715Y-80919479D01*
X142164385Y-80915149D01*
X142164374Y-80915139D01*
X141687590Y-80438355D01*
X141687588Y-80438352D01*
X141568717Y-80319481D01*
X141568709Y-80319475D01*
X141481047Y-80268864D01*
X141481046Y-80268864D01*
X141460226Y-80256843D01*
X141431785Y-80240423D01*
X141279057Y-80199499D01*
X141120943Y-80199499D01*
X141113347Y-80199499D01*
X141113331Y-80199500D01*
X137486669Y-80199500D01*
X137486653Y-80199499D01*
X137479057Y-80199499D01*
X137320943Y-80199499D01*
X137168215Y-80240423D01*
X137168214Y-80240423D01*
X137118954Y-80268864D01*
X137118953Y-80268864D01*
X137031290Y-80319475D01*
X137031282Y-80319481D01*
X136119481Y-81231282D01*
X136119480Y-81231284D01*
X136081113Y-81297738D01*
X136040423Y-81368215D01*
X135999499Y-81520943D01*
X135999499Y-81520945D01*
X135999499Y-81689046D01*
X135999500Y-81689059D01*
X135999500Y-81913996D01*
X135979815Y-81981035D01*
X135927011Y-82026790D01*
X135891689Y-82036935D01*
X135890550Y-82037085D01*
X135873627Y-82039313D01*
X135873625Y-82039313D01*
X135865574Y-82040374D01*
X135865182Y-82037399D01*
X135832547Y-82037399D01*
X135832155Y-82040374D01*
X135824100Y-82039313D01*
X135824099Y-82039313D01*
X135793086Y-82035230D01*
X135711590Y-82024500D01*
X135711583Y-82024500D01*
X135486143Y-82024500D01*
X135486135Y-82024500D01*
X135404640Y-82035230D01*
X135373627Y-82039313D01*
X135373625Y-82039313D01*
X135365571Y-82040374D01*
X135365179Y-82037399D01*
X135332547Y-82037399D01*
X135332155Y-82040374D01*
X135324100Y-82039313D01*
X135324099Y-82039313D01*
X135293086Y-82035230D01*
X135211590Y-82024500D01*
X135211583Y-82024500D01*
X134986143Y-82024500D01*
X134986135Y-82024500D01*
X134904640Y-82035230D01*
X134873627Y-82039313D01*
X134873625Y-82039313D01*
X134865571Y-82040374D01*
X134865179Y-82037399D01*
X134832544Y-82037399D01*
X134832152Y-82040374D01*
X134824100Y-82039313D01*
X134824099Y-82039313D01*
X134804601Y-82036746D01*
X134740705Y-82008477D01*
X134702236Y-81950152D01*
X134701407Y-81880287D01*
X134733106Y-81826129D01*
X134790520Y-81768716D01*
X134790521Y-81768714D01*
X134830233Y-81729002D01*
X134842417Y-81716818D01*
X134903740Y-81683333D01*
X134930098Y-81680499D01*
X135049168Y-81680499D01*
X135049180Y-81680499D01*
X135085204Y-81677665D01*
X135239393Y-81632869D01*
X135377598Y-81551135D01*
X135491135Y-81437598D01*
X135572869Y-81299393D01*
X135617665Y-81145204D01*
X135620500Y-81109181D01*
X135620499Y-81080097D01*
X135640181Y-81013060D01*
X135656813Y-80992420D01*
X136683506Y-79965728D01*
X136683511Y-79965724D01*
X136693714Y-79955520D01*
X136693716Y-79955520D01*
X136805520Y-79843716D01*
X136884577Y-79706784D01*
X136921420Y-79569284D01*
X136925500Y-79554058D01*
X136925500Y-79395943D01*
X136925500Y-78874499D01*
X136945185Y-78807460D01*
X136997989Y-78761705D01*
X137049500Y-78750499D01*
X137222871Y-78750499D01*
X137222872Y-78750499D01*
X137282483Y-78744091D01*
X137417331Y-78693796D01*
X137532546Y-78607546D01*
X137618796Y-78492331D01*
X137667810Y-78360916D01*
X137709681Y-78304984D01*
X137775145Y-78280566D01*
X137843418Y-78295417D01*
X137871673Y-78316569D01*
X137993599Y-78438495D01*
X138090384Y-78506265D01*
X138187165Y-78574032D01*
X138187167Y-78574033D01*
X138187170Y-78574035D01*
X138401337Y-78673903D01*
X138629592Y-78735063D01*
X138806034Y-78750500D01*
X138864999Y-78755659D01*
X138865000Y-78755659D01*
X138865001Y-78755659D01*
X138923966Y-78750500D01*
X139100408Y-78735063D01*
X139328663Y-78673903D01*
X139542830Y-78574035D01*
X139736401Y-78438495D01*
X139903495Y-78271401D01*
X140039035Y-78077830D01*
X140138903Y-77863663D01*
X140200063Y-77635408D01*
X140220659Y-77400000D01*
X140200063Y-77164592D01*
X140138903Y-76936337D01*
X140039035Y-76722171D01*
X140010408Y-76681286D01*
X139903494Y-76528597D01*
X139736402Y-76361506D01*
X139736396Y-76361501D01*
X139542987Y-76226075D01*
X139499362Y-76171498D01*
X139492168Y-76102000D01*
X139523691Y-76039645D01*
X139583921Y-76004231D01*
X139614110Y-76000500D01*
X141809365Y-76000500D01*
X141876404Y-76020185D01*
G37*
%TD.AperFunction*%
%TA.AperFunction,Conductor*%
G36*
X97018383Y-83169685D02*
G01*
X97064138Y-83222489D01*
X97074082Y-83291647D01*
X97045057Y-83355203D01*
X96994677Y-83390182D01*
X96951723Y-83406202D01*
X96951716Y-83406206D01*
X96836507Y-83492452D01*
X96790161Y-83554362D01*
X96734227Y-83596232D01*
X96677642Y-83603340D01*
X96669265Y-83602439D01*
X96641925Y-83599500D01*
X96641921Y-83599500D01*
X96118052Y-83599500D01*
X96051013Y-83579815D01*
X96005258Y-83527011D01*
X95994052Y-83475500D01*
X95994052Y-83274000D01*
X96013737Y-83206961D01*
X96066541Y-83161206D01*
X96118052Y-83150000D01*
X96951344Y-83150000D01*
X97018383Y-83169685D01*
G37*
%TD.AperFunction*%
%TA.AperFunction,Conductor*%
G36*
X131573353Y-79957685D02*
G01*
X131619108Y-80010489D01*
X131629253Y-80045816D01*
X131640119Y-80128359D01*
X131640122Y-80128371D01*
X131699316Y-80271280D01*
X131699319Y-80271286D01*
X131793489Y-80394009D01*
X131793490Y-80394010D01*
X131916213Y-80488180D01*
X131916219Y-80488183D01*
X132059128Y-80547377D01*
X132059133Y-80547379D01*
X132098494Y-80552561D01*
X132162391Y-80580827D01*
X132200862Y-80639152D01*
X132201693Y-80709017D01*
X132164621Y-80768240D01*
X132101415Y-80798019D01*
X132082309Y-80799500D01*
X131182412Y-80799500D01*
X131115373Y-80779815D01*
X131105091Y-80772441D01*
X131102259Y-80770182D01*
X131099168Y-80768240D01*
X131090649Y-80762887D01*
X131044358Y-80710553D01*
X131033709Y-80641500D01*
X131037545Y-80623298D01*
X131077664Y-80485208D01*
X131077664Y-80485206D01*
X131077665Y-80485204D01*
X131080500Y-80449181D01*
X131080499Y-80330095D01*
X131100183Y-80263057D01*
X131116809Y-80242424D01*
X131384917Y-79974316D01*
X131446239Y-79940834D01*
X131472597Y-79938000D01*
X131506314Y-79938000D01*
X131573353Y-79957685D01*
G37*
%TD.AperFunction*%
%TA.AperFunction,Conductor*%
G36*
X135080468Y-76020185D02*
G01*
X135126223Y-76072989D01*
X135136167Y-76142147D01*
X135112695Y-76198811D01*
X135031206Y-76307664D01*
X135031202Y-76307671D01*
X134980908Y-76442517D01*
X134974501Y-76502116D01*
X134974500Y-76502135D01*
X134974500Y-78297870D01*
X134974501Y-78297876D01*
X134980908Y-78357483D01*
X135031202Y-78492328D01*
X135031206Y-78492335D01*
X135117452Y-78607544D01*
X135117455Y-78607547D01*
X135232664Y-78693793D01*
X135232671Y-78693797D01*
X135277618Y-78710561D01*
X135367517Y-78744091D01*
X135427127Y-78750500D01*
X135600500Y-78750499D01*
X135667539Y-78770183D01*
X135713294Y-78822987D01*
X135724500Y-78874499D01*
X135724500Y-79174902D01*
X135704815Y-79241941D01*
X135688181Y-79262583D01*
X135627430Y-79323334D01*
X135566107Y-79356819D01*
X135496415Y-79351835D01*
X135452068Y-79323334D01*
X135377603Y-79248869D01*
X135377595Y-79248863D01*
X135239393Y-79167131D01*
X135239388Y-79167129D01*
X135085208Y-79122335D01*
X135085202Y-79122334D01*
X135049188Y-79119500D01*
X135049181Y-79119500D01*
X134820097Y-79119500D01*
X134753058Y-79099815D01*
X134732416Y-79083181D01*
X134625090Y-78975855D01*
X134625088Y-78975852D01*
X134506217Y-78856981D01*
X134506216Y-78856980D01*
X134417084Y-78805520D01*
X134369285Y-78777923D01*
X134369283Y-78777922D01*
X134364080Y-78776528D01*
X134361170Y-78775748D01*
X134301510Y-78739384D01*
X134270981Y-78676537D01*
X134270331Y-78672203D01*
X134260365Y-78596501D01*
X134201117Y-78453463D01*
X134126070Y-78355659D01*
X134106868Y-78330634D01*
X134068838Y-78301453D01*
X134023511Y-78266672D01*
X133982310Y-78210245D01*
X133974999Y-78168297D01*
X133974999Y-78161486D01*
X133959881Y-78046640D01*
X133959877Y-78046628D01*
X133900683Y-77903719D01*
X133900680Y-77903713D01*
X133854300Y-77843271D01*
X133829105Y-77778102D01*
X133843143Y-77709657D01*
X133864994Y-77680102D01*
X133929717Y-77615379D01*
X133929721Y-77615374D01*
X134012031Y-77476195D01*
X134012033Y-77476190D01*
X134057144Y-77320918D01*
X134057145Y-77320912D01*
X134058790Y-77300000D01*
X133530000Y-77300000D01*
X133530000Y-77796638D01*
X133510315Y-77863677D01*
X133493681Y-77884319D01*
X133475000Y-77903000D01*
X133475000Y-78043244D01*
X133455315Y-78110283D01*
X133402511Y-78156038D01*
X133367186Y-78166183D01*
X133307570Y-78174032D01*
X133284001Y-78177135D01*
X133284000Y-78177135D01*
X133283994Y-78177136D01*
X133281087Y-78177915D01*
X133278539Y-78177854D01*
X133275944Y-78178196D01*
X133275890Y-78177791D01*
X133211238Y-78176249D01*
X133153377Y-78137084D01*
X133125876Y-78072854D01*
X133125000Y-78058139D01*
X133125000Y-77903000D01*
X133112944Y-77890944D01*
X133086961Y-77883315D01*
X133041206Y-77830511D01*
X133030000Y-77779000D01*
X133030000Y-77548352D01*
X133047267Y-77485233D01*
X133052494Y-77476395D01*
X133056196Y-77463655D01*
X133097642Y-77320997D01*
X133097643Y-77320991D01*
X133100499Y-77284697D01*
X133100500Y-77284690D01*
X133100500Y-76924000D01*
X133120185Y-76856961D01*
X133172989Y-76811206D01*
X133224500Y-76800000D01*
X134058790Y-76800000D01*
X134057145Y-76779089D01*
X134012031Y-76623804D01*
X133929721Y-76484625D01*
X133929714Y-76484616D01*
X133815383Y-76370285D01*
X133815374Y-76370278D01*
X133676196Y-76287969D01*
X133523396Y-76243577D01*
X133464511Y-76205970D01*
X133435304Y-76142498D01*
X133445050Y-76073311D01*
X133490654Y-76020377D01*
X133557636Y-76000501D01*
X133557991Y-76000500D01*
X135013429Y-76000500D01*
X135080468Y-76020185D01*
G37*
%TD.AperFunction*%
%TD*%
M02*
