%TF.GenerationSoftware,KiCad,Pcbnew,8.0.6*%
%TF.CreationDate,2024-11-11T09:30:46-05:00*%
%TF.ProjectId,VanguardFlightComputer,56616e67-7561-4726-9446-6c6967687443,rev?*%
%TF.SameCoordinates,Original*%
%TF.FileFunction,Copper,L2,Inr*%
%TF.FilePolarity,Positive*%
%FSLAX46Y46*%
G04 Gerber Fmt 4.6, Leading zero omitted, Abs format (unit mm)*
G04 Created by KiCad (PCBNEW 8.0.6) date 2024-11-11 09:30:46*
%MOMM*%
%LPD*%
G01*
G04 APERTURE LIST*
%TA.AperFunction,ComponentPad*%
%ADD10C,2.600000*%
%TD*%
%TA.AperFunction,ComponentPad*%
%ADD11R,1.700000X1.700000*%
%TD*%
%TA.AperFunction,ComponentPad*%
%ADD12O,1.700000X1.700000*%
%TD*%
%TA.AperFunction,ComponentPad*%
%ADD13O,2.100000X1.100000*%
%TD*%
%TA.AperFunction,ComponentPad*%
%ADD14O,2.600000X1.100000*%
%TD*%
%TA.AperFunction,ViaPad*%
%ADD15C,0.600000*%
%TD*%
G04 APERTURE END LIST*
D10*
%TO.N,N/C*%
%TO.C,H5*%
X143500000Y-78000000D03*
%TD*%
D11*
%TO.N,GND*%
%TO.C,J5*%
X144200000Y-82000000D03*
D12*
%TO.N,Net-(J5-Pin_2)*%
X144200000Y-84540000D03*
%TO.N,Net-(J5-Pin_3)*%
X144200000Y-87080000D03*
%TO.N,+3.3V*%
X144200000Y-89620000D03*
%TD*%
D10*
%TO.N,N/C*%
%TO.C,H6*%
X92500000Y-105000000D03*
%TD*%
D11*
%TO.N,I2C1_SDA*%
%TO.C,J6*%
X136325000Y-77400000D03*
D12*
%TO.N,I2C1_SCL*%
X138865000Y-77400000D03*
%TD*%
D10*
%TO.N,N/C*%
%TO.C,H1*%
X92500000Y-78000000D03*
%TD*%
D11*
%TO.N,VIN*%
%TO.C,J8*%
X92400000Y-97675000D03*
D12*
%TO.N,GND*%
X92400000Y-95135000D03*
%TD*%
D10*
%TO.N,N/C*%
%TO.C,H7*%
X143500000Y-105000000D03*
%TD*%
D13*
%TO.N,GND*%
%TO.C,J1*%
X97134052Y-82180000D03*
D14*
X91774052Y-82180000D03*
D13*
X97134052Y-90820000D03*
D14*
X91774052Y-90820000D03*
%TD*%
D11*
%TO.N,SERVO_1_PWM*%
%TO.C,J7*%
X120780000Y-77000000D03*
D12*
%TO.N,SERVO_2_PWM*%
X123320000Y-77000000D03*
%TO.N,SERVO_3_PWM*%
X125860000Y-77000000D03*
%TO.N,SERVO_4_PWM*%
X128400000Y-77000000D03*
%TD*%
D15*
%TO.N,+3.3V*%
X127000000Y-102250000D03*
%TO.N,GND*%
X130250000Y-101750000D03*
X99400000Y-83000000D03*
X100166840Y-87100000D03*
X131200000Y-80600000D03*
X112750000Y-102250000D03*
%TO.N,+3.3V*%
X101400000Y-89800000D03*
X138600000Y-100600000D03*
X138800000Y-83800000D03*
X124500000Y-94500000D03*
X98800000Y-77800000D03*
X130775000Y-77725000D03*
X95628539Y-105997203D03*
X124600000Y-81800000D03*
X124800000Y-90600000D03*
X109500000Y-82500000D03*
%TO.N,VBUS*%
X100000000Y-85000000D03*
X99211768Y-87626899D03*
%TO.N,USB_DM*%
X136524265Y-87124265D03*
X104000000Y-85000000D03*
%TO.N,USB_DP*%
X104000000Y-88200000D03*
X139800000Y-87400000D03*
%TO.N,I2C1_SDA*%
X128100000Y-85400000D03*
%TO.N,I2C1_SCL*%
X129400000Y-86200000D03*
%TO.N,SPI1_MOSI*%
X118650000Y-104000000D03*
%TD*%
%TA.AperFunction,Conductor*%
%TO.N,+3.3V*%
G36*
X113885140Y-76020185D02*
G01*
X113930895Y-76072989D01*
X113940839Y-76142147D01*
X113922666Y-76188517D01*
X113923267Y-76188833D01*
X113920407Y-76194281D01*
X113920148Y-76194944D01*
X113919780Y-76195476D01*
X113863762Y-76343181D01*
X113844722Y-76499999D01*
X113844722Y-76500000D01*
X113863762Y-76656818D01*
X113907413Y-76771915D01*
X113919780Y-76804523D01*
X114009517Y-76934530D01*
X114127760Y-77039283D01*
X114127762Y-77039284D01*
X114267634Y-77112696D01*
X114421014Y-77150500D01*
X114421015Y-77150500D01*
X114578985Y-77150500D01*
X114732365Y-77112696D01*
X114872240Y-77039283D01*
X114990483Y-76934530D01*
X115080220Y-76804523D01*
X115136237Y-76656818D01*
X115155278Y-76500000D01*
X115151643Y-76470058D01*
X115136237Y-76343181D01*
X115107869Y-76268382D01*
X115080220Y-76195477D01*
X115079851Y-76194943D01*
X115079702Y-76194492D01*
X115076733Y-76188833D01*
X115077673Y-76188339D01*
X115057966Y-76128591D01*
X115075429Y-76060938D01*
X115126694Y-76013466D01*
X115181899Y-76000500D01*
X117318101Y-76000500D01*
X117385140Y-76020185D01*
X117430895Y-76072989D01*
X117440839Y-76142147D01*
X117422666Y-76188517D01*
X117423267Y-76188833D01*
X117420407Y-76194281D01*
X117420148Y-76194944D01*
X117419780Y-76195476D01*
X117363762Y-76343181D01*
X117344722Y-76499999D01*
X117344722Y-76500000D01*
X117363762Y-76656818D01*
X117407413Y-76771915D01*
X117419780Y-76804523D01*
X117509517Y-76934530D01*
X117627760Y-77039283D01*
X117627762Y-77039284D01*
X117767634Y-77112696D01*
X117921014Y-77150500D01*
X117921015Y-77150500D01*
X118078985Y-77150500D01*
X118232365Y-77112696D01*
X118372240Y-77039283D01*
X118490483Y-76934530D01*
X118580220Y-76804523D01*
X118636237Y-76656818D01*
X118655278Y-76500000D01*
X118651643Y-76470058D01*
X118636237Y-76343181D01*
X118607869Y-76268382D01*
X118580220Y-76195477D01*
X118579851Y-76194943D01*
X118579702Y-76194492D01*
X118576733Y-76188833D01*
X118577673Y-76188339D01*
X118557966Y-76128591D01*
X118575429Y-76060938D01*
X118626694Y-76013466D01*
X118681899Y-76000500D01*
X119305500Y-76000500D01*
X119372539Y-76020185D01*
X119418294Y-76072989D01*
X119429500Y-76124500D01*
X119429500Y-77897870D01*
X119429501Y-77897876D01*
X119435908Y-77957483D01*
X119486202Y-78092328D01*
X119486206Y-78092335D01*
X119572452Y-78207544D01*
X119572455Y-78207547D01*
X119687664Y-78293793D01*
X119687671Y-78293797D01*
X119822517Y-78344091D01*
X119822516Y-78344091D01*
X119829444Y-78344835D01*
X119882127Y-78350500D01*
X121677872Y-78350499D01*
X121737483Y-78344091D01*
X121872331Y-78293796D01*
X121987546Y-78207546D01*
X122073796Y-78092331D01*
X122122810Y-77960916D01*
X122164681Y-77904984D01*
X122230145Y-77880566D01*
X122298418Y-77895417D01*
X122326673Y-77916569D01*
X122448599Y-78038495D01*
X122545384Y-78106265D01*
X122642165Y-78174032D01*
X122642167Y-78174033D01*
X122642170Y-78174035D01*
X122856337Y-78273903D01*
X123084592Y-78335063D01*
X123261034Y-78350500D01*
X123319999Y-78355659D01*
X123320000Y-78355659D01*
X123320001Y-78355659D01*
X123378966Y-78350500D01*
X123555408Y-78335063D01*
X123783663Y-78273903D01*
X123997830Y-78174035D01*
X124191401Y-78038495D01*
X124358495Y-77871401D01*
X124488425Y-77685842D01*
X124543002Y-77642217D01*
X124612500Y-77635023D01*
X124674855Y-77666546D01*
X124691575Y-77685842D01*
X124821500Y-77871395D01*
X124821505Y-77871401D01*
X124988599Y-78038495D01*
X125085384Y-78106265D01*
X125182165Y-78174032D01*
X125182167Y-78174033D01*
X125182170Y-78174035D01*
X125396337Y-78273903D01*
X125624592Y-78335063D01*
X125801034Y-78350500D01*
X125859999Y-78355659D01*
X125860000Y-78355659D01*
X125860001Y-78355659D01*
X125918966Y-78350500D01*
X126095408Y-78335063D01*
X126323663Y-78273903D01*
X126537830Y-78174035D01*
X126731401Y-78038495D01*
X126898495Y-77871401D01*
X127028425Y-77685842D01*
X127083002Y-77642217D01*
X127152500Y-77635023D01*
X127214855Y-77666546D01*
X127231575Y-77685842D01*
X127361500Y-77871395D01*
X127361505Y-77871401D01*
X127528599Y-78038495D01*
X127625384Y-78106265D01*
X127722165Y-78174032D01*
X127722167Y-78174033D01*
X127722170Y-78174035D01*
X127936337Y-78273903D01*
X128164592Y-78335063D01*
X128341034Y-78350500D01*
X128399999Y-78355659D01*
X128400000Y-78355659D01*
X128400001Y-78355659D01*
X128458966Y-78350500D01*
X128635408Y-78335063D01*
X128863663Y-78273903D01*
X129077830Y-78174035D01*
X129271401Y-78038495D01*
X129438495Y-77871401D01*
X129574035Y-77677830D01*
X129673903Y-77463663D01*
X129735063Y-77235408D01*
X129755659Y-77000000D01*
X129735063Y-76764592D01*
X129673903Y-76536337D01*
X129574035Y-76322171D01*
X129571999Y-76319263D01*
X129485426Y-76195623D01*
X129463099Y-76129417D01*
X129480109Y-76061650D01*
X129531057Y-76013837D01*
X129587001Y-76000500D01*
X133241121Y-76000500D01*
X133308160Y-76020185D01*
X133353915Y-76072989D01*
X133364217Y-76139447D01*
X133363763Y-76143180D01*
X133363763Y-76143182D01*
X133353698Y-76226075D01*
X133344722Y-76300000D01*
X133363762Y-76456818D01*
X133393923Y-76536344D01*
X133419780Y-76604523D01*
X133509517Y-76734530D01*
X133627760Y-76839283D01*
X133627762Y-76839284D01*
X133767634Y-76912696D01*
X133921014Y-76950500D01*
X133921015Y-76950500D01*
X134078985Y-76950500D01*
X134232365Y-76912696D01*
X134372240Y-76839283D01*
X134490483Y-76734530D01*
X134580220Y-76604523D01*
X134636237Y-76456818D01*
X134655278Y-76300000D01*
X134636237Y-76143182D01*
X134636236Y-76143180D01*
X134635783Y-76139447D01*
X134647243Y-76070523D01*
X134694147Y-76018737D01*
X134758879Y-76000500D01*
X135013429Y-76000500D01*
X135080468Y-76020185D01*
X135126223Y-76072989D01*
X135136167Y-76142147D01*
X135112695Y-76198811D01*
X135031206Y-76307664D01*
X135031202Y-76307671D01*
X134980908Y-76442517D01*
X134974501Y-76502116D01*
X134974500Y-76502135D01*
X134974500Y-78297870D01*
X134974501Y-78297876D01*
X134980908Y-78357483D01*
X135031202Y-78492328D01*
X135031206Y-78492335D01*
X135117452Y-78607544D01*
X135117455Y-78607547D01*
X135232664Y-78693793D01*
X135232671Y-78693797D01*
X135367517Y-78744091D01*
X135367516Y-78744091D01*
X135374444Y-78744835D01*
X135427127Y-78750500D01*
X137222872Y-78750499D01*
X137282483Y-78744091D01*
X137417331Y-78693796D01*
X137532546Y-78607546D01*
X137618796Y-78492331D01*
X137667810Y-78360916D01*
X137709681Y-78304984D01*
X137775145Y-78280566D01*
X137843418Y-78295417D01*
X137871673Y-78316569D01*
X137993599Y-78438495D01*
X138090384Y-78506265D01*
X138187165Y-78574032D01*
X138187167Y-78574033D01*
X138187170Y-78574035D01*
X138401337Y-78673903D01*
X138629592Y-78735063D01*
X138806034Y-78750500D01*
X138864999Y-78755659D01*
X138865000Y-78755659D01*
X138865001Y-78755659D01*
X138923966Y-78750500D01*
X139100408Y-78735063D01*
X139328663Y-78673903D01*
X139542830Y-78574035D01*
X139736401Y-78438495D01*
X139903495Y-78271401D01*
X140039035Y-78077830D01*
X140138903Y-77863663D01*
X140200063Y-77635408D01*
X140220659Y-77400000D01*
X140200063Y-77164592D01*
X140138903Y-76936337D01*
X140039035Y-76722171D01*
X139956658Y-76604523D01*
X139903494Y-76528597D01*
X139736402Y-76361506D01*
X139736396Y-76361501D01*
X139542987Y-76226075D01*
X139499362Y-76171498D01*
X139492168Y-76102000D01*
X139523691Y-76039645D01*
X139583921Y-76004231D01*
X139614110Y-76000500D01*
X143051073Y-76000500D01*
X143118112Y-76020185D01*
X143163867Y-76072989D01*
X143173811Y-76142147D01*
X143144786Y-76205703D01*
X143087623Y-76242991D01*
X142840358Y-76319262D01*
X142597230Y-76436346D01*
X142374258Y-76588365D01*
X142176442Y-76771910D01*
X142008185Y-76982898D01*
X141873258Y-77216599D01*
X141873256Y-77216603D01*
X141774666Y-77467804D01*
X141774664Y-77467811D01*
X141714616Y-77730898D01*
X141694451Y-77999995D01*
X141694451Y-78000004D01*
X141714616Y-78269101D01*
X141774664Y-78532188D01*
X141774666Y-78532195D01*
X141860344Y-78750498D01*
X141873257Y-78783398D01*
X142008185Y-79017102D01*
X142144080Y-79187509D01*
X142176442Y-79228089D01*
X142307293Y-79349500D01*
X142374259Y-79411635D01*
X142597226Y-79563651D01*
X142840359Y-79680738D01*
X143098228Y-79760280D01*
X143098229Y-79760280D01*
X143098232Y-79760281D01*
X143365063Y-79800499D01*
X143365068Y-79800499D01*
X143365071Y-79800500D01*
X143365072Y-79800500D01*
X143634928Y-79800500D01*
X143634929Y-79800500D01*
X143675168Y-79794435D01*
X143901767Y-79760281D01*
X143901768Y-79760280D01*
X143901772Y-79760280D01*
X144159641Y-79680738D01*
X144402775Y-79563651D01*
X144625741Y-79411635D01*
X144823561Y-79228085D01*
X144991815Y-79017102D01*
X145126743Y-78783398D01*
X145225334Y-78532195D01*
X145254609Y-78403934D01*
X145288718Y-78342956D01*
X145350379Y-78310098D01*
X145420016Y-78315793D01*
X145475520Y-78358233D01*
X145499268Y-78423943D01*
X145499500Y-78431527D01*
X145499500Y-80613568D01*
X145479815Y-80680607D01*
X145427011Y-80726362D01*
X145357853Y-80736306D01*
X145301190Y-80712835D01*
X145292334Y-80706206D01*
X145292328Y-80706202D01*
X145157482Y-80655908D01*
X145157483Y-80655908D01*
X145097883Y-80649501D01*
X145097881Y-80649500D01*
X145097873Y-80649500D01*
X145097864Y-80649500D01*
X143302129Y-80649500D01*
X143302123Y-80649501D01*
X143242516Y-80655908D01*
X143107671Y-80706202D01*
X143107664Y-80706206D01*
X142992455Y-80792452D01*
X142992452Y-80792455D01*
X142906206Y-80907664D01*
X142906202Y-80907671D01*
X142855908Y-81042517D01*
X142849501Y-81102116D01*
X142849500Y-81102135D01*
X142849500Y-82897870D01*
X142849501Y-82897876D01*
X142855908Y-82957483D01*
X142906202Y-83092328D01*
X142906206Y-83092335D01*
X142992452Y-83207544D01*
X142992455Y-83207547D01*
X143107664Y-83293793D01*
X143107671Y-83293797D01*
X143239081Y-83342810D01*
X143295015Y-83384681D01*
X143319432Y-83450145D01*
X143304580Y-83518418D01*
X143283430Y-83546673D01*
X143161503Y-83668600D01*
X143025965Y-83862169D01*
X143025964Y-83862171D01*
X142926098Y-84076335D01*
X142926094Y-84076344D01*
X142864938Y-84304586D01*
X142864936Y-84304596D01*
X142844341Y-84539999D01*
X142844341Y-84540000D01*
X142864936Y-84775403D01*
X142864938Y-84775413D01*
X142926094Y-85003655D01*
X142926096Y-85003659D01*
X142926097Y-85003663D01*
X142989338Y-85139283D01*
X143025965Y-85217830D01*
X143025967Y-85217834D01*
X143126075Y-85360802D01*
X143161501Y-85411396D01*
X143161506Y-85411402D01*
X143328597Y-85578493D01*
X143328603Y-85578498D01*
X143514158Y-85708425D01*
X143557783Y-85763002D01*
X143564977Y-85832500D01*
X143533454Y-85894855D01*
X143514158Y-85911575D01*
X143328597Y-86041505D01*
X143161505Y-86208597D01*
X143025965Y-86402169D01*
X143025964Y-86402171D01*
X142926098Y-86616335D01*
X142926094Y-86616344D01*
X142864938Y-86844586D01*
X142864936Y-86844596D01*
X142844341Y-87079999D01*
X142844341Y-87080000D01*
X142864936Y-87315403D01*
X142864938Y-87315413D01*
X142926094Y-87543655D01*
X142926096Y-87543659D01*
X142926097Y-87543663D01*
X142964909Y-87626895D01*
X143025965Y-87757830D01*
X143025967Y-87757834D01*
X143111302Y-87879704D01*
X143161501Y-87951396D01*
X143161506Y-87951402D01*
X143328597Y-88118493D01*
X143328603Y-88118498D01*
X143514594Y-88248730D01*
X143558219Y-88303307D01*
X143565413Y-88372805D01*
X143533890Y-88435160D01*
X143514595Y-88451880D01*
X143328922Y-88581890D01*
X143328920Y-88581891D01*
X143161891Y-88748920D01*
X143161886Y-88748926D01*
X143026400Y-88942420D01*
X143026399Y-88942422D01*
X142926570Y-89156507D01*
X142926567Y-89156513D01*
X142869364Y-89369999D01*
X142869364Y-89370000D01*
X143766988Y-89370000D01*
X143734075Y-89427007D01*
X143700000Y-89554174D01*
X143700000Y-89685826D01*
X143734075Y-89812993D01*
X143766988Y-89870000D01*
X142869364Y-89870000D01*
X142926567Y-90083486D01*
X142926570Y-90083492D01*
X143026399Y-90297578D01*
X143161894Y-90491082D01*
X143328917Y-90658105D01*
X143522421Y-90793600D01*
X143736507Y-90893429D01*
X143736512Y-90893432D01*
X143760386Y-90899828D01*
X143820047Y-90936191D01*
X143850578Y-90999037D01*
X143842286Y-91068413D01*
X143797802Y-91122292D01*
X143772278Y-91135542D01*
X143767636Y-91137302D01*
X143627762Y-91210715D01*
X143509516Y-91315471D01*
X143419781Y-91445475D01*
X143419780Y-91445476D01*
X143363762Y-91593181D01*
X143344722Y-91749999D01*
X143344722Y-91750000D01*
X143363762Y-91906818D01*
X143419780Y-92054523D01*
X143509517Y-92184530D01*
X143627760Y-92289283D01*
X143627762Y-92289284D01*
X143767634Y-92362696D01*
X143921014Y-92400500D01*
X143921015Y-92400500D01*
X144078985Y-92400500D01*
X144232365Y-92362696D01*
X144372240Y-92289283D01*
X144490483Y-92184530D01*
X144580220Y-92054523D01*
X144636237Y-91906818D01*
X144655278Y-91750000D01*
X144636237Y-91593182D01*
X144580220Y-91445477D01*
X144490483Y-91315470D01*
X144372240Y-91210717D01*
X144372237Y-91210714D01*
X144337290Y-91192373D01*
X144287077Y-91143788D01*
X144271103Y-91075769D01*
X144294439Y-91009912D01*
X144349675Y-90967125D01*
X144384110Y-90959049D01*
X144435315Y-90954569D01*
X144435326Y-90954567D01*
X144663483Y-90893433D01*
X144663492Y-90893429D01*
X144877578Y-90793600D01*
X145071082Y-90658105D01*
X145238108Y-90491079D01*
X145273925Y-90439928D01*
X145328502Y-90396303D01*
X145398000Y-90389109D01*
X145460355Y-90420632D01*
X145495769Y-90480862D01*
X145499500Y-90511051D01*
X145499500Y-97995577D01*
X145479815Y-98062616D01*
X145427011Y-98108371D01*
X145357853Y-98118315D01*
X145345826Y-98115974D01*
X145278986Y-98099500D01*
X145278985Y-98099500D01*
X145121015Y-98099500D01*
X145121014Y-98099500D01*
X144967634Y-98137303D01*
X144827762Y-98210715D01*
X144709516Y-98315471D01*
X144619781Y-98445475D01*
X144619780Y-98445476D01*
X144563762Y-98593181D01*
X144544722Y-98749999D01*
X144544722Y-98750000D01*
X144563762Y-98906818D01*
X144608773Y-99025500D01*
X144619780Y-99054523D01*
X144709517Y-99184530D01*
X144827760Y-99289283D01*
X144827762Y-99289284D01*
X144967634Y-99362696D01*
X145121014Y-99400500D01*
X145121015Y-99400500D01*
X145278983Y-99400500D01*
X145278985Y-99400500D01*
X145345827Y-99384025D01*
X145415627Y-99387094D01*
X145472689Y-99427414D01*
X145498894Y-99492183D01*
X145499500Y-99504422D01*
X145499500Y-104568472D01*
X145479815Y-104635511D01*
X145427011Y-104681266D01*
X145357853Y-104691210D01*
X145294297Y-104662185D01*
X145256523Y-104603407D01*
X145254609Y-104596065D01*
X145237665Y-104521834D01*
X145225334Y-104467805D01*
X145126743Y-104216602D01*
X144991815Y-103982898D01*
X144823561Y-103771915D01*
X144823560Y-103771914D01*
X144823557Y-103771910D01*
X144625741Y-103588365D01*
X144604327Y-103573765D01*
X144402775Y-103436349D01*
X144402769Y-103436346D01*
X144402768Y-103436345D01*
X144402767Y-103436344D01*
X144159643Y-103319263D01*
X144159645Y-103319263D01*
X143901773Y-103239720D01*
X143901767Y-103239718D01*
X143634936Y-103199500D01*
X143634929Y-103199500D01*
X143365071Y-103199500D01*
X143365063Y-103199500D01*
X143098232Y-103239718D01*
X143098226Y-103239720D01*
X142840358Y-103319262D01*
X142597230Y-103436346D01*
X142374258Y-103588365D01*
X142176442Y-103771910D01*
X142008185Y-103982898D01*
X141873258Y-104216599D01*
X141873256Y-104216603D01*
X141774666Y-104467804D01*
X141774664Y-104467811D01*
X141714616Y-104730898D01*
X141694451Y-104999995D01*
X141694451Y-105000004D01*
X141714616Y-105269101D01*
X141774664Y-105532188D01*
X141774666Y-105532195D01*
X141846419Y-105715018D01*
X141873257Y-105783398D01*
X142008185Y-106017102D01*
X142077902Y-106104524D01*
X142176442Y-106228089D01*
X142296282Y-106339283D01*
X142374259Y-106411635D01*
X142597226Y-106563651D01*
X142840359Y-106680738D01*
X143005308Y-106731618D01*
X143087623Y-106757009D01*
X143145882Y-106795579D01*
X143174040Y-106859524D01*
X143163156Y-106928541D01*
X143116687Y-106980718D01*
X143051073Y-106999500D01*
X116812875Y-106999500D01*
X116745836Y-106979815D01*
X116700081Y-106927011D01*
X116690137Y-106857853D01*
X116710825Y-106805060D01*
X116741734Y-106760280D01*
X116780220Y-106704523D01*
X116836237Y-106556818D01*
X116855278Y-106400000D01*
X116836237Y-106243182D01*
X116830511Y-106228085D01*
X116813993Y-106184528D01*
X116780220Y-106095477D01*
X116690483Y-105965470D01*
X116572240Y-105860717D01*
X116572238Y-105860716D01*
X116572237Y-105860715D01*
X116432366Y-105787304D01*
X116331329Y-105762401D01*
X116310028Y-105749999D01*
X124344722Y-105749999D01*
X124344722Y-105750000D01*
X124363762Y-105906818D01*
X124405588Y-106017102D01*
X124419780Y-106054523D01*
X124509517Y-106184530D01*
X124627760Y-106289283D01*
X124627762Y-106289284D01*
X124767634Y-106362696D01*
X124921014Y-106400500D01*
X124921015Y-106400500D01*
X125078985Y-106400500D01*
X125232365Y-106362696D01*
X125276974Y-106339283D01*
X125372240Y-106289283D01*
X125490483Y-106184530D01*
X125580220Y-106054523D01*
X125600898Y-105999999D01*
X127844722Y-105999999D01*
X127844722Y-106000000D01*
X127863762Y-106156818D01*
X127890792Y-106228089D01*
X127919780Y-106304523D01*
X128009517Y-106434530D01*
X128127760Y-106539283D01*
X128127762Y-106539284D01*
X128267634Y-106612696D01*
X128421014Y-106650500D01*
X128421015Y-106650500D01*
X128578985Y-106650500D01*
X128732365Y-106612696D01*
X128872240Y-106539283D01*
X128990483Y-106434530D01*
X129080220Y-106304523D01*
X129136237Y-106156818D01*
X129155278Y-106000000D01*
X129151086Y-105965471D01*
X129136237Y-105843181D01*
X129100708Y-105749500D01*
X129080220Y-105695477D01*
X128990483Y-105565470D01*
X128872240Y-105460717D01*
X128872238Y-105460716D01*
X128872237Y-105460715D01*
X128732365Y-105387303D01*
X128578986Y-105349500D01*
X128578985Y-105349500D01*
X128421015Y-105349500D01*
X128421014Y-105349500D01*
X128267634Y-105387303D01*
X128127762Y-105460715D01*
X128009516Y-105565471D01*
X127919781Y-105695475D01*
X127919780Y-105695476D01*
X127863762Y-105843181D01*
X127844722Y-105999999D01*
X125600898Y-105999999D01*
X125636237Y-105906818D01*
X125655278Y-105750000D01*
X125651031Y-105715018D01*
X125636237Y-105593181D01*
X125607538Y-105517509D01*
X125580220Y-105445477D01*
X125490483Y-105315470D01*
X125372240Y-105210717D01*
X125372238Y-105210716D01*
X125372237Y-105210715D01*
X125232365Y-105137303D01*
X125078986Y-105099500D01*
X125078985Y-105099500D01*
X124921015Y-105099500D01*
X124921014Y-105099500D01*
X124767634Y-105137303D01*
X124627762Y-105210715D01*
X124509516Y-105315471D01*
X124419781Y-105445475D01*
X124419780Y-105445476D01*
X124363762Y-105593181D01*
X124344722Y-105749999D01*
X116310028Y-105749999D01*
X116270948Y-105727245D01*
X116239160Y-105665025D01*
X116237908Y-105656946D01*
X116236237Y-105643182D01*
X116236237Y-105643181D01*
X116194145Y-105532195D01*
X116180220Y-105495477D01*
X116090483Y-105365470D01*
X115972240Y-105260717D01*
X115972238Y-105260716D01*
X115972237Y-105260715D01*
X115832365Y-105187303D01*
X115678986Y-105149500D01*
X115678985Y-105149500D01*
X115521015Y-105149500D01*
X115521014Y-105149500D01*
X115367634Y-105187303D01*
X115227762Y-105260715D01*
X115227760Y-105260717D01*
X115109517Y-105365470D01*
X115109516Y-105365471D01*
X115103903Y-105370444D01*
X115101958Y-105368248D01*
X115054232Y-105398179D01*
X114984367Y-105397405D01*
X114926011Y-105358981D01*
X114897692Y-105295108D01*
X114897522Y-105263875D01*
X114897906Y-105260717D01*
X114905278Y-105200000D01*
X114903737Y-105187304D01*
X114886237Y-105043181D01*
X114864992Y-104987164D01*
X114830220Y-104895477D01*
X114740483Y-104765470D01*
X114622240Y-104660717D01*
X114622238Y-104660716D01*
X114622237Y-104660715D01*
X114482365Y-104587303D01*
X114328986Y-104549500D01*
X114328985Y-104549500D01*
X114171015Y-104549500D01*
X114171014Y-104549500D01*
X114017634Y-104587303D01*
X113877762Y-104660715D01*
X113877760Y-104660717D01*
X113761686Y-104763549D01*
X113759516Y-104765471D01*
X113669781Y-104895475D01*
X113669780Y-104895476D01*
X113613762Y-105043181D01*
X113594722Y-105199999D01*
X113594722Y-105200000D01*
X113613762Y-105356818D01*
X113666349Y-105495476D01*
X113669780Y-105504523D01*
X113759517Y-105634530D01*
X113877760Y-105739283D01*
X113877762Y-105739284D01*
X114017634Y-105812696D01*
X114171014Y-105850500D01*
X114171015Y-105850500D01*
X114328985Y-105850500D01*
X114482365Y-105812696D01*
X114506555Y-105800000D01*
X114622240Y-105739283D01*
X114740483Y-105634530D01*
X114740483Y-105634528D01*
X114746097Y-105629556D01*
X114748053Y-105631764D01*
X114795661Y-105601850D01*
X114865527Y-105602562D01*
X114923917Y-105640934D01*
X114952292Y-105704782D01*
X114952477Y-105736122D01*
X114944722Y-105799997D01*
X114944722Y-105800000D01*
X114963762Y-105956818D01*
X115016349Y-106095476D01*
X115019780Y-106104523D01*
X115109517Y-106234530D01*
X115227760Y-106339283D01*
X115227762Y-106339284D01*
X115367634Y-106412696D01*
X115433059Y-106428821D01*
X115468669Y-106437598D01*
X115529050Y-106472754D01*
X115560839Y-106534973D01*
X115562091Y-106543048D01*
X115563763Y-106556819D01*
X115619780Y-106704523D01*
X115619781Y-106704524D01*
X115689175Y-106805060D01*
X115711058Y-106871415D01*
X115693592Y-106939067D01*
X115642324Y-106986536D01*
X115587125Y-106999500D01*
X92948927Y-106999500D01*
X92881888Y-106979815D01*
X92836133Y-106927011D01*
X92826189Y-106857853D01*
X92855214Y-106794297D01*
X92912377Y-106757009D01*
X92952334Y-106744683D01*
X93159641Y-106680738D01*
X93402775Y-106563651D01*
X93625741Y-106411635D01*
X93807290Y-106243182D01*
X93823557Y-106228089D01*
X93823557Y-106228087D01*
X93823561Y-106228085D01*
X93991815Y-106017102D01*
X94126743Y-105783398D01*
X94225334Y-105532195D01*
X94285383Y-105269103D01*
X94292380Y-105175734D01*
X107968987Y-105175734D01*
X107968987Y-105175735D01*
X107988027Y-105332553D01*
X108044045Y-105480258D01*
X108133782Y-105610265D01*
X108252025Y-105715018D01*
X108252027Y-105715019D01*
X108391899Y-105788431D01*
X108545279Y-105826235D01*
X108545280Y-105826235D01*
X108703250Y-105826235D01*
X108856630Y-105788431D01*
X108929855Y-105749999D01*
X108996505Y-105715018D01*
X109114748Y-105610265D01*
X109204485Y-105480258D01*
X109260502Y-105332553D01*
X109279543Y-105175735D01*
X109270287Y-105099500D01*
X109260502Y-105018916D01*
X109228498Y-104934530D01*
X109204485Y-104871212D01*
X109114748Y-104741205D01*
X108996505Y-104636452D01*
X108996503Y-104636451D01*
X108996502Y-104636450D01*
X108856630Y-104563038D01*
X108703251Y-104525235D01*
X108703250Y-104525235D01*
X108545280Y-104525235D01*
X108545279Y-104525235D01*
X108391899Y-104563038D01*
X108252027Y-104636450D01*
X108229036Y-104656818D01*
X108145418Y-104730897D01*
X108133781Y-104741206D01*
X108044046Y-104871210D01*
X108044045Y-104871211D01*
X107988027Y-105018916D01*
X107968987Y-105175734D01*
X94292380Y-105175734D01*
X94302605Y-105039283D01*
X94305549Y-105000004D01*
X94305549Y-104999995D01*
X94287830Y-104763548D01*
X94285383Y-104730897D01*
X94225334Y-104467805D01*
X94129750Y-104224264D01*
X105320457Y-104224264D01*
X105320457Y-104224265D01*
X105339497Y-104381083D01*
X105384597Y-104499999D01*
X105395515Y-104528788D01*
X105485252Y-104658795D01*
X105603495Y-104763548D01*
X105603497Y-104763549D01*
X105743369Y-104836961D01*
X105896749Y-104874765D01*
X105896750Y-104874765D01*
X106054720Y-104874765D01*
X106208100Y-104836961D01*
X106267919Y-104805565D01*
X106347975Y-104763548D01*
X106466218Y-104658795D01*
X106555955Y-104528788D01*
X106611972Y-104381083D01*
X106631013Y-104224265D01*
X106627518Y-104195476D01*
X106611972Y-104067446D01*
X106586391Y-103999996D01*
X117844435Y-103999996D01*
X117844435Y-104000003D01*
X117864630Y-104179249D01*
X117864631Y-104179254D01*
X117924211Y-104349523D01*
X117998533Y-104467805D01*
X118020184Y-104502262D01*
X118147738Y-104629816D01*
X118300478Y-104725789D01*
X118408387Y-104763548D01*
X118470745Y-104785368D01*
X118470750Y-104785369D01*
X118649996Y-104805565D01*
X118650000Y-104805565D01*
X118650004Y-104805565D01*
X118829249Y-104785369D01*
X118829252Y-104785368D01*
X118829255Y-104785368D01*
X118999522Y-104725789D01*
X119152262Y-104629816D01*
X119279816Y-104502262D01*
X119281238Y-104499999D01*
X132094722Y-104499999D01*
X132094722Y-104500000D01*
X132113762Y-104656818D01*
X132162515Y-104785368D01*
X132169780Y-104804523D01*
X132259517Y-104934530D01*
X132377760Y-105039283D01*
X132377762Y-105039284D01*
X132517634Y-105112696D01*
X132671014Y-105150500D01*
X132671015Y-105150500D01*
X132828985Y-105150500D01*
X132982365Y-105112696D01*
X133122240Y-105039283D01*
X133240483Y-104934530D01*
X133330220Y-104804523D01*
X133386237Y-104656818D01*
X133405278Y-104500000D01*
X133386237Y-104343182D01*
X133330220Y-104195477D01*
X133240483Y-104065470D01*
X133122240Y-103960717D01*
X133122238Y-103960716D01*
X133122237Y-103960715D01*
X132982365Y-103887303D01*
X132828986Y-103849500D01*
X132828985Y-103849500D01*
X132671015Y-103849500D01*
X132671014Y-103849500D01*
X132517634Y-103887303D01*
X132377762Y-103960715D01*
X132259516Y-104065471D01*
X132169781Y-104195475D01*
X132169780Y-104195476D01*
X132113762Y-104343181D01*
X132094722Y-104499999D01*
X119281238Y-104499999D01*
X119375789Y-104349522D01*
X119435368Y-104179255D01*
X119447966Y-104067446D01*
X119455565Y-104000003D01*
X119455565Y-103999996D01*
X119435369Y-103820750D01*
X119435368Y-103820745D01*
X119387862Y-103684980D01*
X119375789Y-103650478D01*
X119279816Y-103497738D01*
X119152262Y-103370184D01*
X119071222Y-103319263D01*
X118999523Y-103274211D01*
X118829254Y-103214631D01*
X118829249Y-103214630D01*
X118650004Y-103194435D01*
X118649996Y-103194435D01*
X118470750Y-103214630D01*
X118470745Y-103214631D01*
X118300476Y-103274211D01*
X118147737Y-103370184D01*
X118020184Y-103497737D01*
X117924211Y-103650476D01*
X117864631Y-103820745D01*
X117864630Y-103820750D01*
X117844435Y-103999996D01*
X106586391Y-103999996D01*
X106579907Y-103982898D01*
X106555955Y-103919742D01*
X106466218Y-103789735D01*
X106347975Y-103684982D01*
X106347973Y-103684981D01*
X106347972Y-103684980D01*
X106208100Y-103611568D01*
X106054721Y-103573765D01*
X106054720Y-103573765D01*
X105896750Y-103573765D01*
X105896749Y-103573765D01*
X105743369Y-103611568D01*
X105603497Y-103684980D01*
X105603495Y-103684982D01*
X105505373Y-103771910D01*
X105485251Y-103789736D01*
X105395516Y-103919740D01*
X105395515Y-103919741D01*
X105339497Y-104067446D01*
X105320457Y-104224264D01*
X94129750Y-104224264D01*
X94126743Y-104216602D01*
X93991815Y-103982898D01*
X93823561Y-103771915D01*
X93823560Y-103771914D01*
X93823557Y-103771910D01*
X93625741Y-103588365D01*
X93604327Y-103573765D01*
X93402775Y-103436349D01*
X93402769Y-103436346D01*
X93402768Y-103436345D01*
X93402767Y-103436344D01*
X93159643Y-103319263D01*
X93159645Y-103319263D01*
X92901773Y-103239720D01*
X92901767Y-103239718D01*
X92634936Y-103199500D01*
X92634929Y-103199500D01*
X92365071Y-103199500D01*
X92365063Y-103199500D01*
X92098232Y-103239718D01*
X92098226Y-103239720D01*
X91840358Y-103319262D01*
X91597230Y-103436346D01*
X91374258Y-103588365D01*
X91176442Y-103771910D01*
X91008185Y-103982898D01*
X90873258Y-104216599D01*
X90873256Y-104216603D01*
X90774666Y-104467804D01*
X90774664Y-104467811D01*
X90745391Y-104596065D01*
X90711282Y-104657043D01*
X90649621Y-104689901D01*
X90579984Y-104684206D01*
X90524480Y-104641766D01*
X90500732Y-104576056D01*
X90500500Y-104568472D01*
X90500500Y-102249996D01*
X111944435Y-102249996D01*
X111944435Y-102250003D01*
X111964630Y-102429249D01*
X111964631Y-102429254D01*
X112024211Y-102599523D01*
X112120184Y-102752262D01*
X112247738Y-102879816D01*
X112400478Y-102975789D01*
X112570745Y-103035368D01*
X112570750Y-103035369D01*
X112749996Y-103055565D01*
X112750000Y-103055565D01*
X112750004Y-103055565D01*
X112929249Y-103035369D01*
X112929252Y-103035368D01*
X112929255Y-103035368D01*
X113030334Y-102999999D01*
X139144722Y-102999999D01*
X139144722Y-103000000D01*
X139163762Y-103156818D01*
X139208284Y-103274211D01*
X139219780Y-103304523D01*
X139309517Y-103434530D01*
X139427760Y-103539283D01*
X139427762Y-103539284D01*
X139567634Y-103612696D01*
X139721014Y-103650500D01*
X139721015Y-103650500D01*
X139878985Y-103650500D01*
X140032365Y-103612696D01*
X140078723Y-103588365D01*
X140172240Y-103539283D01*
X140290483Y-103434530D01*
X140380220Y-103304523D01*
X140436237Y-103156818D01*
X140455278Y-103000000D01*
X140438607Y-102862696D01*
X140436237Y-102843181D01*
X140414992Y-102787164D01*
X140380220Y-102695477D01*
X140290483Y-102565470D01*
X140172240Y-102460717D01*
X140172238Y-102460716D01*
X140172237Y-102460715D01*
X140032365Y-102387303D01*
X139878986Y-102349500D01*
X139878985Y-102349500D01*
X139721015Y-102349500D01*
X139721014Y-102349500D01*
X139567634Y-102387303D01*
X139427762Y-102460715D01*
X139309516Y-102565471D01*
X139219781Y-102695475D01*
X139219780Y-102695476D01*
X139163762Y-102843181D01*
X139144722Y-102999999D01*
X113030334Y-102999999D01*
X113099522Y-102975789D01*
X113252262Y-102879816D01*
X113379816Y-102752262D01*
X113475789Y-102599522D01*
X113535368Y-102429255D01*
X113540095Y-102387303D01*
X113555565Y-102250003D01*
X113555565Y-102249999D01*
X115094722Y-102249999D01*
X115094722Y-102250000D01*
X115113762Y-102406818D01*
X115139920Y-102475789D01*
X115169780Y-102554523D01*
X115259517Y-102684530D01*
X115377760Y-102789283D01*
X115377762Y-102789284D01*
X115517634Y-102862696D01*
X115671014Y-102900500D01*
X115671015Y-102900500D01*
X115828985Y-102900500D01*
X115982365Y-102862696D01*
X116019547Y-102843181D01*
X116122240Y-102789283D01*
X116240483Y-102684530D01*
X116330220Y-102554523D01*
X116386237Y-102406818D01*
X116405278Y-102250000D01*
X116388607Y-102112696D01*
X116386237Y-102093181D01*
X116333651Y-101954524D01*
X116330220Y-101945477D01*
X116240483Y-101815470D01*
X116122240Y-101710717D01*
X116122238Y-101710716D01*
X116122237Y-101710715D01*
X115982365Y-101637303D01*
X115828986Y-101599500D01*
X115828985Y-101599500D01*
X115671015Y-101599500D01*
X115671014Y-101599500D01*
X115517634Y-101637303D01*
X115377762Y-101710715D01*
X115259516Y-101815471D01*
X115169781Y-101945475D01*
X115169780Y-101945476D01*
X115113762Y-102093181D01*
X115094722Y-102249999D01*
X113555565Y-102249999D01*
X113555565Y-102249996D01*
X113535369Y-102070750D01*
X113535368Y-102070745D01*
X113524359Y-102039283D01*
X113475789Y-101900478D01*
X113379816Y-101747738D01*
X113252262Y-101620184D01*
X113219344Y-101599500D01*
X113099523Y-101524211D01*
X113030329Y-101499999D01*
X118144722Y-101499999D01*
X118144722Y-101500000D01*
X118163762Y-101656818D01*
X118199102Y-101750000D01*
X118219780Y-101804523D01*
X118309517Y-101934530D01*
X118427760Y-102039283D01*
X118427762Y-102039284D01*
X118567634Y-102112696D01*
X118721014Y-102150500D01*
X118721015Y-102150500D01*
X118878985Y-102150500D01*
X119032365Y-102112696D01*
X119057464Y-102099523D01*
X119172240Y-102039283D01*
X119290483Y-101934530D01*
X119380220Y-101804523D01*
X119400899Y-101749996D01*
X129444435Y-101749996D01*
X129444435Y-101750003D01*
X129464630Y-101929249D01*
X129464631Y-101929254D01*
X129524211Y-102099523D01*
X129580612Y-102189284D01*
X129620184Y-102252262D01*
X129747738Y-102379816D01*
X129900478Y-102475789D01*
X130070745Y-102535368D01*
X130070750Y-102535369D01*
X130249996Y-102555565D01*
X130250000Y-102555565D01*
X130250004Y-102555565D01*
X130429249Y-102535369D01*
X130429252Y-102535368D01*
X130429255Y-102535368D01*
X130599522Y-102475789D01*
X130752262Y-102379816D01*
X130879816Y-102252262D01*
X130975789Y-102099522D01*
X131035368Y-101929255D01*
X131035369Y-101929249D01*
X131055565Y-101750003D01*
X131055565Y-101749996D01*
X131044298Y-101649999D01*
X131844722Y-101649999D01*
X131844722Y-101650000D01*
X131863762Y-101806818D01*
X131916349Y-101945476D01*
X131919780Y-101954523D01*
X132009517Y-102084530D01*
X132127760Y-102189283D01*
X132127762Y-102189284D01*
X132267634Y-102262696D01*
X132421014Y-102300500D01*
X132421015Y-102300500D01*
X132578985Y-102300500D01*
X132732365Y-102262696D01*
X132756557Y-102249999D01*
X132872240Y-102189283D01*
X132990483Y-102084530D01*
X133080220Y-101954523D01*
X133136237Y-101806818D01*
X133155278Y-101650000D01*
X133153737Y-101637304D01*
X133136237Y-101493181D01*
X133106315Y-101414284D01*
X133080220Y-101345477D01*
X132990483Y-101215470D01*
X132872240Y-101110717D01*
X132872238Y-101110716D01*
X132872237Y-101110715D01*
X132732365Y-101037303D01*
X132578986Y-100999500D01*
X132578985Y-100999500D01*
X132421015Y-100999500D01*
X132421014Y-100999500D01*
X132267634Y-101037303D01*
X132127762Y-101110715D01*
X132009516Y-101215471D01*
X131919781Y-101345475D01*
X131919780Y-101345476D01*
X131863762Y-101493181D01*
X131844722Y-101649999D01*
X131044298Y-101649999D01*
X131035369Y-101570750D01*
X131035368Y-101570745D01*
X131010613Y-101499999D01*
X130975789Y-101400478D01*
X130879816Y-101247738D01*
X130752262Y-101120184D01*
X130665187Y-101065471D01*
X130599523Y-101024211D01*
X130429254Y-100964631D01*
X130429249Y-100964630D01*
X130250004Y-100944435D01*
X130249996Y-100944435D01*
X130070750Y-100964630D01*
X130070745Y-100964631D01*
X129900476Y-101024211D01*
X129747737Y-101120184D01*
X129620184Y-101247737D01*
X129524211Y-101400476D01*
X129464631Y-101570745D01*
X129464630Y-101570750D01*
X129444435Y-101749996D01*
X119400899Y-101749996D01*
X119436237Y-101656818D01*
X119455278Y-101500000D01*
X119450984Y-101464631D01*
X119436237Y-101343181D01*
X119400040Y-101247738D01*
X119380220Y-101195477D01*
X119290483Y-101065470D01*
X119172240Y-100960717D01*
X119172238Y-100960716D01*
X119172237Y-100960715D01*
X119032365Y-100887303D01*
X118878986Y-100849500D01*
X118878985Y-100849500D01*
X118721015Y-100849500D01*
X118721014Y-100849500D01*
X118567634Y-100887303D01*
X118427762Y-100960715D01*
X118309516Y-101065471D01*
X118219781Y-101195475D01*
X118219780Y-101195476D01*
X118163762Y-101343181D01*
X118144722Y-101499999D01*
X113030329Y-101499999D01*
X112929254Y-101464631D01*
X112929249Y-101464630D01*
X112750004Y-101444435D01*
X112749996Y-101444435D01*
X112570750Y-101464630D01*
X112570745Y-101464631D01*
X112400476Y-101524211D01*
X112247737Y-101620184D01*
X112120184Y-101747737D01*
X112024211Y-101900476D01*
X111964631Y-102070745D01*
X111964630Y-102070750D01*
X111944435Y-102249996D01*
X90500500Y-102249996D01*
X90500500Y-100999999D01*
X94094722Y-100999999D01*
X94094722Y-101000000D01*
X94113762Y-101156818D01*
X94148244Y-101247737D01*
X94169780Y-101304523D01*
X94259517Y-101434530D01*
X94377760Y-101539283D01*
X94377762Y-101539284D01*
X94517634Y-101612696D01*
X94671014Y-101650500D01*
X94671015Y-101650500D01*
X94828985Y-101650500D01*
X94982365Y-101612696D01*
X95122240Y-101539283D01*
X95240483Y-101434530D01*
X95330220Y-101304523D01*
X95386237Y-101156818D01*
X95405278Y-101000000D01*
X95405278Y-100999999D01*
X100144722Y-100999999D01*
X100144722Y-101000000D01*
X100163762Y-101156818D01*
X100198244Y-101247737D01*
X100219780Y-101304523D01*
X100309517Y-101434530D01*
X100427760Y-101539283D01*
X100427762Y-101539284D01*
X100567634Y-101612696D01*
X100721014Y-101650500D01*
X100721015Y-101650500D01*
X100878985Y-101650500D01*
X101032365Y-101612696D01*
X101172240Y-101539283D01*
X101290483Y-101434530D01*
X101380220Y-101304523D01*
X101436237Y-101156818D01*
X101455278Y-101000000D01*
X101450984Y-100964631D01*
X101440100Y-100874999D01*
X105844722Y-100874999D01*
X105844722Y-100875000D01*
X105863762Y-101031818D01*
X105908773Y-101150500D01*
X105919780Y-101179523D01*
X106009517Y-101309530D01*
X106127760Y-101414283D01*
X106127762Y-101414284D01*
X106267634Y-101487696D01*
X106421014Y-101525500D01*
X106421015Y-101525500D01*
X106578985Y-101525500D01*
X106732365Y-101487696D01*
X106776313Y-101464630D01*
X106872240Y-101414283D01*
X106990483Y-101309530D01*
X107080220Y-101179523D01*
X107136237Y-101031818D01*
X107155278Y-100875000D01*
X107136237Y-100718182D01*
X107131057Y-100704524D01*
X107112965Y-100656818D01*
X107080220Y-100570477D01*
X107031573Y-100499999D01*
X109094722Y-100499999D01*
X109094722Y-100500000D01*
X109113762Y-100656818D01*
X109137035Y-100718182D01*
X109169780Y-100804523D01*
X109259517Y-100934530D01*
X109377760Y-101039283D01*
X109377762Y-101039284D01*
X109517634Y-101112696D01*
X109671014Y-101150500D01*
X109671015Y-101150500D01*
X109828985Y-101150500D01*
X109982365Y-101112696D01*
X109986139Y-101110715D01*
X110122240Y-101039283D01*
X110240483Y-100934530D01*
X110330220Y-100804523D01*
X110386237Y-100656818D01*
X110405278Y-100500000D01*
X110405278Y-100499999D01*
X112094722Y-100499999D01*
X112094722Y-100500000D01*
X112113762Y-100656818D01*
X112137035Y-100718182D01*
X112169780Y-100804523D01*
X112259517Y-100934530D01*
X112377760Y-101039283D01*
X112377762Y-101039284D01*
X112517634Y-101112696D01*
X112671014Y-101150500D01*
X112671015Y-101150500D01*
X112828985Y-101150500D01*
X112982365Y-101112696D01*
X112986139Y-101110715D01*
X113122240Y-101039283D01*
X113240483Y-100934530D01*
X113330220Y-100804523D01*
X113386237Y-100656818D01*
X113405278Y-100500000D01*
X113405278Y-100499999D01*
X115094722Y-100499999D01*
X115094722Y-100500000D01*
X115113762Y-100656818D01*
X115137035Y-100718182D01*
X115169780Y-100804523D01*
X115259517Y-100934530D01*
X115377760Y-101039283D01*
X115377762Y-101039284D01*
X115517634Y-101112696D01*
X115671014Y-101150500D01*
X115671015Y-101150500D01*
X115828985Y-101150500D01*
X115982365Y-101112696D01*
X115986139Y-101110715D01*
X116122240Y-101039283D01*
X116240483Y-100934530D01*
X116330220Y-100804523D01*
X116386237Y-100656818D01*
X116405278Y-100500000D01*
X116393136Y-100399999D01*
X133544722Y-100399999D01*
X133544722Y-100400000D01*
X133563762Y-100556818D01*
X133616349Y-100695476D01*
X133619780Y-100704523D01*
X133709517Y-100834530D01*
X133827760Y-100939283D01*
X133827762Y-100939284D01*
X133967634Y-101012696D01*
X134121014Y-101050500D01*
X134121015Y-101050500D01*
X134278985Y-101050500D01*
X134432365Y-101012696D01*
X134456557Y-100999999D01*
X134572240Y-100939283D01*
X134690483Y-100834530D01*
X134780220Y-100704523D01*
X134836237Y-100556818D01*
X134855278Y-100400000D01*
X134853737Y-100387304D01*
X134836237Y-100243181D01*
X134814992Y-100187164D01*
X134780220Y-100095477D01*
X134690483Y-99965470D01*
X134572240Y-99860717D01*
X134572238Y-99860716D01*
X134572237Y-99860715D01*
X134432365Y-99787303D01*
X134278986Y-99749500D01*
X134278985Y-99749500D01*
X134121015Y-99749500D01*
X134121014Y-99749500D01*
X133967634Y-99787303D01*
X133827762Y-99860715D01*
X133709516Y-99965471D01*
X133619781Y-100095475D01*
X133619780Y-100095476D01*
X133563762Y-100243181D01*
X133544722Y-100399999D01*
X116393136Y-100399999D01*
X116386237Y-100343182D01*
X116330220Y-100195477D01*
X116240483Y-100065470D01*
X116122240Y-99960717D01*
X116122238Y-99960716D01*
X116122237Y-99960715D01*
X115982365Y-99887303D01*
X115828986Y-99849500D01*
X115828985Y-99849500D01*
X115671015Y-99849500D01*
X115671014Y-99849500D01*
X115517634Y-99887303D01*
X115377762Y-99960715D01*
X115259516Y-100065471D01*
X115169781Y-100195475D01*
X115169780Y-100195476D01*
X115113762Y-100343181D01*
X115094722Y-100499999D01*
X113405278Y-100499999D01*
X113386237Y-100343182D01*
X113330220Y-100195477D01*
X113240483Y-100065470D01*
X113122240Y-99960717D01*
X113122238Y-99960716D01*
X113122237Y-99960715D01*
X112982365Y-99887303D01*
X112828986Y-99849500D01*
X112828985Y-99849500D01*
X112671015Y-99849500D01*
X112671014Y-99849500D01*
X112517634Y-99887303D01*
X112377762Y-99960715D01*
X112259516Y-100065471D01*
X112169781Y-100195475D01*
X112169780Y-100195476D01*
X112113762Y-100343181D01*
X112094722Y-100499999D01*
X110405278Y-100499999D01*
X110386237Y-100343182D01*
X110330220Y-100195477D01*
X110240483Y-100065470D01*
X110122240Y-99960717D01*
X110122238Y-99960716D01*
X110122237Y-99960715D01*
X109982365Y-99887303D01*
X109828986Y-99849500D01*
X109828985Y-99849500D01*
X109671015Y-99849500D01*
X109671014Y-99849500D01*
X109517634Y-99887303D01*
X109377762Y-99960715D01*
X109259516Y-100065471D01*
X109169781Y-100195475D01*
X109169780Y-100195476D01*
X109113762Y-100343181D01*
X109094722Y-100499999D01*
X107031573Y-100499999D01*
X106990483Y-100440470D01*
X106872240Y-100335717D01*
X106872238Y-100335716D01*
X106872237Y-100335715D01*
X106732365Y-100262303D01*
X106578986Y-100224500D01*
X106578985Y-100224500D01*
X106421015Y-100224500D01*
X106421014Y-100224500D01*
X106267634Y-100262303D01*
X106127762Y-100335715D01*
X106009516Y-100440471D01*
X105919781Y-100570475D01*
X105919780Y-100570476D01*
X105863762Y-100718181D01*
X105844722Y-100874999D01*
X101440100Y-100874999D01*
X101436237Y-100843181D01*
X101414992Y-100787164D01*
X101380220Y-100695477D01*
X101290483Y-100565470D01*
X101172240Y-100460717D01*
X101172238Y-100460716D01*
X101172237Y-100460715D01*
X101032365Y-100387303D01*
X100878986Y-100349500D01*
X100878985Y-100349500D01*
X100721015Y-100349500D01*
X100721014Y-100349500D01*
X100567634Y-100387303D01*
X100427762Y-100460715D01*
X100309516Y-100565471D01*
X100219781Y-100695475D01*
X100219780Y-100695476D01*
X100163762Y-100843181D01*
X100144722Y-100999999D01*
X95405278Y-100999999D01*
X95400984Y-100964631D01*
X95386237Y-100843181D01*
X95364992Y-100787164D01*
X95330220Y-100695477D01*
X95240483Y-100565470D01*
X95122240Y-100460717D01*
X95122238Y-100460716D01*
X95122237Y-100460715D01*
X94982365Y-100387303D01*
X94828986Y-100349500D01*
X94828985Y-100349500D01*
X94671015Y-100349500D01*
X94671014Y-100349500D01*
X94517634Y-100387303D01*
X94377762Y-100460715D01*
X94259516Y-100565471D01*
X94169781Y-100695475D01*
X94169780Y-100695476D01*
X94113762Y-100843181D01*
X94094722Y-100999999D01*
X90500500Y-100999999D01*
X90500500Y-95134999D01*
X91044341Y-95134999D01*
X91044341Y-95135000D01*
X91064936Y-95370403D01*
X91064938Y-95370413D01*
X91126094Y-95598655D01*
X91126096Y-95598659D01*
X91126097Y-95598663D01*
X91178348Y-95710715D01*
X91225965Y-95812830D01*
X91225967Y-95812834D01*
X91334281Y-95967521D01*
X91361501Y-96006396D01*
X91361506Y-96006402D01*
X91483430Y-96128326D01*
X91516915Y-96189649D01*
X91511931Y-96259341D01*
X91470059Y-96315274D01*
X91439083Y-96332189D01*
X91307669Y-96381203D01*
X91307664Y-96381206D01*
X91192455Y-96467452D01*
X91192452Y-96467455D01*
X91106206Y-96582664D01*
X91106202Y-96582671D01*
X91055908Y-96717517D01*
X91049501Y-96777116D01*
X91049501Y-96777123D01*
X91049500Y-96777135D01*
X91049500Y-98572870D01*
X91049501Y-98572876D01*
X91055908Y-98632483D01*
X91106202Y-98767328D01*
X91106206Y-98767335D01*
X91192452Y-98882544D01*
X91192455Y-98882547D01*
X91307664Y-98968793D01*
X91307671Y-98968797D01*
X91442517Y-99019091D01*
X91442516Y-99019091D01*
X91449444Y-99019835D01*
X91502127Y-99025500D01*
X93297872Y-99025499D01*
X93357483Y-99019091D01*
X93492331Y-98968796D01*
X93607546Y-98882546D01*
X93693796Y-98767331D01*
X93744091Y-98632483D01*
X93750500Y-98572873D01*
X93750500Y-98499999D01*
X109094722Y-98499999D01*
X109094722Y-98500000D01*
X109113762Y-98656818D01*
X109149102Y-98750000D01*
X109169780Y-98804523D01*
X109259517Y-98934530D01*
X109377760Y-99039283D01*
X109377762Y-99039284D01*
X109517634Y-99112696D01*
X109671014Y-99150500D01*
X109671015Y-99150500D01*
X109828985Y-99150500D01*
X109982365Y-99112696D01*
X109997937Y-99104523D01*
X110122240Y-99039283D01*
X110240483Y-98934530D01*
X110330220Y-98804523D01*
X110386237Y-98656818D01*
X110405278Y-98500000D01*
X110405278Y-98499999D01*
X112094722Y-98499999D01*
X112094722Y-98500000D01*
X112113762Y-98656818D01*
X112149102Y-98750000D01*
X112169780Y-98804523D01*
X112259517Y-98934530D01*
X112377760Y-99039283D01*
X112377762Y-99039284D01*
X112517634Y-99112696D01*
X112671014Y-99150500D01*
X112671015Y-99150500D01*
X112828985Y-99150500D01*
X112982365Y-99112696D01*
X112997937Y-99104523D01*
X113122240Y-99039283D01*
X113240483Y-98934530D01*
X113330220Y-98804523D01*
X113386237Y-98656818D01*
X113405278Y-98500000D01*
X113405278Y-98499999D01*
X115094722Y-98499999D01*
X115094722Y-98500000D01*
X115113762Y-98656818D01*
X115149102Y-98750000D01*
X115169780Y-98804523D01*
X115259517Y-98934530D01*
X115377760Y-99039283D01*
X115377762Y-99039284D01*
X115517634Y-99112696D01*
X115671014Y-99150500D01*
X115671015Y-99150500D01*
X115828985Y-99150500D01*
X115982365Y-99112696D01*
X115997937Y-99104523D01*
X116122240Y-99039283D01*
X116240483Y-98934530D01*
X116330220Y-98804523D01*
X116386237Y-98656818D01*
X116405278Y-98500000D01*
X116405278Y-98499999D01*
X118094722Y-98499999D01*
X118094722Y-98500000D01*
X118113762Y-98656818D01*
X118149102Y-98750000D01*
X118169780Y-98804523D01*
X118259517Y-98934530D01*
X118377760Y-99039283D01*
X118377762Y-99039284D01*
X118517634Y-99112696D01*
X118671014Y-99150500D01*
X118671015Y-99150500D01*
X118828985Y-99150500D01*
X118982365Y-99112696D01*
X118997937Y-99104523D01*
X119122240Y-99039283D01*
X119240483Y-98934530D01*
X119330220Y-98804523D01*
X119331936Y-98799999D01*
X122744722Y-98799999D01*
X122744722Y-98800000D01*
X122763762Y-98956818D01*
X122800818Y-99054524D01*
X122819780Y-99104523D01*
X122909517Y-99234530D01*
X123027760Y-99339283D01*
X123027762Y-99339284D01*
X123167634Y-99412696D01*
X123321014Y-99450500D01*
X123321015Y-99450500D01*
X123478985Y-99450500D01*
X123632365Y-99412696D01*
X123686992Y-99384025D01*
X123772240Y-99339283D01*
X123890483Y-99234530D01*
X123980220Y-99104523D01*
X124036237Y-98956818D01*
X124055278Y-98800000D01*
X124049207Y-98749999D01*
X139844722Y-98749999D01*
X139844722Y-98750000D01*
X139863762Y-98906818D01*
X139908773Y-99025500D01*
X139919780Y-99054523D01*
X140009517Y-99184530D01*
X140127760Y-99289283D01*
X140127762Y-99289284D01*
X140267634Y-99362696D01*
X140421014Y-99400500D01*
X140421015Y-99400500D01*
X140578985Y-99400500D01*
X140732365Y-99362696D01*
X140776974Y-99339283D01*
X140872240Y-99289283D01*
X140990483Y-99184530D01*
X141080220Y-99054523D01*
X141136237Y-98906818D01*
X141155278Y-98750000D01*
X141155278Y-98749999D01*
X142094722Y-98749999D01*
X142094722Y-98750000D01*
X142113762Y-98906818D01*
X142158773Y-99025500D01*
X142169780Y-99054523D01*
X142259517Y-99184530D01*
X142377760Y-99289283D01*
X142377762Y-99289284D01*
X142517634Y-99362696D01*
X142671014Y-99400500D01*
X142671015Y-99400500D01*
X142828985Y-99400500D01*
X142982365Y-99362696D01*
X143026974Y-99339283D01*
X143122240Y-99289283D01*
X143240483Y-99184530D01*
X143330220Y-99054523D01*
X143386237Y-98906818D01*
X143405278Y-98750000D01*
X143386237Y-98593182D01*
X143378534Y-98572872D01*
X143349182Y-98495476D01*
X143330220Y-98445477D01*
X143240483Y-98315470D01*
X143122240Y-98210717D01*
X143122238Y-98210716D01*
X143122237Y-98210715D01*
X142982365Y-98137303D01*
X142828986Y-98099500D01*
X142828985Y-98099500D01*
X142671015Y-98099500D01*
X142671014Y-98099500D01*
X142517634Y-98137303D01*
X142377762Y-98210715D01*
X142259516Y-98315471D01*
X142169781Y-98445475D01*
X142169780Y-98445476D01*
X142113762Y-98593181D01*
X142094722Y-98749999D01*
X141155278Y-98749999D01*
X141136237Y-98593182D01*
X141128534Y-98572872D01*
X141099182Y-98495476D01*
X141080220Y-98445477D01*
X140990483Y-98315470D01*
X140872240Y-98210717D01*
X140872238Y-98210716D01*
X140872237Y-98210715D01*
X140732365Y-98137303D01*
X140578986Y-98099500D01*
X140578985Y-98099500D01*
X140421015Y-98099500D01*
X140421014Y-98099500D01*
X140267634Y-98137303D01*
X140127762Y-98210715D01*
X140009516Y-98315471D01*
X139919781Y-98445475D01*
X139919780Y-98445476D01*
X139863762Y-98593181D01*
X139844722Y-98749999D01*
X124049207Y-98749999D01*
X124036237Y-98643182D01*
X124032179Y-98632483D01*
X124009576Y-98572883D01*
X123980220Y-98495477D01*
X123890483Y-98365470D01*
X123772240Y-98260717D01*
X123772238Y-98260716D01*
X123772237Y-98260715D01*
X123632365Y-98187303D01*
X123478986Y-98149500D01*
X123478985Y-98149500D01*
X123321015Y-98149500D01*
X123321014Y-98149500D01*
X123167634Y-98187303D01*
X123027762Y-98260715D01*
X122909516Y-98365471D01*
X122819781Y-98495475D01*
X122819780Y-98495476D01*
X122763762Y-98643181D01*
X122744722Y-98799999D01*
X119331936Y-98799999D01*
X119386237Y-98656818D01*
X119405278Y-98500000D01*
X119386237Y-98343182D01*
X119330220Y-98195477D01*
X119240483Y-98065470D01*
X119122240Y-97960717D01*
X119122238Y-97960716D01*
X119122237Y-97960715D01*
X118982365Y-97887303D01*
X118828986Y-97849500D01*
X118828985Y-97849500D01*
X118671015Y-97849500D01*
X118671014Y-97849500D01*
X118517634Y-97887303D01*
X118377762Y-97960715D01*
X118259516Y-98065471D01*
X118169781Y-98195475D01*
X118169780Y-98195476D01*
X118113762Y-98343181D01*
X118094722Y-98499999D01*
X116405278Y-98499999D01*
X116386237Y-98343182D01*
X116330220Y-98195477D01*
X116240483Y-98065470D01*
X116122240Y-97960717D01*
X116122238Y-97960716D01*
X116122237Y-97960715D01*
X115982365Y-97887303D01*
X115828986Y-97849500D01*
X115828985Y-97849500D01*
X115671015Y-97849500D01*
X115671014Y-97849500D01*
X115517634Y-97887303D01*
X115377762Y-97960715D01*
X115259516Y-98065471D01*
X115169781Y-98195475D01*
X115169780Y-98195476D01*
X115113762Y-98343181D01*
X115094722Y-98499999D01*
X113405278Y-98499999D01*
X113386237Y-98343182D01*
X113330220Y-98195477D01*
X113240483Y-98065470D01*
X113122240Y-97960717D01*
X113122238Y-97960716D01*
X113122237Y-97960715D01*
X112982365Y-97887303D01*
X112828986Y-97849500D01*
X112828985Y-97849500D01*
X112671015Y-97849500D01*
X112671014Y-97849500D01*
X112517634Y-97887303D01*
X112377762Y-97960715D01*
X112259516Y-98065471D01*
X112169781Y-98195475D01*
X112169780Y-98195476D01*
X112113762Y-98343181D01*
X112094722Y-98499999D01*
X110405278Y-98499999D01*
X110386237Y-98343182D01*
X110330220Y-98195477D01*
X110240483Y-98065470D01*
X110122240Y-97960717D01*
X110122238Y-97960716D01*
X110122237Y-97960715D01*
X109982365Y-97887303D01*
X109828986Y-97849500D01*
X109828985Y-97849500D01*
X109671015Y-97849500D01*
X109671014Y-97849500D01*
X109517634Y-97887303D01*
X109377762Y-97960715D01*
X109259516Y-98065471D01*
X109169781Y-98195475D01*
X109169780Y-98195476D01*
X109113762Y-98343181D01*
X109094722Y-98499999D01*
X93750500Y-98499999D01*
X93750499Y-96999999D01*
X139844722Y-96999999D01*
X139844722Y-97000000D01*
X139863762Y-97156818D01*
X139919780Y-97304523D01*
X140009517Y-97434530D01*
X140127760Y-97539283D01*
X140127762Y-97539284D01*
X140267634Y-97612696D01*
X140421014Y-97650500D01*
X140421015Y-97650500D01*
X140578985Y-97650500D01*
X140732365Y-97612696D01*
X140872240Y-97539283D01*
X140990483Y-97434530D01*
X141080220Y-97304523D01*
X141136237Y-97156818D01*
X141155278Y-97000000D01*
X141138607Y-96862696D01*
X141136237Y-96843181D01*
X141111184Y-96777123D01*
X141080220Y-96695477D01*
X140990483Y-96565470D01*
X140872240Y-96460717D01*
X140872238Y-96460716D01*
X140872237Y-96460715D01*
X140732365Y-96387303D01*
X140578986Y-96349500D01*
X140578985Y-96349500D01*
X140421015Y-96349500D01*
X140421014Y-96349500D01*
X140267634Y-96387303D01*
X140127762Y-96460715D01*
X140009516Y-96565471D01*
X139919781Y-96695475D01*
X139919780Y-96695476D01*
X139863762Y-96843181D01*
X139844722Y-96999999D01*
X93750499Y-96999999D01*
X93750499Y-96777128D01*
X93744091Y-96717517D01*
X93735870Y-96695476D01*
X93693797Y-96582671D01*
X93693793Y-96582664D01*
X93607547Y-96467455D01*
X93607544Y-96467452D01*
X93492335Y-96381206D01*
X93492328Y-96381202D01*
X93360917Y-96332189D01*
X93304983Y-96290318D01*
X93289945Y-96249999D01*
X109094722Y-96249999D01*
X109094722Y-96250000D01*
X109113762Y-96406818D01*
X109164000Y-96539283D01*
X109169780Y-96554523D01*
X109259517Y-96684530D01*
X109377760Y-96789283D01*
X109377762Y-96789284D01*
X109517634Y-96862696D01*
X109671014Y-96900500D01*
X109671015Y-96900500D01*
X109828985Y-96900500D01*
X109982365Y-96862696D01*
X110019547Y-96843181D01*
X110122240Y-96789283D01*
X110240483Y-96684530D01*
X110330220Y-96554523D01*
X110386237Y-96406818D01*
X110405278Y-96250000D01*
X110405278Y-96249999D01*
X115094722Y-96249999D01*
X115094722Y-96250000D01*
X115113762Y-96406818D01*
X115164000Y-96539283D01*
X115169780Y-96554523D01*
X115259517Y-96684530D01*
X115377760Y-96789283D01*
X115377762Y-96789284D01*
X115517634Y-96862696D01*
X115671014Y-96900500D01*
X115671015Y-96900500D01*
X115828985Y-96900500D01*
X115982365Y-96862696D01*
X116019547Y-96843181D01*
X116122240Y-96789283D01*
X116240483Y-96684530D01*
X116330220Y-96554523D01*
X116386237Y-96406818D01*
X116405278Y-96250000D01*
X116405278Y-96249999D01*
X118094722Y-96249999D01*
X118094722Y-96250000D01*
X118113762Y-96406818D01*
X118164000Y-96539283D01*
X118169780Y-96554523D01*
X118259517Y-96684530D01*
X118377760Y-96789283D01*
X118377762Y-96789284D01*
X118517634Y-96862696D01*
X118671014Y-96900500D01*
X118671015Y-96900500D01*
X118828985Y-96900500D01*
X118982365Y-96862696D01*
X119019547Y-96843181D01*
X119122240Y-96789283D01*
X119240483Y-96684530D01*
X119330220Y-96554523D01*
X119386237Y-96406818D01*
X119405278Y-96250000D01*
X119386237Y-96093182D01*
X119350897Y-95999999D01*
X123744722Y-95999999D01*
X123744722Y-96000000D01*
X123763762Y-96156818D01*
X123814393Y-96290318D01*
X123819780Y-96304523D01*
X123909517Y-96434530D01*
X124027760Y-96539283D01*
X124027762Y-96539284D01*
X124167634Y-96612696D01*
X124321014Y-96650500D01*
X124321015Y-96650500D01*
X124478985Y-96650500D01*
X124632365Y-96612696D01*
X124689572Y-96582671D01*
X124772240Y-96539283D01*
X124890483Y-96434530D01*
X124980220Y-96304523D01*
X125036237Y-96156818D01*
X125055278Y-96000000D01*
X125049207Y-95950000D01*
X143135000Y-95950000D01*
X145225000Y-95950000D01*
X145225000Y-94050000D01*
X143135000Y-94050000D01*
X143135000Y-95950000D01*
X125049207Y-95950000D01*
X125038607Y-95862696D01*
X125036237Y-95843181D01*
X125014992Y-95787164D01*
X124980220Y-95695477D01*
X124890483Y-95565470D01*
X124772240Y-95460717D01*
X124772238Y-95460716D01*
X124772237Y-95460715D01*
X124632365Y-95387303D01*
X124478986Y-95349500D01*
X124478985Y-95349500D01*
X124321015Y-95349500D01*
X124321014Y-95349500D01*
X124167634Y-95387303D01*
X124027762Y-95460715D01*
X123909516Y-95565471D01*
X123819781Y-95695475D01*
X123819780Y-95695476D01*
X123763762Y-95843181D01*
X123744722Y-95999999D01*
X119350897Y-95999999D01*
X119330220Y-95945477D01*
X119240483Y-95815470D01*
X119122240Y-95710717D01*
X119122238Y-95710716D01*
X119122237Y-95710715D01*
X118982365Y-95637303D01*
X118828986Y-95599500D01*
X118828985Y-95599500D01*
X118671015Y-95599500D01*
X118671014Y-95599500D01*
X118517634Y-95637303D01*
X118377762Y-95710715D01*
X118377760Y-95710717D01*
X118262493Y-95812834D01*
X118259516Y-95815471D01*
X118169781Y-95945475D01*
X118169780Y-95945476D01*
X118113762Y-96093181D01*
X118094722Y-96249999D01*
X116405278Y-96249999D01*
X116386237Y-96093182D01*
X116330220Y-95945477D01*
X116240483Y-95815470D01*
X116122240Y-95710717D01*
X116122238Y-95710716D01*
X116122237Y-95710715D01*
X115982365Y-95637303D01*
X115828986Y-95599500D01*
X115828985Y-95599500D01*
X115671015Y-95599500D01*
X115671014Y-95599500D01*
X115517634Y-95637303D01*
X115377762Y-95710715D01*
X115377760Y-95710717D01*
X115262493Y-95812834D01*
X115259516Y-95815471D01*
X115169781Y-95945475D01*
X115169780Y-95945476D01*
X115113762Y-96093181D01*
X115094722Y-96249999D01*
X110405278Y-96249999D01*
X110386237Y-96093182D01*
X110330220Y-95945477D01*
X110240483Y-95815470D01*
X110122240Y-95710717D01*
X110122238Y-95710716D01*
X110122237Y-95710715D01*
X109982365Y-95637303D01*
X109828986Y-95599500D01*
X109828985Y-95599500D01*
X109671015Y-95599500D01*
X109671014Y-95599500D01*
X109517634Y-95637303D01*
X109377762Y-95710715D01*
X109377760Y-95710717D01*
X109262493Y-95812834D01*
X109259516Y-95815471D01*
X109169781Y-95945475D01*
X109169780Y-95945476D01*
X109113762Y-96093181D01*
X109094722Y-96249999D01*
X93289945Y-96249999D01*
X93280566Y-96224853D01*
X93295418Y-96156580D01*
X93316563Y-96128332D01*
X93438495Y-96006401D01*
X93574035Y-95812830D01*
X93673903Y-95598663D01*
X93735063Y-95370408D01*
X93745598Y-95249999D01*
X139844722Y-95249999D01*
X139844722Y-95250000D01*
X139863762Y-95406818D01*
X139884203Y-95460715D01*
X139919780Y-95554523D01*
X140009517Y-95684530D01*
X140127760Y-95789283D01*
X140127762Y-95789284D01*
X140267634Y-95862696D01*
X140421014Y-95900500D01*
X140421015Y-95900500D01*
X140578985Y-95900500D01*
X140732365Y-95862696D01*
X140769547Y-95843181D01*
X140872240Y-95789283D01*
X140990483Y-95684530D01*
X141080220Y-95554523D01*
X141136237Y-95406818D01*
X141155278Y-95250000D01*
X141141315Y-95134999D01*
X141136237Y-95093181D01*
X141114992Y-95037164D01*
X141080220Y-94945477D01*
X140990483Y-94815470D01*
X140872240Y-94710717D01*
X140872238Y-94710716D01*
X140872237Y-94710715D01*
X140732365Y-94637303D01*
X140578986Y-94599500D01*
X140578985Y-94599500D01*
X140421015Y-94599500D01*
X140421014Y-94599500D01*
X140267634Y-94637303D01*
X140127762Y-94710715D01*
X140009516Y-94815471D01*
X139919781Y-94945475D01*
X139919780Y-94945476D01*
X139863762Y-95093181D01*
X139844722Y-95249999D01*
X93745598Y-95249999D01*
X93755659Y-95135000D01*
X93735063Y-94899592D01*
X93673903Y-94671337D01*
X93574035Y-94457171D01*
X93438495Y-94263599D01*
X93438494Y-94263597D01*
X93271402Y-94096506D01*
X93271395Y-94096501D01*
X93077834Y-93960967D01*
X93077830Y-93960965D01*
X93077828Y-93960964D01*
X92863663Y-93861097D01*
X92863659Y-93861096D01*
X92863655Y-93861094D01*
X92635413Y-93799938D01*
X92635403Y-93799936D01*
X92400001Y-93779341D01*
X92399999Y-93779341D01*
X92164596Y-93799936D01*
X92164586Y-93799938D01*
X91936344Y-93861094D01*
X91936335Y-93861098D01*
X91722171Y-93960964D01*
X91722169Y-93960965D01*
X91528597Y-94096505D01*
X91361505Y-94263597D01*
X91225965Y-94457169D01*
X91225964Y-94457171D01*
X91126098Y-94671335D01*
X91126094Y-94671344D01*
X91064938Y-94899586D01*
X91064936Y-94899596D01*
X91044341Y-95134999D01*
X90500500Y-95134999D01*
X90500500Y-92749999D01*
X94094722Y-92749999D01*
X94094722Y-92750000D01*
X94113762Y-92906818D01*
X94149102Y-93000000D01*
X94169780Y-93054523D01*
X94259517Y-93184530D01*
X94377760Y-93289283D01*
X94377762Y-93289284D01*
X94517634Y-93362696D01*
X94671014Y-93400500D01*
X94671015Y-93400500D01*
X94828985Y-93400500D01*
X94982365Y-93362696D01*
X95026974Y-93339283D01*
X95122240Y-93289283D01*
X95240483Y-93184530D01*
X95330220Y-93054523D01*
X95386237Y-92906818D01*
X95399207Y-92799999D01*
X124344722Y-92799999D01*
X124344722Y-92800000D01*
X124363762Y-92956818D01*
X124400818Y-93054524D01*
X124419780Y-93104523D01*
X124509517Y-93234530D01*
X124627760Y-93339283D01*
X124627762Y-93339284D01*
X124767634Y-93412696D01*
X124921014Y-93450500D01*
X124921015Y-93450500D01*
X125078985Y-93450500D01*
X125232365Y-93412696D01*
X125295570Y-93379523D01*
X125372240Y-93339283D01*
X125490483Y-93234530D01*
X125580220Y-93104523D01*
X125619861Y-92999999D01*
X127369722Y-92999999D01*
X127369722Y-93000000D01*
X127388762Y-93156818D01*
X127418234Y-93234528D01*
X127444780Y-93304523D01*
X127534517Y-93434530D01*
X127652760Y-93539283D01*
X127652762Y-93539284D01*
X127792634Y-93612696D01*
X127946014Y-93650500D01*
X127946015Y-93650500D01*
X128103985Y-93650500D01*
X128257365Y-93612696D01*
X128397240Y-93539283D01*
X128515483Y-93434530D01*
X128605220Y-93304523D01*
X128661237Y-93156818D01*
X128671172Y-93074999D01*
X130219722Y-93074999D01*
X130219722Y-93075000D01*
X130238762Y-93231818D01*
X130279519Y-93339283D01*
X130294780Y-93379523D01*
X130384517Y-93509530D01*
X130502760Y-93614283D01*
X130502762Y-93614284D01*
X130642634Y-93687696D01*
X130796014Y-93725500D01*
X130796015Y-93725500D01*
X130953985Y-93725500D01*
X131107365Y-93687696D01*
X131178235Y-93650500D01*
X131247240Y-93614283D01*
X131365483Y-93509530D01*
X131455220Y-93379523D01*
X131511237Y-93231818D01*
X131530278Y-93075000D01*
X131521172Y-93000000D01*
X131511237Y-92918181D01*
X131482793Y-92843181D01*
X131455220Y-92770477D01*
X131365483Y-92640470D01*
X131247240Y-92535717D01*
X131247238Y-92535716D01*
X131247237Y-92535715D01*
X131107365Y-92462303D01*
X130953986Y-92424500D01*
X130953985Y-92424500D01*
X130796015Y-92424500D01*
X130796014Y-92424500D01*
X130642634Y-92462303D01*
X130502762Y-92535715D01*
X130384516Y-92640471D01*
X130294781Y-92770475D01*
X130294780Y-92770476D01*
X130238762Y-92918181D01*
X130219722Y-93074999D01*
X128671172Y-93074999D01*
X128680278Y-93000000D01*
X128670344Y-92918181D01*
X128661237Y-92843181D01*
X128625897Y-92749999D01*
X128605220Y-92695477D01*
X128515483Y-92565470D01*
X128397240Y-92460717D01*
X128397238Y-92460716D01*
X128397237Y-92460715D01*
X128257365Y-92387303D01*
X128103986Y-92349500D01*
X128103985Y-92349500D01*
X127946015Y-92349500D01*
X127946014Y-92349500D01*
X127792634Y-92387303D01*
X127652762Y-92460715D01*
X127534516Y-92565471D01*
X127444781Y-92695475D01*
X127444780Y-92695476D01*
X127388762Y-92843181D01*
X127369722Y-92999999D01*
X125619861Y-92999999D01*
X125636237Y-92956818D01*
X125655278Y-92800000D01*
X125642587Y-92695475D01*
X125636237Y-92643181D01*
X125595480Y-92535715D01*
X125580220Y-92495477D01*
X125490483Y-92365470D01*
X125372240Y-92260717D01*
X125372238Y-92260716D01*
X125372237Y-92260715D01*
X125232365Y-92187303D01*
X125078986Y-92149500D01*
X125078985Y-92149500D01*
X124921015Y-92149500D01*
X124921014Y-92149500D01*
X124767634Y-92187303D01*
X124627762Y-92260715D01*
X124509516Y-92365471D01*
X124419781Y-92495475D01*
X124419780Y-92495476D01*
X124363762Y-92643181D01*
X124344722Y-92799999D01*
X95399207Y-92799999D01*
X95405278Y-92750000D01*
X95386237Y-92593182D01*
X95330220Y-92445477D01*
X95240483Y-92315470D01*
X95122240Y-92210717D01*
X95122238Y-92210716D01*
X95122237Y-92210715D01*
X94982365Y-92137303D01*
X94828986Y-92099500D01*
X94828985Y-92099500D01*
X94671015Y-92099500D01*
X94671014Y-92099500D01*
X94517634Y-92137303D01*
X94377762Y-92210715D01*
X94259516Y-92315471D01*
X94169781Y-92445475D01*
X94169780Y-92445476D01*
X94113762Y-92593181D01*
X94094722Y-92749999D01*
X90500500Y-92749999D01*
X90500500Y-91925769D01*
X90520185Y-91858730D01*
X90572989Y-91812975D01*
X90642147Y-91803031D01*
X90671948Y-91811207D01*
X90717632Y-91830130D01*
X90861415Y-91858730D01*
X90920582Y-91870499D01*
X90920586Y-91870500D01*
X90920587Y-91870500D01*
X92627518Y-91870500D01*
X92627519Y-91870499D01*
X92830472Y-91830130D01*
X93021650Y-91750941D01*
X93193707Y-91635977D01*
X93340029Y-91489655D01*
X93454993Y-91317598D01*
X93534182Y-91126420D01*
X93574552Y-90923465D01*
X93574552Y-90716535D01*
X93574551Y-90716530D01*
X95583552Y-90716530D01*
X95583552Y-90923469D01*
X95623920Y-91126412D01*
X95623922Y-91126420D01*
X95703110Y-91317596D01*
X95818076Y-91489657D01*
X95964394Y-91635975D01*
X95964397Y-91635977D01*
X96136454Y-91750941D01*
X96327632Y-91830130D01*
X96471415Y-91858730D01*
X96530582Y-91870499D01*
X96530586Y-91870500D01*
X96530587Y-91870500D01*
X97737518Y-91870500D01*
X97737519Y-91870499D01*
X97940472Y-91830130D01*
X98131650Y-91750941D01*
X98303707Y-91635977D01*
X98450029Y-91489655D01*
X98564993Y-91317598D01*
X98644182Y-91126420D01*
X98684552Y-90923465D01*
X98684552Y-90749999D01*
X111844722Y-90749999D01*
X111844722Y-90750000D01*
X111863762Y-90906818D01*
X111886634Y-90967125D01*
X111919780Y-91054523D01*
X112009517Y-91184530D01*
X112127760Y-91289283D01*
X112127762Y-91289284D01*
X112267634Y-91362696D01*
X112421014Y-91400500D01*
X112421015Y-91400500D01*
X112578985Y-91400500D01*
X112732365Y-91362696D01*
X112872240Y-91289283D01*
X112990483Y-91184530D01*
X113080220Y-91054523D01*
X113136237Y-90906818D01*
X113155278Y-90750000D01*
X113136237Y-90593182D01*
X113080220Y-90445477D01*
X112990483Y-90315470D01*
X112872240Y-90210717D01*
X112872238Y-90210716D01*
X112872237Y-90210715D01*
X112732365Y-90137303D01*
X112578986Y-90099500D01*
X112578985Y-90099500D01*
X112421015Y-90099500D01*
X112421014Y-90099500D01*
X112267634Y-90137303D01*
X112127762Y-90210715D01*
X112009516Y-90315471D01*
X111919781Y-90445475D01*
X111919780Y-90445476D01*
X111863762Y-90593181D01*
X111844722Y-90749999D01*
X98684552Y-90749999D01*
X98684552Y-90716535D01*
X98644182Y-90513580D01*
X98564993Y-90322402D01*
X98450029Y-90150345D01*
X98450027Y-90150342D01*
X98303709Y-90004024D01*
X98217678Y-89946541D01*
X98131650Y-89889059D01*
X98058584Y-89858794D01*
X97940472Y-89809870D01*
X97940464Y-89809868D01*
X97890849Y-89799999D01*
X110544722Y-89799999D01*
X110544722Y-89800000D01*
X110563762Y-89956818D01*
X110600818Y-90054524D01*
X110619780Y-90104523D01*
X110709517Y-90234530D01*
X110827760Y-90339283D01*
X110827762Y-90339284D01*
X110967634Y-90412696D01*
X111121014Y-90450500D01*
X111121015Y-90450500D01*
X111278985Y-90450500D01*
X111432365Y-90412696D01*
X111463599Y-90396303D01*
X111572240Y-90339283D01*
X111690483Y-90234530D01*
X111780220Y-90104523D01*
X111836237Y-89956818D01*
X111855278Y-89800000D01*
X111855278Y-89799999D01*
X119544722Y-89799999D01*
X119544722Y-89800000D01*
X119563762Y-89956818D01*
X119600818Y-90054524D01*
X119619780Y-90104523D01*
X119709517Y-90234530D01*
X119827760Y-90339283D01*
X119827762Y-90339284D01*
X119967634Y-90412696D01*
X120121014Y-90450500D01*
X120121015Y-90450500D01*
X120278985Y-90450500D01*
X120432365Y-90412696D01*
X120463599Y-90396303D01*
X120572240Y-90339283D01*
X120690483Y-90234530D01*
X120780220Y-90104523D01*
X120836237Y-89956818D01*
X120855278Y-89800000D01*
X120836237Y-89643182D01*
X120780220Y-89495477D01*
X120690483Y-89365470D01*
X120572240Y-89260717D01*
X120572238Y-89260716D01*
X120572237Y-89260715D01*
X120456555Y-89199999D01*
X125744722Y-89199999D01*
X125744722Y-89200000D01*
X125763762Y-89356818D01*
X125816349Y-89495476D01*
X125819780Y-89504523D01*
X125909517Y-89634530D01*
X126027760Y-89739283D01*
X126027762Y-89739284D01*
X126167634Y-89812696D01*
X126321014Y-89850500D01*
X126321015Y-89850500D01*
X126478985Y-89850500D01*
X126632365Y-89812696D01*
X126656557Y-89799999D01*
X126772240Y-89739283D01*
X126890483Y-89634530D01*
X126980220Y-89504523D01*
X127036237Y-89356818D01*
X127055278Y-89200000D01*
X127053737Y-89187304D01*
X127036237Y-89043181D01*
X127011129Y-88976978D01*
X126980220Y-88895477D01*
X126890483Y-88765470D01*
X126772240Y-88660717D01*
X126772238Y-88660716D01*
X126772237Y-88660715D01*
X126632365Y-88587303D01*
X126478986Y-88549500D01*
X126478985Y-88549500D01*
X126321015Y-88549500D01*
X126321014Y-88549500D01*
X126167634Y-88587303D01*
X126027762Y-88660715D01*
X125909516Y-88765471D01*
X125819781Y-88895475D01*
X125819780Y-88895476D01*
X125763762Y-89043181D01*
X125744722Y-89199999D01*
X120456555Y-89199999D01*
X120432365Y-89187303D01*
X120278986Y-89149500D01*
X120278985Y-89149500D01*
X120121015Y-89149500D01*
X120121014Y-89149500D01*
X119967634Y-89187303D01*
X119827762Y-89260715D01*
X119709516Y-89365471D01*
X119619781Y-89495475D01*
X119619780Y-89495476D01*
X119563762Y-89643181D01*
X119544722Y-89799999D01*
X111855278Y-89799999D01*
X111836237Y-89643182D01*
X111780220Y-89495477D01*
X111690483Y-89365470D01*
X111572240Y-89260717D01*
X111572238Y-89260716D01*
X111572237Y-89260715D01*
X111432365Y-89187303D01*
X111278986Y-89149500D01*
X111278985Y-89149500D01*
X111121015Y-89149500D01*
X111121014Y-89149500D01*
X110967634Y-89187303D01*
X110827762Y-89260715D01*
X110709516Y-89365471D01*
X110619781Y-89495475D01*
X110619780Y-89495476D01*
X110563762Y-89643181D01*
X110544722Y-89799999D01*
X97890849Y-89799999D01*
X97737521Y-89769500D01*
X97737517Y-89769500D01*
X96530587Y-89769500D01*
X96530582Y-89769500D01*
X96327639Y-89809868D01*
X96327631Y-89809870D01*
X96136455Y-89889058D01*
X95964394Y-90004024D01*
X95818076Y-90150342D01*
X95703110Y-90322403D01*
X95623922Y-90513579D01*
X95623920Y-90513587D01*
X95583552Y-90716530D01*
X93574551Y-90716530D01*
X93534182Y-90513580D01*
X93454993Y-90322402D01*
X93340029Y-90150345D01*
X93340027Y-90150342D01*
X93193709Y-90004024D01*
X93107678Y-89946541D01*
X93021650Y-89889059D01*
X92948584Y-89858794D01*
X92830472Y-89809870D01*
X92830464Y-89809868D01*
X92627521Y-89769500D01*
X92627517Y-89769500D01*
X90920587Y-89769500D01*
X90920582Y-89769500D01*
X90717639Y-89809868D01*
X90717631Y-89809870D01*
X90671953Y-89828791D01*
X90602483Y-89836260D01*
X90540004Y-89804985D01*
X90504352Y-89744896D01*
X90500500Y-89714230D01*
X90500500Y-87626895D01*
X98406203Y-87626895D01*
X98406203Y-87626902D01*
X98426398Y-87806148D01*
X98426399Y-87806153D01*
X98485979Y-87976422D01*
X98519529Y-88029816D01*
X98581952Y-88129161D01*
X98709506Y-88256715D01*
X98862246Y-88352688D01*
X99016941Y-88406818D01*
X99032513Y-88412267D01*
X99032518Y-88412268D01*
X99211764Y-88432464D01*
X99211768Y-88432464D01*
X99211772Y-88432464D01*
X99391017Y-88412268D01*
X99391020Y-88412267D01*
X99391023Y-88412267D01*
X99561290Y-88352688D01*
X99714030Y-88256715D01*
X99770749Y-88199996D01*
X103194435Y-88199996D01*
X103194435Y-88200003D01*
X103214630Y-88379249D01*
X103214631Y-88379254D01*
X103274211Y-88549523D01*
X103359041Y-88684528D01*
X103370184Y-88702262D01*
X103497738Y-88829816D01*
X103650478Y-88925789D01*
X103796768Y-88976978D01*
X103820745Y-88985368D01*
X103820750Y-88985369D01*
X103999996Y-89005565D01*
X104000000Y-89005565D01*
X104000004Y-89005565D01*
X104179249Y-88985369D01*
X104179252Y-88985368D01*
X104179255Y-88985368D01*
X104349522Y-88925789D01*
X104502262Y-88829816D01*
X104629816Y-88702262D01*
X104725789Y-88549522D01*
X104785368Y-88379255D01*
X104786095Y-88372805D01*
X104799932Y-88249999D01*
X141094722Y-88249999D01*
X141094722Y-88250000D01*
X141113762Y-88406818D01*
X141167875Y-88549500D01*
X141169780Y-88554523D01*
X141259517Y-88684530D01*
X141377760Y-88789283D01*
X141377762Y-88789284D01*
X141496655Y-88851685D01*
X141517635Y-88862696D01*
X141567006Y-88874864D01*
X141586230Y-88879603D01*
X141646610Y-88914759D01*
X141678399Y-88976978D01*
X141671503Y-89046507D01*
X141628112Y-89101270D01*
X141586230Y-89120397D01*
X141517633Y-89137304D01*
X141377762Y-89210715D01*
X141259516Y-89315471D01*
X141169781Y-89445475D01*
X141169780Y-89445476D01*
X141113762Y-89593181D01*
X141094722Y-89749999D01*
X141094722Y-89750000D01*
X141113762Y-89906818D01*
X141169780Y-90054523D01*
X141259517Y-90184530D01*
X141377760Y-90289283D01*
X141377762Y-90289284D01*
X141517634Y-90362696D01*
X141671014Y-90400500D01*
X141671015Y-90400500D01*
X141828985Y-90400500D01*
X141982365Y-90362696D01*
X142026974Y-90339283D01*
X142122240Y-90289283D01*
X142240483Y-90184530D01*
X142330220Y-90054523D01*
X142386237Y-89906818D01*
X142405278Y-89750000D01*
X142386237Y-89593182D01*
X142330220Y-89445477D01*
X142240483Y-89315470D01*
X142122240Y-89210717D01*
X142122238Y-89210716D01*
X142122237Y-89210715D01*
X141982365Y-89137303D01*
X141982366Y-89137303D01*
X141913770Y-89120397D01*
X141853389Y-89085241D01*
X141821600Y-89023022D01*
X141828496Y-88953493D01*
X141871887Y-88898730D01*
X141913770Y-88879603D01*
X141982365Y-88862696D01*
X142022291Y-88841741D01*
X142122240Y-88789283D01*
X142240483Y-88684530D01*
X142330220Y-88554523D01*
X142386237Y-88406818D01*
X142405278Y-88250000D01*
X142399207Y-88199996D01*
X142386237Y-88093181D01*
X142358765Y-88020745D01*
X142330220Y-87945477D01*
X142240483Y-87815470D01*
X142122240Y-87710717D01*
X142122238Y-87710716D01*
X142122237Y-87710715D01*
X141982365Y-87637303D01*
X141828986Y-87599500D01*
X141828985Y-87599500D01*
X141671015Y-87599500D01*
X141671014Y-87599500D01*
X141517634Y-87637303D01*
X141377762Y-87710715D01*
X141328813Y-87754080D01*
X141270040Y-87806148D01*
X141259516Y-87815471D01*
X141169781Y-87945475D01*
X141169780Y-87945476D01*
X141113762Y-88093181D01*
X141094722Y-88249999D01*
X104799932Y-88249999D01*
X104805565Y-88200003D01*
X104805565Y-88199996D01*
X104785369Y-88020750D01*
X104785368Y-88020745D01*
X104761101Y-87951395D01*
X104725789Y-87850478D01*
X104629816Y-87697738D01*
X104502262Y-87570184D01*
X104460054Y-87543663D01*
X104349523Y-87474211D01*
X104179254Y-87414631D01*
X104179249Y-87414630D01*
X104000004Y-87394435D01*
X103999996Y-87394435D01*
X103820750Y-87414630D01*
X103820745Y-87414631D01*
X103650476Y-87474211D01*
X103497737Y-87570184D01*
X103370184Y-87697737D01*
X103274211Y-87850476D01*
X103214631Y-88020745D01*
X103214630Y-88020750D01*
X103194435Y-88199996D01*
X99770749Y-88199996D01*
X99841584Y-88129161D01*
X99937557Y-87976421D01*
X99940578Y-87970148D01*
X99941764Y-87970719D01*
X99978157Y-87919968D01*
X100043107Y-87894213D01*
X100068367Y-87894469D01*
X100124567Y-87900802D01*
X100166838Y-87905565D01*
X100166840Y-87905565D01*
X100166844Y-87905565D01*
X100346089Y-87885369D01*
X100346092Y-87885368D01*
X100346095Y-87885368D01*
X100516362Y-87825789D01*
X100669102Y-87729816D01*
X100796656Y-87602262D01*
X100892629Y-87449522D01*
X100952208Y-87279255D01*
X100958800Y-87220750D01*
X100969672Y-87124261D01*
X135718700Y-87124261D01*
X135718700Y-87124268D01*
X135738895Y-87303514D01*
X135738896Y-87303519D01*
X135798476Y-87473788D01*
X135859046Y-87570184D01*
X135894449Y-87626527D01*
X136022003Y-87754081D01*
X136027976Y-87757834D01*
X136136125Y-87825789D01*
X136174743Y-87850054D01*
X136323945Y-87902262D01*
X136345010Y-87909633D01*
X136345015Y-87909634D01*
X136524261Y-87929830D01*
X136524265Y-87929830D01*
X136524269Y-87929830D01*
X136703514Y-87909634D01*
X136703517Y-87909633D01*
X136703520Y-87909633D01*
X136873787Y-87850054D01*
X137026527Y-87754081D01*
X137154081Y-87626527D01*
X137250054Y-87473787D01*
X137275875Y-87399996D01*
X138994435Y-87399996D01*
X138994435Y-87400003D01*
X139014630Y-87579249D01*
X139014631Y-87579254D01*
X139074211Y-87749523D01*
X139137646Y-87850478D01*
X139170184Y-87902262D01*
X139297738Y-88029816D01*
X139388080Y-88086582D01*
X139438869Y-88118495D01*
X139450478Y-88125789D01*
X139460115Y-88129161D01*
X139620745Y-88185368D01*
X139620750Y-88185369D01*
X139799996Y-88205565D01*
X139800000Y-88205565D01*
X139800004Y-88205565D01*
X139979249Y-88185369D01*
X139979252Y-88185368D01*
X139979255Y-88185368D01*
X140149522Y-88125789D01*
X140302262Y-88029816D01*
X140429816Y-87902262D01*
X140525789Y-87749522D01*
X140585368Y-87579255D01*
X140589378Y-87543664D01*
X140605565Y-87400003D01*
X140605565Y-87399996D01*
X140585369Y-87220750D01*
X140585368Y-87220745D01*
X140551607Y-87124261D01*
X140525789Y-87050478D01*
X140429816Y-86897738D01*
X140302262Y-86770184D01*
X140270897Y-86750476D01*
X140149523Y-86674211D01*
X139979254Y-86614631D01*
X139979249Y-86614630D01*
X139800004Y-86594435D01*
X139799996Y-86594435D01*
X139620750Y-86614630D01*
X139620745Y-86614631D01*
X139450476Y-86674211D01*
X139297737Y-86770184D01*
X139170184Y-86897737D01*
X139074211Y-87050476D01*
X139014631Y-87220745D01*
X139014630Y-87220750D01*
X138994435Y-87399996D01*
X137275875Y-87399996D01*
X137309633Y-87303520D01*
X137318959Y-87220750D01*
X137329830Y-87124268D01*
X137329830Y-87124261D01*
X137309634Y-86945015D01*
X137309633Y-86945010D01*
X137275406Y-86847194D01*
X137250054Y-86774743D01*
X137247189Y-86770184D01*
X137154080Y-86622002D01*
X137026527Y-86494449D01*
X136873788Y-86398476D01*
X136703519Y-86338896D01*
X136703514Y-86338895D01*
X136524269Y-86318700D01*
X136524261Y-86318700D01*
X136345015Y-86338895D01*
X136345010Y-86338896D01*
X136174741Y-86398476D01*
X136022002Y-86494449D01*
X135894449Y-86622002D01*
X135798476Y-86774741D01*
X135738896Y-86945010D01*
X135738895Y-86945015D01*
X135718700Y-87124261D01*
X100969672Y-87124261D01*
X100972405Y-87100003D01*
X100972405Y-87099996D01*
X100952209Y-86920750D01*
X100952208Y-86920745D01*
X100945337Y-86901110D01*
X100892629Y-86750478D01*
X100796656Y-86597738D01*
X100669102Y-86470184D01*
X100516363Y-86374211D01*
X100346094Y-86314631D01*
X100346089Y-86314630D01*
X100166844Y-86294435D01*
X100166836Y-86294435D01*
X99987590Y-86314630D01*
X99987585Y-86314631D01*
X99817316Y-86374211D01*
X99664577Y-86470184D01*
X99537024Y-86597737D01*
X99441052Y-86750475D01*
X99438033Y-86756746D01*
X99436849Y-86756175D01*
X99400437Y-86806941D01*
X99335483Y-86832686D01*
X99310237Y-86832428D01*
X99211772Y-86821334D01*
X99211764Y-86821334D01*
X99032518Y-86841529D01*
X99032513Y-86841530D01*
X98862244Y-86901110D01*
X98709505Y-86997083D01*
X98581952Y-87124636D01*
X98485979Y-87277375D01*
X98426399Y-87447644D01*
X98426398Y-87447649D01*
X98406203Y-87626895D01*
X90500500Y-87626895D01*
X90500500Y-84999996D01*
X99194435Y-84999996D01*
X99194435Y-85000003D01*
X99214630Y-85179249D01*
X99214631Y-85179254D01*
X99274211Y-85349523D01*
X99315122Y-85414632D01*
X99370184Y-85502262D01*
X99497738Y-85629816D01*
X99588080Y-85686582D01*
X99631771Y-85714035D01*
X99650478Y-85725789D01*
X99718306Y-85749523D01*
X99820745Y-85785368D01*
X99820750Y-85785369D01*
X99999996Y-85805565D01*
X100000000Y-85805565D01*
X100000004Y-85805565D01*
X100179249Y-85785369D01*
X100179252Y-85785368D01*
X100179255Y-85785368D01*
X100349522Y-85725789D01*
X100502262Y-85629816D01*
X100629816Y-85502262D01*
X100725789Y-85349522D01*
X100785368Y-85179255D01*
X100793788Y-85104524D01*
X100805565Y-85000003D01*
X100805565Y-84999996D01*
X103194435Y-84999996D01*
X103194435Y-85000003D01*
X103214630Y-85179249D01*
X103214631Y-85179254D01*
X103274211Y-85349523D01*
X103315122Y-85414632D01*
X103370184Y-85502262D01*
X103497738Y-85629816D01*
X103588080Y-85686582D01*
X103631771Y-85714035D01*
X103650478Y-85725789D01*
X103718306Y-85749523D01*
X103820745Y-85785368D01*
X103820750Y-85785369D01*
X103999996Y-85805565D01*
X104000000Y-85805565D01*
X104000004Y-85805565D01*
X104179249Y-85785369D01*
X104179252Y-85785368D01*
X104179255Y-85785368D01*
X104349522Y-85725789D01*
X104502262Y-85629816D01*
X104629816Y-85502262D01*
X104725789Y-85349522D01*
X104785368Y-85179255D01*
X104793788Y-85104524D01*
X104805565Y-85000003D01*
X104805565Y-84999996D01*
X104785369Y-84820750D01*
X104785368Y-84820745D01*
X104778109Y-84799999D01*
X124594722Y-84799999D01*
X124594722Y-84800000D01*
X124613762Y-84956818D01*
X124649283Y-85050478D01*
X124669780Y-85104523D01*
X124759517Y-85234530D01*
X124877760Y-85339283D01*
X124877762Y-85339284D01*
X125017634Y-85412696D01*
X125171014Y-85450500D01*
X125171015Y-85450500D01*
X125328985Y-85450500D01*
X125482365Y-85412696D01*
X125506555Y-85400000D01*
X125506563Y-85399996D01*
X127294435Y-85399996D01*
X127294435Y-85400003D01*
X127314630Y-85579249D01*
X127314631Y-85579254D01*
X127374211Y-85749523D01*
X127437646Y-85850478D01*
X127470184Y-85902262D01*
X127597738Y-86029816D01*
X127750478Y-86125789D01*
X127920739Y-86185366D01*
X127920745Y-86185368D01*
X127920750Y-86185369D01*
X128099996Y-86205565D01*
X128100000Y-86205565D01*
X128100004Y-86205565D01*
X128279249Y-86185369D01*
X128279251Y-86185368D01*
X128279255Y-86185368D01*
X128279258Y-86185366D01*
X128279262Y-86185366D01*
X128434128Y-86131176D01*
X128503907Y-86127614D01*
X128564534Y-86162342D01*
X128596762Y-86224336D01*
X128598303Y-86234334D01*
X128614630Y-86379249D01*
X128614631Y-86379254D01*
X128674211Y-86549523D01*
X128716198Y-86616344D01*
X128770184Y-86702262D01*
X128897738Y-86829816D01*
X128925395Y-86847194D01*
X129042450Y-86920745D01*
X129050478Y-86925789D01*
X129105423Y-86945015D01*
X129220745Y-86985368D01*
X129220750Y-86985369D01*
X129399996Y-87005565D01*
X129400000Y-87005565D01*
X129400004Y-87005565D01*
X129579249Y-86985369D01*
X129579252Y-86985368D01*
X129579255Y-86985368D01*
X129749522Y-86925789D01*
X129902262Y-86829816D01*
X130029816Y-86702262D01*
X130125789Y-86549522D01*
X130185368Y-86379255D01*
X130185369Y-86379249D01*
X130205565Y-86200003D01*
X130205565Y-86199996D01*
X130185369Y-86020750D01*
X130185368Y-86020745D01*
X130125788Y-85850476D01*
X130062354Y-85749522D01*
X130029816Y-85697738D01*
X129902262Y-85570184D01*
X129749523Y-85474211D01*
X129579254Y-85414631D01*
X129579249Y-85414630D01*
X129400004Y-85394435D01*
X129399996Y-85394435D01*
X129220750Y-85414630D01*
X129220742Y-85414632D01*
X129065870Y-85468824D01*
X128996091Y-85472385D01*
X128935464Y-85437656D01*
X128903237Y-85375662D01*
X128901696Y-85365665D01*
X128899877Y-85349523D01*
X128888721Y-85250500D01*
X128885369Y-85220749D01*
X128885368Y-85220745D01*
X128870848Y-85179249D01*
X128825789Y-85050478D01*
X128729816Y-84897738D01*
X128602262Y-84770184D01*
X128580990Y-84756818D01*
X128449523Y-84674211D01*
X128279254Y-84614631D01*
X128279249Y-84614630D01*
X128149388Y-84599999D01*
X139144722Y-84599999D01*
X139144722Y-84600000D01*
X139163762Y-84756818D01*
X139188007Y-84820745D01*
X139219780Y-84904523D01*
X139309517Y-85034530D01*
X139427760Y-85139283D01*
X139427762Y-85139284D01*
X139567634Y-85212696D01*
X139721014Y-85250500D01*
X139721015Y-85250500D01*
X139878985Y-85250500D01*
X140032365Y-85212696D01*
X140172240Y-85139283D01*
X140290483Y-85034530D01*
X140380220Y-84904523D01*
X140436237Y-84756818D01*
X140455278Y-84600000D01*
X140442587Y-84495475D01*
X140436237Y-84443181D01*
X140414992Y-84387164D01*
X140380220Y-84295477D01*
X140290483Y-84165470D01*
X140172240Y-84060717D01*
X140172238Y-84060716D01*
X140172237Y-84060715D01*
X140032365Y-83987303D01*
X139878986Y-83949500D01*
X139878985Y-83949500D01*
X139721015Y-83949500D01*
X139721014Y-83949500D01*
X139567634Y-83987303D01*
X139427762Y-84060715D01*
X139309516Y-84165471D01*
X139219781Y-84295475D01*
X139219780Y-84295476D01*
X139163762Y-84443181D01*
X139144722Y-84599999D01*
X128149388Y-84599999D01*
X128100004Y-84594435D01*
X128099996Y-84594435D01*
X127920750Y-84614630D01*
X127920745Y-84614631D01*
X127750476Y-84674211D01*
X127597737Y-84770184D01*
X127470184Y-84897737D01*
X127374211Y-85050476D01*
X127314631Y-85220745D01*
X127314630Y-85220750D01*
X127294435Y-85399996D01*
X125506563Y-85399996D01*
X125622240Y-85339283D01*
X125740483Y-85234530D01*
X125830220Y-85104523D01*
X125886237Y-84956818D01*
X125905278Y-84800000D01*
X125902292Y-84775403D01*
X125886237Y-84643181D01*
X125831077Y-84497738D01*
X125830220Y-84495477D01*
X125740483Y-84365470D01*
X125622240Y-84260717D01*
X125622238Y-84260716D01*
X125622237Y-84260715D01*
X125482365Y-84187303D01*
X125328986Y-84149500D01*
X125328985Y-84149500D01*
X125171015Y-84149500D01*
X125171014Y-84149500D01*
X125017634Y-84187303D01*
X124877762Y-84260715D01*
X124759516Y-84365471D01*
X124669781Y-84495475D01*
X124669780Y-84495476D01*
X124613762Y-84643181D01*
X124594722Y-84799999D01*
X104778109Y-84799999D01*
X104762999Y-84756818D01*
X104725789Y-84650478D01*
X104709780Y-84625000D01*
X119575000Y-84625000D01*
X121475000Y-84625000D01*
X121475000Y-82535000D01*
X119575000Y-82535000D01*
X119575000Y-84625000D01*
X104709780Y-84625000D01*
X104703265Y-84614632D01*
X104629815Y-84497737D01*
X104502262Y-84370184D01*
X104349523Y-84274211D01*
X104179254Y-84214631D01*
X104179249Y-84214630D01*
X104000004Y-84194435D01*
X103999996Y-84194435D01*
X103820750Y-84214630D01*
X103820745Y-84214631D01*
X103650476Y-84274211D01*
X103497737Y-84370184D01*
X103370184Y-84497737D01*
X103274211Y-84650476D01*
X103214631Y-84820745D01*
X103214630Y-84820750D01*
X103194435Y-84999996D01*
X100805565Y-84999996D01*
X100785369Y-84820750D01*
X100785368Y-84820745D01*
X100762999Y-84756818D01*
X100725789Y-84650478D01*
X100703265Y-84614632D01*
X100629815Y-84497737D01*
X100502262Y-84370184D01*
X100349523Y-84274211D01*
X100179254Y-84214631D01*
X100179249Y-84214630D01*
X100000004Y-84194435D01*
X99999996Y-84194435D01*
X99820750Y-84214630D01*
X99820745Y-84214631D01*
X99650476Y-84274211D01*
X99497737Y-84370184D01*
X99370184Y-84497737D01*
X99274211Y-84650476D01*
X99214631Y-84820745D01*
X99214630Y-84820750D01*
X99194435Y-84999996D01*
X90500500Y-84999996D01*
X90500500Y-83285769D01*
X90520185Y-83218730D01*
X90572989Y-83172975D01*
X90642147Y-83163031D01*
X90671948Y-83171207D01*
X90717632Y-83190130D01*
X90861415Y-83218730D01*
X90920582Y-83230499D01*
X90920586Y-83230500D01*
X90920587Y-83230500D01*
X92627518Y-83230500D01*
X92627519Y-83230499D01*
X92830472Y-83190130D01*
X93021650Y-83110941D01*
X93193707Y-82995977D01*
X93340029Y-82849655D01*
X93454993Y-82677598D01*
X93534182Y-82486420D01*
X93574552Y-82283465D01*
X93574552Y-82076535D01*
X93574551Y-82076530D01*
X95583552Y-82076530D01*
X95583552Y-82283469D01*
X95623920Y-82486412D01*
X95623922Y-82486420D01*
X95691876Y-82650476D01*
X95703111Y-82677598D01*
X95751488Y-82750000D01*
X95818076Y-82849657D01*
X95964394Y-82995975D01*
X95964397Y-82995977D01*
X96136454Y-83110941D01*
X96327632Y-83190130D01*
X96471415Y-83218730D01*
X96530582Y-83230499D01*
X96530586Y-83230500D01*
X96530587Y-83230500D01*
X97737518Y-83230500D01*
X97737519Y-83230499D01*
X97940472Y-83190130D01*
X98131650Y-83110941D01*
X98303707Y-82995977D01*
X98342201Y-82957483D01*
X98382754Y-82916931D01*
X98444077Y-82883446D01*
X98513769Y-82888430D01*
X98569702Y-82930302D01*
X98593139Y-82993139D01*
X98593655Y-82993081D01*
X98593887Y-82995145D01*
X98594119Y-82995766D01*
X98594193Y-82997864D01*
X98614630Y-83179249D01*
X98614631Y-83179254D01*
X98674211Y-83349523D01*
X98759558Y-83485351D01*
X98770184Y-83502262D01*
X98897738Y-83629816D01*
X99050478Y-83725789D01*
X99220745Y-83785368D01*
X99220750Y-83785369D01*
X99399996Y-83805565D01*
X99400000Y-83805565D01*
X99400004Y-83805565D01*
X99579249Y-83785369D01*
X99579252Y-83785368D01*
X99579255Y-83785368D01*
X99749522Y-83725789D01*
X99902262Y-83629816D01*
X100029816Y-83502262D01*
X100125789Y-83349522D01*
X100185368Y-83179255D01*
X100193065Y-83110941D01*
X100205565Y-83000003D01*
X100205565Y-82999996D01*
X100185369Y-82820750D01*
X100185368Y-82820745D01*
X100160613Y-82749999D01*
X103844722Y-82749999D01*
X103844722Y-82750000D01*
X103863762Y-82906818D01*
X103899102Y-83000000D01*
X103919780Y-83054523D01*
X104009517Y-83184530D01*
X104127760Y-83289283D01*
X104127762Y-83289284D01*
X104267634Y-83362696D01*
X104421014Y-83400500D01*
X104421015Y-83400500D01*
X104578985Y-83400500D01*
X104732365Y-83362696D01*
X104757464Y-83349523D01*
X104872240Y-83289283D01*
X104990483Y-83184530D01*
X105080220Y-83054523D01*
X105136237Y-82906818D01*
X105155278Y-82750000D01*
X105155278Y-82749999D01*
X106344722Y-82749999D01*
X106344722Y-82750000D01*
X106363762Y-82906818D01*
X106399102Y-83000000D01*
X106419780Y-83054523D01*
X106509517Y-83184530D01*
X106627760Y-83289283D01*
X106627762Y-83289284D01*
X106767634Y-83362696D01*
X106921014Y-83400500D01*
X106921015Y-83400500D01*
X107078985Y-83400500D01*
X107081018Y-83399999D01*
X116744722Y-83399999D01*
X116744722Y-83400000D01*
X116763762Y-83556818D01*
X116819780Y-83704523D01*
X116909517Y-83834530D01*
X117027760Y-83939283D01*
X117027762Y-83939284D01*
X117167634Y-84012696D01*
X117321014Y-84050500D01*
X117321015Y-84050500D01*
X117478985Y-84050500D01*
X117632365Y-84012696D01*
X117772240Y-83939283D01*
X117890483Y-83834530D01*
X117980220Y-83704523D01*
X118036237Y-83556818D01*
X118055278Y-83400000D01*
X118053631Y-83386431D01*
X118036237Y-83243181D01*
X118005840Y-83163031D01*
X117980220Y-83095477D01*
X117890483Y-82965470D01*
X117772240Y-82860717D01*
X117772238Y-82860716D01*
X117772237Y-82860715D01*
X117632365Y-82787303D01*
X117478986Y-82749500D01*
X117478985Y-82749500D01*
X117321015Y-82749500D01*
X117321014Y-82749500D01*
X117167634Y-82787303D01*
X117027762Y-82860715D01*
X116909516Y-82965471D01*
X116819781Y-83095475D01*
X116819780Y-83095476D01*
X116763762Y-83243181D01*
X116744722Y-83399999D01*
X107081018Y-83399999D01*
X107232365Y-83362696D01*
X107257464Y-83349523D01*
X107372240Y-83289283D01*
X107490483Y-83184530D01*
X107580220Y-83054523D01*
X107636237Y-82906818D01*
X107655278Y-82750000D01*
X107636237Y-82593182D01*
X107580220Y-82445477D01*
X107490483Y-82315470D01*
X107372240Y-82210717D01*
X107372238Y-82210716D01*
X107372237Y-82210715D01*
X107232365Y-82137303D01*
X107078986Y-82099500D01*
X107078985Y-82099500D01*
X106921015Y-82099500D01*
X106921014Y-82099500D01*
X106767634Y-82137303D01*
X106627762Y-82210715D01*
X106627760Y-82210717D01*
X106535046Y-82292854D01*
X106509516Y-82315471D01*
X106419781Y-82445475D01*
X106419780Y-82445476D01*
X106363762Y-82593181D01*
X106344722Y-82749999D01*
X105155278Y-82749999D01*
X105136237Y-82593182D01*
X105080220Y-82445477D01*
X104990483Y-82315470D01*
X104872240Y-82210717D01*
X104872238Y-82210716D01*
X104872237Y-82210715D01*
X104732365Y-82137303D01*
X104578986Y-82099500D01*
X104578985Y-82099500D01*
X104421015Y-82099500D01*
X104421014Y-82099500D01*
X104267634Y-82137303D01*
X104127762Y-82210715D01*
X104127760Y-82210717D01*
X104035046Y-82292854D01*
X104009516Y-82315471D01*
X103919781Y-82445475D01*
X103919780Y-82445476D01*
X103863762Y-82593181D01*
X103844722Y-82749999D01*
X100160613Y-82749999D01*
X100160438Y-82749500D01*
X100125789Y-82650478D01*
X100029816Y-82497738D01*
X99902262Y-82370184D01*
X99749523Y-82274211D01*
X99579254Y-82214631D01*
X99579249Y-82214630D01*
X99400004Y-82194435D01*
X99399996Y-82194435D01*
X99220750Y-82214630D01*
X99220745Y-82214631D01*
X99050476Y-82274211D01*
X98897737Y-82370184D01*
X98896233Y-82371689D01*
X98895021Y-82372350D01*
X98892295Y-82374525D01*
X98891914Y-82374047D01*
X98834910Y-82405174D01*
X98765218Y-82400190D01*
X98709285Y-82358318D01*
X98684868Y-82292854D01*
X98684552Y-82284008D01*
X98684552Y-82076534D01*
X98684551Y-82076530D01*
X98644183Y-81873587D01*
X98644182Y-81873580D01*
X98564993Y-81682402D01*
X98450029Y-81510345D01*
X98450027Y-81510342D01*
X98303709Y-81364024D01*
X98214658Y-81304523D01*
X98131650Y-81249059D01*
X98117459Y-81243181D01*
X97940472Y-81169870D01*
X97940464Y-81169868D01*
X97737521Y-81129500D01*
X97737517Y-81129500D01*
X96530587Y-81129500D01*
X96530582Y-81129500D01*
X96327639Y-81169868D01*
X96327631Y-81169870D01*
X96136455Y-81249058D01*
X95964394Y-81364024D01*
X95818076Y-81510342D01*
X95703110Y-81682403D01*
X95623922Y-81873579D01*
X95623920Y-81873587D01*
X95583552Y-82076530D01*
X93574551Y-82076530D01*
X93534182Y-81873580D01*
X93454993Y-81682402D01*
X93340029Y-81510345D01*
X93340027Y-81510342D01*
X93193709Y-81364024D01*
X93104658Y-81304523D01*
X93021650Y-81249059D01*
X93007459Y-81243181D01*
X92830472Y-81169870D01*
X92830464Y-81169868D01*
X92627521Y-81129500D01*
X92627517Y-81129500D01*
X90920587Y-81129500D01*
X90920582Y-81129500D01*
X90717639Y-81169868D01*
X90717631Y-81169870D01*
X90671953Y-81188791D01*
X90602483Y-81196260D01*
X90540004Y-81164985D01*
X90504352Y-81104896D01*
X90500500Y-81074230D01*
X90500500Y-80999999D01*
X117344722Y-80999999D01*
X117344722Y-81000000D01*
X117363762Y-81156818D01*
X117378721Y-81196260D01*
X117419780Y-81304523D01*
X117509517Y-81434530D01*
X117627760Y-81539283D01*
X117627762Y-81539284D01*
X117767634Y-81612696D01*
X117921014Y-81650500D01*
X117921015Y-81650500D01*
X118078985Y-81650500D01*
X118232365Y-81612696D01*
X118372240Y-81539283D01*
X118490483Y-81434530D01*
X118514318Y-81399999D01*
X129944722Y-81399999D01*
X129944722Y-81400000D01*
X129963762Y-81556818D01*
X130011391Y-81682403D01*
X130019780Y-81704523D01*
X130109517Y-81834530D01*
X130227760Y-81939283D01*
X130227762Y-81939284D01*
X130367634Y-82012696D01*
X130521014Y-82050500D01*
X130521015Y-82050500D01*
X130678985Y-82050500D01*
X130832365Y-82012696D01*
X130972240Y-81939283D01*
X131090483Y-81834530D01*
X131180220Y-81704523D01*
X131236237Y-81556818D01*
X131243545Y-81496626D01*
X131271166Y-81432449D01*
X131329100Y-81393392D01*
X131352753Y-81388353D01*
X131379255Y-81385368D01*
X131549522Y-81325789D01*
X131702262Y-81229816D01*
X131829816Y-81102262D01*
X131925789Y-80949522D01*
X131985368Y-80779255D01*
X131985369Y-80779249D01*
X132005565Y-80600003D01*
X132005565Y-80599996D01*
X131985369Y-80420750D01*
X131985368Y-80420745D01*
X131960438Y-80349500D01*
X131925789Y-80250478D01*
X131829816Y-80097738D01*
X131702262Y-79970184D01*
X131549523Y-79874211D01*
X131379254Y-79814631D01*
X131379249Y-79814630D01*
X131200004Y-79794435D01*
X131199996Y-79794435D01*
X131020750Y-79814630D01*
X131020745Y-79814631D01*
X130850476Y-79874211D01*
X130697737Y-79970184D01*
X130570184Y-80097737D01*
X130474211Y-80250476D01*
X130414631Y-80420745D01*
X130414630Y-80420750D01*
X130394435Y-80599996D01*
X130394435Y-80600002D01*
X130403369Y-80679296D01*
X130391314Y-80748118D01*
X130343965Y-80799497D01*
X130337776Y-80802975D01*
X130227761Y-80860716D01*
X130109516Y-80965471D01*
X130019781Y-81095475D01*
X130019780Y-81095476D01*
X129963762Y-81243181D01*
X129944722Y-81399999D01*
X118514318Y-81399999D01*
X118580220Y-81304523D01*
X118636237Y-81156818D01*
X118655278Y-81000000D01*
X118651086Y-80965471D01*
X118636237Y-80843181D01*
X118586803Y-80712835D01*
X118580220Y-80695477D01*
X118490483Y-80565470D01*
X118372240Y-80460717D01*
X118372238Y-80460716D01*
X118372237Y-80460715D01*
X118232365Y-80387303D01*
X118078986Y-80349500D01*
X118078985Y-80349500D01*
X117921015Y-80349500D01*
X117921014Y-80349500D01*
X117767634Y-80387303D01*
X117627762Y-80460715D01*
X117509516Y-80565471D01*
X117419781Y-80695475D01*
X117419780Y-80695476D01*
X117363762Y-80843181D01*
X117344722Y-80999999D01*
X90500500Y-80999999D01*
X90500500Y-79999999D01*
X95844722Y-79999999D01*
X95844722Y-80000000D01*
X95863762Y-80156818D01*
X95899283Y-80250478D01*
X95919780Y-80304523D01*
X96009517Y-80434530D01*
X96127760Y-80539283D01*
X96127762Y-80539284D01*
X96267634Y-80612696D01*
X96421014Y-80650500D01*
X96421015Y-80650500D01*
X96578985Y-80650500D01*
X96732365Y-80612696D01*
X96756555Y-80600000D01*
X96872240Y-80539283D01*
X96990483Y-80434530D01*
X97080220Y-80304523D01*
X97136237Y-80156818D01*
X97155278Y-80000000D01*
X97155278Y-79999999D01*
X97844722Y-79999999D01*
X97844722Y-80000000D01*
X97863762Y-80156818D01*
X97899283Y-80250478D01*
X97919780Y-80304523D01*
X98009517Y-80434530D01*
X98127760Y-80539283D01*
X98127762Y-80539284D01*
X98267634Y-80612696D01*
X98421014Y-80650500D01*
X98421015Y-80650500D01*
X98578985Y-80650500D01*
X98732365Y-80612696D01*
X98756555Y-80600000D01*
X98872240Y-80539283D01*
X98990483Y-80434530D01*
X99080220Y-80304523D01*
X99136237Y-80156818D01*
X99155278Y-80000000D01*
X99155278Y-79999999D01*
X103844722Y-79999999D01*
X103844722Y-80000000D01*
X103863762Y-80156818D01*
X103899283Y-80250478D01*
X103919780Y-80304523D01*
X104009517Y-80434530D01*
X104127760Y-80539283D01*
X104127762Y-80539284D01*
X104267634Y-80612696D01*
X104421014Y-80650500D01*
X104421015Y-80650500D01*
X104578985Y-80650500D01*
X104732365Y-80612696D01*
X104756555Y-80600000D01*
X104872240Y-80539283D01*
X104990483Y-80434530D01*
X105080220Y-80304523D01*
X105136237Y-80156818D01*
X105155278Y-80000000D01*
X105155278Y-79999999D01*
X106344722Y-79999999D01*
X106344722Y-80000000D01*
X106363762Y-80156818D01*
X106399283Y-80250478D01*
X106419780Y-80304523D01*
X106509517Y-80434530D01*
X106627760Y-80539283D01*
X106627762Y-80539284D01*
X106767634Y-80612696D01*
X106921014Y-80650500D01*
X106921015Y-80650500D01*
X107078985Y-80650500D01*
X107232365Y-80612696D01*
X107256555Y-80600000D01*
X107372240Y-80539283D01*
X107490483Y-80434530D01*
X107580220Y-80304523D01*
X107636237Y-80156818D01*
X107655278Y-80000000D01*
X107655278Y-79999999D01*
X109094722Y-79999999D01*
X109094722Y-80000000D01*
X109113762Y-80156818D01*
X109149283Y-80250478D01*
X109169780Y-80304523D01*
X109259517Y-80434530D01*
X109377760Y-80539283D01*
X109377762Y-80539284D01*
X109517634Y-80612696D01*
X109671014Y-80650500D01*
X109671015Y-80650500D01*
X109828985Y-80650500D01*
X109982365Y-80612696D01*
X110006555Y-80600000D01*
X110122240Y-80539283D01*
X110240483Y-80434530D01*
X110330220Y-80304523D01*
X110386237Y-80156818D01*
X110405278Y-80000000D01*
X110386237Y-79843182D01*
X110375409Y-79814632D01*
X110354796Y-79760279D01*
X110330220Y-79695477D01*
X110240483Y-79565470D01*
X110122240Y-79460717D01*
X110122238Y-79460716D01*
X110122237Y-79460715D01*
X109982365Y-79387303D01*
X109828986Y-79349500D01*
X109828985Y-79349500D01*
X109671015Y-79349500D01*
X109671014Y-79349500D01*
X109517634Y-79387303D01*
X109377762Y-79460715D01*
X109259516Y-79565471D01*
X109169781Y-79695475D01*
X109169780Y-79695476D01*
X109113762Y-79843181D01*
X109094722Y-79999999D01*
X107655278Y-79999999D01*
X107636237Y-79843182D01*
X107625409Y-79814632D01*
X107604796Y-79760279D01*
X107580220Y-79695477D01*
X107490483Y-79565470D01*
X107372240Y-79460717D01*
X107372238Y-79460716D01*
X107372237Y-79460715D01*
X107232365Y-79387303D01*
X107078986Y-79349500D01*
X107078985Y-79349500D01*
X106921015Y-79349500D01*
X106921014Y-79349500D01*
X106767634Y-79387303D01*
X106627762Y-79460715D01*
X106509516Y-79565471D01*
X106419781Y-79695475D01*
X106419780Y-79695476D01*
X106363762Y-79843181D01*
X106344722Y-79999999D01*
X105155278Y-79999999D01*
X105136237Y-79843182D01*
X105125409Y-79814632D01*
X105104796Y-79760279D01*
X105080220Y-79695477D01*
X104990483Y-79565470D01*
X104872240Y-79460717D01*
X104872238Y-79460716D01*
X104872237Y-79460715D01*
X104732365Y-79387303D01*
X104578986Y-79349500D01*
X104578985Y-79349500D01*
X104421015Y-79349500D01*
X104421014Y-79349500D01*
X104267634Y-79387303D01*
X104127762Y-79460715D01*
X104009516Y-79565471D01*
X103919781Y-79695475D01*
X103919780Y-79695476D01*
X103863762Y-79843181D01*
X103844722Y-79999999D01*
X99155278Y-79999999D01*
X99136237Y-79843182D01*
X99125409Y-79814632D01*
X99104796Y-79760279D01*
X99080220Y-79695477D01*
X98990483Y-79565470D01*
X98872240Y-79460717D01*
X98872238Y-79460716D01*
X98872237Y-79460715D01*
X98732365Y-79387303D01*
X98578986Y-79349500D01*
X98578985Y-79349500D01*
X98421015Y-79349500D01*
X98421014Y-79349500D01*
X98267634Y-79387303D01*
X98127762Y-79460715D01*
X98009516Y-79565471D01*
X97919781Y-79695475D01*
X97919780Y-79695476D01*
X97863762Y-79843181D01*
X97844722Y-79999999D01*
X97155278Y-79999999D01*
X97136237Y-79843182D01*
X97125409Y-79814632D01*
X97104796Y-79760279D01*
X97080220Y-79695477D01*
X96990483Y-79565470D01*
X96872240Y-79460717D01*
X96872238Y-79460716D01*
X96872237Y-79460715D01*
X96732365Y-79387303D01*
X96578986Y-79349500D01*
X96578985Y-79349500D01*
X96421015Y-79349500D01*
X96421014Y-79349500D01*
X96267634Y-79387303D01*
X96127762Y-79460715D01*
X96009516Y-79565471D01*
X95919781Y-79695475D01*
X95919780Y-79695476D01*
X95863762Y-79843181D01*
X95844722Y-79999999D01*
X90500500Y-79999999D01*
X90500500Y-78431527D01*
X90520185Y-78364488D01*
X90572989Y-78318733D01*
X90642147Y-78308789D01*
X90705703Y-78337814D01*
X90743477Y-78396592D01*
X90745391Y-78403934D01*
X90774664Y-78532188D01*
X90774666Y-78532195D01*
X90860344Y-78750498D01*
X90873257Y-78783398D01*
X91008185Y-79017102D01*
X91144080Y-79187509D01*
X91176442Y-79228089D01*
X91307293Y-79349500D01*
X91374259Y-79411635D01*
X91597226Y-79563651D01*
X91840359Y-79680738D01*
X92098228Y-79760280D01*
X92098229Y-79760280D01*
X92098232Y-79760281D01*
X92365063Y-79800499D01*
X92365068Y-79800499D01*
X92365071Y-79800500D01*
X92365072Y-79800500D01*
X92634928Y-79800500D01*
X92634929Y-79800500D01*
X92675168Y-79794435D01*
X92901767Y-79760281D01*
X92901768Y-79760280D01*
X92901772Y-79760280D01*
X93159641Y-79680738D01*
X93402775Y-79563651D01*
X93625741Y-79411635D01*
X93823561Y-79228085D01*
X93991815Y-79017102D01*
X94126743Y-78783398D01*
X94225334Y-78532195D01*
X94285383Y-78269103D01*
X94302664Y-78038498D01*
X94305549Y-78000004D01*
X94305549Y-77999995D01*
X94285383Y-77730898D01*
X94285383Y-77730897D01*
X94232682Y-77499999D01*
X95844722Y-77499999D01*
X95844722Y-77500000D01*
X95863762Y-77656818D01*
X95894935Y-77739013D01*
X95919780Y-77804523D01*
X96009517Y-77934530D01*
X96127760Y-78039283D01*
X96127762Y-78039284D01*
X96267634Y-78112696D01*
X96421014Y-78150500D01*
X96421015Y-78150500D01*
X96578985Y-78150500D01*
X96732365Y-78112696D01*
X96771159Y-78092335D01*
X96872240Y-78039283D01*
X96916583Y-77999999D01*
X103844722Y-77999999D01*
X103844722Y-78000000D01*
X103863762Y-78156818D01*
X103917257Y-78297870D01*
X103919780Y-78304523D01*
X104009517Y-78434530D01*
X104127760Y-78539283D01*
X104127762Y-78539284D01*
X104267634Y-78612696D01*
X104421014Y-78650500D01*
X104421015Y-78650500D01*
X104578985Y-78650500D01*
X104732365Y-78612696D01*
X104806032Y-78574032D01*
X104872240Y-78539283D01*
X104990483Y-78434530D01*
X105080220Y-78304523D01*
X105136237Y-78156818D01*
X105155278Y-78000000D01*
X105155278Y-77999999D01*
X106344722Y-77999999D01*
X106344722Y-78000000D01*
X106363762Y-78156818D01*
X106417257Y-78297870D01*
X106419780Y-78304523D01*
X106509517Y-78434530D01*
X106627760Y-78539283D01*
X106627762Y-78539284D01*
X106767634Y-78612696D01*
X106921014Y-78650500D01*
X106921015Y-78650500D01*
X107078985Y-78650500D01*
X107232365Y-78612696D01*
X107306032Y-78574032D01*
X107372240Y-78539283D01*
X107490483Y-78434530D01*
X107580220Y-78304523D01*
X107636237Y-78156818D01*
X107655278Y-78000000D01*
X107655278Y-77999999D01*
X109094722Y-77999999D01*
X109094722Y-78000000D01*
X109113762Y-78156818D01*
X109167257Y-78297870D01*
X109169780Y-78304523D01*
X109259517Y-78434530D01*
X109377760Y-78539283D01*
X109377762Y-78539284D01*
X109517634Y-78612696D01*
X109671014Y-78650500D01*
X109671015Y-78650500D01*
X109828985Y-78650500D01*
X109982365Y-78612696D01*
X110056032Y-78574032D01*
X110122240Y-78539283D01*
X110240483Y-78434530D01*
X110330220Y-78304523D01*
X110386237Y-78156818D01*
X110405278Y-78000000D01*
X110405278Y-77999995D01*
X110386237Y-77843181D01*
X110343653Y-77730897D01*
X110330220Y-77695477D01*
X110240483Y-77565470D01*
X110122240Y-77460717D01*
X110122238Y-77460716D01*
X110122237Y-77460715D01*
X109982365Y-77387303D01*
X109828986Y-77349500D01*
X109828985Y-77349500D01*
X109671015Y-77349500D01*
X109671014Y-77349500D01*
X109517634Y-77387303D01*
X109377762Y-77460715D01*
X109259516Y-77565471D01*
X109169781Y-77695475D01*
X109169780Y-77695476D01*
X109113762Y-77843181D01*
X109094722Y-77999999D01*
X107655278Y-77999999D01*
X107655278Y-77999995D01*
X107636237Y-77843181D01*
X107593653Y-77730897D01*
X107580220Y-77695477D01*
X107490483Y-77565470D01*
X107372240Y-77460717D01*
X107372238Y-77460716D01*
X107372237Y-77460715D01*
X107232365Y-77387303D01*
X107078986Y-77349500D01*
X107078985Y-77349500D01*
X106921015Y-77349500D01*
X106921014Y-77349500D01*
X106767634Y-77387303D01*
X106627762Y-77460715D01*
X106509516Y-77565471D01*
X106419781Y-77695475D01*
X106419780Y-77695476D01*
X106363762Y-77843181D01*
X106344722Y-77999999D01*
X105155278Y-77999999D01*
X105155278Y-77999995D01*
X105136237Y-77843181D01*
X105093653Y-77730897D01*
X105080220Y-77695477D01*
X104990483Y-77565470D01*
X104872240Y-77460717D01*
X104872238Y-77460716D01*
X104872237Y-77460715D01*
X104732365Y-77387303D01*
X104578986Y-77349500D01*
X104578985Y-77349500D01*
X104421015Y-77349500D01*
X104421014Y-77349500D01*
X104267634Y-77387303D01*
X104127762Y-77460715D01*
X104009516Y-77565471D01*
X103919781Y-77695475D01*
X103919780Y-77695476D01*
X103863762Y-77843181D01*
X103844722Y-77999999D01*
X96916583Y-77999999D01*
X96990483Y-77934530D01*
X97080220Y-77804523D01*
X97136237Y-77656818D01*
X97155278Y-77500000D01*
X97136237Y-77343182D01*
X97080220Y-77195477D01*
X96990483Y-77065470D01*
X96872240Y-76960717D01*
X96872238Y-76960716D01*
X96872237Y-76960715D01*
X96732365Y-76887303D01*
X96578986Y-76849500D01*
X96578985Y-76849500D01*
X96421015Y-76849500D01*
X96421014Y-76849500D01*
X96267634Y-76887303D01*
X96127762Y-76960715D01*
X96009516Y-77065471D01*
X95919781Y-77195475D01*
X95919780Y-77195476D01*
X95863762Y-77343181D01*
X95844722Y-77499999D01*
X94232682Y-77499999D01*
X94225334Y-77467805D01*
X94126743Y-77216602D01*
X93991815Y-76982898D01*
X93823561Y-76771915D01*
X93823560Y-76771914D01*
X93823557Y-76771910D01*
X93625741Y-76588365D01*
X93549427Y-76536335D01*
X93402775Y-76436349D01*
X93402769Y-76436346D01*
X93402768Y-76436345D01*
X93402767Y-76436344D01*
X93159643Y-76319263D01*
X93159645Y-76319263D01*
X92912377Y-76242991D01*
X92854118Y-76204421D01*
X92825960Y-76140476D01*
X92836844Y-76071459D01*
X92883313Y-76019282D01*
X92948927Y-76000500D01*
X113818101Y-76000500D01*
X113885140Y-76020185D01*
G37*
%TD.AperFunction*%
%TD*%
M02*
