%TF.GenerationSoftware,KiCad,Pcbnew,8.0.6*%
%TF.CreationDate,2024-11-10T20:59:16-05:00*%
%TF.ProjectId,VanguardFlightComputer,56616e67-7561-4726-9446-6c6967687443,rev?*%
%TF.SameCoordinates,Original*%
%TF.FileFunction,Soldermask,Bot*%
%TF.FilePolarity,Negative*%
%FSLAX46Y46*%
G04 Gerber Fmt 4.6, Leading zero omitted, Abs format (unit mm)*
G04 Created by KiCad (PCBNEW 8.0.6) date 2024-11-10 20:59:16*
%MOMM*%
%LPD*%
G01*
G04 APERTURE LIST*
G04 Aperture macros list*
%AMRoundRect*
0 Rectangle with rounded corners*
0 $1 Rounding radius*
0 $2 $3 $4 $5 $6 $7 $8 $9 X,Y pos of 4 corners*
0 Add a 4 corners polygon primitive as box body*
4,1,4,$2,$3,$4,$5,$6,$7,$8,$9,$2,$3,0*
0 Add four circle primitives for the rounded corners*
1,1,$1+$1,$2,$3*
1,1,$1+$1,$4,$5*
1,1,$1+$1,$6,$7*
1,1,$1+$1,$8,$9*
0 Add four rect primitives between the rounded corners*
20,1,$1+$1,$2,$3,$4,$5,0*
20,1,$1+$1,$4,$5,$6,$7,0*
20,1,$1+$1,$6,$7,$8,$9,0*
20,1,$1+$1,$8,$9,$2,$3,0*%
G04 Aperture macros list end*
%ADD10R,0.800000X1.200000*%
%ADD11R,1.500000X2.000000*%
%ADD12R,1.800000X0.700000*%
%ADD13R,1.800000X0.800000*%
%ADD14O,2.100000X1.100000*%
%ADD15O,2.600000X1.100000*%
%ADD16R,0.650000X0.700000*%
%ADD17C,2.600000*%
%ADD18C,3.800000*%
%ADD19R,1.700000X1.700000*%
%ADD20O,1.700000X1.700000*%
%ADD21RoundRect,0.250000X-0.250000X0.275000X-0.250000X-0.275000X0.250000X-0.275000X0.250000X0.275000X0*%
%ADD22RoundRect,0.250000X-0.275000X0.850000X-0.275000X-0.850000X0.275000X-0.850000X0.275000X0.850000X0*%
%ADD23RoundRect,0.140000X-0.170000X0.140000X-0.170000X-0.140000X0.170000X-0.140000X0.170000X0.140000X0*%
%ADD24RoundRect,0.140000X-0.140000X-0.170000X0.140000X-0.170000X0.140000X0.170000X-0.140000X0.170000X0*%
%ADD25RoundRect,0.225000X-0.250000X0.225000X-0.250000X-0.225000X0.250000X-0.225000X0.250000X0.225000X0*%
%ADD26RoundRect,0.135000X-0.135000X-0.185000X0.135000X-0.185000X0.135000X0.185000X-0.135000X0.185000X0*%
%ADD27RoundRect,0.250000X-0.275000X-0.250000X0.275000X-0.250000X0.275000X0.250000X-0.275000X0.250000X0*%
%ADD28RoundRect,0.250000X-0.850000X-0.275000X0.850000X-0.275000X0.850000X0.275000X-0.850000X0.275000X0*%
%ADD29RoundRect,0.317500X-1.157500X-0.317500X1.157500X-0.317500X1.157500X0.317500X-1.157500X0.317500X0*%
%ADD30RoundRect,0.140000X0.170000X-0.140000X0.170000X0.140000X-0.170000X0.140000X-0.170000X-0.140000X0*%
%ADD31RoundRect,0.135000X-0.185000X0.135000X-0.185000X-0.135000X0.185000X-0.135000X0.185000X0.135000X0*%
%ADD32RoundRect,0.140000X0.140000X0.170000X-0.140000X0.170000X-0.140000X-0.170000X0.140000X-0.170000X0*%
G04 APERTURE END LIST*
%TO.C,J3*%
G36*
X119585000Y-82535000D02*
G01*
X121465000Y-82535000D01*
X121465000Y-84625000D01*
X119585000Y-84625000D01*
X119585000Y-82535000D01*
G37*
%TO.C,J4*%
G36*
X143135000Y-95940000D02*
G01*
X145225000Y-95940000D01*
X145225000Y-94060000D01*
X143135000Y-94060000D01*
X143135000Y-95940000D01*
G37*
%TD*%
D10*
%TO.C,J2*%
X101525000Y-102250000D03*
X102625000Y-102250000D03*
X103725000Y-102250000D03*
X104825000Y-102250000D03*
X105925000Y-102250000D03*
X107025000Y-102250000D03*
X108125000Y-102250000D03*
X109225000Y-102250000D03*
D11*
X111695000Y-104450000D03*
X97805000Y-104450000D03*
X97805000Y-96250000D03*
X111695000Y-96250000D03*
%TD*%
D12*
%TO.C,IC3*%
X102100000Y-86500000D03*
D13*
X102100000Y-85400000D03*
X102100000Y-84300000D03*
X102100000Y-83200000D03*
X102100000Y-82100000D03*
X102100000Y-81000000D03*
X102100000Y-79900000D03*
X102100000Y-78800000D03*
D12*
X102100000Y-77700000D03*
X111600000Y-77700000D03*
D13*
X111600000Y-78800000D03*
X111600000Y-79900000D03*
X111600000Y-81000000D03*
X111600000Y-82100000D03*
X111600000Y-83200000D03*
X111600000Y-84300000D03*
X111600000Y-85400000D03*
D12*
X111600000Y-86500000D03*
%TD*%
D14*
%TO.C,J1*%
X97134052Y-82180000D03*
D15*
X91774052Y-82180000D03*
D14*
X97134052Y-90820000D03*
D15*
X91774052Y-90820000D03*
%TD*%
D16*
%TO.C,D2*%
X114600000Y-77650000D03*
X114600000Y-78750000D03*
%TD*%
D17*
%TO.C,H5*%
X143500000Y-78000000D03*
D18*
X143500000Y-78000000D03*
%TD*%
D19*
%TO.C,J5*%
X144200000Y-82000000D03*
D20*
X144200000Y-84540000D03*
X144200000Y-87080000D03*
X144200000Y-89620000D03*
%TD*%
D17*
%TO.C,H6*%
X92500000Y-105000000D03*
D18*
X92500000Y-105000000D03*
%TD*%
D19*
%TO.C,J6*%
X136325000Y-77400000D03*
D20*
X138865000Y-77400000D03*
%TD*%
D18*
%TO.C,H1*%
X92500000Y-78000000D03*
D17*
X92500000Y-78000000D03*
%TD*%
D19*
%TO.C,J8*%
X92400000Y-97675000D03*
D20*
X92400000Y-95135000D03*
%TD*%
D18*
%TO.C,H7*%
X143500000Y-105000000D03*
D17*
X143500000Y-105000000D03*
%TD*%
D19*
%TO.C,J7*%
X120780000Y-77000000D03*
D20*
X123320000Y-77000000D03*
X125860000Y-77000000D03*
X128400000Y-77000000D03*
%TD*%
D21*
%TO.C,J3*%
X120525000Y-82000000D03*
D22*
X122000000Y-83525000D03*
X119050000Y-83525000D03*
%TD*%
D23*
%TO.C,C39*%
X139000000Y-92920000D03*
X139000000Y-93880000D03*
%TD*%
D24*
%TO.C,C28*%
X106120000Y-89800000D03*
X107080000Y-89800000D03*
%TD*%
D25*
%TO.C,FB2*%
X116200000Y-78825000D03*
X116200000Y-80375000D03*
%TD*%
D26*
%TO.C,R6*%
X106004154Y-90893046D03*
X107024154Y-90893046D03*
%TD*%
D24*
%TO.C,C29*%
X115120000Y-83200000D03*
X116080000Y-83200000D03*
%TD*%
D27*
%TO.C,J4*%
X142600000Y-95000000D03*
D28*
X144125000Y-93525000D03*
X144125000Y-96475000D03*
%TD*%
D29*
%TO.C,U7*%
X121400000Y-105400000D03*
X121400000Y-103400000D03*
X121400000Y-101400000D03*
X121400000Y-99400000D03*
X121400000Y-97400000D03*
X121400000Y-95400000D03*
X121400000Y-93400000D03*
X121400000Y-91400000D03*
X136450000Y-91400000D03*
X136450000Y-93400000D03*
X136450000Y-95400000D03*
X136450000Y-97400000D03*
X136450000Y-99400000D03*
X136450000Y-101400000D03*
X136450000Y-103400000D03*
X136450000Y-105400000D03*
%TD*%
D25*
%TO.C,FB3*%
X140500000Y-91425000D03*
X140500000Y-92975000D03*
%TD*%
D30*
%TO.C,C38*%
X139000000Y-99230000D03*
X139000000Y-98270000D03*
%TD*%
D31*
%TO.C,R5*%
X103750000Y-89740000D03*
X103750000Y-90760000D03*
%TD*%
D32*
%TO.C,R7*%
X115080000Y-82000000D03*
X114120000Y-82000000D03*
%TD*%
D31*
%TO.C,R4*%
X102500000Y-89740000D03*
X102500000Y-90760000D03*
%TD*%
M02*
