%TF.GenerationSoftware,KiCad,Pcbnew,8.0.6*%
%TF.CreationDate,2024-11-04T20:58:39-05:00*%
%TF.ProjectId,VanguardFlightComputer,56616e67-7561-4726-9446-6c6967687443,rev?*%
%TF.SameCoordinates,Original*%
%TF.FileFunction,Paste,Top*%
%TF.FilePolarity,Positive*%
%FSLAX46Y46*%
G04 Gerber Fmt 4.6, Leading zero omitted, Abs format (unit mm)*
G04 Created by KiCad (PCBNEW 8.0.6) date 2024-11-04 20:58:39*
%MOMM*%
%LPD*%
G01*
G04 APERTURE LIST*
G04 Aperture macros list*
%AMRoundRect*
0 Rectangle with rounded corners*
0 $1 Rounding radius*
0 $2 $3 $4 $5 $6 $7 $8 $9 X,Y pos of 4 corners*
0 Add a 4 corners polygon primitive as box body*
4,1,4,$2,$3,$4,$5,$6,$7,$8,$9,$2,$3,0*
0 Add four circle primitives for the rounded corners*
1,1,$1+$1,$2,$3*
1,1,$1+$1,$4,$5*
1,1,$1+$1,$6,$7*
1,1,$1+$1,$8,$9*
0 Add four rect primitives between the rounded corners*
20,1,$1+$1,$2,$3,$4,$5,0*
20,1,$1+$1,$4,$5,$6,$7,0*
20,1,$1+$1,$6,$7,$8,$9,0*
20,1,$1+$1,$8,$9,$2,$3,0*%
G04 Aperture macros list end*
%ADD10R,0.900000X1.000000*%
%ADD11R,0.250000X0.475000*%
%ADD12R,0.475000X0.250000*%
%ADD13R,2.500000X1.750000*%
%ADD14R,0.400000X0.800000*%
%ADD15RoundRect,0.135000X-0.185000X0.135000X-0.185000X-0.135000X0.185000X-0.135000X0.185000X0.135000X0*%
%ADD16R,0.650000X1.050000*%
%ADD17RoundRect,0.079500X0.079500X0.100500X-0.079500X0.100500X-0.079500X-0.100500X0.079500X-0.100500X0*%
%ADD18RoundRect,0.135000X-0.135000X-0.185000X0.135000X-0.185000X0.135000X0.185000X-0.135000X0.185000X0*%
%ADD19RoundRect,0.079500X-0.100500X0.079500X-0.100500X-0.079500X0.100500X-0.079500X0.100500X0.079500X0*%
%ADD20RoundRect,0.140000X-0.170000X0.140000X-0.170000X-0.140000X0.170000X-0.140000X0.170000X0.140000X0*%
%ADD21RoundRect,0.075000X-0.725000X-0.075000X0.725000X-0.075000X0.725000X0.075000X-0.725000X0.075000X0*%
%ADD22RoundRect,0.075000X-0.075000X-0.725000X0.075000X-0.725000X0.075000X0.725000X-0.075000X0.725000X0*%
%ADD23RoundRect,0.225000X-0.225000X-0.250000X0.225000X-0.250000X0.225000X0.250000X-0.225000X0.250000X0*%
%ADD24RoundRect,0.225000X0.250000X-0.225000X0.250000X0.225000X-0.250000X0.225000X-0.250000X-0.225000X0*%
%ADD25RoundRect,0.225000X-0.250000X0.225000X-0.250000X-0.225000X0.250000X-0.225000X0.250000X0.225000X0*%
%ADD26RoundRect,0.079500X0.100500X-0.079500X0.100500X0.079500X-0.100500X0.079500X-0.100500X-0.079500X0*%
%ADD27RoundRect,0.093750X-0.156250X-0.093750X0.156250X-0.093750X0.156250X0.093750X-0.156250X0.093750X0*%
%ADD28RoundRect,0.075000X-0.250000X-0.075000X0.250000X-0.075000X0.250000X0.075000X-0.250000X0.075000X0*%
%ADD29R,0.375000X0.350000*%
%ADD30R,0.350000X0.375000*%
%ADD31RoundRect,0.079500X-0.079500X-0.100500X0.079500X-0.100500X0.079500X0.100500X-0.079500X0.100500X0*%
%ADD32R,0.700000X0.300000*%
%ADD33R,0.700000X1.000000*%
%ADD34RoundRect,0.087500X-0.125000X-0.087500X0.125000X-0.087500X0.125000X0.087500X-0.125000X0.087500X0*%
%ADD35RoundRect,0.087500X-0.087500X-0.125000X0.087500X-0.125000X0.087500X0.125000X-0.087500X0.125000X0*%
%ADD36RoundRect,0.375000X-0.625000X-0.375000X0.625000X-0.375000X0.625000X0.375000X-0.625000X0.375000X0*%
%ADD37RoundRect,0.500000X-0.500000X-1.400000X0.500000X-1.400000X0.500000X1.400000X-0.500000X1.400000X0*%
%ADD38RoundRect,0.200000X-0.275000X0.200000X-0.275000X-0.200000X0.275000X-0.200000X0.275000X0.200000X0*%
G04 APERTURE END LIST*
D10*
%TO.C,Y2*%
X116787000Y-91375000D03*
X116787000Y-93025000D03*
X118013000Y-93025000D03*
X118013000Y-91375000D03*
%TD*%
D11*
%TO.C,IC2*%
X134850000Y-105163000D03*
X135350000Y-105163000D03*
X135850000Y-105163000D03*
X136350000Y-105163000D03*
D12*
X136512000Y-104500000D03*
X136512000Y-104000000D03*
X136512000Y-103500000D03*
D11*
X136350000Y-102837000D03*
X135850000Y-102837000D03*
X135350000Y-102837000D03*
X134850000Y-102837000D03*
D12*
X134688000Y-103500000D03*
X134688000Y-104000000D03*
X134688000Y-104500000D03*
%TD*%
D13*
%TO.C,IC1*%
X109000000Y-87000000D03*
D14*
X108050000Y-85500000D03*
X109000000Y-85500000D03*
X109950000Y-85500000D03*
X109950000Y-88500000D03*
X109000000Y-88500000D03*
X108050000Y-88500000D03*
%TD*%
D15*
%TO.C,R10*%
X141800000Y-84510000D03*
X141800000Y-83490000D03*
%TD*%
%TO.C,R9*%
X141800000Y-87110000D03*
X141800000Y-86090000D03*
%TD*%
D16*
%TO.C,SW2*%
X97125000Y-106475000D03*
X97125000Y-102325000D03*
X99275000Y-106475000D03*
X99275000Y-102325000D03*
%TD*%
%TO.C,SW1*%
X101325000Y-106475000D03*
X101325000Y-102325000D03*
X103475000Y-106475000D03*
X103475000Y-102325000D03*
%TD*%
D17*
%TO.C,R8*%
X98683539Y-100997203D03*
X99373539Y-100997203D03*
%TD*%
%TO.C,C30*%
X103490000Y-101000000D03*
X102800000Y-101000000D03*
%TD*%
D18*
%TO.C,R3*%
X131763086Y-105000000D03*
X132783086Y-105000000D03*
%TD*%
%TO.C,R2*%
X132783086Y-103667443D03*
X131763086Y-103667443D03*
%TD*%
D19*
%TO.C,C5*%
X122465891Y-80658657D03*
X122465891Y-79968657D03*
%TD*%
%TO.C,C21*%
X138000000Y-105655000D03*
X138000000Y-106345000D03*
%TD*%
D17*
%TO.C,C8*%
X120910000Y-79956345D03*
X121600000Y-79956345D03*
%TD*%
D20*
%TO.C,C18*%
X114650000Y-90420000D03*
X114650000Y-91380000D03*
%TD*%
D21*
%TO.C,U1*%
X122925000Y-85000000D03*
X122925000Y-85500000D03*
X122925000Y-86000000D03*
X122925000Y-86500000D03*
X122925000Y-87000000D03*
X122925000Y-87500000D03*
X122925000Y-88000000D03*
X122925000Y-88500000D03*
X122925000Y-89000000D03*
X122925000Y-89500000D03*
X122925000Y-90000000D03*
X122925000Y-90500000D03*
X122925000Y-91000000D03*
X122925000Y-91500000D03*
X122925000Y-92000000D03*
X122925000Y-92500000D03*
X122925000Y-93000000D03*
X122925000Y-93500000D03*
X122925000Y-94000000D03*
X122925000Y-94500000D03*
X122925000Y-95000000D03*
X122925000Y-95500000D03*
X122925000Y-96000000D03*
X122925000Y-96500000D03*
X122925000Y-97000000D03*
D22*
X124600000Y-98675000D03*
X125100000Y-98675000D03*
X125600000Y-98675000D03*
X126100000Y-98675000D03*
X126600000Y-98675000D03*
X127100000Y-98675000D03*
X127600000Y-98675000D03*
X128100000Y-98675000D03*
X128600000Y-98675000D03*
X129100000Y-98675000D03*
X129600000Y-98675000D03*
X130100000Y-98675000D03*
X130600000Y-98675000D03*
X131100000Y-98675000D03*
X131600000Y-98675000D03*
X132100000Y-98675000D03*
X132600000Y-98675000D03*
X133100000Y-98675000D03*
X133600000Y-98675000D03*
X134100000Y-98675000D03*
X134600000Y-98675000D03*
X135100000Y-98675000D03*
X135600000Y-98675000D03*
X136100000Y-98675000D03*
X136600000Y-98675000D03*
D21*
X138275000Y-97000000D03*
X138275000Y-96500000D03*
X138275000Y-96000000D03*
X138275000Y-95500000D03*
X138275000Y-95000000D03*
X138275000Y-94500000D03*
X138275000Y-94000000D03*
X138275000Y-93500000D03*
X138275000Y-93000000D03*
X138275000Y-92500000D03*
X138275000Y-92000000D03*
X138275000Y-91500000D03*
X138275000Y-91000000D03*
X138275000Y-90500000D03*
X138275000Y-90000000D03*
X138275000Y-89500000D03*
X138275000Y-89000000D03*
X138275000Y-88500000D03*
X138275000Y-88000000D03*
X138275000Y-87500000D03*
X138275000Y-87000000D03*
X138275000Y-86500000D03*
X138275000Y-86000000D03*
X138275000Y-85500000D03*
X138275000Y-85000000D03*
D22*
X136600000Y-83325000D03*
X136100000Y-83325000D03*
X135600000Y-83325000D03*
X135100000Y-83325000D03*
X134600000Y-83325000D03*
X134100000Y-83325000D03*
X133600000Y-83325000D03*
X133100000Y-83325000D03*
X132600000Y-83325000D03*
X132100000Y-83325000D03*
X131600000Y-83325000D03*
X131100000Y-83325000D03*
X130600000Y-83325000D03*
X130100000Y-83325000D03*
X129600000Y-83325000D03*
X129100000Y-83325000D03*
X128600000Y-83325000D03*
X128100000Y-83325000D03*
X127600000Y-83325000D03*
X127100000Y-83325000D03*
X126600000Y-83325000D03*
X126100000Y-83325000D03*
X125600000Y-83325000D03*
X125100000Y-83325000D03*
X124600000Y-83325000D03*
%TD*%
D23*
%TO.C,C13*%
X108025000Y-90400000D03*
X109575000Y-90400000D03*
%TD*%
D24*
%TO.C,C10*%
X95850000Y-95475000D03*
X95850000Y-93925000D03*
%TD*%
D25*
%TO.C,C9*%
X96000000Y-97800000D03*
X96000000Y-99350000D03*
%TD*%
D19*
%TO.C,C25*%
X130140000Y-104005000D03*
X130140000Y-104695000D03*
%TD*%
%TO.C,C4*%
X123388508Y-80657761D03*
X123388508Y-79967761D03*
%TD*%
D26*
%TO.C,C20*%
X138000000Y-104545000D03*
X138000000Y-103855000D03*
%TD*%
D27*
%TO.C,U3*%
X101800000Y-86000000D03*
D28*
X101725000Y-86537500D03*
D27*
X101800000Y-87075000D03*
X103500000Y-87075000D03*
D28*
X103575000Y-86537500D03*
D27*
X103500000Y-86000000D03*
%TD*%
D29*
%TO.C,U4*%
X126815000Y-103250000D03*
X126815000Y-103750000D03*
X126815000Y-104250000D03*
X126815000Y-104750000D03*
D30*
X127327500Y-104762500D03*
X127827500Y-104762500D03*
D29*
X128340000Y-104750000D03*
X128340000Y-104250000D03*
X128340000Y-103750000D03*
X128340000Y-103250000D03*
D30*
X127827500Y-103237500D03*
X127327500Y-103237500D03*
%TD*%
D31*
%TO.C,C15*%
X138000000Y-82600000D03*
X138690000Y-82600000D03*
%TD*%
%TO.C,C1*%
X120855000Y-98200000D03*
X121545000Y-98200000D03*
%TD*%
D19*
%TO.C,C26*%
X129340000Y-103205000D03*
X129340000Y-103895000D03*
%TD*%
D31*
%TO.C,C24*%
X130181567Y-103198379D03*
X130871567Y-103198379D03*
%TD*%
D32*
%TO.C,J1*%
X97544052Y-83500000D03*
X97544052Y-84000000D03*
X97544052Y-84500000D03*
X97544052Y-85000000D03*
X97544052Y-85500000D03*
X97544052Y-86000000D03*
X97544052Y-87000000D03*
X97544052Y-87500000D03*
X97544052Y-88000000D03*
X97544052Y-88500000D03*
X97544052Y-89000000D03*
X97544052Y-89500000D03*
D33*
X96244052Y-89600000D03*
D32*
X96244052Y-88750000D03*
X96244052Y-88250000D03*
X96244052Y-87750000D03*
X96244052Y-87250000D03*
X96244052Y-86750000D03*
X96244052Y-86250000D03*
X96244052Y-85750000D03*
X96244052Y-85250000D03*
X96244052Y-84750000D03*
X96244052Y-84250000D03*
D33*
X96244052Y-83400000D03*
%TD*%
D31*
%TO.C,C2*%
X120855000Y-99000000D03*
X121545000Y-99000000D03*
%TD*%
D17*
%TO.C,FB1*%
X122945000Y-99800000D03*
X122255000Y-99800000D03*
%TD*%
D34*
%TO.C,U5*%
X132037500Y-78837500D03*
X132037500Y-79337500D03*
D35*
X132300000Y-79850000D03*
X132800000Y-79850000D03*
X133300000Y-79850000D03*
D34*
X133562500Y-79337500D03*
X133562500Y-78837500D03*
D35*
X133300000Y-78325000D03*
X132800000Y-78325000D03*
X132300000Y-78325000D03*
%TD*%
D36*
%TO.C,U2*%
X98300000Y-93300000D03*
X98300000Y-95600000D03*
D37*
X104600000Y-95600000D03*
D36*
X98300000Y-97900000D03*
%TD*%
D31*
%TO.C,C27*%
X132255000Y-77050000D03*
X132945000Y-77050000D03*
%TD*%
D23*
%TO.C,C11*%
X106545000Y-84000000D03*
X108095000Y-84000000D03*
%TD*%
%TO.C,C12*%
X109545000Y-84000000D03*
X111095000Y-84000000D03*
%TD*%
D17*
%TO.C,C6*%
X120910000Y-80790074D03*
X121600000Y-80790074D03*
%TD*%
%TO.C,C7*%
X120919925Y-81653579D03*
X121609925Y-81653579D03*
%TD*%
D31*
%TO.C,C23*%
X127895000Y-105750000D03*
X128585000Y-105750000D03*
%TD*%
D38*
%TO.C,R1*%
X106384585Y-86926910D03*
X106384585Y-88576910D03*
%TD*%
D17*
%TO.C,C22*%
X136745000Y-106400000D03*
X136055000Y-106400000D03*
%TD*%
D20*
%TO.C,C19*%
X114600000Y-92720000D03*
X114600000Y-93680000D03*
%TD*%
D19*
%TO.C,C3*%
X124388508Y-80657761D03*
X124388508Y-79967761D03*
%TD*%
D31*
%TO.C,C14*%
X138000000Y-81800000D03*
X138690000Y-81800000D03*
%TD*%
D19*
%TO.C,D1*%
X105000000Y-85655000D03*
X105000000Y-86345000D03*
%TD*%
M02*
