M48
; DRILL file {KiCad 8.0.6} date 2024-11-04T20:58:44-0500
; FORMAT={-:-/ absolute / metric / decimal}
; #@! TF.CreationDate,2024-11-04T20:58:44-05:00
; #@! TF.GenerationSoftware,Kicad,Pcbnew,8.0.6
; #@! TF.FileFunction,Plated,1,4,PTH
FMAT,2
METRIC
; #@! TA.AperFunction,Plated,PTH,ViaDrill
T1C0.300
; #@! TA.AperFunction,Plated,PTH,ComponentDrill
T2C0.600
; #@! TA.AperFunction,Plated,PTH,ComponentDrill
T3C1.000
; #@! TA.AperFunction,Plated,PTH,ComponentDrill
T4C2.200
%
G90
G05
T1
X95.629Y-105.997
X98.8Y-77.8
X99.212Y-87.627
X100.0Y-85.0
X100.167Y-87.1
X100.8Y-101.0
X101.4Y-89.8
X104.0Y-85.0
X104.0Y-88.2
X105.976Y-104.224
X106.5Y-100.875
X108.624Y-105.176
X110.2Y-82.896
X112.6Y-91.0
X114.25Y-105.2
X115.6Y-105.8
X116.2Y-106.4
X116.8Y-83.0
X118.65Y-104.0
X118.8Y-101.5
X120.2Y-89.8
X123.4Y-98.8
X124.4Y-89.2
X124.4Y-96.0
X124.5Y-94.5
X124.6Y-81.4
X124.8Y-90.6
X125.0Y-92.8
X125.8Y-84.8
X127.237Y-101.375
X128.025Y-93.0
X128.1Y-85.4
X129.09Y-105.025
X129.4Y-86.2
X130.6Y-81.4
X130.775Y-77.725
X130.85Y-102.425
X130.875Y-93.075
X130.93Y-104.14
X131.086Y-101.65
X131.2Y-80.6
X134.0Y-76.6
X136.0Y-100.4
X136.524Y-87.124
X137.8Y-99.2
X138.8Y-83.8
X139.8Y-84.6
X139.8Y-87.4
T3
X92.4Y-95.135
X92.4Y-97.675
X120.78Y-77.0
X123.32Y-77.0
X125.86Y-77.0
X128.4Y-77.0
X136.325Y-77.4
X138.865Y-77.4
X144.2Y-82.0
X144.2Y-84.54
X144.2Y-87.08
X144.2Y-89.62
T4
X92.4Y-78.0
X92.4Y-105.0
X143.4Y-78.0
X143.4Y-105.0
T2
G00X92.524Y-82.18
M15
G01X91.024Y-82.18
M16
G05
G00X92.524Y-90.82
M15
G01X91.024Y-90.82
M16
G05
G00X97.634Y-82.18
M15
G01X96.634Y-82.18
M16
G05
G00X97.634Y-90.82
M15
G01X96.634Y-90.82
M16
G05
M30
